<?xml version="1.0" standalone="no"?>
<!DOCTYPE svg PUBLIC "-//W3C//DTD SVG 1.1//EN" "http://www.w3.org/Graphics/SVG/1.1/DTD/svg11.dtd" >
<svg xmlns="http://www.w3.org/2000/svg" xmlns:xlink="http://www.w3.org/1999/xlink" version="1.1">
<metadata>
Created by FontForge 20161116 at Mon Dec 14 23:12:38 2015
 By Jimmy Wärting
Copyright (c) 2014 by Reza Bakhtiarifard. All rights reserved.
</metadata>
<defs>
<font id="Omid-Light" horiz-adv-x="0" >
  <font-face 
    font-family="Omid"
    font-weight="300"
    font-stretch="normal"
    units-per-em="1000"
    panose-1="1 0 5 4 0 0 0 2 0 4"
    ascent="800"
    descent="-200"
    bbox="-210 -501 1346 948"
    underline-thickness="50"
    underline-position="-100"
    unicode-range="U+000A-FFFC"
  />
<missing-glyph horiz-adv-x="445" 
d="M100 52h242v509h-242v-509zM93 614h255q18 0 30.5 -13t12.5 -30v-528q0 -18 -12.5 -30.5t-30.5 -12.5h-255q-18 0 -30.5 12.5t-12.5 30.5v528q0 17 12.5 30t30.5 13z" />
    <glyph glyph-name="allah" unicode="&#x627;&#xfedf;&#xfee0;&#xfeea;" horiz-adv-x="1088" arabic-form="isolated" 
d="M423 65q48 0 76.5 22.5t28.5 70.5q0 99 -6 249l58 34l7 -200q4 -96 34.5 -136t85.5 -40q88 0 126 71q0 77 -24 178t-71 199l54 48q97 -243 97 -376q0 -89 -53.5 -142t-135.5 -53q-53 0 -86.5 26.5t-48.5 61.5q-40 -88 -141 -88q-91 0 -129 73l-10 -29q-39 -4 -58 -4
q-55 0 -92.5 10.5t-54.5 29.5t-23.5 37.5t-6.5 43.5q0 53 51.5 113.5t164.5 118.5l-1 75l58 30l4 -308q1 -58 26.5 -86.5t69.5 -28.5zM215 105q19 0 63 2q-9 35 -9 75l-2 124q-75 -34 -118.5 -78t-43.5 -69q0 -11 8 -22t34.5 -21.5t67.5 -10.5zM612 671l30 19q18 -39 18 -80
q0 -29 -13 -51.5t-39 -22.5q-25 0 -47 11.5t-28 24.5q-23 -47 -68 -47q-29 0 -47 21t-18 53q0 28 16 59l25 -9q-12 -24 -12 -47q0 -39 37 -39q50 0 52 79l26 8q0 -76 65 -76q13 0 17 5.5t4 20.5q0 28 -18 71zM547 700l-28 6q4 25 4 46q0 40 -9 118l34 18q5 -73 5 -117
q0 -40 -6 -71zM960 666l61 36q17 -286 17 -439q0 -170 -29 -273l-52 10q22 116 22 234q0 188 -19 432z" />
    <glyph glyph-name="rial" unicode="&#x631;&#xfbfe;&#xfe8e;&#x644;" horiz-adv-x="1301" arabic-form="isolated" 
d="M815 316l-29 21q58 87 58 124q0 33 -59 112l41 46q57 -89 57 -141q0 -62 -68 -162zM993 157q0 82 -37 185l65 41q31 -96 31 -191q0 -88 -51 -140t-143 -52h-72q-15 0 -26.5 11t-11.5 26q0 16 11.5 27t26.5 11h49q87 0 122.5 24.5t35.5 57.5zM584 650l61 52
q24 -90 24 -260v-217q0 -83 26 -116.5t91 -33.5v-75q-94 0 -134 50t-40 170v206q0 125 -28 224zM542 18q0 -94 -77 -157.5t-175 -63.5q-118 0 -179 74.5t-61 187.5q0 91 31 186l51 -13q-24 -82 -24 -155q0 -92 45.5 -148t138.5 -56q81 0 136 43t55 93q0 89 -9 332.5
t-15 324.5l61 36q4 -84 13 -354.5t9 -329.5zM607 -87q33 -18 59 -47q-16 -28 -47 -59q-24 14 -59 47q17 29 47 59zM752 -87q33 -18 59 -47q-20 -33 -48 -59q-23 14 -58 47q16 30 47 59zM1192 25q0 102 -54 266l58 39q55 -143 55 -268q0 -119 -62.5 -192t-153.5 -73
q-32 0 -65.5 15.5t-51.5 30.5l-18 15l29 41q47 -27 101 -27q44 0 77.5 18.5t50.5 45.5t25.5 50t8.5 39z" />
    <glyph glyph-name="la.aa" unicode="&#xfedf;&#xfe82;" horiz-adv-x="460" arabic-form="isolated" 
d="M263 741v-55q-51 -37 -105 -37q-26 0 -60 9.5t-46 9.5q-17 0 -28.5 -8t-33.5 -32l-30 29q29 41 49 57t44 16q17 0 51 -10.5t59 -10.5q39 0 100 32zM395 540q0 -153 -58 -250q73 -102 73 -163q0 -60 -39 -98.5t-126 -38.5q-118 0 -187 12l11 86q3 3 18 15.5t20 17
t19.5 17.5t21.5 19.5t20 19t21 21t20 21t20.5 22.5t18.5 22.5t18 24.5q-89 113 -217 221l27 66q151 -148 222 -234q38 73 38 144q0 122 -6 180l61 37q4 -120 4 -162zM301 239q-54 -69 -171 -169q55 -5 113 -5q40 0 74 12.5t43 35.5q0 40 -59 126z" />
    <glyph glyph-name="la.aa.fina" unicode="&#xfee0;&#xfe82;" horiz-adv-x="530" arabic-form="final" 
d="M78 562l54 40q93 -320 107 -514q116 52 116 144q0 164 -18 434l61 36q3 -60 10 -257t7 -204q4 -94 30 -130t85 -36v-75q-59 0 -99 31.5t-58 85.5q-28 -49 -91.5 -85t-149.5 -52l-42 67q61 10 101 22q-9 103 -41.5 244t-71.5 249zM263 741v-55q-51 -37 -105 -37
q-26 0 -60 9.5t-46 9.5q-17 0 -28.5 -8t-33.5 -32l-30 29q29 41 49 57t44 16q17 0 51 -10.5t59 -10.5q39 0 100 32z" />
    <glyph glyph-name="la.thmz" unicode="&#xfedf;&#xfe84;" horiz-adv-x="462" arabic-form="isolated" 
d="M-6 624l-4 37l64 43q-58 21 -58 67q0 47 27 76t60 29q21 0 40.5 -11t28.5 -21l10 -11l-19 -24q-27 24 -56 24q-23 0 -41.5 -17t-18.5 -30q0 -15 18.5 -32t55.5 -17q29 0 87 29l2 -39q-114 -56 -196 -103zM397 540q0 -153 -58 -250q73 -102 73 -163q0 -60 -39 -98.5
t-126 -38.5q-118 0 -187 12l11 86q3 3 18 15.5t20 17t19.5 17.5t21.5 19.5t20 19t21 21t20 21t20.5 22.5t18.5 22.5t18 24.5q-89 113 -217 221l27 66q151 -148 222 -234q38 73 38 144q0 122 -6 180l61 37q4 -120 4 -162zM303 239q-54 -69 -171 -169q55 -5 113 -5
q40 0 74 12.5t43 35.5q0 40 -59 126z" />
    <glyph glyph-name="la.thmz.fina" unicode="&#xfee0;&#xfe84;" horiz-adv-x="532" arabic-form="final" 
d="M80 562l54 40q93 -320 107 -514q116 52 116 144q0 164 -18 434l61 36q3 -60 10 -257t7 -204q4 -94 30 -130t85 -36v-75q-59 0 -99 31.5t-58 85.5q-28 -49 -91.5 -85t-149.5 -52l-42 67q61 10 101 22q-9 103 -41.5 244t-71.5 249zM-6 624l-4 37l64 43q-58 21 -58 67
q0 47 27 76t60 29q21 0 40.5 -11t28.5 -21l10 -11l-19 -24q-27 24 -56 24q-23 0 -41.5 -17t-18.5 -30q0 -15 18.5 -32t55.5 -17q29 0 87 29l2 -39q-114 -56 -196 -103z" />
    <glyph glyph-name="la.bhmz" unicode="&#xfedf;&#xfe88;" horiz-adv-x="462" arabic-form="isolated" 
d="M108 -337l-4 37l64 44q-25 8 -41.5 26t-16.5 40q0 47 27 76t60 29q21 0 40.5 -10.5t28.5 -21.5l10 -11l-19 -24q-27 24 -56 24q-23 0 -41.5 -17t-18.5 -30q0 -15 18.5 -32t55.5 -17q29 0 87 29l2 -39q-114 -56 -196 -103zM397 540q0 -153 -58 -250q73 -102 73 -163
q0 -60 -39 -98.5t-126 -38.5q-118 0 -187 12l11 86q3 3 18 15.5t20 17t19.5 17.5t21.5 19.5t20 19t21 21t20 21t20.5 22.5t18.5 22.5t18 24.5q-89 113 -217 221l27 66q151 -148 222 -234q38 73 38 144q0 122 -6 180l61 37q4 -120 4 -162zM303 239q-54 -69 -171 -169
q55 -5 113 -5q40 0 74 12.5t43 35.5q0 40 -59 126z" />
    <glyph glyph-name="la.bhmz.fina" unicode="&#xfee0;&#xfe88;" horiz-adv-x="532" arabic-form="final" 
d="M80 562l54 40q93 -320 107 -514q116 52 116 144q0 164 -18 434l61 36q3 -60 10 -257t7 -204q4 -94 30 -130t85 -36v-75q-59 0 -99 31.5t-58 85.5q-28 -49 -91.5 -85t-149.5 -52l-42 67q61 10 101 22q-9 103 -41.5 244t-71.5 249zM119 -337l-4 37l64 44q-25 8 -41.5 26
t-16.5 40q0 47 27 76t60 29q21 0 40.5 -10.5t29.5 -21.5l9 -11l-19 -24q-27 24 -56 24q-23 0 -41.5 -17t-18.5 -30q0 -15 18.5 -32t55.5 -17q29 0 87 29l2 -39q-114 -56 -196 -103z" />
    <glyph glyph-name="la" unicode="&#xfedf;&#xfe8e;" horiz-adv-x="462" arabic-form="isolated" 
d="M397 540q0 -153 -58 -250q73 -102 73 -163q0 -60 -39 -98.5t-126 -38.5q-118 0 -187 12l11 86q3 3 18 15.5t20 17t19.5 17.5t21.5 19.5t20 19t21 21t20 21t20.5 22.5t18.5 22.5t18 24.5q-89 113 -217 221l27 66q151 -148 222 -234q38 73 38 144q0 122 -6 180l61 37
q4 -120 4 -162zM303 239q-54 -69 -171 -169q55 -5 113 -5q40 0 74 12.5t43 35.5q0 40 -59 126z" />
    <glyph glyph-name="la.fina" unicode="&#xfee0;&#xfe8e;" horiz-adv-x="532" arabic-form="final" 
d="M80 562l54 40q93 -320 107 -514q116 52 116 144q0 164 -18 434l61 36q3 -60 10 -257t7 -204q4 -94 30 -130t85 -36v-75q-59 0 -99 31.5t-58 85.5q-28 -49 -91.5 -85t-149.5 -52l-42 67q61 10 101 22q-9 103 -41.5 244t-71.5 249z" />
    <glyph glyph-name="la.tvasla" unicode="&#xfedf;&#xfb51;" horiz-adv-x="460" 
d="M-40 633l-25 16q37 63 51 63q6 0 30 -6q26 37 43.5 57.5t48 41t61.5 20.5q38 0 60 -24t22 -57q0 -43 -30 -68.5t-93 -25.5q-72 0 -136 22zM162 783q-54 0 -116 -85q35 -7 79 -7q91 0 91 42q0 23 -14 36.5t-40 13.5zM395 540q0 -153 -58 -250q73 -102 73 -163
q0 -60 -39 -98.5t-126 -38.5q-118 0 -187 12l11 86q3 3 18 15.5t20 17t19.5 17.5t21.5 19.5t20 19t21 21t20 21t20.5 22.5t18.5 22.5t18 24.5q-89 113 -217 221l27 66q151 -148 222 -234q38 73 38 144q0 122 -6 180l61 37q4 -120 4 -162zM301 239q-54 -69 -171 -169
q55 -5 113 -5q40 0 74 12.5t43 35.5q0 40 -59 126z" />
    <glyph glyph-name="la.tvasla.fina" unicode="&#xfee0;&#xfb51;" horiz-adv-x="530" 
d="M78 562l54 40q93 -320 107 -514q116 52 116 144q0 164 -18 434l61 36q3 -60 10 -257t7 -204q4 -94 30 -130t85 -36v-75q-59 0 -99 31.5t-58 85.5q-28 -49 -91.5 -85t-149.5 -52l-42 67q61 10 101 22q-9 103 -41.5 244t-71.5 249zM-40 633l-25 16q37 63 51 63q6 0 30 -6
q26 37 43.5 57.5t48 41t61.5 20.5q38 0 60 -24t22 -57q0 -43 -30 -68.5t-93 -25.5q-72 0 -136 22zM162 783q-54 0 -116 -85q35 -7 79 -7q91 0 91 42q0 23 -14 36.5t-40 13.5z" />
    <glyph glyph-name="lellah" unicode="&#xfedf;&#x650;&#xfee0;&#x654;&#xfeea;" horiz-adv-x="939" 
d="M423 65q48 0 76.5 22.5t28.5 70.5q0 99 -6 249l58 34l7 -200q4 -96 34.5 -136t85.5 -40q88 0 126 71q0 77 -24 178t-71 199l54 48q97 -243 97 -376q0 -89 -53.5 -142t-135.5 -53q-53 0 -86.5 26.5t-48.5 61.5q-40 -88 -141 -88q-91 0 -129 73l-10 -29q-39 -4 -58 -4
q-55 0 -92.5 10.5t-54.5 29.5t-23.5 37.5t-6.5 43.5q0 53 51.5 113.5t164.5 118.5l-1 75l58 30l4 -308q1 -58 26.5 -86.5t69.5 -28.5zM215 105q19 0 63 2q-9 35 -9 75l-2 124q-75 -34 -118.5 -78t-43.5 -69q0 -11 8 -22t34.5 -21.5t67.5 -10.5zM612 671l30 19q18 -39 18 -80
q0 -29 -13 -51.5t-39 -22.5q-25 0 -47 11.5t-28 24.5q-23 -47 -68 -47q-29 0 -47 21t-18 53q0 28 16 59l25 -9q-12 -24 -12 -47q0 -39 37 -39q50 0 52 79l26 8q0 -76 65 -76q13 0 17 5.5t4 20.5q0 28 -18 71zM547 700l-28 6q4 25 4 46q0 40 -9 118l34 18q5 -73 5 -117
q0 -40 -6 -71z" />
    <glyph glyph-name="falellah" unicode="&#xfed3;&#x64e;&#xfee0;&#x650;&#xfee0;&#x654;&#xfeea;" horiz-adv-x="1360" 
d="M798 569l59 36q16 -349 17 -364q4 -94 30 -130t85 -36q156 0 203.5 20.5t53.5 98.5q-53 -12 -103 -12q-63 0 -102 33.5t-39 106.5q0 70 38 130.5t110 60.5t116 -76.5t44 -179.5q0 -54 -9 -94.5t-21.5 -68t-38.5 -46t-46.5 -28t-61 -14t-67 -5.5t-77.5 -1q-90 0 -138 75
q-43 -85 -143 -85q-105 0 -143 88q-40 -88 -141 -88q-91 0 -129 73l-10 -29q-39 -4 -58 -4q-55 0 -92.5 10.5t-54.5 29.5t-23.5 37.5t-6.5 43.5q0 53 51.5 113.5t164.5 118.5l-1 75l58 30l4 -308q1 -58 26.5 -86.5t69.5 -28.5q48 0 76.5 22.5t28.5 70.5q0 99 -6 249l58 34
l7 -200q4 -96 34 -136t85 -40q109 0 109 99q0 154 -17 405zM1143 257q58 0 104 10q-6 68 -35 119.5t-73 51.5q-34 0 -56.5 -32t-22.5 -74q0 -75 83 -75zM215 105q19 0 63 2q-9 35 -9 75l-2 124q-75 -34 -118.5 -78t-43.5 -69q0 -11 8 -22t34.5 -21.5t67.5 -10.5zM632 671
l30 19q18 -39 18 -80q0 -29 -13 -51.5t-39 -22.5q-25 0 -47 11.5t-28 24.5q-23 -47 -68 -47q-29 0 -47 21t-18 53q0 28 16 59l25 -9q-12 -24 -12 -47q0 -39 37 -39q50 0 52 79l26 8q0 -76 65 -76q13 0 17 5.5t4 20.5q0 28 -18 71zM567 700l-28 6q4 25 4 46q0 40 -9 118
l34 18q5 -73 5 -117q0 -40 -6 -71zM1124 686q31 -17 64 -52q-17 -32 -51 -64q-28 16 -65 51q15 24 52 65z" />
    <glyph glyph-name="hmz" unicode="&#x621;" horiz-adv-x="397" arabic-form="isolated" 
d="M56 -34l-5 53l100 63q-92 35 -92 103q0 70 40 113t89 43q31 0 60.5 -16t43.5 -32l13 -16l-25 -36q-43 39 -91 39q-30 0 -59.5 -26.5t-29.5 -46.5q0 -21 30 -48t82 -27q43 0 132 48l3 -61q-158 -76 -291 -153z" />
    <glyph glyph-name="alef.aa" unicode="&#x622;" horiz-adv-x="228" arabic-form="isolated" 
d="M84 564l61 36q13 -219 13 -337q0 -170 -29 -273l-52 10q22 116 22 234q0 137 -15 330zM253 760v-55q-51 -37 -105 -37q-26 0 -60 9.5t-46 9.5q-17 0 -28.5 -8t-33.5 -32l-30 29q29 41 49 57t44 16q17 0 51 -10.5t59 -10.5q39 0 100 32z" />
    <glyph glyph-name="alef.thmz" unicode="&#x623;" horiz-adv-x="210" arabic-form="isolated" 
d="M70 564l61 36q13 -219 13 -337q0 -170 -29 -273l-52 10q22 116 22 234q0 137 -15 330zM9 618l-4 37l64 43q-58 21 -58 67q0 47 27 76t60 29q21 0 40.5 -11t29.5 -21l9 -11l-19 -24q-27 24 -56 24q-23 0 -41.5 -17t-18.5 -30q0 -15 18.5 -32t55.5 -17q29 0 87 29l2 -39
q-114 -56 -196 -103z" />
    <glyph glyph-name="vav.thmz" unicode="&#x624;" horiz-adv-x="429" arabic-form="isolated" 
d="M97 380l-4 37l64 43q-58 21 -58 67q0 47 27 76t60 29q21 0 40.5 -11t29.5 -21l9 -11l-19 -24q-27 24 -56 24q-23 0 -41.5 -17t-18.5 -30q0 -15 18.5 -32t55.5 -17q29 0 87 29l2 -39q-114 -56 -196 -103zM63 131q0 48 14 89.5t50 72t88 30.5q77 0 120.5 -79t43.5 -206
q0 -126 -67.5 -198.5t-161.5 -72.5q-32 0 -66 15.5t-52 30.5l-17 15l29 41q47 -27 101 -27q46 0 82.5 19t55 46.5t28 51.5t9.5 41v7q-66 -17 -109 -17q-148 0 -148 141zM211 65q52 0 104 13q-9 72 -35.5 121t-75.5 49q-39 0 -61.5 -30.5t-22.5 -76.5q0 -44 23 -60t68 -16z
" />
    <glyph glyph-name="alef.bhmz" unicode="&#x625;" horiz-adv-x="185" arabic-form="isolated" 
d="M57 666l61 36q17 -286 17 -439q0 -170 -29 -273l-52 10q22 116 22 234q0 188 -19 432zM-11 -329l-4 37l64 44q-25 8 -41.5 26t-16.5 40q0 47 27 76t60 29q21 0 40.5 -10.5t29.5 -21.5l9 -11l-19 -24q-27 24 -56 24q-23 0 -41.5 -17t-18.5 -30q0 -15 18.5 -32t55.5 -17
q29 0 87 29l2 -39q-114 -56 -196 -103z" />
    <glyph glyph-name="ye.thmz" unicode="&#x626;" horiz-adv-x="675" arabic-form="isolated" 
d="M319 -118q89 0 161.5 45.5t87.5 97.5q-20 10 -68.5 18t-88.5 14.5t-72.5 28t-32.5 57.5q0 81 60 161t128 80t131 -86l-38 -36q-49 47 -92 47q-44 0 -88.5 -51t-44.5 -95q0 -21 41 -33t90.5 -16.5t90.5 -22t41 -48.5q0 -92 -94 -164t-221 -72q-133 0 -197.5 73.5
t-64.5 188.5q0 91 31 186l51 -13q-24 -82 -24 -155q0 -205 213 -205zM144 300l-4 37l64 43q-58 21 -58 67q0 47 27 76t60 29q21 0 40.5 -11t28.5 -21l10 -11l-19 -24q-27 24 -56 24q-23 0 -41.5 -17t-18.5 -30q0 -15 18.5 -32t55.5 -17q29 0 87 29l2 -39q-114 -56 -196 -103
z" />
    <glyph glyph-name="alef" unicode="&#x627;" horiz-adv-x="183" arabic-form="isolated" 
d="M55 666l61 36q17 -286 17 -439q0 -170 -29 -273l-52 10q22 116 22 234q0 188 -19 432z" />
    <glyph glyph-name="be" unicode="&#x628;" horiz-adv-x="790" arabic-form="isolated" 
d="M337 65q88 0 156 7.5t108 21t60 29.5t20 34q0 82 -37 185l65 41q31 -96 31 -191q0 -43 -14 -76.5t-42.5 -55t-62.5 -36t-82.5 -22t-95 -10t-106.5 -2.5q-75 0 -129.5 13.5t-84 33t-47 50t-22 55.5t-4.5 58q0 26 3.5 60.5t6.5 56.5l4 22l52 -7q-10 -67 -10 -111
q0 -80 49.5 -118t181.5 -38zM380 -100q33 -19 64 -52q-18 -31 -51 -64q-28 14 -65 51q19 30 52 65z" />
    <glyph glyph-name="te.marbuta" unicode="&#x629;" horiz-adv-x="446" arabic-form="isolated" 
d="M50 140q0 99 106 231l-31 23l40 64q221 -176 221 -312q0 -80 -54 -118t-133 -38q-63 0 -106 38.5t-43 111.5zM329 131q0 93 -129 204q-46 -54 -69 -95.5t-23 -88.5q0 -40 24.5 -63t69.5 -23q60 0 93.5 19t33.5 47zM122 626q33 -18 59 -47q-17 -29 -48 -59q-23 15 -58 48
q18 29 47 58zM266 626q34 -18 60 -47q-20 -33 -48 -59q-21 13 -58 48q16 28 46 58z" />
    <glyph glyph-name="te" unicode="&#x62a;" horiz-adv-x="790" arabic-form="isolated" 
d="M337 65q88 0 156 7.5t108 21t60 29.5t20 34q0 82 -37 185l65 41q31 -96 31 -191q0 -43 -14 -76.5t-42.5 -55t-62.5 -36t-82.5 -22t-95 -10t-106.5 -2.5q-75 0 -129.5 13.5t-84 33t-47 50t-22 55.5t-4.5 58q0 26 3.5 60.5t6.5 56.5l4 22l52 -7q-10 -67 -10 -111
q0 -80 49.5 -118t181.5 -38zM297 406q33 -18 59 -47q-17 -29 -48 -59q-23 15 -58 48q18 29 47 58zM441 406q34 -18 60 -47q-20 -33 -48 -59q-21 13 -58 48q16 28 46 58z" />
    <glyph glyph-name="the" unicode="&#x62b;" horiz-adv-x="790" arabic-form="isolated" 
d="M337 65q88 0 156 7.5t108 21t60 29.5t20 34q0 82 -37 185l65 41q31 -96 31 -191q0 -43 -14 -76.5t-42.5 -55t-62.5 -36t-82.5 -22t-95 -10t-106.5 -2.5q-75 0 -129.5 13.5t-84 33t-47 50t-22 55.5t-4.5 58q0 26 3.5 60.5t6.5 56.5l4 22l52 -7q-10 -67 -10 -111
q0 -80 49.5 -118t181.5 -38zM302 406q33 -18 59 -47q-17 -29 -48 -59q-23 15 -58 48q18 29 47 58zM446 406q34 -18 60 -47q-20 -33 -48 -59q-21 13 -58 48q16 28 46 58zM371 522q33 -18 59 -47q-17 -32 -47 -60q-24 15 -59 48q17 29 47 59z" />
    <glyph glyph-name="jim" unicode="&#x62c;" horiz-adv-x="595" arabic-form="isolated" 
d="M401 249q-21 6 -94.5 43t-105.5 37q-41 0 -106 -114l-45 28q43 88 81.5 124.5t78.5 36.5q35 0 85.5 -28t116.5 -59t136 -36l-24 -72q-100 -16 -178.5 -50.5t-126.5 -79.5t-73 -96.5t-25 -105.5q0 -83 67 -138t189 -55q81 0 178 21l-16 -76q-94 -20 -170 -20
q-148 0 -225.5 76t-77.5 190q0 118 83.5 217t251.5 157zM328 -20q33 -19 64 -52q-18 -31 -51 -64q-28 14 -65 51q19 30 52 65z" />
    <glyph glyph-name="him" unicode="&#x62d;" horiz-adv-x="595" arabic-form="isolated" 
d="M401 249q-21 6 -94.5 43t-105.5 37q-41 0 -106 -114l-45 28q43 88 81.5 124.5t78.5 36.5q35 0 85.5 -28t116.5 -59t136 -36l-24 -72q-100 -16 -178.5 -50.5t-126.5 -79.5t-73 -96.5t-25 -105.5q0 -83 67 -138t189 -55q81 0 178 21l-16 -76q-94 -20 -170 -20
q-148 0 -225.5 76t-77.5 190q0 118 83.5 217t251.5 157z" />
    <glyph glyph-name="khe" unicode="&#x62e;" horiz-adv-x="595" arabic-form="isolated" 
d="M401 249q-21 6 -94.5 43t-105.5 37q-41 0 -106 -114l-45 28q43 88 81.5 124.5t78.5 36.5q35 0 85.5 -28t116.5 -59t136 -36l-24 -72q-100 -16 -178.5 -50.5t-126.5 -79.5t-73 -96.5t-25 -105.5q0 -83 67 -138t189 -55q81 0 178 21l-16 -76q-94 -20 -170 -20
q-148 0 -225.5 76t-77.5 190q0 118 83.5 217t251.5 157zM201 631q31 -17 64 -52q-17 -32 -51 -64q-28 16 -65 51q15 24 52 65z" />
    <glyph glyph-name="dal" unicode="&#x62f;" horiz-adv-x="459" arabic-form="isolated" 
d="M409 163q0 -82 -54 -127.5t-156 -45.5q-159 0 -159 143q0 24 4 64l52 -4q-1 -11 -1 -46q0 -45 24 -63.5t90 -18.5q61 0 101 22t40 47q0 113 -150 263l46 61q68 -74 115.5 -157t47.5 -138z" />
    <glyph glyph-name="zal" unicode="&#x630;" horiz-adv-x="459" arabic-form="isolated" 
d="M409 163q0 -82 -54 -127.5t-156 -45.5q-159 0 -159 143q0 24 4 64l52 -4q-1 -11 -1 -46q0 -45 24 -63.5t90 -18.5q61 0 101 22t40 47q0 113 -150 263l46 61q68 -74 115.5 -157t47.5 -138zM222 631q31 -17 64 -52q-17 -32 -51 -64q-28 16 -65 51q15 24 52 65z" />
    <glyph glyph-name="re" unicode="&#x631;" horiz-adv-x="281" arabic-form="isolated" 
d="M172 -5q0 102 -54 266l58 39q55 -143 55 -268q0 -119 -62.5 -192t-153.5 -73q-32 0 -65.5 15.5t-51.5 30.5l-18 15l29 41q47 -27 101 -27q44 0 77.5 18.5t50.5 45.5t25.5 50t8.5 39z" />
    <glyph glyph-name="ze" unicode="&#x632;" horiz-adv-x="281" arabic-form="isolated" 
d="M172 -5q0 102 -54 266l58 39q55 -143 55 -268q0 -119 -62.5 -192t-153.5 -73q-32 0 -65.5 15.5t-51.5 30.5l-18 15l29 41q47 -27 101 -27q44 0 77.5 18.5t50.5 45.5t25.5 50t8.5 39zM122 496q31 -17 64 -52q-17 -32 -51 -64q-28 16 -65 51q15 24 52 65z" />
    <glyph glyph-name="sin" unicode="&#x633;" horiz-adv-x="1163" arabic-form="isolated" 
d="M977 -10q-101 0 -152 67q-41 -67 -116 -67q-49 0 -82 22v-19q0 -92 -94 -164t-221 -72q-133 0 -197.5 73.5t-64.5 188.5q0 91 31 186l51 -13q-24 -82 -24 -155q0 -205 213 -205q96 0 171.5 52.5t75.5 104.5q0 32 -18 114t-42 158l59 39l31 -119q16 -60 39.5 -88t64.5 -28
q45 0 70.5 26.5t38.5 81.5q10 40 18 100l54 -5q-18 -109 -18 -134q0 -27 32.5 -48t88.5 -21q37 0 52.5 13.5t15.5 45.5q0 39 -16.5 96t-42.5 102l61 48q23 -41 40 -102.5t17 -119.5q0 -158 -136 -158z" />
    <glyph glyph-name="shin" unicode="&#x634;" horiz-adv-x="1163" arabic-form="isolated" 
d="M977 -10q-101 0 -152 67q-41 -67 -116 -67q-49 0 -82 22v-19q0 -92 -94 -164t-221 -72q-133 0 -197.5 73.5t-64.5 188.5q0 91 31 186l51 -13q-24 -82 -24 -155q0 -205 213 -205q96 0 171.5 52.5t75.5 104.5q0 32 -18 114t-42 158l59 39l31 -119q16 -60 39.5 -88t64.5 -28
q45 0 70.5 26.5t38.5 81.5q10 40 18 100l54 -5q-18 -109 -18 -134q0 -27 32.5 -48t88.5 -21q37 0 52.5 13.5t15.5 45.5q0 39 -16.5 96t-42.5 102l61 48q23 -41 40 -102.5t17 -119.5q0 -158 -136 -158zM718 486q33 -18 59 -47q-17 -29 -48 -59q-23 15 -58 48q18 29 47 58z
M862 486q34 -18 60 -47q-20 -33 -48 -59q-21 13 -58 48q16 28 46 58zM787 602q33 -18 59 -47q-17 -32 -47 -60q-24 15 -59 48q17 29 47 59z" />
    <glyph glyph-name="sad" unicode="&#x635;" horiz-adv-x="1181" arabic-form="isolated" 
d="M627 -7q0 -92 -94 -164t-221 -72q-133 0 -197.5 73.5t-64.5 188.5q0 91 31 186l51 -13q-24 -82 -24 -155q0 -205 213 -205q96 0 171.5 52.5t75.5 104.5q0 32 -18 114t-42 158l59 39l31 -119q13 -47 34 -70q5 7 28 38t33 43.5t33.5 41t38.5 42.5t39.5 34.5t45 30
t46.5 17.5t52 8q84 0 133.5 -57t49.5 -121q0 -35 -10.5 -65.5t-38 -62.5t-86 -51t-142.5 -19q-97 0 -146 8.5t-82 29.5q1 -13 1 -35zM937 291q-108 0 -258 -210q47 -16 162 -16q112 0 171.5 28.5t59.5 69.5q0 51 -37.5 89.5t-97.5 38.5z" />
    <glyph glyph-name="zad" unicode="&#x636;" horiz-adv-x="1181" arabic-form="isolated" 
d="M627 -7q0 -92 -94 -164t-221 -72q-133 0 -197.5 73.5t-64.5 188.5q0 91 31 186l51 -13q-24 -82 -24 -155q0 -205 213 -205q96 0 171.5 52.5t75.5 104.5q0 32 -18 114t-42 158l59 39l31 -119q13 -47 34 -70q5 7 28 38t33 43.5t33.5 41t38.5 42.5t39.5 34.5t45 30
t46.5 17.5t52 8q84 0 133.5 -57t49.5 -121q0 -35 -10.5 -65.5t-38 -62.5t-86 -51t-142.5 -19q-97 0 -146 8.5t-82 29.5q1 -13 1 -35zM937 291q-108 0 -258 -210q47 -16 162 -16q112 0 171.5 28.5t59.5 69.5q0 51 -37.5 89.5t-97.5 38.5zM927 576q31 -17 64 -52
q-17 -32 -51 -64q-28 16 -65 51q15 24 52 65z" />
    <glyph glyph-name="ta" unicode="&#x637;" horiz-adv-x="687" arabic-form="isolated" 
d="M38 91q37 -7 74 -12l52 71q28 45 35 84.5t7 120.5q0 91 -11 311l61 36q8 -152 8 -286q0 -99 -8 -154q100 104 197 104q84 0 133.5 -57t49.5 -121q0 -35 -10.5 -65.5t-38 -62.5t-86 -51t-142.5 -19q-159 0 -310 26zM346 65q112 0 171.5 28.5t59.5 69.5q0 51 -37.5 89.5
t-97.5 38.5q-109 0 -265 -219q69 -7 169 -7z" />
    <glyph glyph-name="za" unicode="&#x638;" horiz-adv-x="687" arabic-form="isolated" 
d="M38 91q37 -7 74 -12l52 71q28 45 35 84.5t7 120.5q0 91 -11 311l61 36q8 -152 8 -286q0 -99 -8 -154q100 104 197 104q84 0 133.5 -57t49.5 -121q0 -35 -10.5 -65.5t-38 -62.5t-86 -51t-142.5 -19q-159 0 -310 26zM346 65q112 0 171.5 28.5t59.5 69.5q0 51 -37.5 89.5
t-97.5 38.5q-109 0 -265 -219q69 -7 169 -7zM440 576q31 -17 64 -52q-17 -32 -51 -64q-28 16 -65 51q15 24 52 65z" />
    <glyph glyph-name="ein" unicode="&#x639;" horiz-adv-x="524" arabic-form="isolated" 
d="M50 -146q0 45 29.5 108.5t92.5 111.5q-43 20 -72.5 57t-29.5 80q0 88 55 145.5t110 57.5q40 0 77.5 -21.5t54.5 -42.5l17 -22l-25 -40q-73 51 -124 51q-43 0 -78.5 -40t-35.5 -78q0 -24 40.5 -59t98.5 -35q29 0 84 11.5t105 29.5l-9 -81q-165 -26 -250 -86.5t-85 -141.5
q0 -74 62 -124.5t194 -50.5q81 0 178 21l-16 -76q-94 -20 -170 -20q-150 0 -226.5 67t-76.5 178z" />
    <glyph glyph-name="qein" unicode="&#x63a;" horiz-adv-x="524" arabic-form="isolated" 
d="M50 -146q0 45 29.5 108.5t92.5 111.5q-43 20 -72.5 57t-29.5 80q0 88 55 145.5t110 57.5q40 0 77.5 -21.5t54.5 -42.5l17 -22l-25 -40q-73 51 -124 51q-43 0 -78.5 -40t-35.5 -78q0 -24 40.5 -59t98.5 -35q29 0 84 11.5t105 29.5l-9 -81q-165 -26 -250 -86.5t-85 -141.5
q0 -74 62 -124.5t194 -50.5q81 0 178 21l-16 -76q-94 -20 -170 -20q-150 0 -226.5 67t-76.5 178zM217 626q31 -17 64 -52q-17 -32 -51 -64q-28 16 -65 51q15 24 52 65z" />
    <glyph glyph-name="fe" unicode="&#x641;" horiz-adv-x="831" arabic-form="isolated" 
d="M337 65q82 0 133 1.5t97 6t70 12t43 21.5t26.5 32t10.5 46q-55 -12 -103 -12q-63 0 -102 33.5t-39 106.5q0 70 38 130.5t110 60.5t116 -76.5t44 -179.5q0 -41 -6 -73.5t-15 -58t-27.5 -44.5t-37 -32t-50 -22.5t-59.5 -14.5t-72.5 -7.5t-82 -3.5t-94.5 -1
q-75 0 -129.5 13.5t-84 33t-47 50t-22 55.5t-4.5 58q0 26 3.5 60.5t6.5 56.5l4 22l52 -7q-10 -67 -10 -111q0 -80 49.5 -118t181.5 -38zM614 247q58 0 104 10q-6 68 -35 119.5t-73 51.5q-34 0 -56.5 -32t-22.5 -74q0 -43 21 -59t62 -16zM602 689q31 -17 64 -52
q-17 -32 -51 -64q-28 16 -65 51q15 24 52 65z" />
    <glyph glyph-name="qaf" unicode="&#x642;" horiz-adv-x="676" arabic-form="isolated" 
d="M567 39q0 13 -1 20q-63 -19 -113 -19q-148 0 -148 141q0 48 14 89.5t50 72t88 30.5q84 0 126.5 -91.5t42.5 -238.5q0 -92 -94 -164t-221 -72q-133 0 -197.5 73.5t-64.5 188.5q0 91 31 186l51 -13q-24 -82 -24 -155q0 -205 213 -205q96 0 171.5 52.5t75.5 104.5zM453 115
q55 0 106 14q-11 71 -38.5 120t-74.5 49q-39 0 -61.5 -30.5t-22.5 -76.5q0 -44 23 -60t68 -16zM347 561q33 -18 59 -47q-17 -29 -48 -59q-23 15 -58 48q18 29 47 58zM491 561q34 -18 60 -47q-20 -33 -48 -59q-21 13 -58 48q16 28 46 58z" />
    <glyph glyph-name="kaf.arab" unicode="&#x643;" horiz-adv-x="794" arabic-form="isolated" 
d="M738 177q0 -96 -93.5 -141.5t-307.5 -45.5q-75 0 -129.5 13.5t-84 33t-47 50t-22 55.5t-4.5 58q0 26 3.5 60.5t6.5 56.5l4 22l52 -7q-10 -67 -10 -111q0 -80 49.5 -118t181.5 -38q342 0 342 97q0 260 -19 504l61 36q17 -343 17 -525zM349 394q0 -11 32.5 -17t65 -16
t32.5 -32q0 -44 -45.5 -75.5t-113.5 -31.5l-25 43q105 0 148 50q-13 7 -48.5 11.5t-57 17t-21.5 42.5q0 38 28 72t59 34q22 0 40.5 -11t26.5 -23l8 -11l-21 -24q-25 24 -53 24q-20 0 -37.5 -19.5t-17.5 -33.5z" />
    <glyph glyph-name="lam" unicode="&#x644;" horiz-adv-x="592" arabic-form="isolated" 
d="M542 18q0 -94 -77 -157.5t-175 -63.5q-118 0 -179 74.5t-61 187.5q0 91 31 186l51 -13q-24 -82 -24 -155q0 -92 45.5 -148t138.5 -56q81 0 136 43t55 93q0 89 -9 332.5t-15 324.5l61 36q4 -84 13 -354.5t9 -329.5z" />
    <glyph glyph-name="mim" unicode="&#x645;" horiz-adv-x="514" arabic-form="isolated" 
d="M50 39q0 47 21 71t62 33q6 63 23 114.5t52 87.5t82 36q68 0 113 -69t66 -183l-33 -65q-117 11 -221 11q-69 0 -89.5 -7t-20.5 -30l44 -294l-50 -38q-49 293 -49 333zM227 150q70 0 181 -9q-19 79 -52.5 122t-70.5 43q-39 0 -65 -42t-33 -115q12 1 40 1z" />
    <glyph glyph-name="nun" unicode="&#x646;" horiz-adv-x="676" arabic-form="isolated" 
d="M570 350q57 -212 57 -307q0 -92 -94 -164t-221 -72q-133 0 -197.5 73.5t-64.5 188.5q0 91 31 186l51 -13q-24 -82 -24 -155q0 -205 213 -205q96 0 171.5 52.5t75.5 104.5q0 34 -17 116t-40 156zM315 218q31 -17 64 -52q-17 -32 -51 -64q-28 16 -65 51q15 24 52 65z" />
    <glyph glyph-name="he" unicode="&#x647;" horiz-adv-x="446" arabic-form="isolated" 
d="M50 140q0 99 106 231l-31 23l40 64q221 -176 221 -312q0 -80 -54 -118t-133 -38q-63 0 -106 38.5t-43 111.5zM329 131q0 93 -129 204q-46 -54 -69 -95.5t-23 -88.5q0 -40 24.5 -63t69.5 -23q60 0 93.5 19t33.5 47z" />
    <glyph glyph-name="vav" unicode="&#x648;" horiz-adv-x="429" arabic-form="isolated" 
d="M63 131q0 48 14 89.5t50 72t88 30.5q77 0 120.5 -79t43.5 -206q0 -126 -67.5 -198.5t-161.5 -72.5q-32 0 -66 15.5t-52 30.5l-17 15l29 41q47 -27 101 -27q46 0 82.5 19t55 46.5t28 51.5t9.5 41v7q-66 -17 -109 -17q-148 0 -148 141zM211 65q52 0 104 13q-9 72 -35.5 121
t-75.5 49q-39 0 -61.5 -30.5t-22.5 -76.5q0 -44 23 -60t68 -16z" />
    <glyph glyph-name="alef.maksura" unicode="&#x649;" horiz-adv-x="675" arabic-form="isolated" 
d="M319 -118q89 0 161.5 45.5t87.5 97.5q-20 10 -68.5 18t-88.5 14.5t-72.5 28t-32.5 57.5q0 81 60 161t128 80t131 -86l-38 -36q-49 47 -92 47q-44 0 -88.5 -51t-44.5 -95q0 -21 41 -33t90.5 -16.5t90.5 -22t41 -48.5q0 -92 -94 -164t-221 -72q-133 0 -197.5 73.5
t-64.5 188.5q0 91 31 186l51 -13q-24 -82 -24 -155q0 -205 213 -205z" />
    <glyph glyph-name="ye.arab" unicode="&#x64a;" horiz-adv-x="675" arabic-form="isolated" 
d="M319 -118q89 0 161.5 45.5t87.5 97.5q-20 10 -68.5 18t-88.5 14.5t-72.5 28t-32.5 57.5q0 81 60 161t128 80t131 -86l-38 -36q-49 47 -92 47q-44 0 -88.5 -51t-44.5 -95q0 -21 41 -33t90.5 -16.5t90.5 -22t41 -48.5q0 -92 -94 -164t-221 -72q-133 0 -197.5 73.5
t-64.5 188.5q0 91 31 186l51 -13q-24 -82 -24 -155q0 -205 213 -205zM248 -241q33 -18 59 -47q-16 -28 -47 -59q-24 14 -59 47q17 29 47 59zM393 -241q33 -18 59 -47q-20 -33 -48 -59q-23 14 -58 47q16 30 47 59z" />
    <glyph glyph-name="alef.vasla" unicode="&#x671;" horiz-adv-x="211" arabic-form="isolated" 
d="M77 564l61 36q13 -219 13 -337q0 -170 -29 -273l-52 10q22 116 22 234q0 137 -15 330zM-35 633l-25 16q37 63 51 63q6 0 30 -6q26 37 43.5 57.5t48 41t61.5 20.5q38 0 60 -24t22 -57q0 -43 -30 -68.5t-93 -25.5q-72 0 -136 22zM167 783q-54 0 -116 -85q35 -7 79 -7
q91 0 91 42q0 23 -14 36.5t-40 13.5z" />
    <glyph glyph-name="pe" unicode="&#x67e;" horiz-adv-x="790" arabic-form="isolated" 
d="M337 65q88 0 156 7.5t108 21t60 29.5t20 34q0 82 -37 185l65 41q31 -96 31 -191q0 -43 -14 -76.5t-42.5 -55t-62.5 -36t-82.5 -22t-95 -10t-106.5 -2.5q-75 0 -129.5 13.5t-84 33t-47 50t-22 55.5t-4.5 58q0 26 3.5 60.5t6.5 56.5l4 22l52 -7q-10 -67 -10 -111
q0 -80 49.5 -118t181.5 -38zM302 -100q33 -18 59 -47q-17 -29 -48 -59q-23 14 -58 47q17 29 47 59zM446 -100q34 -18 60 -47q-20 -33 -48 -59q-21 12 -58 47q16 29 46 59zM377 -215q30 -14 60 -46q-19 -33 -48 -60q-24 15 -59 48q18 29 47 58z" />
    <glyph glyph-name="che" unicode="&#x686;" horiz-adv-x="595" arabic-form="isolated" 
d="M401 249q-21 6 -94.5 43t-105.5 37q-41 0 -106 -114l-45 28q43 88 81.5 124.5t78.5 36.5q35 0 85.5 -28t116.5 -59t136 -36l-24 -72q-100 -16 -178.5 -50.5t-126.5 -79.5t-73 -96.5t-25 -105.5q0 -83 67 -138t189 -55q81 0 178 21l-16 -76q-94 -20 -170 -20
q-148 0 -225.5 76t-77.5 190q0 118 83.5 217t251.5 157zM280 20q33 -18 59 -47q-17 -29 -48 -59q-23 14 -58 47q17 29 47 59zM424 20q34 -18 60 -47q-20 -33 -48 -59q-21 12 -58 47q16 29 46 59zM355 -95q30 -14 60 -46q-19 -33 -48 -60q-24 15 -59 48q18 29 47 58z" />
    <glyph glyph-name="je" unicode="&#x698;" horiz-adv-x="281" arabic-form="isolated" 
d="M172 -5q0 102 -54 266l58 39q55 -143 55 -268q0 -119 -62.5 -192t-153.5 -73q-32 0 -65.5 15.5t-51.5 30.5l-18 15l29 41q47 -27 101 -27q44 0 77.5 18.5t50.5 45.5t25.5 50t8.5 39zM67 486q33 -18 59 -47q-17 -29 -48 -59q-23 15 -58 48q18 29 47 58zM211 486
q34 -18 60 -47q-20 -33 -48 -59q-21 13 -58 48q16 28 46 58zM136 602q33 -18 59 -47q-17 -32 -47 -60q-24 15 -59 48q17 29 47 59z" />
    <glyph glyph-name="kaf" unicode="&#x6a9;" horiz-adv-x="804" arabic-form="isolated" 
d="M337 -10q-75 0 -129.5 13.5t-84 33t-47 50t-22 55.5t-4.5 58q0 26 3.5 60.5t6.5 56.5l4 22l52 -7q-10 -67 -10 -111q0 -80 49.5 -118t181.5 -38q342 0 342 97q0 128 -249 304l15 69q51 35 150 79t172 65l-11 -77q-143 -39 -255 -105q113 -94 175 -169.5t62 -150.5
q0 -96 -93.5 -141.5t-307.5 -45.5z" />
    <glyph glyph-name="kaf.swash.medi" unicode="&#x6aa;" horiz-adv-x="826" 
d="M-38 37q0 16 11.5 27t26.5 11h125q142 0 210 1t160 6t175 16q56 8 56 17q0 150 -149 150q-75 0 -175.5 -4.5t-161.5 -4.5q-36 0 -59.5 2t-49 9.5t-38 24t-12.5 42.5q0 142 334 258l-11 -77q-56 -16 -103.5 -36.5t-77.5 -38.5t-52 -35t-31 -28.5t-9 -17.5q0 -18 27 -25.5
t88 -7.5q97 0 184.5 4t131.5 4q58 0 101.5 -17t67 -45t34.5 -58.5t11 -63.5q0 -112 -118 -128q-158 -22 -533 -22h-122h-3q-15 0 -26.5 11t-11.5 26z" />
    <glyph glyph-name="kaf.swash.init" unicode="&#x6aa;" horiz-adv-x="881" 
d="M-38 37q0 16 11.5 27t26.5 11h3h122q142 0 210 1t160 6t175 16q56 8 56 17q0 150 -149 150q-75 0 -175.5 -4.5t-161.5 -4.5q-36 0 -59.5 2t-49 9.5t-38 24t-12.5 42.5q0 142 334 258l-11 -77q-56 -16 -103.5 -36.5t-77.5 -38.5t-52 -35t-31 -28.5t-9 -17.5
q0 -18 27 -25.5t88 -7.5q97 0 184.5 4t131.5 4q58 0 101.5 -17t67 -45t34.5 -58.5t11 -63.5q0 -34 -10 -57q30 -18 95 -18h20v-75h-33q-73 0 -122 44q-26 -17 -68 -22q-158 -22 -533 -22h-125q-15 0 -26.5 11t-11.5 26z" />
    <glyph glyph-name="kaf.swash.fina" unicode="&#x6aa;" horiz-adv-x="1093" 
d="M337 -10q-75 0 -129.5 13.5t-84 33t-47 50t-22 55.5t-4.5 58q0 26 3.5 60.5t6.5 56.5l4 22l52 -7q-10 -67 -10 -111q0 -80 49.5 -118t181.5 -38q294 0 545 33q56 8 56 17q0 150 -149 150q-75 0 -175.5 -4.5t-161.5 -4.5q-36 0 -59.5 2t-49 9.5t-38 24t-12.5 42.5
q0 142 334 258l-11 -77q-56 -16 -103.5 -36.5t-77.5 -38.5t-52 -35t-31 -28.5t-9 -17.5q0 -18 27 -25.5t88 -7.5q97 0 184.5 4t131.5 4q58 0 101.5 -17t67 -45t34.5 -58.5t11 -63.5q0 -36 -10 -57q30 -18 95 -18h20v-75h-33q-74 0 -122 45q-26 -17 -68 -23
q-201 -32 -533 -32z" />
    <glyph glyph-name="gaf" unicode="&#x6af;" horiz-adv-x="804" arabic-form="isolated" 
d="M698 775l-9 -60q-34 -9 -106 -40.5t-118 -59.5l8 57q28 20 104.5 55t120.5 48zM337 -10q-75 0 -129.5 13.5t-84 33t-47 50t-22 55.5t-4.5 58q0 26 3.5 60.5t6.5 56.5l4 22l52 -7q-10 -67 -10 -111q0 -80 49.5 -118t181.5 -38q342 0 342 97q0 128 -249 304l15 69
q51 35 150 79t172 65l-11 -77q-143 -39 -255 -105q113 -94 175 -169.5t62 -150.5q0 -96 -93.5 -141.5t-307.5 -45.5z" />
    <glyph glyph-name="he.thmz" unicode="&#x6c0;" horiz-adv-x="446" arabic-form="isolated" 
d="M140 677q0 -11 32.5 -17t65 -16t32.5 -32q0 -44 -45.5 -75.5t-113.5 -31.5l-25 43q105 0 148 50q-13 7 -48.5 11.5t-57 17t-21.5 42.5q0 38 28 72t59 34q22 0 40.5 -11.5t26.5 -22.5l8 -11l-21 -24q-25 24 -53 24q-20 0 -37.5 -19.5t-17.5 -33.5zM50 142q0 99 106 231
l-31 23l40 64q221 -176 221 -312q0 -80 -54 -118t-133 -38q-63 0 -106 38.5t-43 111.5zM329 133q0 93 -129 204q-46 -54 -69 -95.5t-23 -88.5q0 -40 24.5 -63t69.5 -23q60 0 93.5 19t33.5 47z" />
    <glyph glyph-name="ye" unicode="&#x6cc;" horiz-adv-x="675" arabic-form="isolated" 
d="M319 -118q89 0 161.5 45.5t87.5 97.5q-20 10 -68.5 18t-88.5 14.5t-72.5 28t-32.5 57.5q0 81 60 161t128 80t131 -86l-38 -36q-49 47 -92 47q-44 0 -88.5 -51t-44.5 -95q0 -21 41 -33t90.5 -16.5t90.5 -22t41 -48.5q0 -92 -94 -164t-221 -72q-133 0 -197.5 73.5
t-64.5 188.5q0 91 31 186l51 -13q-24 -82 -24 -155q0 -205 213 -205z" />
    <glyph glyph-name="alef.vasla.fina" unicode="&#x671;" horiz-adv-x="297" arabic-form="final" 
d="M256 75h41v-75h-41q-94 0 -134 50t-40 170v106q0 125 -28 224l61 52q24 -90 24 -260v-117q0 -83 26 -116.5t91 -33.5zM-25 633l-25 16q37 63 51 63q6 0 30 -6q26 37 43.5 57.5t48 41t61.5 20.5q38 0 60 -24t22 -57q0 -43 -30 -68.5t-93 -25.5q-72 0 -136 22zM177 783
q-54 0 -116 -85q35 -7 79 -7q91 0 91 42q0 23 -14 36.5t-40 13.5z" />
    <glyph glyph-name="pe.fina" unicode="&#x67e;" horiz-adv-x="880" arabic-form="final" 
d="M337 -10q-75 0 -129.5 13.5t-84 33t-47 50t-22 55.5t-4.5 58q0 26 3.5 60.5t6.5 56.5l4 22l52 -7q-10 -67 -10 -111q0 -80 49.5 -118t181.5 -38q119 0 198 13.5t111.5 34t32.5 47.5q0 71 -8 143l60 30l9 -148q6 -110 107 -110h33v-75h-32q-98 0 -144 81
q-42 -50 -126.5 -70.5t-240.5 -20.5zM302 -100q33 -18 59 -47q-17 -29 -48 -59q-23 14 -58 47q17 29 47 59zM446 -100q34 -18 60 -47q-20 -33 -48 -59q-21 12 -58 47q16 29 46 59zM377 -215q30 -14 60 -46q-19 -33 -48 -60q-24 15 -59 48q18 29 47 58z" />
    <glyph glyph-name="pe.init" unicode="&#x67e;" horiz-adv-x="316" arabic-form="initial" 
d="M207 157q0 82 -37 185l65 41q31 -96 31 -191q0 -88 -51 -140t-143 -52h-72q-15 0 -26.5 11t-11.5 26q0 16 11.5 27t26.5 11h49q87 0 122.5 24.5t35.5 57.5zM52 -100q33 -18 59 -47q-17 -29 -48 -59q-23 14 -58 47q17 29 47 59zM196 -100q34 -18 60 -47q-20 -33 -48 -59
q-21 12 -58 47q16 29 46 59zM127 -215q30 -14 60 -46q-19 -33 -48 -60q-24 15 -59 48q18 29 47 58z" />
    <glyph glyph-name="pe.medi" unicode="&#x67e;" horiz-adv-x="396" arabic-form="medial" 
d="M-38 37q0 16 11.5 27t26.5 11h79q116 0 116 85q0 71 -8 143l60 30l9 -148q6 -110 107 -110h33v-75h-32q-93 0 -138 70q-44 -70 -157 -70h-69q-15 0 -26.5 11t-11.5 26zM106 -100q33 -18 59 -47q-17 -29 -48 -59q-23 14 -58 47q17 29 47 59zM250 -100q34 -18 60 -47
q-20 -33 -48 -59q-21 12 -58 47q16 29 46 59zM181 -215q30 -14 60 -46q-19 -33 -48 -60q-24 15 -59 48q18 29 47 58z" />
    <glyph glyph-name="che.fina" unicode="&#x686;" horiz-adv-x="611" arabic-form="final" 
d="M401 249q-21 6 -94.5 43t-105.5 37q-41 0 -106 -114l-45 28q43 88 81.5 124.5t78.5 36.5q35 0 85.5 -28t116.5 -59t136 -36l-24 -72q-90 -15 -157 -42q24 -52 56.5 -72t92.5 -20h95v-75h-105q-144 0 -187 146q-97 -49 -147.5 -120t-50.5 -149q0 -83 67 -138t189 -55
q81 0 178 21l-16 -76q-94 -20 -170 -20q-148 0 -225.5 76t-77.5 190q0 118 83.5 217t251.5 157zM245 -18q33 -18 59 -47q-17 -29 -48 -59q-23 14 -58 47q17 29 47 59zM389 -18q34 -18 60 -47q-20 -33 -48 -59q-21 12 -58 47q16 29 46 59zM320 -133q30 -14 60 -46
q-20 -33 -48 -60q-24 15 -59 48q18 29 47 58z" />
    <glyph glyph-name="che.init" unicode="&#x686;" horiz-adv-x="603" arabic-form="initial" 
d="M558 266l-24 -72q-46 -3 -95 -24.5t-93.5 -49.5t-92.5 -55t-109 -46t-125 -19h-19q-15 0 -26.5 11t-11.5 26q0 16 11.5 27t26.5 11h32q75 0 139 23.5t141.5 69.5t116.5 63q-33 16 -83 45t-81.5 43.5t-53.5 14.5q-14 0 -27.5 -9t-28 -28t-22.5 -31t-22 -36l-45 28
q41 82 77.5 116.5t76.5 34.5q29 0 67.5 -19.5t73 -43.5t88.5 -48.5t109 -31.5zM172 -70q33 -18 59 -47q-17 -29 -48 -59q-23 14 -58 47q17 29 47 59zM316 -70q34 -18 60 -47q-20 -33 -48 -59q-21 12 -58 47q16 29 46 59zM247 -185q30 -14 60 -46q-19 -33 -48 -60
q-24 15 -59 48q18 29 47 58z" />
    <glyph glyph-name="che.medi" unicode="&#x686;" horiz-adv-x="621" arabic-form="medial" 
d="M-38 37q0 16 11.5 27t26.5 11h3h29q75 0 139 23.5t141.5 69.5t116.5 63q-33 16 -83 45t-81.5 43.5t-53.5 14.5q-14 0 -27.5 -9t-28 -28t-22.5 -31t-22 -36l-45 28q41 82 77.5 116.5t76.5 34.5q29 0 67.5 -19.5t73 -43.5t88.5 -48.5t109 -31.5l-24 -72q-65 -5 -146 -50
q22 -39 53.5 -54t84.5 -15h95v-75h-105q-127 0 -177 116q-51 -31 -72 -42.5t-67.5 -33.5t-89.5 -31t-91 -9h-16h-3q-15 0 -26.5 11t-11.5 26zM172 -70q33 -18 59 -47q-17 -29 -48 -59q-23 14 -58 47q17 29 47 59zM316 -70q34 -18 60 -47q-20 -33 -48 -59q-21 12 -58 47
q16 29 46 59zM247 -185q30 -14 60 -46q-19 -33 -48 -60q-24 15 -59 48q18 29 47 58z" />
    <glyph glyph-name="je.fina" unicode="&#x698;" horiz-adv-x="343" arabic-form="final" 
d="M314 0q-57 0 -83 22q-3 -115 -65.5 -185t-150.5 -70q-32 0 -65.5 15.5t-51.5 30.5l-18 15l29 41q47 -27 101 -27q44 0 77.5 18.5t50.5 45.5t25.5 50t8.5 39q0 102 -54 266l59 39l31 -119q15 -56 37.5 -81t70.5 -25h27v-75h-29zM67 486q33 -18 59 -47q-17 -29 -48 -59
q-23 15 -58 48q18 29 47 58zM211 486q34 -18 60 -47q-20 -33 -48 -59q-21 13 -58 48q16 28 46 58zM136 602q33 -18 59 -47q-17 -32 -47 -60q-24 15 -59 48q17 29 47 59z" />
    <glyph glyph-name="kaf.fina" unicode="&#x6a9;" horiz-adv-x="933" arabic-form="final" 
d="M908 0q-110 0 -183 111q-28 -62 -121 -91.5t-267 -29.5q-75 0 -129.5 13.5t-84 33t-47 50t-22 55.5t-4.5 58q0 26 3.5 60.5t6.5 56.5l4 22l52 -7q-10 -67 -10 -111q0 -80 49.5 -118t181.5 -38q342 0 342 97q0 50 -61 132t-188 172l15 69q51 35 150 79t172 65l-11 -77
q-143 -39 -255 -105q77 -62 133.5 -131t83 -117.5t51.5 -90t57 -62.5t82 -21h25v-75h-25z" />
    <glyph glyph-name="kaf.init" unicode="&#x6a9;" horiz-adv-x="383" arabic-form="initial" 
d="M-38 37q0 16 11.5 27t26.5 11h122q59 0 97.5 23.5t38.5 63.5q0 128 -249 304l15 69q51 35 150 79t172 65l-11 -77q-143 -39 -255 -105q113 -94 175 -169.5t62 -150.5q0 -64 -33.5 -105.5t-81.5 -56.5t-109 -15h-90h-3q-15 0 -26.5 11t-11.5 26z" />
    <glyph glyph-name="kaf.medi" unicode="&#x6a9;" horiz-adv-x="512" arabic-form="medial" 
d="M-38 37q0 16 11.5 27t26.5 11h122q59 0 97.5 23.5t38.5 63.5q0 50 -61 132t-188 172l15 69q51 35 150 79t172 65l-11 -77q-143 -39 -255 -105q77 -62 133.5 -131t83 -117.5t51.5 -90t57 -62.5t82 -21h25v-75h-25q-109 0 -182 109q-41 -109 -212 -109h-90h-3
q-15 0 -26.5 11t-11.5 26z" />
    <glyph glyph-name="gaf.fina" unicode="&#x6af;" horiz-adv-x="933" arabic-form="final" 
d="M698 775l-9 -60q-34 -9 -106 -40.5t-118 -59.5l8 57q28 20 104.5 55t120.5 48zM908 0q-110 0 -183 111q-28 -62 -121 -91.5t-267 -29.5q-75 0 -129.5 13.5t-84 33t-47 50t-22 55.5t-4.5 58q0 26 3.5 60.5t6.5 56.5l4 22l52 -7q-10 -67 -10 -111q0 -80 49.5 -118
t181.5 -38q342 0 342 97q0 50 -61 132t-188 172l15 69q51 35 150 79t172 65l-11 -77q-143 -39 -255 -105q77 -62 133.5 -131t83 -117.5t51.5 -90t57 -62.5t82 -21h25v-75h-25z" />
    <glyph glyph-name="gaf.init" unicode="&#x6af;" horiz-adv-x="383" arabic-form="initial" 
d="M277 775l-9 -60q-34 -9 -106 -40.5t-118 -59.5l8 57q28 20 104.5 55t120.5 48zM-38 37q0 16 11.5 27t26.5 11h122q59 0 97.5 23.5t38.5 63.5q0 128 -249 304l15 69q51 35 150 79t172 65l-11 -77q-143 -39 -255 -105q113 -94 175 -169.5t62 -150.5q0 -64 -33.5 -105.5
t-81.5 -56.5t-109 -15h-90h-3q-15 0 -26.5 11t-11.5 26z" />
    <glyph glyph-name="gaf.medi" unicode="&#x6af;" horiz-adv-x="512" arabic-form="medial" 
d="M277 775l-9 -60q-34 -9 -106 -40.5t-118 -59.5l8 57q28 20 104.5 55t120.5 48zM-38 37q0 16 11.5 27t26.5 11h122q59 0 97.5 23.5t38.5 63.5q0 50 -61 132t-188 172l15 69q51 35 150 79t172 65l-11 -77q-143 -39 -255 -105q77 -62 133.5 -131t83 -117.5t51.5 -90
t57 -62.5t82 -21h25v-75h-25q-109 0 -182 109q-41 -109 -212 -109h-90h-3q-15 0 -26.5 11t-11.5 26z" />
    <glyph glyph-name="he.thmz.fina" unicode="&#x6c0;" horiz-adv-x="484" arabic-form="final" 
d="M170 672q0 -11 32.5 -17t65 -16t32.5 -32q0 -44 -45.5 -75.5t-113.5 -31.5l-25 43q105 0 148 50q-13 7 -48.5 11.5t-57 17t-21.5 42.5q0 38 28 72t59 34q22 0 40.5 -11t26.5 -23l8 -11l-21 -24q-25 24 -53 24q-20 0 -37.5 -19.5t-17.5 -33.5zM484 0h-22q-114 0 -159 87
l-18 -53q-39 -4 -58 -4q-55 0 -92.5 10.5t-54.5 29.5t-23.5 37.5t-6.5 43.5q0 52 51 112.5t163 118.5l-5 73l59 30l19 -295q7 -115 120 -115h27v-75zM215 105q41 0 79 3q-14 35 -17 84l-8 115q-76 -34 -120 -78.5t-44 -69.5q0 -11 8 -22t34.5 -21.5t67.5 -10.5z" />
    <glyph glyph-name="alef.maksura.init" unicode="&#x649;" horiz-adv-x="316" arabic-form="initial" 
d="M207 157q0 82 -37 185l65 41q31 -96 31 -191q0 -88 -51 -140t-143 -52h-72q-15 0 -26.5 11t-11.5 26q0 16 11.5 27t26.5 11h49q87 0 122.5 24.5t35.5 57.5z" />
    <glyph glyph-name="alef.maksura.medi" unicode="&#x649;" horiz-adv-x="396" arabic-form="medial" 
d="M-38 37q0 16 11.5 27t26.5 11h79q116 0 116 85q0 71 -8 143l60 30l9 -148q6 -110 107 -110h33v-75h-32q-93 0 -138 70q-44 -70 -157 -70h-69q-15 0 -26.5 11t-11.5 26z" />
    <glyph glyph-name="ye.fina" unicode="&#x6cc;" horiz-adv-x="587" arabic-form="final" 
d="M319 -168q89 0 161.5 46t87.5 98q-49 34 -226 34h-24l17 65h252v-35q38 -18 38 -47q0 -92 -94 -164t-221 -72q-133 0 -197.5 73.5t-64.5 188.5q0 91 31 186l51 -13q-24 -82 -24 -155q0 -205 213 -205z" />
    <glyph glyph-name="ye.init" unicode="&#x6cc;" horiz-adv-x="316" arabic-form="initial" 
d="M207 157q0 82 -37 185l65 41q31 -96 31 -191q0 -88 -51 -140t-143 -52h-72q-15 0 -26.5 11t-11.5 26q0 16 11.5 27t26.5 11h49q87 0 122.5 24.5t35.5 57.5zM52 -100q33 -18 59 -47q-16 -28 -47 -59q-24 14 -59 47q17 29 47 59zM197 -100q33 -18 59 -47q-20 -33 -48 -59
q-23 14 -58 47q16 30 47 59z" />
    <glyph glyph-name="ye.medi" unicode="&#x6cc;" horiz-adv-x="396" arabic-form="medial" 
d="M-38 37q0 16 11.5 27t26.5 11h79q116 0 116 85q0 71 -8 143l60 30l9 -148q6 -110 107 -110h33v-75h-32q-93 0 -138 70q-44 -70 -157 -70h-69q-15 0 -26.5 11t-11.5 26zM105 -100q33 -18 59 -47q-16 -28 -47 -59q-24 14 -59 47q17 29 47 59zM250 -100q33 -18 59 -47
q-20 -33 -48 -59q-23 14 -58 47q16 30 47 59z" />
    <glyph glyph-name=".shdd.on" unicode="&#xfc5e;" arabic-form="isolated" 
d="M82 146l30 19q18 -39 18 -80q0 -29 -13 -51.5t-39 -22.5q-25 0 -47 11.5t-28 24.5q-23 -47 -68 -47q-29 0 -47 21t-18 53q0 28 16 59l25 -9q-12 -24 -12 -47q0 -39 37 -39q50 0 52 79l26 8q0 -76 65 -76q13 0 17 5.5t4 20.5q0 28 -18 71zM-89 187q13 6 37 20
q-12 48 -32 48q-14 0 -39 -24l-17 23q36 36 60 36q41 0 53 -69q23 13 46 30q-61 38 -61 88q0 34 29.5 58.5t65.5 24.5q35 0 54.5 -21.5t19.5 -49.5q0 -50 -53.5 -99t-158.5 -102zM-8 344q0 -25 57 -68q43 38 43 69q0 16 -13 27t-35 11q-20 0 -36 -10.5t-16 -28.5z" />
    <glyph glyph-name=".shdd.en" unicode="&#xfc5f;" arabic-form="isolated" 
d="M82 405l30 19q18 -39 18 -80q0 -29 -13 -51.5t-39 -22.5q-25 0 -47 11.5t-28 24.5q-23 -47 -68 -47q-29 0 -47 21t-18 53q0 28 16 59l25 -9q-12 -24 -12 -47q0 -39 37 -39q50 0 52 79l26 8q0 -76 65 -76q13 0 17 5.5t4 20.5q0 28 -18 71zM-95 51l198 105l2 -39l-196 -103
zM-105 151l198 105l2 -39l-196 -103z" />
    <glyph glyph-name=".shdd.a" unicode="&#xfc60;" arabic-form="isolated" 
d="M-100 197l198 105l2 -39l-196 -103zM82 146l30 19q18 -39 18 -80q0 -29 -13 -51.5t-39 -22.5q-25 0 -47 11.5t-28 24.5q-23 -47 -68 -47q-29 0 -47 21t-18 53q0 28 16 59l25 -9q-12 -24 -12 -47q0 -39 37 -39q50 0 52 79l26 8q0 -76 65 -76q13 0 17 5.5t4 20.5
q0 28 -18 71z" />
    <glyph glyph-name=".shdd.o" unicode="&#xfc61;" arabic-form="isolated" 
d="M82 146l30 19q18 -39 18 -80q0 -29 -13 -51.5t-39 -22.5q-25 0 -47 11.5t-28 24.5q-23 -47 -68 -47q-29 0 -47 21t-18 53q0 28 16 59l25 -9q-12 -24 -12 -47q0 -39 37 -39q50 0 52 79l26 8q0 -76 65 -76q13 0 17 5.5t4 20.5q0 28 -18 71zM-89 187q58 29 108 64
q-61 38 -61 88q0 34 29.5 58.5t65.5 24.5q35 0 54.5 -21.5t19.5 -49.5q0 -50 -53.5 -99t-158.5 -102zM-8 344q0 -25 57 -68q43 38 43 69q0 16 -13 27t-35 11q-20 0 -36 -10.5t-16 -28.5z" />
    <glyph glyph-name=".shdd.e" unicode="&#xfc62;" arabic-form="isolated" 
d="M82 309l30 19q18 -39 18 -80q0 -29 -13 -51.5t-39 -22.5q-25 0 -47 11.5t-28 24.5q-23 -47 -68 -47q-29 0 -47 21t-18 53q0 28 16 59l25 -9q-12 -24 -12 -47q0 -39 37 -39q50 0 52 79l26 8q0 -76 65 -76q13 0 17 5.5t4 20.5q0 28 -18 71zM-100 51l198 105l2 -39
l-196 -103z" />
    <glyph glyph-name=".shdd.aa" unicode="&#xfc63;" arabic-form="isolated" 
d="M82 146l30 19q18 -39 18 -80q0 -29 -13 -51.5t-39 -22.5q-25 0 -47 11.5t-28 24.5q-23 -47 -68 -47q-29 0 -47 21t-18 53q0 28 16 59l25 -9q-12 -24 -12 -47q0 -39 37 -39q50 0 52 79l26 8q0 -76 65 -76q13 0 17 5.5t4 20.5q0 28 -18 71zM17 173l-28 6q4 25 4 46
q0 40 -9 118l34 18q5 -73 5 -117q0 -40 -6 -71z" />
    <glyph glyph-name=".an.isol" unicode="&#xfe70;" horiz-adv-x="260" arabic-form="isolated" 
d="M35 37l198 105l2 -39l-196 -103zM25 137l198 105l2 -39l-196 -103z" />
    <glyph glyph-name=".an.medi" unicode="&#xfe71;" horiz-adv-x="260" arabic-form="medial" 
d="M31 337l198 105l2 -39l-196 -103zM21 437l198 105l2 -39l-196 -103zM-38 37q0 16 11.5 27t26.5 11h260v-75h-257h-3q-15 0 -26.5 11t-11.5 26z" />
    <glyph glyph-name=".on.isol" unicode="&#xfe72;" horiz-adv-x="317" arabic-form="isolated" 
d="M76 37q13 6 37 20q-12 48 -32 48q-14 0 -39 -24l-17 23q36 36 60 36q41 0 53 -69q23 13 46 30q-61 38 -61 88q0 34 29.5 58.5t65.5 24.5q35 0 54.5 -21.5t19.5 -49.5q0 -50 -53.5 -99t-158.5 -102zM157 194q0 -25 57 -68q43 38 43 69q0 16 -13 27t-35 11q-20 0 -36 -10.5
t-16 -28.5z" />
    <glyph glyph-name=".en.isol" unicode="&#xfe74;" horiz-adv-x="260" arabic-form="isolated" 
d="M35 -205l198 105l2 -39l-196 -103zM25 -105l198 105l2 -39l-196 -103z" />
    <glyph glyph-name=".a.isol" unicode="&#xfe76;" horiz-adv-x="250" arabic-form="isolated" 
d="M25 37l198 105l2 -39l-196 -103z" />
    <glyph glyph-name=".a.medi" unicode="&#xfe77;" horiz-adv-x="260" arabic-form="medial" 
d="M27 337l198 105l2 -39l-196 -103zM-38 37q0 16 11.5 27t26.5 11h260v-75h-257h-3q-15 0 -26.5 11t-11.5 26z" />
    <glyph glyph-name=".o.isol" unicode="&#xfe78;" horiz-adv-x="266" arabic-form="isolated" 
d="M25 37q58 29 108 64q-61 38 -61 88q0 34 29.5 58.5t65.5 24.5q35 0 54.5 -21.5t19.5 -49.5q0 -50 -53.5 -99t-158.5 -102zM106 194q0 -25 57 -68q43 38 43 69q0 16 -13 27t-35 11q-20 0 -36 -10.5t-16 -28.5z" />
    <glyph glyph-name=".o.medi" unicode="&#xfe79;" horiz-adv-x="260" arabic-form="medial" 
d="M16 337q58 29 108 64q-61 38 -61 88q0 34 29.5 58.5t65.5 24.5q35 0 54.5 -21.5t19.5 -49.5q0 -50 -53.5 -99t-158.5 -102zM97 494q0 -25 57 -68q43 38 43 69q0 16 -13 27t-35 11q-20 0 -36 -10.5t-16 -28.5zM-38 37q0 16 11.5 27t26.5 11h260v-75h-257h-3
q-15 0 -26.5 11t-11.5 26z" />
    <glyph glyph-name=".e.isol" unicode="&#xfe7a;" horiz-adv-x="250" arabic-form="isolated" 
d="M25 -110l198 105l2 -39l-196 -103z" />
    <glyph glyph-name=".e.medi" unicode="&#xfe7b;" horiz-adv-x="260" arabic-form="medial" 
d="M28 -210l198 105l2 -39l-196 -103zM-38 37q0 16 11.5 27t26.5 11h260v-75h-257h-3q-15 0 -26.5 11t-11.5 26z" />
    <glyph glyph-name=".shdd.isol" unicode="&#xfe7c;" horiz-adv-x="310" arabic-form="isolated" 
d="M237 146l30 19q18 -39 18 -80q0 -29 -13 -51.5t-39 -22.5q-25 0 -47 11.5t-28 24.5q-23 -47 -68 -47q-29 0 -47 21t-18 53q0 28 16 59l25 -9q-12 -24 -12 -47q0 -39 37 -39q50 0 52 79l26 8q0 -76 65 -76q13 0 17 5.5t4 20.5q0 28 -18 71z" />
    <glyph glyph-name=".shdd.medi" unicode="&#xfe7d;" horiz-adv-x="260" arabic-form="medial" 
d="M209 446l30 19q18 -39 18 -80q0 -29 -13 -51.5t-39 -22.5q-25 0 -47 11.5t-28 24.5q-23 -47 -68 -47q-29 0 -47 21t-18 53q0 28 16 59l25 -9q-12 -24 -12 -47q0 -39 37 -39q50 0 52 79l26 8q0 -76 65 -76q13 0 17 5.5t4 20.5q0 28 -18 71zM-38 37q0 16 11.5 27t26.5 11
h260v-75h-257h-3q-15 0 -26.5 11t-11.5 26z" />
    <glyph glyph-name=".skn.isol" unicode="&#xfe7e;" horiz-adv-x="196" arabic-form="isolated" 
d="M25 66q0 30 24.5 61.5t49.5 31.5q24 0 48 -30t24 -60q0 -35 -22.5 -52t-56.5 -17q-28 0 -47.5 17t-19.5 49zM141 60q0 23 -15.5 42.5t-31.5 19.5q-13 0 -27 -16t-14 -34q0 -34 43 -34q45 0 45 22z" />
    <glyph glyph-name=".skn.medi" unicode="&#xfe7f;" horiz-adv-x="260" arabic-form="medial" 
d="M54 366q0 30 24.5 61.5t49.5 31.5q24 0 48 -30t24 -60q0 -35 -22.5 -52t-56.5 -17q-28 0 -47.5 17t-19.5 49zM170 360q0 23 -15.5 42.5t-31.5 19.5q-13 0 -27 -16t-14 -34q0 -34 43 -34q45 0 45 22zM-38 37q0 16 11.5 27t26.5 11h260v-75h-257h-3q-15 0 -26.5 11
t-11.5 26z" />
    <glyph glyph-name="alef.aa.fina" unicode="&#x622;" horiz-adv-x="336" arabic-form="final" 
d="M275 75h61v-75h-61q-94 0 -134 50t-40 170v106q0 125 -28 224l61 52q24 -90 24 -260v-117q0 -83 26 -116.5t91 -33.5zM263 760v-55q-51 -37 -105 -37q-26 0 -60 9.5t-46 9.5q-17 0 -28.5 -8t-33.5 -32l-30 29q29 41 49 57t44 16q17 0 51 -10.5t59 -10.5q39 0 100 32z" />
    <glyph glyph-name="alef.thmz.fina" unicode="&#x623;" horiz-adv-x="295" arabic-form="final" 
d="M254 75h41v-75h-41q-94 0 -134 50t-40 170v106q0 125 -28 224l61 52q24 -90 24 -260v-117q0 -83 26 -116.5t91 -33.5zM24 618l-4 37l64 43q-58 21 -58 67q0 47 27 76t60 29q21 0 40.5 -11t28.5 -21l10 -11l-19 -24q-27 24 -56 24q-23 0 -41.5 -17t-18.5 -30
q0 -15 18.5 -32t55.5 -17q29 0 87 29l2 -39q-114 -56 -196 -103z" />
    <glyph glyph-name="vav.thmz.fina" unicode="&#x624;" horiz-adv-x="453" arabic-form="final" 
d="M145 -158q46 0 82.5 19t55 46.5t28 51.5t9.5 41h-119q-70 0 -104 34.5t-34 96.5q0 48 14 89.5t50 72t88 30.5q70 0 113 -68t50 -180h75v-75h-76q-11 -109 -76.5 -171t-150.5 -62q-32 0 -66 15.5t-52 30.5l-17 15l29 41q47 -27 101 -27zM199 75h116q-5 45 -16 81t-36 64
t-59 28q-39 0 -61.5 -30.5t-22.5 -76.5q0 -35 19 -50.5t60 -15.5zM97 380l-4 37l64 43q-58 21 -58 67q0 47 27 76t60 29q21 0 40.5 -11t29.5 -21l9 -11l-19 -24q-27 24 -56 24q-23 0 -41.5 -17t-18.5 -30q0 -15 18.5 -32t55.5 -17q29 0 87 29l2 -39q-114 -56 -196 -103z" />
    <glyph glyph-name="alef.bhmz.fina" unicode="&#x625;" horiz-adv-x="267" arabic-form="final" 
d="M267 0h-20q-94 0 -134 50t-40 170v206q0 125 -28 224l61 52q24 -90 24 -260v-217q0 -83 26 -116.5t91 -33.5h20v-75zM64 -329l-4 37l64 44q-25 8 -41.5 26t-16.5 40q0 47 27 76t60 29q21 0 40.5 -10.5t28.5 -21.5l10 -11l-19 -24q-27 24 -56 24q-23 0 -41.5 -17
t-18.5 -30q0 -15 18.5 -32t55.5 -17q29 0 87 29l2 -39q-114 -56 -196 -103z" />
    <glyph glyph-name="ye.thmz.fina" unicode="&#x626;" horiz-adv-x="587" arabic-form="final" 
d="M319 -168q89 0 161.5 46t87.5 98q-49 34 -226 34h-24l17 65h252v-35q38 -18 38 -47q0 -92 -94 -164t-221 -72q-133 0 -197.5 73.5t-64.5 188.5q0 91 31 186l51 -13q-24 -82 -24 -155q0 -205 213 -205zM234 175l-4 37l64 43q-58 21 -58 67q0 47 27 76t60 29
q21 0 40.5 -10.5t28.5 -21.5l10 -11l-19 -24q-27 24 -56 24q-23 0 -41.5 -17t-18.5 -30q0 -15 18.5 -32t55.5 -17q29 0 87 29l2 -39q-114 -56 -196 -103z" />
    <glyph glyph-name="ye.thmz.init" unicode="&#x626;" horiz-adv-x="316" arabic-form="initial" 
d="M207 157q0 82 -37 185l65 41q31 -96 31 -191q0 -88 -51 -140t-143 -52h-72q-15 0 -26.5 11t-11.5 26q0 16 11.5 27t26.5 11h49q87 0 122.5 24.5t35.5 57.5zM34 400l-4 37l64 43q-58 21 -58 67q0 47 27 76t60 29q21 0 40.5 -11t28.5 -21l10 -11l-19 -24q-27 24 -56 24
q-23 0 -41.5 -17t-18.5 -30q0 -15 18.5 -32t55.5 -17q29 0 87 29l2 -39q-114 -56 -196 -103z" />
    <glyph glyph-name="ye.thmz.medi" unicode="&#x626;" horiz-adv-x="396" arabic-form="medial" 
d="M-38 37q0 16 11.5 27t26.5 11h79q116 0 116 85q0 71 -8 143l60 30l9 -148q6 -110 107 -110h33v-75h-32q-93 0 -138 70q-44 -70 -157 -70h-69q-15 0 -26.5 11t-11.5 26zM64 370l-4 37l64 43q-58 21 -58 67q0 47 27 76t60 29q21 0 40.5 -11t28.5 -21l10 -11l-19 -24
q-27 24 -56 24q-23 0 -41.5 -17t-18.5 -30q0 -15 18.5 -32t55.5 -17q29 0 87 29l2 -39q-114 -56 -196 -103z" />
    <glyph glyph-name="alef.fina" unicode="&#x627;" horiz-adv-x="247" arabic-form="final" 
d="M45 650l61 52q24 -90 24 -260v-217q0 -83 26 -116.5t91 -33.5v-75q-94 0 -134 50t-40 170v206q0 125 -28 224z" />
    <glyph glyph-name="be.fina" unicode="&#x628;" horiz-adv-x="880" arabic-form="final" 
d="M337 -10q-75 0 -129.5 13.5t-84 33t-47 50t-22 55.5t-4.5 58q0 26 3.5 60.5t6.5 56.5l4 22l52 -7q-10 -67 -10 -111q0 -80 49.5 -118t181.5 -38q119 0 198 13.5t111.5 34t32.5 47.5q0 71 -8 143l60 30l9 -148q6 -110 107 -110h33v-75h-32q-98 0 -144 81
q-42 -50 -126.5 -70.5t-240.5 -20.5zM380 -100q33 -19 64 -52q-18 -31 -51 -64q-28 14 -65 51q19 30 52 65z" />
    <glyph glyph-name="be.init" unicode="&#x628;" horiz-adv-x="316" arabic-form="initial" 
d="M207 157q0 82 -37 185l65 41q31 -96 31 -191q0 -88 -51 -140t-143 -52h-72q-15 0 -26.5 11t-11.5 26q0 16 11.5 27t26.5 11h49q87 0 122.5 24.5t35.5 57.5zM130 -100q33 -19 64 -52q-18 -31 -51 -64q-28 14 -65 51q19 30 52 65z" />
    <glyph glyph-name="be.medi" unicode="&#x628;" horiz-adv-x="396" arabic-form="medial" 
d="M-38 37q0 16 11.5 27t26.5 11h79q116 0 116 85q0 71 -8 143l60 30l9 -148q6 -110 107 -110h33v-75h-32q-93 0 -138 70q-44 -70 -157 -70h-69q-15 0 -26.5 11t-11.5 26zM200 -100q33 -19 64 -52q-18 -31 -51 -64q-28 14 -65 51q19 30 52 65z" />
    <glyph glyph-name="te.marbuta.fina" unicode="&#x629;" horiz-adv-x="484" arabic-form="final" 
d="M484 0h-22q-114 0 -159 87l-18 -53q-39 -4 -58 -4q-55 0 -92.5 10.5t-54.5 29.5t-23.5 37.5t-6.5 43.5q0 52 51 112.5t163 118.5l-5 73l59 30l19 -295q7 -115 120 -115h27v-75zM215 105q41 0 79 3q-14 35 -17 84l-8 115q-76 -34 -120 -78.5t-44 -69.5q0 -11 8 -22
t34.5 -21.5t67.5 -10.5zM162 656q33 -18 59 -47q-17 -29 -48 -59q-23 15 -58 48q18 29 47 58zM306 656q34 -18 60 -47q-20 -33 -48 -59q-21 13 -58 48q16 28 46 58z" />
    <glyph glyph-name="te.fina" unicode="&#x62a;" horiz-adv-x="880" arabic-form="final" 
d="M337 -10q-75 0 -129.5 13.5t-84 33t-47 50t-22 55.5t-4.5 58q0 26 3.5 60.5t6.5 56.5l4 22l52 -7q-10 -67 -10 -111q0 -80 49.5 -118t181.5 -38q119 0 198 13.5t111.5 34t32.5 47.5q0 71 -8 143l60 30l9 -148q6 -110 107 -110h33v-75h-32q-98 0 -144 81
q-42 -50 -126.5 -70.5t-240.5 -20.5zM297 406q33 -18 59 -47q-17 -29 -48 -59q-23 15 -58 48q18 29 47 58zM441 406q34 -18 60 -47q-20 -33 -48 -59q-21 13 -58 48q16 28 46 58z" />
    <glyph glyph-name="te.init" unicode="&#x62a;" horiz-adv-x="316" arabic-form="initial" 
d="M207 157q0 82 -37 185l65 41q31 -96 31 -191q0 -88 -51 -140t-143 -52h-72q-15 0 -26.5 11t-11.5 26q0 16 11.5 27t26.5 11h49q87 0 122.5 24.5t35.5 57.5zM52 566q33 -18 59 -47q-17 -29 -48 -59q-23 15 -58 48q18 29 47 58zM196 566q34 -18 60 -47q-20 -33 -48 -59
q-21 13 -58 48q16 28 46 58z" />
    <glyph glyph-name="te.medi" unicode="&#x62a;" horiz-adv-x="396" arabic-form="medial" 
d="M-38 37q0 16 11.5 27t26.5 11h79q116 0 116 85q0 71 -8 143l60 30l9 -148q6 -110 107 -110h33v-75h-32q-93 0 -138 70q-44 -70 -157 -70h-69q-15 0 -26.5 11t-11.5 26zM72 541q33 -18 59 -47q-17 -29 -48 -59q-23 15 -58 48q18 29 47 58zM216 541q34 -18 60 -47
q-20 -33 -48 -59q-21 13 -58 48q16 28 46 58z" />
    <glyph glyph-name="the.fina" unicode="&#x62b;" horiz-adv-x="880" arabic-form="final" 
d="M337 -10q-75 0 -129.5 13.5t-84 33t-47 50t-22 55.5t-4.5 58q0 26 3.5 60.5t6.5 56.5l4 22l52 -7q-10 -67 -10 -111q0 -80 49.5 -118t181.5 -38q119 0 198 13.5t111.5 34t32.5 47.5q0 71 -8 143l60 30l9 -148q6 -110 107 -110h33v-75h-32q-98 0 -144 81
q-42 -50 -126.5 -70.5t-240.5 -20.5zM302 406q33 -18 59 -47q-17 -29 -48 -59q-23 15 -58 48q18 29 47 58zM446 406q34 -18 60 -47q-20 -33 -48 -59q-21 13 -58 48q16 28 46 58zM371 522q33 -18 59 -47q-17 -32 -47 -60q-24 15 -59 48q17 29 47 59z" />
    <glyph glyph-name="the.init" unicode="&#x62b;" horiz-adv-x="316" arabic-form="initial" 
d="M207 157q0 82 -37 185l65 41q31 -96 31 -191q0 -88 -51 -140t-143 -52h-72q-15 0 -26.5 11t-11.5 26q0 16 11.5 27t26.5 11h49q87 0 122.5 24.5t35.5 57.5zM52 566q33 -18 59 -47q-17 -29 -48 -59q-23 15 -58 48q18 29 47 58zM196 566q34 -18 60 -47q-20 -33 -48 -59
q-21 13 -58 48q16 28 46 58zM121 682q33 -18 59 -47q-17 -32 -47 -60q-24 15 -59 48q17 29 47 59z" />
    <glyph glyph-name="the.medi" unicode="&#x62b;" horiz-adv-x="396" arabic-form="medial" 
d="M-38 37q0 16 11.5 27t26.5 11h79q116 0 116 85q0 71 -8 143l60 30l9 -148q6 -110 107 -110h33v-75h-32q-93 0 -138 70q-44 -70 -157 -70h-69q-15 0 -26.5 11t-11.5 26zM77 546q33 -18 59 -47q-17 -29 -48 -59q-23 15 -58 48q18 29 47 58zM221 546q34 -18 60 -47
q-20 -33 -48 -59q-21 13 -58 48q16 28 46 58zM146 662q33 -18 59 -47q-17 -32 -47 -60q-24 15 -59 48q17 29 47 59z" />
    <glyph glyph-name="jim.fina" unicode="&#x62c;" horiz-adv-x="611" arabic-form="final" 
d="M401 249q-21 6 -94.5 43t-105.5 37q-41 0 -106 -114l-45 28q43 88 81.5 124.5t78.5 36.5q35 0 85.5 -28t116.5 -59t136 -36l-24 -72q-90 -15 -157 -42q24 -52 56.5 -72t92.5 -20h95v-75h-105q-144 0 -187 146q-97 -49 -147.5 -120t-50.5 -149q0 -83 67 -138t189 -55
q81 0 178 21l-16 -76q-94 -20 -170 -20q-148 0 -225.5 76t-77.5 190q0 118 83.5 217t251.5 157zM315 -51q33 -19 64 -52q-18 -31 -51 -64q-28 14 -65 51q19 30 52 65z" />
    <glyph glyph-name="jim.init" unicode="&#x62c;" horiz-adv-x="603" arabic-form="initial" 
d="M558 266l-24 -72q-46 -3 -95 -24.5t-93.5 -49.5t-92.5 -55t-109 -46t-125 -19h-19q-15 0 -26.5 11t-11.5 26q0 16 11.5 27t26.5 11h32q75 0 139 23.5t141.5 69.5t116.5 63q-33 16 -83 45t-81.5 43.5t-53.5 14.5q-14 0 -27.5 -9t-28 -28t-22.5 -31t-22 -36l-45 28
q41 82 77.5 116.5t76.5 34.5q29 0 67.5 -19.5t73 -43.5t88.5 -48.5t109 -31.5zM250 -70q33 -19 64 -52q-18 -31 -51 -64q-28 14 -65 51q19 30 52 65z" />
    <glyph glyph-name="jim.medi" unicode="&#x62c;" horiz-adv-x="621" arabic-form="medial" 
d="M-38 37q0 16 11.5 27t26.5 11h3h29q75 0 139 23.5t141.5 69.5t116.5 63q-33 16 -83 45t-81.5 43.5t-53.5 14.5q-14 0 -27.5 -9t-28 -28t-22.5 -31t-22 -36l-45 28q41 82 77.5 116.5t76.5 34.5q29 0 67.5 -19.5t73 -43.5t88.5 -48.5t109 -31.5l-24 -72q-65 -5 -146 -50
q22 -39 53.5 -54t84.5 -15h95v-75h-105q-127 0 -177 116q-51 -31 -72 -42.5t-67.5 -33.5t-89.5 -31t-91 -9h-16h-3q-15 0 -26.5 11t-11.5 26zM250 -70q33 -19 64 -52q-18 -31 -51 -64q-28 14 -65 51q19 30 52 65z" />
    <glyph glyph-name="him.fina" unicode="&#x62d;" horiz-adv-x="611" arabic-form="final" 
d="M401 249q-21 6 -94.5 43t-105.5 37q-41 0 -106 -114l-45 28q43 88 81.5 124.5t78.5 36.5q35 0 85.5 -28t116.5 -59t136 -36l-24 -72q-90 -15 -157 -42q24 -52 56.5 -72t92.5 -20h95v-75h-105q-144 0 -187 146q-97 -49 -147.5 -120t-50.5 -149q0 -83 67 -138t189 -55
q81 0 178 21l-16 -76q-94 -20 -170 -20q-148 0 -225.5 76t-77.5 190q0 118 83.5 217t251.5 157z" />
    <glyph glyph-name="him.init" unicode="&#x62d;" horiz-adv-x="603" arabic-form="initial" 
d="M558 266l-24 -72q-46 -3 -95 -24.5t-93.5 -49.5t-92.5 -55t-109 -46t-125 -19h-19q-15 0 -26.5 11t-11.5 26q0 16 11.5 27t26.5 11h32q75 0 139 23.5t141.5 69.5t116.5 63q-33 16 -83 45t-81.5 43.5t-53.5 14.5q-14 0 -27.5 -9t-28 -28t-22.5 -31t-22 -36l-45 28
q41 82 77.5 116.5t76.5 34.5q29 0 67.5 -19.5t73 -43.5t88.5 -48.5t109 -31.5z" />
    <glyph glyph-name="him.medi" unicode="&#x62d;" horiz-adv-x="621" arabic-form="medial" 
d="M-38 37q0 16 11.5 27t26.5 11h3h29q75 0 139 23.5t141.5 69.5t116.5 63q-33 16 -83 45t-81.5 43.5t-53.5 14.5q-14 0 -27.5 -9t-28 -28t-22.5 -31t-22 -36l-45 28q41 82 77.5 116.5t76.5 34.5q29 0 67.5 -19.5t73 -43.5t88.5 -48.5t109 -31.5l-24 -72q-65 -5 -146 -50
q22 -39 53.5 -54t84.5 -15h95v-75h-105q-127 0 -177 116q-51 -31 -72 -42.5t-67.5 -33.5t-89.5 -31t-91 -9h-16h-3q-15 0 -26.5 11t-11.5 26z" />
    <glyph glyph-name="khe.fina" unicode="&#x62e;" horiz-adv-x="611" arabic-form="final" 
d="M401 249q-21 6 -94.5 43t-105.5 37q-41 0 -106 -114l-45 28q43 88 81.5 124.5t78.5 36.5q35 0 85.5 -28t116.5 -59t136 -36l-24 -72q-90 -15 -157 -42q24 -52 56.5 -72t92.5 -20h95v-75h-105q-144 0 -187 146q-97 -49 -147.5 -120t-50.5 -149q0 -83 67 -138t189 -55
q81 0 178 21l-16 -76q-94 -20 -170 -20q-148 0 -225.5 76t-77.5 190q0 118 83.5 217t251.5 157zM201 631q31 -17 64 -52q-17 -32 -51 -64q-28 16 -65 51q15 24 52 65z" />
    <glyph glyph-name="khe.init" unicode="&#x62e;" horiz-adv-x="603" arabic-form="initial" 
d="M558 266l-24 -72q-46 -3 -95 -24.5t-93.5 -49.5t-92.5 -55t-109 -46t-125 -19h-19q-15 0 -26.5 11t-11.5 26q0 16 11.5 27t26.5 11h32q75 0 139 23.5t141.5 69.5t116.5 63q-33 16 -83 45t-81.5 43.5t-53.5 14.5q-14 0 -27.5 -9t-28 -28t-22.5 -31t-22 -36l-45 28
q41 82 77.5 116.5t76.5 34.5q29 0 67.5 -19.5t73 -43.5t88.5 -48.5t109 -31.5zM201 631q31 -17 64 -52q-17 -32 -51 -64q-28 16 -65 51q15 24 52 65z" />
    <glyph glyph-name="khe.medi" unicode="&#x62e;" horiz-adv-x="621" arabic-form="medial" 
d="M-38 37q0 16 11.5 27t26.5 11h3h29q75 0 139 23.5t141.5 69.5t116.5 63q-33 16 -83 45t-81.5 43.5t-53.5 14.5q-14 0 -27.5 -9t-28 -28t-22.5 -31t-22 -36l-45 28q41 82 77.5 116.5t76.5 34.5q29 0 67.5 -19.5t73 -43.5t88.5 -48.5t109 -31.5l-24 -72q-65 -5 -146 -50
q22 -39 53.5 -54t84.5 -15h95v-75h-105q-127 0 -177 116q-51 -31 -72 -42.5t-67.5 -33.5t-89.5 -31t-91 -9h-16h-3q-15 0 -26.5 11t-11.5 26zM201 631q31 -17 64 -52q-17 -32 -51 -64q-28 16 -65 51q15 24 52 65z" />
    <glyph glyph-name="dal.fina" unicode="&#x62f;" horiz-adv-x="547" arabic-form="final" 
d="M350 134q0 13 -22.5 82.5t-45.5 133.5l-22 63l57 48l85 -258q26 -80 52.5 -104t73.5 -24h19v-75h-35q-80 0 -123 76q-48 -86 -190 -86q-159 0 -159 143q0 24 4 64l52 -4q-1 -11 -1 -46q0 -45 24 -63.5t90 -18.5q61 0 101 22t40 47z" />
    <glyph glyph-name="zal.fina" unicode="&#x630;" horiz-adv-x="547" arabic-form="final" 
d="M350 134q0 13 -22.5 82.5t-45.5 133.5l-22 63l57 48l85 -258q26 -80 52.5 -104t73.5 -24h19v-75h-35q-80 0 -123 76q-48 -86 -190 -86q-159 0 -159 143q0 24 4 64l52 -4q-1 -11 -1 -46q0 -45 24 -63.5t90 -18.5q61 0 101 22t40 47zM272 631q31 -17 64 -52
q-17 -32 -51 -64q-28 16 -65 51q15 24 52 65z" />
    <glyph glyph-name="re.fina" unicode="&#x631;" horiz-adv-x="343" arabic-form="final" 
d="M314 0q-57 0 -83 22q-3 -115 -65.5 -185t-150.5 -70q-32 0 -65.5 15.5t-51.5 30.5l-18 15l29 41q47 -27 101 -27q44 0 77.5 18.5t50.5 45.5t25.5 50t8.5 39q0 102 -54 266l59 39l31 -119q15 -56 37.5 -81t70.5 -25h27v-75h-29z" />
    <glyph glyph-name="ze.fina" unicode="&#x632;" horiz-adv-x="343" arabic-form="final" 
d="M314 0q-57 0 -83 22q-3 -115 -65.5 -185t-150.5 -70q-32 0 -65.5 15.5t-51.5 30.5l-18 15l29 41q47 -27 101 -27q44 0 77.5 18.5t50.5 45.5t25.5 50t8.5 39q0 102 -54 266l59 39l31 -119q15 -56 37.5 -81t70.5 -25h27v-75h-29zM122 496q31 -17 64 -52q-17 -32 -51 -64
q-28 16 -65 51q15 24 52 65z" />
    <glyph glyph-name="sin.fina" unicode="&#x633;" horiz-adv-x="1240" arabic-form="final" 
d="M977 -10q-101 0 -152 67q-41 -67 -116 -67q-49 0 -82 22v-19q0 -92 -94 -164t-221 -72q-133 0 -197.5 73.5t-64.5 188.5q0 91 31 186l51 -13q-24 -82 -24 -155q0 -205 213 -205q96 0 171.5 52.5t75.5 104.5q0 32 -18 114t-42 158l59 39l31 -119q16 -60 39.5 -88t64.5 -28
q45 0 70.5 26.5t38.5 81.5q10 40 18 100l54 -5q-18 -109 -18 -134q0 -27 32.5 -48t88.5 -21q37 0 52.5 13.5t15.5 45.5q0 25 -35 171l56 36l31 -141q25 -115 111 -115h23v-75h-22q-43 0 -70.5 14t-50.5 49q-16 -37 -43 -55t-77 -18z" />
    <glyph glyph-name="sin.init" unicode="&#x633;" horiz-adv-x="784" arabic-form="initial" 
d="M-38 37q0 16 11.5 27t26.5 11h53q48 0 79 26t40 70q7 32 17 102l54 -5q-12 -90 -12 -113q0 -45 27 -67.5t65 -22.5q45 0 70.5 26.5t38.5 81.5q10 40 18 100l54 -5q-18 -109 -18 -134q0 -27 32.5 -48t88.5 -21q37 0 52.5 13.5t15.5 45.5q0 39 -16.5 96t-42.5 102l61 48
q23 -41 40 -102.5t17 -119.5q0 -158 -136 -158q-102 0 -152 67q-44 -67 -126 -67q-94 0 -135 80q-40 -70 -131 -70h-51h-3q-15 0 -26.5 11t-11.5 26z" />
    <glyph glyph-name="sin.medi" unicode="&#x633;" horiz-adv-x="861" arabic-form="medial" 
d="M-38 37q0 16 11.5 27t26.5 11h53q48 0 79 26t40 70q7 32 17 102l54 -5q-12 -90 -12 -113q0 -45 27 -67.5t65 -22.5q45 0 70.5 26.5t38.5 81.5q10 40 18 100l54 -5q-18 -109 -18 -134q0 -27 32.5 -48t88.5 -21q37 0 52.5 13.5t15.5 45.5q0 25 -35 171l56 36l31 -141
q25 -115 111 -115h23v-75h-22q-43 0 -70.5 14t-50.5 49q-16 -37 -43 -55t-77 -18q-102 0 -152 67q-44 -67 -126 -67q-94 0 -135 80q-40 -70 -131 -70h-51h-3q-15 0 -26.5 11t-11.5 26z" />
    <glyph glyph-name="shin.fina" unicode="&#x634;" horiz-adv-x="1240" arabic-form="final" 
d="M977 -10q-101 0 -152 67q-41 -67 -116 -67q-49 0 -82 22v-19q0 -92 -94 -164t-221 -72q-133 0 -197.5 73.5t-64.5 188.5q0 91 31 186l51 -13q-24 -82 -24 -155q0 -205 213 -205q96 0 171.5 52.5t75.5 104.5q0 32 -18 114t-42 158l59 39l31 -119q16 -60 39.5 -88t64.5 -28
q45 0 70.5 26.5t38.5 81.5q10 40 18 100l54 -5q-18 -109 -18 -134q0 -27 32.5 -48t88.5 -21q37 0 52.5 13.5t15.5 45.5q0 25 -35 171l56 36l31 -141q25 -115 111 -115h23v-75h-22q-43 0 -70.5 14t-50.5 49q-16 -37 -43 -55t-77 -18zM717 486q33 -18 59 -47q-17 -29 -48 -59
q-23 15 -58 48q18 29 47 58zM861 486q34 -18 60 -47q-20 -33 -48 -59q-21 13 -58 48q16 28 46 58zM786 602q33 -18 59 -47q-17 -32 -47 -60q-24 15 -59 48q17 29 47 59z" />
    <glyph glyph-name="shin.init" unicode="&#x634;" horiz-adv-x="784" arabic-form="initial" 
d="M-38 37q0 16 11.5 27t26.5 11h53q48 0 79 26t40 70q7 32 17 102l54 -5q-12 -90 -12 -113q0 -45 27 -67.5t65 -22.5q45 0 70.5 26.5t38.5 81.5q10 40 18 100l54 -5q-18 -109 -18 -134q0 -27 32.5 -48t88.5 -21q37 0 52.5 13.5t15.5 45.5q0 39 -16.5 96t-42.5 102l61 48
q23 -41 40 -102.5t17 -119.5q0 -158 -136 -158q-102 0 -152 67q-44 -67 -126 -67q-94 0 -135 80q-40 -70 -131 -70h-51h-3q-15 0 -26.5 11t-11.5 26zM337 486q33 -18 59 -47q-17 -29 -48 -59q-23 15 -58 48q18 29 47 58zM481 486q34 -18 60 -47q-20 -33 -48 -59
q-21 13 -58 48q16 28 46 58zM406 602q33 -18 59 -47q-17 -32 -47 -60q-24 15 -59 48q17 29 47 59z" />
    <glyph glyph-name="shin.medi" unicode="&#x634;" horiz-adv-x="861" arabic-form="medial" 
d="M-38 37q0 16 11.5 27t26.5 11h53q48 0 79 26t40 70q7 32 17 102l54 -5q-12 -90 -12 -113q0 -45 27 -67.5t65 -22.5q45 0 70.5 26.5t38.5 81.5q10 40 18 100l54 -5q-18 -109 -18 -134q0 -27 32.5 -48t88.5 -21q37 0 52.5 13.5t15.5 45.5q0 25 -35 171l56 36l31 -141
q25 -115 111 -115h23v-75h-22q-43 0 -70.5 14t-50.5 49q-16 -37 -43 -55t-77 -18q-102 0 -152 67q-44 -67 -126 -67q-94 0 -135 80q-40 -70 -131 -70h-51h-3q-15 0 -26.5 11t-11.5 26zM337 486q33 -18 59 -47q-17 -29 -48 -59q-23 15 -58 48q18 29 47 58zM481 486
q34 -18 60 -47q-20 -33 -48 -59q-21 13 -58 48q16 28 46 58zM406 602q33 -18 59 -47q-17 -32 -47 -60q-24 15 -59 48q17 29 47 59z" />
    <glyph glyph-name="sad.fina" unicode="&#x635;" horiz-adv-x="1209" arabic-form="final" 
d="M627 -7q0 -92 -94 -164t-221 -72q-133 0 -197.5 73.5t-64.5 188.5q0 91 31 186l51 -13q-24 -82 -24 -155q0 -205 213 -205q96 0 171.5 52.5t75.5 104.5q0 32 -18 114t-42 158l59 39l31 -119q13 -47 34 -70q5 7 28 38t33 43.5t33.5 41t38.5 42.5t39.5 34.5t45 30
t46.5 17.5t52 8q84 0 133.5 -57t49.5 -121q0 -57 -27 -101q26 -12 85 -12h20v-75h-33q-71 0 -117 40q-72 -50 -205 -50q-97 0 -146 8.5t-82 29.5q1 -13 1 -35zM937 291q-108 0 -258 -210q47 -16 162 -16q112 0 171.5 28.5t59.5 69.5q0 51 -37.5 89.5t-97.5 38.5z" />
    <glyph glyph-name="sad.init" unicode="&#x635;" horiz-adv-x="779" arabic-form="initial" 
d="M-38 37q0 16 11.5 27t26.5 11h13q48 0 81 26.5t42 69.5q9 39 15 102l52 -5q-4 -40 -4 -73q0 -56 31 -84q5 7 28 38t33 43.5t33.5 41t38.5 42.5t39.5 34.5t45 30t46.5 17.5t52 8q84 0 133.5 -57t49.5 -121q0 -35 -10.5 -65.5t-38 -62.5t-86 -51t-142.5 -19
q-125 0 -189 18.5t-103 81.5q-24 -51 -59.5 -70.5t-68.5 -19.5h-29h-3q-15 0 -26.5 11t-11.5 26zM535 291q-108 0 -257 -208q53 -18 161 -18q112 0 171.5 28.5t59.5 69.5q0 51 -37.5 89.5t-97.5 38.5z" />
    <glyph glyph-name="sad.medi" unicode="&#x635;" horiz-adv-x="807" arabic-form="medial" 
d="M-38 37q0 16 11.5 27t26.5 11h13q48 0 81 26.5t42 69.5q9 39 15 102l52 -5q-4 -40 -4 -73q0 -56 31 -84q5 7 28 38t33 43.5t33.5 41t38.5 42.5t39.5 34.5t45 30t46.5 17.5t52 8q84 0 133.5 -57t49.5 -121q0 -57 -27 -101q26 -12 85 -12h20v-75h-33q-71 0 -117 40
q-72 -50 -205 -50q-125 0 -189 18.5t-103 81.5q-24 -51 -59.5 -70.5t-68.5 -19.5h-29h-3q-15 0 -26.5 11t-11.5 26zM535 291q-108 0 -257 -208q53 -18 161 -18q112 0 171.5 28.5t59.5 69.5q0 51 -37.5 89.5t-97.5 38.5z" />
    <glyph glyph-name="zad.fina" unicode="&#x636;" horiz-adv-x="1209" arabic-form="final" 
d="M627 -7q0 -92 -94 -164t-221 -72q-133 0 -197.5 73.5t-64.5 188.5q0 91 31 186l51 -13q-24 -82 -24 -155q0 -205 213 -205q96 0 171.5 52.5t75.5 104.5q0 32 -18 114t-42 158l59 39l31 -119q13 -47 34 -70q5 7 28 38t33 43.5t33.5 41t38.5 42.5t39.5 34.5t45 30
t46.5 17.5t52 8q84 0 133.5 -57t49.5 -121q0 -57 -27 -101q26 -12 85 -12h20v-75h-33q-71 0 -117 40q-72 -50 -205 -50q-97 0 -146 8.5t-82 29.5q1 -13 1 -35zM937 291q-108 0 -258 -210q47 -16 162 -16q112 0 171.5 28.5t59.5 69.5q0 51 -37.5 89.5t-97.5 38.5zM927 576
q31 -17 64 -52q-17 -32 -51 -64q-28 16 -65 51q15 24 52 65z" />
    <glyph glyph-name="zad.init" unicode="&#x636;" horiz-adv-x="779" arabic-form="initial" 
d="M-38 37q0 16 11.5 27t26.5 11h13q48 0 81 26.5t42 69.5q9 39 15 102l52 -5q-4 -40 -4 -73q0 -56 31 -84q5 7 28 38t33 43.5t33.5 41t38.5 42.5t39.5 34.5t45 30t46.5 17.5t52 8q84 0 133.5 -57t49.5 -121q0 -35 -10.5 -65.5t-38 -62.5t-86 -51t-142.5 -19
q-125 0 -189 18.5t-103 81.5q-24 -51 -59.5 -70.5t-68.5 -19.5h-29h-3q-15 0 -26.5 11t-11.5 26zM535 291q-108 0 -257 -208q53 -18 161 -18q112 0 171.5 28.5t59.5 69.5q0 51 -37.5 89.5t-97.5 38.5zM525 576q31 -17 64 -52q-17 -32 -51 -64q-28 16 -65 51q15 24 52 65z
" />
    <glyph glyph-name="zad.medi" unicode="&#x636;" horiz-adv-x="807" arabic-form="medial" 
d="M-38 37q0 16 11.5 27t26.5 11h13q48 0 81 26.5t42 69.5q9 39 15 102l52 -5q-4 -40 -4 -73q0 -56 31 -84q5 7 28 38t33 43.5t33.5 41t38.5 42.5t39.5 34.5t45 30t46.5 17.5t52 8q84 0 133.5 -57t49.5 -121q0 -57 -27 -101q26 -12 85 -12h20v-75h-33q-71 0 -117 40
q-72 -50 -205 -50q-125 0 -189 18.5t-103 81.5q-24 -51 -59.5 -70.5t-68.5 -19.5h-29h-3q-15 0 -26.5 11t-11.5 26zM535 291q-108 0 -257 -208q53 -18 161 -18q112 0 171.5 28.5t59.5 69.5q0 51 -37.5 89.5t-97.5 38.5zM525 576q31 -17 64 -52q-17 -32 -51 -64
q-28 16 -65 51q15 24 52 65z" />
    <glyph glyph-name="ta.fina" unicode="&#x637;" horiz-adv-x="729" arabic-form="final" 
d="M696 0q-71 0 -117 40q-72 -50 -205 -50q-159 0 -310 26l-11 75q37 -7 74 -12l52 71q28 45 35 84.5t7 120.5q0 91 -11 311l61 36q8 -152 8 -286q0 -99 -8 -154q100 104 197 104q84 0 133.5 -57t49.5 -121q0 -57 -27 -101q26 -12 85 -12h20v-75h-33zM361 65
q112 0 171.5 28.5t59.5 69.5q0 51 -37.5 89.5t-97.5 38.5q-109 0 -265 -219q69 -7 169 -7z" />
    <glyph glyph-name="ta.init" unicode="&#x637;" horiz-adv-x="619" arabic-form="initial" 
d="M-38 37q0 16 11.5 27t26.5 11h3h38q10 13 29 39.5t26 35.5q28 45 35 84.5t7 120.5q0 91 -11 311l61 36q8 -152 8 -286q0 -99 -8 -154q100 104 197 104q84 0 133.5 -57t49.5 -121q0 -34 -10.5 -63.5t-38 -59.5t-86 -47.5t-142.5 -17.5h-288h-3q-15 0 -26.5 11t-11.5 26z
M374 291q-109 0 -263 -216h167q114 0 172.5 24t58.5 64q0 51 -37.5 89.5t-97.5 38.5z" />
    <glyph glyph-name="ta.medi" unicode="&#x637;" horiz-adv-x="646" arabic-form="medial" 
d="M-38 37q0 16 11.5 27t26.5 11h3h38q10 13 29 39.5t26 35.5q28 45 35 84.5t7 120.5q0 91 -11 311l61 36q8 -152 8 -286q0 -99 -8 -154q100 104 197 104q84 0 133.5 -57t49.5 -121q0 -58 -29 -100q27 -13 87 -13h20v-75h-33q-74 0 -121 44q-71 -44 -201 -44h-288h-3
q-15 0 -26.5 11t-11.5 26zM374 291q-109 0 -263 -216h167q114 0 172.5 24t58.5 64q0 51 -37.5 89.5t-97.5 38.5z" />
    <glyph glyph-name="za.fina" unicode="&#x638;" horiz-adv-x="714" arabic-form="final" 
d="M681 0q-71 0 -117 40q-72 -50 -205 -50q-159 0 -310 26l-11 75q37 -7 74 -12l52 71q28 45 35 84.5t7 120.5q0 91 -11 311l61 36q8 -152 8 -286q0 -99 -8 -154q100 104 197 104q84 0 133.5 -57t49.5 -121q0 -57 -27 -101q26 -12 85 -12h20v-75h-33zM346 65
q112 0 171.5 28.5t59.5 69.5q0 51 -37.5 89.5t-97.5 38.5q-109 0 -265 -219q69 -7 169 -7zM440 576q31 -17 64 -52q-17 -32 -51 -64q-28 16 -65 51q15 24 52 65z" />
    <glyph glyph-name="za.init" unicode="&#x638;" horiz-adv-x="619" arabic-form="initial" 
d="M-38 37q0 16 11.5 27t26.5 11h3h38q10 13 29 39.5t26 35.5q28 45 35 84.5t7 120.5q0 91 -11 311l61 36q8 -152 8 -286q0 -99 -8 -154q100 104 197 104q84 0 133.5 -57t49.5 -121q0 -34 -10.5 -63.5t-38 -59.5t-86 -47.5t-142.5 -17.5h-288h-3q-15 0 -26.5 11t-11.5 26z
M374 291q-109 0 -263 -216h167q114 0 172.5 24t58.5 64q0 51 -37.5 89.5t-97.5 38.5zM372 576q31 -17 64 -52q-17 -32 -51 -64q-28 16 -65 51q15 24 52 65z" />
    <glyph glyph-name="za.medi" unicode="&#x638;" horiz-adv-x="646" arabic-form="medial" 
d="M-38 37q0 16 11.5 27t26.5 11h3h38q10 13 29 39.5t26 35.5q28 45 35 84.5t7 120.5q0 91 -11 311l61 36q8 -152 8 -286q0 -99 -8 -154q100 104 197 104q84 0 133.5 -57t49.5 -121q0 -58 -29 -100q27 -13 87 -13h20v-75h-33q-74 0 -121 44q-71 -44 -201 -44h-288h-3
q-15 0 -26.5 11t-11.5 26zM374 291q-109 0 -263 -216h167q114 0 172.5 24t58.5 64q0 51 -37.5 89.5t-97.5 38.5zM372 576q31 -17 64 -52q-17 -32 -51 -64q-28 16 -65 51q15 24 52 65z" />
    <glyph glyph-name="ein.fina" unicode="&#x639;" horiz-adv-x="510" arabic-form="final" 
d="M67 -136q0 22 6 49t20 61.5t43.5 69.5t69.5 62l-32 32l-37 37t-38.5 34.5t-48.5 37.5l23 90q107 52 201 52q26 0 52.5 -5t55.5 -16.5t47 -36.5t18 -59q0 -90 -111 -179q46 -18 123 -18h51v-75h-70q-108 0 -185 60q-133 -78 -133 -191q0 -76 62.5 -130.5t193.5 -54.5
q81 0 178 21l-16 -76q-94 -20 -170 -20q-149 0 -226 71t-77 184zM119 283q43 -36 91.5 -88t65.5 -66q56 34 87 73t31 58q0 22 -40 38t-91 16q-79 0 -144 -31z" />
    <glyph glyph-name="ein.init" unicode="&#x639;" horiz-adv-x="504" arabic-form="initial" 
d="M235 339q-43 0 -78.5 -40t-35.5 -78q0 -24 40.5 -59t98.5 -35q44 0 83 11.5t115 45.5l-7 -73q-218 -111 -439 -111h-12q-15 0 -26.5 11t-11.5 26q0 16 11.5 27t26.5 11q98 0 155 8q-38 22 -61.5 55.5t-23.5 72.5q0 88 55 145.5t110 57.5q40 0 77.5 -21.5t54.5 -42.5
l17 -22l-25 -40q-73 51 -124 51z" />
    <glyph glyph-name="ein.medi" unicode="&#x639;" horiz-adv-x="521" arabic-form="medial" 
d="M-38 37q0 16 11.5 27t26.5 11h3h81q79 0 142 22q-10 10 -33.5 34t-39 39.5t-41 37t-51.5 39.5l23 90q107 52 201 52q26 0 52.5 -5t55.5 -16.5t47 -36.5t18 -59q0 -44 -28 -92.5t-78 -88.5q44 -16 118 -16h51v-75h-70q-99 0 -167 47q-91 -47 -203 -47h-78h-3
q-15 0 -26.5 11t-11.5 26zM130 283q42 -36 92 -88.5t69 -68.5q54 32 84 73t30 61q0 22 -40 38t-91 16q-79 0 -144 -31z" />
    <glyph glyph-name="qein.fina" unicode="&#x63a;" horiz-adv-x="510" arabic-form="final" 
d="M67 -136q0 22 6 49t20 61.5t43.5 69.5t69.5 62l-32 32l-37 37t-38.5 34.5t-48.5 37.5l23 90q107 52 201 52q26 0 52.5 -5t55.5 -16.5t47 -36.5t18 -59q0 -90 -111 -179q46 -18 123 -18h51v-75h-70q-108 0 -185 60q-133 -78 -133 -191q0 -76 62.5 -130.5t193.5 -54.5
q81 0 178 21l-16 -76q-94 -20 -170 -20q-149 0 -226 71t-77 184zM119 283q43 -36 91.5 -88t65.5 -66q56 34 87 73t31 58q0 22 -40 38t-91 16q-79 0 -144 -31zM247 596q31 -17 64 -52q-17 -32 -51 -64q-28 16 -65 51q15 24 52 65z" />
    <glyph glyph-name="qein.init" unicode="&#x63a;" horiz-adv-x="504" arabic-form="initial" 
d="M235 339q-43 0 -78.5 -40t-35.5 -78q0 -24 40.5 -59t98.5 -35q44 0 83 11.5t115 45.5l-7 -73q-218 -111 -439 -111h-12q-15 0 -26.5 11t-11.5 26q0 16 11.5 27t26.5 11q98 0 155 8q-38 22 -61.5 55.5t-23.5 72.5q0 88 55 145.5t110 57.5q40 0 77.5 -21.5t54.5 -42.5
l17 -22l-25 -40q-73 51 -124 51zM197 626q31 -17 64 -52q-17 -32 -51 -64q-28 16 -65 51q15 24 52 65z" />
    <glyph glyph-name="qein.medi" unicode="&#x63a;" horiz-adv-x="521" arabic-form="medial" 
d="M-38 37q0 16 11.5 27t26.5 11h3h81q79 0 142 22q-10 10 -33.5 34t-39 39.5t-41 37t-51.5 39.5l23 90q107 52 201 52q26 0 52.5 -5t55.5 -16.5t47 -36.5t18 -59q0 -44 -28 -92.5t-78 -88.5q44 -16 118 -16h51v-75h-70q-99 0 -167 47q-91 -47 -203 -47h-78h-3
q-15 0 -26.5 11t-11.5 26zM130 283q42 -36 92 -88.5t69 -68.5q54 32 84 73t30 61q0 22 -40 38t-91 16q-79 0 -144 -31zM247 596q31 -17 64 -52q-17 -32 -51 -64q-28 16 -65 51q15 24 52 65z" />
    <glyph glyph-name="fe.fina" unicode="&#x641;" horiz-adv-x="822" arabic-form="final" 
d="M337 65q116 0 194 23q-61 58 -61 130q0 69 48 128t104 59q58 0 98 -45t40 -132q0 -76 -90 -142q39 -11 89 -11h63v-75h-53q-96 0 -174 42q-112 -52 -258 -52q-75 0 -129.5 13.5t-84 33t-47 50t-22 55.5t-4.5 58q0 26 3.5 60.5t6.5 56.5l4 22l52 -7q-10 -67 -10 -111
q0 -80 49.5 -118t181.5 -38zM703 204q-2 58 -25.5 92t-61.5 34q-34 0 -61 -38t-27 -69q0 -22 18.5 -52.5t55.5 -54.5q59 32 101 88zM607 626q31 -17 64 -52q-17 -32 -51 -64q-28 16 -65 51q15 24 52 65z" />
    <glyph glyph-name="fe.init" unicode="&#x641;" horiz-adv-x="428" arabic-form="initial" 
d="M-38 37q0 16 11.5 27t26.5 11h3q54 0 85 0.5t67 2t54 4.5t39 8.5t30 13t18 19.5t12.5 26.5t5.5 34.5q-53 -12 -103 -12q-63 0 -102 33.5t-39 106.5q0 70 38 130.5t110 60.5t116 -76.5t44 -179.5q0 -52 -9.5 -91t-22 -65.5t-42 -44t-52.5 -26.5t-71.5 -13.5t-81.5 -5.5
t-99 -1q-15 0 -26.5 11t-11.5 26zM211 247q58 0 104 10q-6 68 -35 119.5t-73 51.5q-34 0 -56.5 -32t-22.5 -74q0 -43 21 -59t62 -16zM192 689q31 -17 64 -52q-17 -32 -51 -64q-28 16 -65 51q15 24 52 65z" />
    <glyph glyph-name="fe.medi" unicode="&#x641;" horiz-adv-x="420" arabic-form="medial" 
d="M-38 37q0 16 11.5 27t26.5 11h3h14q63 0 111 13q-60 57 -60 130q0 69 48 128t104 59q58 0 98 -45t40 -132q0 -71 -91 -142q39 -11 90 -11h63v-75h-53q-96 0 -173 41q-87 -41 -170 -41h-21h-3q-15 0 -26.5 11t-11.5 26zM126 223q0 -22 18.5 -52.5t54.5 -54.5q59 31 102 88
q-2 58 -25.5 92t-61.5 34q-34 0 -61 -38t-27 -69zM202 626q31 -17 64 -52q-17 -32 -51 -64q-28 16 -65 51q15 24 52 65z" />
    <glyph glyph-name="qaf.fina" unicode="&#x642;" horiz-adv-x="695" arabic-form="final" 
d="M305 131q0 48 14 89.5t50 72t88 30.5q72 0 113.5 -67.5t51.5 -180.5h73v-75h-69v-7q0 -92 -94 -164t-221 -72q-133 0 -197.5 73.5t-64.5 188.5q0 91 31 186l51 -13q-24 -82 -24 -155q0 -205 213 -205q96 0 171.5 52.5t75.5 104.5v11h-124q-70 0 -104 34.5t-34 96.5z
M362 141q0 -35 19 -50.5t60 -15.5h119q-26 173 -114 173q-39 0 -61.5 -30.5t-22.5 -76.5zM347 511q33 -18 59 -47q-17 -29 -48 -59q-23 15 -58 48q18 29 47 58zM491 511q34 -18 60 -47q-20 -33 -48 -59q-21 13 -58 48q16 28 46 58z" />
    <glyph glyph-name="qaf.init" unicode="&#x642;" horiz-adv-x="428" arabic-form="initial" 
d="M-38 37q0 16 11.5 27t26.5 11h3q54 0 85 0.5t67 2t54 4.5t39 8.5t30 13t18 19.5t12.5 26.5t5.5 34.5q-53 -12 -103 -12q-63 0 -102 33.5t-39 106.5q0 70 38 130.5t110 60.5t116 -76.5t44 -179.5q0 -52 -9.5 -91t-22 -65.5t-42 -44t-52.5 -26.5t-71.5 -13.5t-81.5 -5.5
t-99 -1q-15 0 -26.5 11t-11.5 26zM211 247q58 0 104 10q-6 68 -35 119.5t-73 51.5q-34 0 -56.5 -32t-22.5 -74q0 -43 21 -59t62 -16zM127 690q33 -18 59 -47q-17 -29 -48 -59q-23 15 -58 48q18 29 47 58zM271 690q34 -18 60 -47q-20 -33 -48 -59q-21 13 -58 48q16 28 46 58z
" />
    <glyph glyph-name="qaf.medi" unicode="&#x642;" horiz-adv-x="420" arabic-form="medial" 
d="M-38 37q0 16 11.5 27t26.5 11h3h14q63 0 111 13q-60 57 -60 130q0 69 48 128t104 59q58 0 98 -45t40 -132q0 -71 -91 -142q39 -11 90 -11h63v-75h-53q-96 0 -173 41q-87 -41 -170 -41h-21h-3q-15 0 -26.5 11t-11.5 26zM126 223q0 -22 18.5 -52.5t54.5 -54.5q59 31 102 88
q-2 58 -25.5 92t-61.5 34q-34 0 -61 -38t-27 -69zM137 616q33 -18 59 -47q-17 -29 -48 -59q-23 15 -58 48q18 29 47 58zM281 616q34 -18 60 -47q-20 -33 -48 -59q-21 13 -58 48q16 28 46 58z" />
    <glyph glyph-name="kaf.arab.fina" unicode="&#x643;" horiz-adv-x="859" arabic-form="final" 
d="M853 0q-97 0 -144 85q-73 -95 -372 -95q-75 0 -129.5 13.5t-84 33t-47 50t-22 55.5t-4.5 58q0 26 3.5 60.5t6.5 56.5l4 22l52 -7q-10 -67 -10 -111q0 -80 49.5 -118t181.5 -38q342 0 342 97q0 260 -19 504l61 36q3 -60 10 -257t7 -204q4 -94 30 -130t85 -36v-75zM349 394
q0 -11 32.5 -17t65 -16t32.5 -32q0 -44 -45.5 -75.5t-113.5 -31.5l-25 43q105 0 148 50q-13 7 -48.5 11.5t-57 17t-21.5 42.5q0 38 28 72t59 34q22 0 40.5 -11t26.5 -23l8 -11l-21 -24q-25 24 -53 24q-20 0 -37.5 -19.5t-17.5 -33.5z" />
    <glyph glyph-name="lam.fina" unicode="&#x644;" horiz-adv-x="651" arabic-form="final" 
d="M542 18q0 -94 -77 -157.5t-175 -63.5q-118 0 -179 74.5t-61 187.5q0 91 31 186l50 -13q-24 -82 -24 -155q0 -92 46 -148t139 -56q81 0 136 43t55 93q0 89 -9 332.5t-15 324.5l61 36q8 -161 16 -451q4 -93 31.5 -134.5t83.5 -41.5v-75q-68 0 -109 48v-30z" />
    <glyph glyph-name="lam.init" unicode="&#x644;" horiz-adv-x="264" arabic-form="initial" 
d="M155 164q0 258 -19 502l61 36q17 -343 17 -510q0 -88 -51 -140t-143 -52h-20q-15 0 -26.5 11t-11.5 26q0 16 11.5 27t26.5 11h27q62 0 95 23.5t33 65.5z" />
    <glyph glyph-name="lam.medi" unicode="&#x644;" horiz-adv-x="329" arabic-form="medial" 
d="M-38 37q0 16 11.5 27t26.5 11h27q62 0 95 23.5t33 65.5q0 258 -19 502l61 36q3 -60 10 -257t7 -204q4 -94 30 -130t85 -36v-75q-95 0 -142 82q-49 -82 -167 -82h-20q-15 0 -26.5 11t-11.5 26z" />
    <glyph glyph-name="mim.fina" unicode="&#x645;" horiz-adv-x="610" arabic-form="final" 
d="M610 75v-75h-19q-32 0 -65 14.5t-52 44.5q-31 -69 -113 -69q-76 0 -130 51t-62 151q-66 -48 -66 -82q0 -17 13 -109.5t26 -176.5l13 -83l-50 -35q-55 325 -55 401q0 55 50.5 106.5t117.5 80.5t122 29q57 0 86.5 -29.5t49.5 -95.5q19 -64 47 -93.5t87 -29.5zM336 253
q-56 0 -116 -30q4 -73 40.5 -115.5t104.5 -42.5q83 0 55 104q-11 41 -29 62.5t-55 21.5z" />
    <glyph glyph-name="mim.init" unicode="&#x645;" horiz-adv-x="495" arabic-form="initial" 
d="M-38 37q0 16 11.5 27t26.5 11h3h12q40 0 71 25t51.5 60.5t40.5 71.5t50.5 61t69.5 25q59 0 103 -59.5t44 -133.5q0 -59 -31 -97t-92 -38q-99 0 -189 72q-52 -62 -118 -62h-12h-3q-15 0 -26.5 11t-11.5 26zM292 243q-11 0 -20.5 -3.5t-19 -11t-16.5 -14.5t-16.5 -21
t-15 -22.5t-16 -26t-15.5 -25.5q64 -54 162 -54q25 0 38.5 13.5t13.5 29.5q0 49 -26 92t-69 43z" />
    <glyph glyph-name="mim.medi" unicode="&#x645;" horiz-adv-x="566" arabic-form="medial" 
d="M431 61q-24 -71 -109 -71q-99 0 -189 72q-52 -62 -118 -62h-12h-3q-15 0 -26.5 11t-11.5 26q0 16 11.5 27t26.5 11h15q40 0 71 25t51.5 60.5t40.5 71.5t50.5 61t69.5 25q94 0 141 -150q15 -48 43 -70.5t84 -22.5v-75h-14q-33 0 -67.5 15.5t-53.5 45.5zM292 243
q-11 0 -20.5 -3.5t-19 -11t-16.5 -14.5t-16.5 -21t-15 -22.5t-16 -26t-15.5 -25.5q64 -54 162 -54q25 0 38.5 13.5t13.5 29.5q0 43 -26.5 89t-68.5 46z" />
    <glyph glyph-name="nun.fina" unicode="&#x646;" horiz-adv-x="725" arabic-form="final" 
d="M708 0q-55 0 -81 21v-28q0 -92 -94 -164t-221 -72q-133 0 -197.5 73.5t-64.5 188.5q0 91 31 186l51 -13q-24 -82 -24 -155q0 -205 213 -205q96 0 171.5 52.5t75.5 104.5q0 32 -18 114t-42 158l59 39l34 -129q15 -56 37 -76t72 -20h15v-75h-17zM315 168q31 -17 64 -52
q-17 -32 -51 -64q-28 16 -65 51q15 24 52 65z" />
    <glyph glyph-name="nun.init" unicode="&#x646;" horiz-adv-x="316" arabic-form="initial" 
d="M207 157q0 82 -37 185l65 41q31 -96 31 -191q0 -88 -51 -140t-143 -52h-72q-15 0 -26.5 11t-11.5 26q0 16 11.5 27t26.5 11h49q87 0 122.5 24.5t35.5 57.5zM117 576q31 -17 64 -52q-17 -32 -51 -64q-28 16 -65 51q15 24 52 65z" />
    <glyph glyph-name="nun.medi" unicode="&#x646;" horiz-adv-x="396" arabic-form="medial" 
d="M-38 37q0 16 11.5 27t26.5 11h79q116 0 116 85q0 71 -8 143l60 30l9 -148q6 -110 107 -110h33v-75h-32q-93 0 -138 70q-44 -70 -157 -70h-69q-15 0 -26.5 11t-11.5 26zM135 553q31 -17 64 -52q-17 -32 -51 -64q-28 16 -65 51q15 24 52 65z" />
    <glyph glyph-name="he.fina" unicode="&#x647;" horiz-adv-x="484" arabic-form="final" 
d="M484 0h-22q-114 0 -159 87l-18 -53q-39 -4 -58 -4q-55 0 -92.5 10.5t-54.5 29.5t-23.5 37.5t-6.5 43.5q0 52 51 112.5t163 118.5l-5 73l59 30l19 -295q7 -115 120 -115h27v-75zM215 105q41 0 79 3q-14 35 -17 84l-8 115q-76 -34 -120 -78.5t-44 -69.5q0 -11 8 -22
t34.5 -21.5t67.5 -10.5z" />
    <glyph glyph-name="he.init" unicode="&#x647;" horiz-adv-x="564" arabic-form="initial" 
d="M-38 37q0 16 11.5 27t26.5 11h37q70 0 118 18q-80 56 -80 124q0 100 97 176l-36 24l40 64q32 -24 85 -61t82 -58t66.5 -53t57 -56.5t33.5 -56.5t14 -65q0 -59 -24.5 -100t-60.5 -41q-82 0 -208 64q-83 -54 -183 -54h-35h-3q-15 0 -26.5 11t-11.5 26zM132 236
q0 -51 90 -102q37 31 67 87q3 10 3 25q0 37 -18 65.5t-52 28.5q-32 0 -61 -33t-29 -71zM346 279q0 -98 -66 -174q91 -40 144 -40q12 0 22.5 12.5t10.5 37.5q0 80 -111 164z" />
    <glyph glyph-name="he.medi" unicode="&#x647;" horiz-adv-x="498" arabic-form="medial" 
d="M-38 37q0 16 11.5 27t26.5 11h15q52 0 91 7q-1 8 -1 26q0 132 49 224.5t100 92.5q38 0 86.5 -69t48.5 -146q0 -58 -62 -105.5t-154 -76.5q30 -91 108 -158q-1 12 -1 34q0 76 40 123.5t122 47.5h56v-75h-67q-49 0 -75 -32t-26 -78t25 -83l-42 -52q-161 117 -197 258
q-55 -13 -104 -13h-9h-3q-15 0 -26.5 11t-11.5 26zM160 110v-17q74 20 122 54.5t48 57.5q0 33 -25 78t-63 67q-35 -29 -58.5 -94t-23.5 -146z" />
    <glyph glyph-name="vav.fina" unicode="&#x648;" horiz-adv-x="453" arabic-form="final" 
d="M145 -158q46 0 82.5 19t55 46.5t28 51.5t9.5 41h-119q-70 0 -104 34.5t-34 96.5q0 48 14 89.5t50 72t88 30.5q70 0 113 -68t50 -180h75v-75h-76q-11 -109 -76.5 -171t-150.5 -62q-32 0 -66 15.5t-52 30.5l-17 15l29 41q47 -27 101 -27zM199 75h116q-5 45 -16 81t-36 64
t-59 28q-39 0 -61.5 -30.5t-22.5 -76.5q0 -35 19 -50.5t60 -15.5z" />
    <glyph glyph-name="alef.maksura.fina" unicode="&#x649;" horiz-adv-x="587" arabic-form="final" 
d="M319 -168q89 0 161.5 46t87.5 98q-49 34 -226 34h-24l17 65h252v-35q38 -18 38 -47q0 -92 -94 -164t-221 -72q-133 0 -197.5 73.5t-64.5 188.5q0 91 31 186l51 -13q-24 -82 -24 -155q0 -205 213 -205z" />
    <glyph glyph-name="ye.arab.fina" unicode="&#x64a;" horiz-adv-x="587" arabic-form="final" 
d="M319 -168q89 0 161.5 46t87.5 98q-49 34 -226 34h-24l17 65h252v-35q38 -18 38 -47q0 -92 -94 -164t-221 -72q-133 0 -197.5 73.5t-64.5 188.5q0 91 31 186l51 -13q-24 -82 -24 -155q0 -205 213 -205zM248 -291q33 -18 59 -47q-16 -28 -47 -59q-24 14 -59 47q17 29 47 59
zM393 -291q33 -18 59 -47q-20 -33 -48 -59q-23 14 -58 47q16 30 47 59z" />
    <glyph glyph-name=".notdef" horiz-adv-x="445" 
d="M100 52h242v509h-242v-509zM93 614h255q18 0 30.5 -13t12.5 -30v-528q0 -18 -12.5 -30.5t-30.5 -12.5h-255q-18 0 -30.5 12.5t-12.5 30.5v528q0 17 12.5 30t30.5 13z" />
    <glyph glyph-name=".null" horiz-adv-x="1000" 
 />
    <glyph glyph-name="nonmarkingreturn" horiz-adv-x="333" 
 />
    <glyph glyph-name="line_feed" unicode="&#xa;" 
 />
    <glyph glyph-name="carriage_return" unicode="&#xd;" 
 />
    <glyph glyph-name="space" unicode=" " horiz-adv-x="150" 
 />
    <glyph glyph-name="exclam" unicode="!" horiz-adv-x="190" 
d="M56 608l64 15v-436l-50 -10zM50 45q0 19 13 32t32 13t32 -13t13 -32t-13 -32t-32 -13t-32 13t-13 32z" />
    <glyph glyph-name="quotedbl" unicode="&#x22;" horiz-adv-x="241" 
d="M90 481h-31q0 44 -4.5 73.5t-4.5 65.5h49q0 -36 -4.5 -65.5t-4.5 -73.5zM182 481h-31q0 44 -4.5 73.5t-4.5 65.5h49q0 -36 -4.5 -65.5t-4.5 -73.5z" />
    <glyph glyph-name="numbersign" unicode="#" horiz-adv-x="481" 
d="M50 92v52q31 -1 95 -1v48v43q-33 0 -95 -2v52q31 -1 95 -1q0 32 -2 98h48q-1 -32 -1 -98h50h47q0 32 -2 98h48q-1 -32 -1 -98q66 0 99 1v-52q-66 2 -99 2v-43v-48q66 0 99 1v-52q-66 2 -99 2q0 -63 1 -94h-48l2 94h-47h-50q0 -63 1 -94h-48l2 94q-33 0 -95 -2zM240 234
h-50v-43v-48h50h47v48v43h-47z" />
    <glyph glyph-name="quotesingle" unicode="'" horiz-adv-x="149" 
d="M90 481h-31q0 44 -4.5 73.5t-4.5 65.5h49q0 -36 -4.5 -65.5t-4.5 -73.5z" />
    <glyph glyph-name="parenleft" unicode="(" horiz-adv-x="334" 
d="M284 -247l-42 -43q-93 101 -142.5 203.5t-49.5 233.5t49.5 233t142.5 204l42 -43q-77 -79 -125.5 -180.5t-48.5 -210.5q0 -107 49.5 -213.5t124.5 -183.5z" />
    <glyph glyph-name="parenright" unicode=")" horiz-adv-x="334" 
d="M92 -290l-42 43q75 77 124.5 183.5t49.5 213.5q0 109 -48.5 210.5t-125.5 180.5l42 43q93 -102 142.5 -204t49.5 -233t-49.5 -233.5t-142.5 -203.5z" />
    <glyph glyph-name="asterisk" unicode="*" horiz-adv-x="489" 
d="M210 528l-95 135l47 34l80 -156l77 156l51 -34l-96 -136l165 10v-54l-165 7l96 -136l-51 -34l-77 156l-80 -156l-47 33l95 137l-160 -7v54z" />
    <glyph glyph-name="plus" unicode="+" horiz-adv-x="456" 
d="M252 355v-151h154v-52h-154v-152h-48v152h-154v52h154v151h48z" />
    <glyph glyph-name="hyphen_minus" unicode="-" horiz-adv-x="456" 
d="M406 152h-356v52h356v-52z" />
    <glyph glyph-name="period" unicode="." horiz-adv-x="190" 
d="M50 45q0 19 13 32t32 13t32 -13t13 -32t-13 -32t-32 -13t-32 13t-13 32z" />
    <glyph glyph-name="slash" unicode="/" horiz-adv-x="354" 
d="M255 680l49 -16l-206 -793l-48 13z" />
    <glyph glyph-name="zero" unicode="0" horiz-adv-x="511" 
d="M263 661q90 0 144 -82.5t54 -244.5q0 -171 -56.5 -258t-156.5 -87q-84 0 -141 84.5t-57 248.5q0 167 61.5 253t151.5 86zM255 621q-69 0 -112.5 -80t-43.5 -220q0 -135 42.5 -213.5t112.5 -78.5q79 0 118.5 81t39.5 219q0 135 -38.5 213.5t-118.5 78.5z" />
    <glyph glyph-name="one" unicode="1" horiz-adv-x="267" 
d="M170 0v601l-3 1l-105 -63l-12 38l123 73h44v-650h-47z" />
    <glyph glyph-name="two" unicode="2" horiz-adv-x="487" 
d="M437 0h-387v30l60 62q68 70 96.5 100.5t69 77.5t55.5 74t27 61t12 67q0 64 -32.5 105.5t-108.5 41.5q-73 0 -138 -56l-19 33q72 65 166 65q92 0 136.5 -55t44.5 -124q0 -47 -15.5 -90.5t-53.5 -94.5t-77 -93.5t-110 -113.5l-46 -46l1 -3h319v-41z" />
    <glyph glyph-name="three" unicode="3" horiz-adv-x="472" 
d="M50 33l19 38q21 -15 59.5 -28t80.5 -13q47 0 81.5 15t51.5 39t24 48t7 48q-1 77 -56.5 115t-135.5 38h-41v40h44q62 0 112.5 34.5t50.5 96.5q0 50 -31 83t-95 33q-67 0 -126 -45l-19 35q26 21 67 36t84 15q86 0 127.5 -44t41.5 -107q0 -50 -31.5 -90.5t-90.5 -62.5l1 -3
q64 -13 105.5 -58.5t41.5 -113.5q0 -79 -56.5 -136t-162.5 -57q-94 0 -153 44z" />
    <glyph glyph-name="four" unicode="4" horiz-adv-x="555" 
d="M406 0h-46v191h-310v32l317 427h39v-419h99v-40h-99v-191zM108 231h252v263q0 46 3 90l-3 1q-29 -53 -51 -82l-202 -269z" />
    <glyph glyph-name="five" unicode="5" horiz-adv-x="469" 
d="M414 650v-42h-245l-32 -208q30 4 60 4q89 0 155.5 -53.5t66.5 -143.5q0 -96 -63.5 -157t-155.5 -61q-94 0 -150 42l19 38q57 -39 134 -39q71 0 119.5 47.5t48.5 120.5q0 74 -47.5 119.5t-140.5 45.5q-53 0 -93 -7l42 294h282z" />
    <glyph glyph-name="six" unicode="6" horiz-adv-x="514" 
d="M404 661v-44q-40 0 -71 -7q-101 -21 -162.5 -98t-71.5 -178l3 -1q25 39 69 65t100 26q88 0 140.5 -58.5t52.5 -150.5q0 -91 -54 -158.5t-148 -67.5q-92 0 -152 72t-60 201q0 184 107 295q71 76 182 96q32 8 65 8zM265 29q66 0 108 50t42 132q0 83 -43.5 127.5
t-112.5 44.5q-46 0 -86.5 -25.5t-63.5 -68.5q-11 -20 -11 -38q0 -101 44 -161.5t123 -60.5z" />
    <glyph glyph-name="seven" unicode="7" horiz-adv-x="480" 
d="M50 650h380v-35l-293 -615h-47l291 606l-2 3h-329v41z" />
    <glyph glyph-name="eight" unicode="8" horiz-adv-x="506" 
d="M186 343l-1 4q-110 47 -110 147q0 73 53 120t132 47t126 -45.5t47 -110.5q0 -104 -115 -156v-4q138 -54 138 -172q0 -80 -60.5 -132t-143.5 -52q-87 0 -144.5 49.5t-57.5 123.5q0 123 136 181zM252 29q70 0 112.5 38.5t42.5 98.5q0 65 -41 102t-126 61
q-68 -20 -104.5 -61.5t-36.5 -95.5q0 -61 41 -102t112 -41zM255 622q-62 0 -97.5 -35t-35.5 -86q0 -56 36.5 -88.5t106.5 -50.5q119 41 119 139q0 50 -32 85.5t-97 35.5z" />
    <glyph glyph-name="nine" unicode="9" horiz-adv-x="505" 
d="M103 -11v43q41 0 74 6q83 14 142 76q70 77 88 206l-3 -1q-65 -84 -168 -84q-87 0 -136.5 57.5t-49.5 139.5q0 93 58.5 161t150.5 68q86 0 141 -71.5t55 -199.5q0 -196 -111 -309q-66 -66 -153 -83q-47 -9 -79 -9h-9zM249 621q-66 0 -108.5 -52.5t-42.5 -133.5
q0 -72 40.5 -115.5t105.5 -43.5q50 0 91 23.5t64 60.5q8 16 8 29q0 107 -40 169.5t-118 62.5z" />
    <glyph glyph-name="colon" unicode=":" horiz-adv-x="190" 
d="M50 45q0 19 13 32t32 13t32 -13t13 -32t-13 -32t-32 -13t-32 13t-13 32zM50 265q0 19 13 32t32 13t32 -13t13 -32t-13 -32t-32 -13t-32 13t-13 32z" />
    <glyph glyph-name="less" unicode="&#x3c;" horiz-adv-x="353" 
d="M50 210v60l231 142l22 -46l-208 -126l208 -126l-22 -46z" />
    <glyph glyph-name="equal" unicode="=" horiz-adv-x="456" 
d="M406 152h-356v52h356v-52zM406 282h-356v52h356v-52z" />
    <glyph glyph-name="greater" unicode="&#x3e;" horiz-adv-x="353" 
d="M303 270v-60l-231 -142l-22 46l208 126l-208 126l22 46z" />
    <glyph glyph-name="bracketleft" unicode="[" horiz-adv-x="279" 
d="M229 681v-61h-123v-849h123v-61h-137q-18 0 -30 12t-12 30v888q0 17 12 29t30 12h137z" />
    <glyph glyph-name="backslash" unicode="\" horiz-adv-x="354" 
d="M50 664l49 16l205 -796l-48 -13z" />
    <glyph glyph-name="bracketright" unicode="]" horiz-adv-x="279" 
d="M50 -289v61h123v849h-123v61h137q18 0 30 -12t12 -30v-888q0 -17 -12 -29t-30 -12h-137z" />
    <glyph glyph-name="underscore" unicode="_" horiz-adv-x="456" 
d="M406 0h-356v52h356v-52z" />
    <glyph glyph-name="braceleft" unicode="{" horiz-adv-x="304" 
d="M108 195q45 -47 45 -105v-224q0 -59 16.5 -84t51.5 -25h33v-47h-61q-47 0 -71.5 47t-24.5 119v214q0 52 -47 87v38q47 34 47 87v213q0 72 24.5 119t71.5 47h61v-47h-33q-35 0 -51.5 -25t-16.5 -84v-223q0 -58 -45 -107z" />
    <glyph glyph-name="bar" unicode="|" horiz-adv-x="156" 
d="M50 -193v788h56v-788h-56z" />
    <glyph glyph-name="braceright" unicode="}" horiz-adv-x="304" 
d="M196 195q-45 49 -45 107v223q0 59 -16.5 84t-51.5 25h-33v47h61q47 0 71.5 -47t24.5 -119v-213q0 -53 47 -87v-38q-47 -35 -47 -87v-214q0 -72 -24.5 -119t-71.5 -47h-61v47h33q35 0 51.5 25t16.5 84v224q0 58 45 105z" />
    <glyph glyph-name="nbspace" unicode="&#xa0;" horiz-adv-x="150" 
 />
    <glyph glyph-name="brokenbar" unicode="&#xa6;" horiz-adv-x="156" 
d="M50 277v318h56v-318h-56zM50 -193v318h56v-318h-56z" />
    <glyph glyph-name="guillemotleft" unicode="&#xab;" horiz-adv-x="446" 
d="M236 210q0 78 32.5 139t92.5 125l35 -30q-110 -123 -110 -232q0 -112 110 -235l-35 -30q-60 64 -92.5 125t-32.5 138zM103 212q0 -127 133 -271l-37 -35q-71 78 -110 147t-39 157q0 89 38.5 158t110.5 147l37 -35q-60 -65 -96.5 -128.5t-36.5 -139.5z" />
    <glyph glyph-name="logicalnot" unicode="&#xac;" horiz-adv-x="456" 
d="M406 38h-48v152h-308v52h356v-204z" />
    <glyph glyph-name="softHyphen" unicode="&#xad;" horiz-adv-x="456" 
d="M406 152h-356v52h356v-52z" />
    <glyph glyph-name="degree" unicode="&#xb0;" horiz-adv-x="295" 
d="M148 626q49 0 73 -27t24 -71q0 -45 -24 -71.5t-73 -26.5q-50 0 -74 26.5t-24 71.5t24.5 71.5t73.5 26.5zM148 585q-29 0 -44 -15.5t-15 -41.5t15 -41.5t44 -15.5q28 0 43 15.5t15 41.5t-15 41.5t-43 15.5z" />
    <glyph glyph-name="plusminus" unicode="&#xb1;" horiz-adv-x="456" 
d="M252 479v-151h154v-52h-154v-152h-48v152h-154v52h154v151h48zM406 0h-356v52h356v-52z" />
    <glyph glyph-name="paragraph" unicode="&#xb6;" horiz-adv-x="452" 
d="M262 0h-56v338q-66 0 -111 45t-45 117q0 83 61 141.5t174 58.5q79 0 117 -9v-691h-56v639h-84v-639z" />
    <glyph glyph-name="periodcentered" unicode="&#xb7;" horiz-adv-x="248" 
d="M109 401q23 0 38.5 -16t15.5 -38q0 -23 -16 -39t-38 -16t-38 16t-16 39q0 22 16 38t38 16z" />
    <glyph glyph-name="guillemotright" unicode="&#xbb;" horiz-adv-x="446" 
d="M210 210q0 -77 -32.5 -138t-92.5 -125l-35 30q110 123 110 235q0 109 -110 232l35 30q60 -64 92.5 -125t32.5 -139zM343 212q0 76 -36.5 139.5t-96.5 128.5l37 35q72 -78 110.5 -147t38.5 -158q0 -88 -39 -157t-110 -147l-37 35q133 144 133 271z" />
    <glyph glyph-name="multiply" unicode="&#xd7;" horiz-adv-x="415" 
d="M327 374l38 -31l-130 -153l123 -157l-33 -33l-119 154l-119 -154l-34 32l123 158l-126 149l35 33l121 -147z" />
    <glyph glyph-name="divide" unicode="&#xf7;" horiz-adv-x="456" 
d="M406 152h-356v52h356v-52zM189 40q0 16 11.5 28t28.5 12t28.5 -12t11.5 -28t-11.5 -28t-28.5 -12t-28.5 12t-11.5 28zM189 317q0 17 11.5 28.5t28.5 11.5t28.5 -11.5t11.5 -28.5t-11.5 -28.5t-28.5 -11.5t-28.5 11.5t-11.5 28.5z" />
    <glyph glyph-name="darhezar" unicode="&#x609;" horiz-adv-x="700" 
d="M396 680l48 -26l-346 -718l-48 25zM340 50q0 21 14.5 35.5t35.5 14.5t35.5 -14.5t14.5 -35.5t-14.5 -35.5t-35.5 -14.5t-35.5 14.5t-14.5 35.5zM55 571q0 21 14.5 35.5t35.5 14.5t35.5 -14.5t14.5 -35.5t-14.5 -35.5t-35.5 -14.5t-35.5 14.5t-14.5 35.5zM550 50
q0 21 14.5 35.5t35.5 14.5t35.5 -14.5t14.5 -35.5t-14.5 -35.5t-35.5 -14.5t-35.5 14.5t-14.5 35.5z" />
    <glyph glyph-name="darDahezar" unicode="&#x60a;" horiz-adv-x="911" 
d="M396 680l48 -26l-346 -718l-48 25zM340 50q0 21 14.5 35.5t35.5 14.5t35.5 -14.5t14.5 -35.5t-14.5 -35.5t-35.5 -14.5t-35.5 14.5t-14.5 35.5zM55 571q0 21 14.5 35.5t35.5 14.5t35.5 -14.5t14.5 -35.5t-14.5 -35.5t-35.5 -14.5t-35.5 14.5t-14.5 35.5zM550 50
q0 21 14.5 35.5t35.5 14.5t35.5 -14.5t14.5 -35.5t-14.5 -35.5t-35.5 -14.5t-35.5 14.5t-14.5 35.5zM761 50q0 21 14.5 35.5t35.5 14.5t35.5 -14.5t14.5 -35.5t-14.5 -35.5t-35.5 -14.5t-35.5 14.5t-14.5 35.5z" />
    <glyph glyph-name="virgul" unicode="&#x60c;" horiz-adv-x="190" 
d="M50 55q0 86 71 122l10 -28q-45 -25 -51 -62q6 3 15 3q19 0 32 -13t13 -32t-13 -32t-32 -13t-32 15t-13 40z" />
    <glyph glyph-name="tarikh.sep" unicode="&#x60d;" horiz-adv-x="335" 
d="M98 -194l-48 25l187 389l48 -25z" />
    <glyph glyph-name="noqte_virgul" unicode="&#x61b;" horiz-adv-x="190" 
d="M50 275q0 86 71 122l10 -28q-45 -25 -51 -62q6 3 15 3q19 0 32 -13t13 -32t-13 -32t-32 -13t-32 15t-13 40zM50 45q0 19 13 32t32 13t32 -13t13 -32t-13 -32t-32 -13t-32 13t-13 32z" />
    <glyph glyph-name="soal" unicode="&#x61f;" horiz-adv-x="383" 
d="M201 177v108q0 20 -15.5 37t-37.5 31t-44.5 30.5t-38 44.5t-15.5 64q0 61 40 102.5t102 41.5t101.5 -43.5t39.5 -111.5l-49 -15q0 44 -28.5 73t-68.5 29q-37 0 -60 -21.5t-23 -50.5q0 -26 14 -44t56 -43q48 -29 62.5 -50.5t14.5 -61.5v-110zM180 45q0 19 13 32t32 13
t32 -13t13 -32t-13 -32t-32 -13t-32 13t-13 32z" />
    <glyph glyph-name="kashidas" unicode="&#x640;" horiz-adv-x="180" 
d="M-38 37q0 16 11.5 27t26.5 11h180v-75h-177h-3q-15 0 -26.5 11t-11.5 26z" />
    <glyph glyph-name=".an" unicode="&#x64b;" 
d="M-95 37l198 105l2 -39l-196 -103zM-105 137l198 105l2 -39l-196 -103z" />
    <glyph glyph-name=".on" unicode="&#x64c;" 
d="M-134 37q13 6 37 20q-12 48 -32 48q-14 0 -39 -24l-17 23q36 36 60 36q41 0 53 -69q23 13 46 30q-61 38 -61 88q0 34 29.5 58.5t65.5 24.5q35 0 54.5 -21.5t19.5 -49.5q0 -50 -53.5 -99t-158.5 -102zM-53 194q0 -25 57 -68q43 38 43 69q0 16 -13 27t-35 11
q-20 0 -36 -10.5t-16 -28.5z" />
    <glyph glyph-name=".en" unicode="&#x64d;" 
d="M-95 -205l198 105l2 -39l-196 -103zM-105 -105l198 105l2 -39l-196 -103z" />
    <glyph glyph-name=".a" unicode="&#x64e;" 
d="M-100 37l198 105l2 -39l-196 -103z" />
    <glyph glyph-name=".o" unicode="&#x64f;" 
d="M-134 37q58 29 108 64q-61 38 -61 88q0 34 29.5 58.5t65.5 24.5q35 0 54.5 -21.5t19.5 -49.5q0 -50 -53.5 -99t-158.5 -102zM-53 194q0 -25 57 -68q43 38 43 69q0 16 -13 27t-35 11q-20 0 -36 -10.5t-16 -28.5z" />
    <glyph glyph-name=".e" unicode="&#x650;" 
d="M-100 -110l198 105l2 -39l-196 -103z" />
    <glyph glyph-name=".shdd" unicode="&#x651;" 
d="M82 146l30 19q18 -39 18 -80q0 -29 -13 -51.5t-39 -22.5q-25 0 -47 11.5t-28 24.5q-23 -47 -68 -47q-29 0 -47 21t-18 53q0 28 16 59l25 -9q-12 -24 -12 -47q0 -39 37 -39q50 0 52 79l26 8q0 -76 65 -76q13 0 17 5.5t4 20.5q0 28 -18 71z" />
    <glyph glyph-name=".skn" unicode="&#x652;" 
d="M-73 66q0 30 24.5 61.5t49.5 31.5q24 0 48 -30t24 -60q0 -35 -22.5 -52t-56.5 -17q-28 0 -47.5 17t-19.5 49zM43 60q0 23 -15.5 42.5t-31.5 19.5q-13 0 -27 -16t-14 -34q0 -34 43 -34q45 0 45 22z" />
    <glyph glyph-name=".mad" unicode="&#x653;" 
d="M150 100v-42q-51 -37 -105 -37q-26 0 -60 9.5t-46 9.5q-17 0 -28.5 -8t-33.5 -32l-25 21q30 39 48.5 53.5t42.5 14.5q17 0 49.5 -10.5t57.5 -10.5q39 0 100 32z" />
    <glyph glyph-name=".thmz" unicode="&#x654;" 
d="M-96 0l-4 37l64 43q-58 21 -58 67q0 47 27 76t60 29q21 0 40.5 -11t28.5 -21l10 -11l-19 -24q-27 24 -56 24q-23 0 -41.5 -17t-18.5 -30q0 -15 18.5 -32t55.5 -17q29 0 87 29l2 -39q-114 -56 -196 -103z" />
    <glyph glyph-name=".bhmz" unicode="&#x655;" 
d="M-96 -252l-4 37l64 44q-25 8 -41.5 26t-16.5 40q0 47 27 76t60 29q21 0 40.5 -11t28.5 -21l10 -11l-19 -24q-27 24 -56 24q-23 0 -41.5 -17t-18.5 -30q0 -15 18.5 -32t55.5 -17q29 0 87 29l2 -39q-114 -56 -196 -103z" />
    <glyph glyph-name=".i" unicode="&#x656;" 
d="M15 -188l-28 6q4 25 4 46q0 40 -9 118l34 18q5 -73 5 -117q0 -39 -6 -71z" />
    <glyph glyph-name="sefr.arab" unicode="&#x660;" horiz-adv-x="325" 
d="M100 196q0 -25 18.5 -41.5t50.5 -16.5q22 0 38.5 19t16.5 49q0 25 -17.5 41.5t-50.5 16.5q-28 0 -42 -19.5t-14 -48.5zM50 192q0 53 25 88.5t76 35.5q61 0 92.5 -30t31.5 -76q0 -55 -29.5 -89.5t-70.5 -34.5q-59 0 -92 30t-33 76z" />
    <glyph glyph-name="yek.arab" unicode="&#x661;" horiz-adv-x="252" 
d="M63 576l55 44q78 -316 84 -635l-52 -15q-11 347 -87 606z" />
    <glyph glyph-name="do.arab" unicode="&#x662;" horiz-adv-x="442" 
d="M63 576l55 44l23 -106q17 -75 35.5 -99t61.5 -24q25 0 43.5 14t29 34.5t16.5 52t8 58t3 61.5l54 -3q0 -42 -3.5 -80t-14.5 -78.5t-28 -69.5t-46 -48t-68 -19q-34 0 -56 12q25 -174 26 -340l-52 -15q-11 347 -87 606z" />
    <glyph glyph-name="se.arab" unicode="&#x663;" horiz-adv-x="636" 
d="M428 313q-68 0 -96 59q-36 -59 -100 -59q-34 0 -56 12q25 -174 26 -340l-52 -15q-11 347 -87 606l55 44l23 -106q17 -75 35.5 -99t61.5 -24q19 0 33 5.5t23.5 21t15.5 27.5t10.5 41.5t6 46t5.5 57.5q1 7 1 11l54 -6l-13 -140q0 -64 56 -64q49 0 72.5 51.5t29.5 168.5
l54 -3q0 -54 -7 -101t-23.5 -93.5t-49 -73.5t-78.5 -27z" />
    <glyph glyph-name="char.arab" unicode="&#x664;" horiz-adv-x="454" 
d="M296 283q-78 -15 -133 -71t-55 -102q0 -16 56 -31.5t115 -15.5q69 0 118 5l-36 -79q-28 -4 -77 -4q-44 0 -81.5 5.5t-74 19t-57.5 40t-21 64.5q0 48 39.5 103.5t99.5 89.5q-127 26 -127 108q0 83 68 140t164 57q23 0 53 -5l-16 -76q-21 3 -51 3q-69 0 -114.5 -34.5
t-45.5 -62.5q0 -26 51.5 -50.5t134.5 -33.5z" />
    <glyph glyph-name="panj.arab" unicode="&#x665;" horiz-adv-x="489" 
d="M50 160q0 51 29 114.5t75.5 109t89.5 45.5q42 0 88.5 -43.5t76.5 -105.5t30 -113q0 -93 -61 -137.5t-152 -44.5q-74 0 -125 44.5t-51 130.5zM381 147q0 56 -50 130t-100 74q-39 0 -81 -64.5t-42 -124.5q0 -45 36 -72t91 -27q58 0 102 26.5t44 57.5z" />
    <glyph glyph-name="shish.arab" unicode="&#x666;" horiz-adv-x="468" 
d="M275 324q0 58 8 148q-16 -2 -45 -2q-116 0 -188 32v78q92 -32 210 -32q48 0 65 -14.5t17 -52.5q0 -15 -5.5 -70t-5.5 -85q0 -107 15.5 -174.5t61.5 -123.5l-37 -58q-96 97 -96 354z" />
    <glyph glyph-name="haft.arab" unicode="&#x667;" horiz-adv-x="526" 
d="M60 556l44 64q130 -242 159 -450q46 225 159 450l44 -63q-76 -125 -122 -284t-52 -288l-52 -15q-14 172 -54.5 313t-125.5 273z" />
    <glyph glyph-name="hasht.arab" unicode="&#x668;" horiz-adv-x="526" 
d="M104 -30l-44 64q85 132 125.5 273t54.5 313l52 -15q6 -129 52 -288t122 -284l-44 -63q-112 222 -159 450q-28 -207 -159 -450z" />
    <glyph glyph-name="noh.arab" unicode="&#x669;" horiz-adv-x="497" 
d="M400 -30q-94 94 -96 332q-60 -15 -106 -15q-67 0 -107.5 33.5t-40.5 107.5q0 76 40.5 138.5t116.5 62.5q77 0 116 -70.5t39 -191.5q0 -149 12 -212t63 -127zM193 365q61 0 109 12q-10 174 -101 174q-42 0 -67.5 -32t-25.5 -78q0 -76 85 -76z" />
    <glyph glyph-name="darsad" unicode="&#x66a;" horiz-adv-x="494" 
d="M396 680l48 -26l-346 -718l-48 25zM340 50q0 21 14.5 35.5t35.5 14.5t35.5 -14.5t14.5 -35.5t-14.5 -35.5t-35.5 -14.5t-35.5 14.5t-14.5 35.5zM55 571q0 21 14.5 35.5t35.5 14.5t35.5 -14.5t14.5 -35.5t-14.5 -35.5t-35.5 -14.5t-35.5 14.5t-14.5 35.5z" />
    <glyph glyph-name="sad.sep" unicode="&#x66b;" horiz-adv-x="335" 
d="M98 -194l-48 25l187 389l48 -25z" />
    <glyph glyph-name="hezar.sep" unicode="&#x66c;" horiz-adv-x="190" 
d="M140 75q0 -86 -71 -122l-10 28q45 25 51 62q-6 -3 -15 -3q-19 0 -32 13t-13 32t13 32t32 13t32 -15t13 -40z" />
    <glyph glyph-name="setare" unicode="&#x66d;" horiz-adv-x="489" 
d="M210 208l-95 135l47 34l80 -156l77 156l51 -34l-96 -136l165 10v-54l-165 7l96 -136l-51 -34l-77 156l-80 -156l-47 33l95 137l-160 -7v54z" />
    <glyph glyph-name=".aa" unicode="&#x670;" 
d="M15 0l-28 6q4 25 4 46q0 40 -9 118l34 18q5 -73 5 -117q0 -39 -6 -71z" />
    <glyph glyph-name="kaf.swash" unicode="&#x6aa;" horiz-adv-x="1038" 
d="M337 -10q-75 0 -129.5 13.5t-84 33t-47 50t-22 55.5t-4.5 58q0 26 3.5 60.5t6.5 56.5l4 22l52 -7q-10 -67 -10 -111q0 -80 49.5 -118t181.5 -38q294 0 545 33q56 8 56 17q0 150 -149 150q-75 0 -175.5 -4.5t-161.5 -4.5q-36 0 -59.5 2t-49 9.5t-38 24t-12.5 42.5
q0 142 334 258l-11 -77q-56 -16 -103.5 -36.5t-77.5 -38.5t-52 -35t-31 -28.5t-9 -17.5q0 -18 27 -25.5t88 -7.5q97 0 184.5 4t131.5 4q58 0 101.5 -17t67 -45t34.5 -58.5t11 -63.5q0 -110 -118 -128q-201 -32 -533 -32z" />
    </font>
</defs>
</svg>
