<?xml version="1.0" standalone="no"?>
<!DOCTYPE svg PUBLIC "-//W3C//DTD SVG 1.1//EN" "http://www.w3.org/Graphics/SVG/1.1/DTD/svg11.dtd" >
<svg xmlns="http://www.w3.org/2000/svg" xmlns:xlink="http://www.w3.org/1999/xlink" version="1.1">
<metadata>
Created by FontForge 20161116 at Sat Dec 26 13:32:32 2015
 By Jimmy Wärting
Copyright (c) 2014 by Mojtaba Delkhoshian. All rights reserved.
</metadata>
<defs>
<font id="JameJam-Light" horiz-adv-x="0" >
  <font-face 
    font-family="JameJam"
    font-weight="300"
    font-stretch="normal"
    units-per-em="1000"
    panose-1="1 0 5 4 0 0 0 2 0 4"
    ascent="800"
    descent="-200"
    x-height="500"
    cap-height="700"
    bbox="-420 -501 1396 948"
    underline-thickness="50"
    underline-position="-75"
    unicode-range="U+000A-1EEF1"
  />
<missing-glyph horiz-adv-x="445" 
d="M150 52h242v509h-242v-509zM143 614h255c12 0 22 -4 31 -13c8 -9 12 -19 12 -30v-528c0 -12 -4 -22 -12 -30c-9 -9 -19 -13 -31 -13h-255c-12 0 -22 4 -30 13c-9 8 -13 18 -13 30v528c0 11 4 21 13 30c8 9 18 13 30 13z" />
    <glyph glyph-name="uniFEFB" unicode="&#xfedf;&#xfe8e;" horiz-adv-x="462" arabic-form="isolated" 
d="M448 540c0 -102 -19 -185 -58 -250c49 -67 73 -122 73 -163c0 -91 -55 -137 -165 -137c-79 0 -141 4 -187 12l11 86c95 82 160 149 197 200c-59 74 -131 148 -217 221l27 66c101 -99 175 -177 222 -234c25 49 38 97 38 144c0 81 -2 141 -6 180l61 37c3 -71 4 -125 4 -162
zM354 239c-35 -45 -92 -101 -171 -169c41 -3 79 -5 113 -5c65 0 104 16 117 48c0 27 -20 69 -59 126z" />
    <glyph glyph-name="uniFEFC" unicode="&#xfee0;&#xfe8e;" horiz-adv-x="532" arabic-form="final" 
d="M160 562l54 40c63 -214 98 -385 107 -514c77 35 116 83 116 144c0 109 -6 254 -18 434l61 36c2 -40 5 -120 9 -240l8 -221c3 -63 13 -106 31 -131c17 -23 45 -35 84 -35v-75c-79 0 -131 39 -157 117c-40 -69 -120 -115 -241 -137l-42 67c42 7 76 15 101 22
c-13 155 -50 320 -113 493z" />
    <glyph glyph-name="uniFEF5" unicode="&#xfedf;&#xfe82;" horiz-adv-x="460" arabic-form="isolated" 
d="M223 741v-55c-33 -25 -68 -37 -105 -37c-18 0 -38 3 -60 10c-23 6 -38 9 -46 9c-17 0 -37 -13 -62 -40l-30 29c35 49 66 73 93 73c12 0 29 -3 51 -10c24 -7 44 -11 59 -11c25 0 59 11 100 32zM355 540c0 -102 -19 -185 -58 -250c49 -67 73 -122 73 -163
c0 -91 -55 -137 -165 -137c-79 0 -141 4 -187 12l11 86c95 82 160 149 197 200c-59 74 -131 148 -217 221l27 66c101 -99 175 -177 222 -234c25 49 38 97 38 144c0 81 -2 141 -6 180l61 37c3 -71 4 -125 4 -162zM261 239c-35 -45 -92 -101 -171 -169c41 -3 79 -5 113 -5
c65 0 104 16 117 48c0 27 -20 69 -59 126z" />
    <glyph glyph-name="uniFEF6" unicode="&#xfee0;&#xfe82;" horiz-adv-x="530" arabic-form="final" 
d="M38 562l54 40c63 -214 98 -385 107 -514c77 35 116 83 116 144c0 109 -6 254 -18 434l61 36c2 -40 5 -120 9 -240l8 -221c3 -63 13 -106 31 -131c17 -23 45 -35 84 -35v-75c-79 0 -131 39 -157 117c-40 -69 -120 -115 -241 -137l-42 67c42 7 76 15 101 22
c-13 155 -50 320 -113 493zM223 741v-55c-33 -25 -68 -37 -105 -37c-18 0 -38 3 -60 10c-23 6 -38 9 -46 9c-17 0 -37 -13 -62 -40l-30 29c35 49 66 73 93 73c12 0 29 -3 51 -10c24 -7 44 -11 59 -11c25 0 59 11 100 32z" />
    <glyph glyph-name="uniFEF7" unicode="&#xfedf;&#xfe84;" horiz-adv-x="462" arabic-form="isolated" 
d="M-16 624l-4 37l64 43c-39 14 -58 36 -58 67c0 32 9 58 28 77c17 19 36 28 59 28c32 0 58 -14 79 -43l-19 -24c-18 16 -37 24 -56 24c-15 0 -29 -6 -42 -18c-12 -11 -18 -20 -18 -29c0 -11 5 -20 16 -29c15 -13 34 -20 58 -20c18 0 47 10 87 29l2 -39
c-65 -31 -130 -66 -196 -103zM387 540c0 -102 -19 -185 -58 -250c49 -67 73 -122 73 -163c0 -91 -55 -137 -165 -137c-79 0 -141 4 -187 12l11 86c95 82 160 149 197 200c-59 74 -131 148 -217 221l27 66c101 -99 175 -177 222 -234c25 49 38 97 38 144c0 81 -2 141 -6 180
l61 37c3 -71 4 -125 4 -162zM293 239c-35 -45 -92 -101 -171 -169c41 -3 79 -5 113 -5c65 0 104 16 117 48c0 27 -20 69 -59 126z" />
    <glyph glyph-name="uniFEF8" unicode="&#xfee0;&#xfe84;" horiz-adv-x="532" arabic-form="final" 
d="M70 562l54 40c63 -214 98 -385 107 -514c77 35 116 83 116 144c0 109 -6 254 -18 434l61 36c2 -40 5 -120 9 -240l8 -221c3 -63 13 -106 31 -131c17 -23 45 -35 84 -35v-75c-79 0 -131 39 -157 117c-40 -69 -120 -115 -241 -137l-42 67c42 7 76 15 101 22
c-13 155 -50 320 -113 493zM-16 624l-4 37l64 43c-39 14 -58 36 -58 67c0 32 9 58 28 77c17 19 36 28 59 28c32 0 58 -14 79 -43l-19 -24c-18 16 -37 24 -56 24c-15 0 -29 -6 -42 -18c-12 -11 -18 -20 -18 -29c0 -11 5 -20 16 -29c15 -13 34 -20 58 -20c18 0 47 10 87 29
l2 -39c-65 -31 -130 -66 -196 -103z" />
    <glyph glyph-name="uniFEF9" unicode="&#xfedf;&#xfe88;" horiz-adv-x="462" arabic-form="isolated" 
d="M159 -337l-4 37l64 44c-39 13 -58 35 -58 66c0 32 9 58 28 77c17 19 36 28 59 28c32 0 58 -14 79 -43l-19 -24c-18 16 -37 24 -56 24c-15 0 -29 -6 -42 -18c-12 -11 -18 -20 -18 -29c0 -11 5 -20 16 -29c15 -13 34 -20 58 -20c18 0 47 10 87 29l2 -39
c-65 -31 -130 -66 -196 -103zM448 540c0 -102 -19 -185 -58 -250c49 -67 73 -122 73 -163c0 -91 -55 -137 -165 -137c-79 0 -141 4 -187 12l11 86c95 82 160 149 197 200c-59 74 -131 148 -217 221l27 66c101 -99 175 -177 222 -234c25 49 38 97 38 144c0 81 -2 141 -6 180
l61 37c3 -71 4 -125 4 -162zM354 239c-35 -45 -92 -101 -171 -169c41 -3 79 -5 113 -5c65 0 104 16 117 48c0 27 -20 69 -59 126z" />
    <glyph glyph-name="uniFEFA" unicode="&#xfee0;&#xfe88;" horiz-adv-x="532" arabic-form="final" 
d="M160 562l54 40c63 -214 98 -385 107 -514c77 35 116 83 116 144c0 109 -6 254 -18 434l61 36c2 -40 5 -120 9 -240l8 -221c3 -63 13 -106 31 -131c17 -23 45 -35 84 -35v-75c-79 0 -131 39 -157 117c-40 -69 -120 -115 -241 -137l-42 67c42 7 76 15 101 22
c-13 155 -50 320 -113 493zM199 -337l-4 37l64 44c-39 13 -58 35 -58 66c0 32 9 58 28 77c17 19 36 28 59 28c32 0 58 -14 79 -43l-19 -24c-18 16 -37 24 -56 24c-15 0 -29 -6 -42 -18c-12 -11 -18 -20 -18 -29c0 -11 5 -20 16 -29c15 -13 34 -20 58 -20c18 0 47 10 87 29
l2 -39c-65 -31 -130 -66 -196 -103z" />
    <glyph glyph-name="_188" unicode="&#xfedf;&#xfb51;" horiz-adv-x="460" 
d="M-105 633l-25 16c25 42 42 63 51 63c4 0 14 -2 30 -6c57 79 108 119 153 119c26 0 46 -8 61 -25c14 -15 21 -33 21 -56c0 -63 -41 -94 -123 -94c-49 0 -94 7 -136 22zM97 783c-37 0 -75 -28 -116 -85c21 -5 48 -7 79 -7c61 0 91 14 91 42c0 33 -18 50 -54 50zM330 540
c0 -102 -19 -185 -58 -250c49 -67 73 -122 73 -163c0 -91 -55 -137 -165 -137c-79 0 -141 4 -187 12l11 86c95 82 160 149 197 200c-59 74 -131 148 -217 221l27 66c101 -99 175 -177 222 -234c25 49 38 97 38 144c0 81 -2 141 -6 180l61 37c3 -71 4 -125 4 -162zM236 239
c-35 -45 -92 -101 -171 -169c41 -3 79 -5 113 -5c65 0 104 16 117 48c0 27 -20 69 -59 126z" />
    <glyph glyph-name="_189" unicode="&#xfee0;&#xfb51;" horiz-adv-x="530" 
d="M13 562l54 40c63 -214 98 -385 107 -514c77 35 116 83 116 144c0 109 -6 254 -18 434l61 36c2 -40 5 -120 9 -240l8 -221c3 -63 13 -106 31 -131c17 -23 45 -35 84 -35v-75c-79 0 -131 39 -157 117c-40 -69 -120 -115 -241 -137l-42 67c42 7 76 15 101 22
c-13 155 -50 320 -113 493zM-105 633l-25 16c25 42 42 63 51 63c4 0 14 -2 30 -6c57 79 108 119 153 119c26 0 46 -8 61 -25c14 -15 21 -33 21 -56c0 -63 -41 -94 -123 -94c-49 0 -94 7 -136 22zM97 783c-37 0 -75 -28 -116 -85c21 -5 48 -7 79 -7c61 0 91 14 91 42
c0 33 -18 50 -54 50z" />
    <glyph glyph-name="uniFDFC" unicode="&#xfead;&#xfef3;&#xfe8e;&#xfedd;" horiz-adv-x="1301" arabic-form="isolated" 
d="M865 316l-29 21c39 57 58 99 58 124c0 21 -20 59 -59 112l41 46c38 -59 57 -106 57 -141c0 -41 -23 -95 -68 -162zM1006 342l65 41c21 -63 31 -126 31 -191c0 -58 -17 -104 -50 -139c-35 -35 -83 -53 -144 -53h-72c-10 0 -19 4 -26 11c-8 7 -12 16 -12 26
c0 11 4 20 12 27c7 7 16 11 26 11h49c105 0 158 27 158 82s-12 117 -37 185zM634 650l61 52c16 -60 24 -147 24 -260v-217c0 -55 9 -93 26 -116s47 -34 91 -34v-75c-62 0 -107 17 -134 50s-40 89 -40 170v206c0 85 -9 159 -28 224zM592 18c0 -63 -26 -116 -79 -159
c-51 -41 -108 -62 -173 -62c-78 0 -139 26 -182 78c-39 47 -58 108 -58 184c0 62 10 124 31 186l51 -13c-16 -55 -24 -106 -24 -155c0 -62 14 -110 43 -145c32 -39 79 -59 141 -59c54 0 100 15 138 45c35 27 53 58 53 91c0 209 -8 428 -24 657l61 36
c15 -289 22 -517 22 -684zM657 -87c22 -12 42 -28 59 -47c-11 -19 -26 -38 -47 -59c-16 9 -36 24 -59 47c11 19 27 39 47 59zM802 -87c22 -12 42 -28 59 -47c-13 -23 -29 -42 -48 -59c-16 9 -35 25 -58 47c12 22 28 42 47 59zM1188 291l58 39c37 -94 55 -183 55 -268
c0 -80 -21 -145 -64 -194c-41 -47 -92 -71 -152 -71c-49 0 -94 20 -135 61l29 41c31 -18 65 -27 101 -27c55 0 97 21 128 64c23 31 34 60 34 89c0 69 -18 157 -54 266z" />
    <glyph glyph-name="uniFDF2" unicode="&#xfe8d;&#xfedf;&#xfee0;&#xfeea;" horiz-adv-x="1088" arabic-form="isolated" 
d="M473 65c70 0 105 31 105 93c0 66 -2 149 -6 249l58 34c3 -89 5 -156 7 -200c5 -117 45 -176 120 -176c59 0 101 24 126 71c0 117 -32 243 -95 377l54 48c65 -161 97 -287 97 -376c0 -59 -18 -107 -54 -143c-35 -35 -80 -52 -135 -52c-65 0 -110 29 -135 88
c-27 -59 -74 -88 -141 -88c-61 0 -104 24 -129 73l-10 -29c-23 -3 -43 -4 -58 -4c-118 0 -177 40 -177 121s72 158 216 232l-1 75l58 30l4 -308c1 -77 33 -115 96 -115zM265 105l63 2c-6 23 -9 48 -9 75l-2 124c-51 -23 -92 -51 -123 -82c-26 -27 -39 -48 -39 -65
c0 -13 7 -24 21 -34c21 -13 50 -20 89 -20zM662 671l30 19c12 -26 18 -53 18 -80c0 -49 -17 -74 -52 -74c-39 0 -64 12 -75 36c-15 -31 -38 -47 -68 -47c-19 0 -35 7 -47 22c-12 13 -18 31 -18 52c0 19 5 38 16 59l25 -9c-8 -16 -12 -32 -12 -47c0 -26 12 -39 37 -39
c34 0 51 26 52 79l26 8c0 -51 22 -76 65 -76c14 0 21 9 21 26c0 19 -6 42 -18 71zM597 700l-28 6c3 15 4 31 4 46c0 27 -3 66 -9 118l34 18c3 -55 5 -94 5 -117c0 -26 -2 -50 -6 -71zM1010 666l61 36c11 -197 17 -343 17 -439c0 -112 -10 -203 -29 -273l-52 10
c15 75 22 153 22 234c0 129 -6 273 -19 432z" />
    <glyph glyph-name="_192" unicode="&#xfedf;&#x650;&#xfee0;&#x654;&#xfeea;" horiz-adv-x="939" 
d="M473 65c70 0 105 31 105 93c0 66 -2 149 -6 249l58 34c3 -89 5 -156 7 -200c5 -117 45 -176 120 -176c59 0 101 24 126 71c0 117 -32 243 -95 377l54 48c65 -161 97 -287 97 -376c0 -59 -18 -107 -54 -143c-35 -35 -80 -52 -135 -52c-65 0 -110 29 -135 88
c-27 -59 -74 -88 -141 -88c-61 0 -104 24 -129 73l-10 -29c-23 -3 -43 -4 -58 -4c-118 0 -177 40 -177 121s72 158 216 232l-1 75l58 30l4 -308c1 -77 33 -115 96 -115zM265 105l63 2c-6 23 -9 48 -9 75l-2 124c-51 -23 -92 -51 -123 -82c-26 -27 -39 -48 -39 -65
c0 -13 7 -24 21 -34c21 -13 50 -20 89 -20zM662 671l30 19c12 -26 18 -53 18 -80c0 -49 -17 -74 -52 -74c-39 0 -64 12 -75 36c-15 -31 -38 -47 -68 -47c-19 0 -35 7 -47 22c-12 13 -18 31 -18 52c0 19 5 38 16 59l25 -9c-8 -16 -12 -32 -12 -47c0 -26 12 -39 37 -39
c34 0 51 26 52 79l26 8c0 -51 22 -76 65 -76c14 0 21 9 21 26c0 19 -6 42 -18 71zM597 700l-28 6c3 15 4 31 4 46c0 27 -3 66 -9 118l34 18c3 -55 5 -94 5 -117c0 -26 -2 -50 -6 -71z" />
    <glyph glyph-name="_193" unicode="&#xfed3;&#x64e;&#xfee0;&#xfee0;&#xfeea;" horiz-adv-x="1360" 
d="M848 569l59 36l17 -364c3 -63 13 -106 31 -131c17 -23 45 -35 84 -35c105 0 172 6 201 19c33 15 52 49 56 100c-35 -8 -69 -12 -103 -12c-94 0 -141 47 -141 140c0 47 11 88 34 125c28 44 66 66 114 66s87 -26 118 -79c28 -49 42 -108 42 -177c0 -115 -30 -190 -91 -224
c-39 -22 -115 -33 -230 -33c-60 0 -106 25 -138 75c-29 -57 -76 -85 -143 -85c-71 0 -118 29 -143 88c-27 -59 -74 -88 -141 -88c-61 0 -104 24 -129 73l-10 -29c-23 -3 -43 -4 -58 -4c-118 0 -177 40 -177 121s72 158 216 232l-1 75l58 30l4 -308c1 -77 33 -115 96 -115
c70 0 105 31 105 93c0 66 -2 149 -6 249l58 34c3 -89 5 -156 7 -200c5 -117 45 -176 119 -176c73 0 109 33 109 99c0 98 -6 233 -17 405zM1193 257c40 0 75 3 104 10c-4 45 -15 84 -33 117c-21 36 -46 54 -75 54c-23 0 -42 -11 -57 -33c-15 -21 -22 -45 -22 -73
c0 -50 28 -75 83 -75zM265 105l63 2c-6 23 -9 48 -9 75l-2 124c-51 -23 -92 -51 -123 -82c-26 -27 -39 -48 -39 -65c0 -13 7 -24 21 -34c21 -13 50 -20 89 -20zM682 671l30 19c12 -26 18 -53 18 -80c0 -49 -17 -74 -52 -74c-39 0 -64 12 -75 36c-15 -31 -38 -47 -68 -47
c-19 0 -35 7 -47 22c-12 13 -18 31 -18 52c0 19 5 38 16 59l25 -9c-8 -16 -12 -32 -12 -47c0 -26 12 -39 37 -39c34 0 51 26 52 79l26 8c0 -51 22 -76 65 -76c14 0 21 9 21 26c0 19 -6 42 -18 71zM617 700l-28 6c3 15 4 31 4 46c0 27 -3 66 -9 118l34 18c3 -55 5 -94 5 -117
c0 -26 -2 -50 -6 -71zM1174 686c19 -10 41 -27 64 -52c-12 -22 -29 -43 -51 -64c-17 10 -39 27 -65 51c11 18 29 40 52 65z" />
    <glyph glyph-name="uni0627" unicode="&#x627;" horiz-adv-x="183" arabic-form="isolated" 
d="M107 666l61 36c11 -197 17 -343 17 -439c0 -112 -10 -203 -29 -273l-52 10c15 75 22 153 22 234c0 129 -6 273 -19 432z" />
    <glyph glyph-name="uniFE8E" unicode="&#x627;" horiz-adv-x="247" arabic-form="final" 
d="M90 650l61 52c16 -60 24 -147 24 -260v-217c0 -55 9 -93 26 -116s47 -34 91 -34v-75c-62 0 -107 17 -134 50s-40 89 -40 170v206c0 85 -9 159 -28 224z" />
    <glyph glyph-name="uni0622" unicode="&#x622;" horiz-adv-x="228" arabic-form="isolated" 
d="M34 564l61 36c9 -141 13 -253 13 -337c0 -112 -10 -203 -29 -273l-52 10c15 75 22 153 22 234c0 91 -5 201 -15 330zM203 760v-55c-33 -25 -68 -37 -105 -37c-18 0 -38 3 -60 10c-23 6 -38 9 -46 9c-17 0 -37 -13 -62 -40l-30 29c35 49 66 73 93 73c12 0 29 -3 51 -10
c24 -7 44 -11 59 -11c25 0 59 11 100 32z" />
    <glyph glyph-name="uniFE82" unicode="&#x622;" horiz-adv-x="336" arabic-form="final" 
d="M235 75h61v-75h-61c-62 0 -107 17 -134 50s-40 89 -40 170v106c0 85 -9 159 -28 224l61 52c16 -60 24 -147 24 -260v-117c0 -55 9 -93 26 -116s47 -34 91 -34zM223 760v-55c-33 -25 -68 -37 -105 -37c-18 0 -38 3 -60 10c-23 6 -38 9 -46 9c-17 0 -37 -13 -62 -40l-30 29
c35 49 66 73 93 73c12 0 29 -3 51 -10c24 -7 44 -11 59 -11c25 0 59 11 100 32z" />
    <glyph glyph-name="uni0623" unicode="&#x623;" horiz-adv-x="210" arabic-form="isolated" 
d="M75 564l61 36c9 -141 13 -253 13 -337c0 -112 -10 -203 -29 -273l-52 10c15 75 22 153 22 234c0 91 -5 201 -15 330zM14 618l-4 37l64 43c-39 14 -58 36 -58 67c0 32 9 58 28 77c17 19 36 28 59 28c32 0 58 -14 79 -43l-19 -24c-18 16 -37 24 -56 24
c-15 0 -29 -6 -42 -18c-12 -11 -18 -20 -18 -29c0 -11 5 -20 16 -29c15 -13 34 -20 58 -20c18 0 47 10 87 29l2 -39c-65 -31 -130 -66 -196 -103z" />
    <glyph glyph-name="uniFE84" unicode="&#x623;" horiz-adv-x="295" arabic-form="final" 
d="M274 75h41v-75h-41c-62 0 -107 17 -134 50s-40 89 -40 170v106c0 85 -9 159 -28 224l61 52c16 -60 24 -147 24 -260v-117c0 -55 9 -93 26 -116s47 -34 91 -34zM44 618l-4 37l64 43c-39 14 -58 36 -58 67c0 32 9 58 28 77c17 19 36 28 59 28c32 0 58 -14 79 -43l-19 -24
c-18 16 -37 24 -56 24c-15 0 -29 -6 -42 -18c-12 -11 -18 -20 -18 -29c0 -11 5 -20 16 -29c15 -13 34 -20 58 -20c18 0 47 10 87 29l2 -39c-65 -31 -130 -66 -196 -103z" />
    <glyph glyph-name="uni0625" unicode="&#x625;" horiz-adv-x="185" arabic-form="isolated" 
d="M42 666l61 36c11 -197 17 -343 17 -439c0 -112 -10 -203 -29 -273l-52 10c15 75 22 153 22 234c0 129 -6 273 -19 432zM-26 -329l-4 37l64 44c-39 13 -58 35 -58 66c0 32 9 58 28 77c17 19 36 28 59 28c32 0 58 -14 79 -43l-19 -24c-18 16 -37 24 -56 24
c-15 0 -29 -6 -42 -18c-12 -11 -18 -20 -18 -29c0 -11 5 -20 16 -29c15 -13 34 -20 58 -20c18 0 47 10 87 29l2 -39c-65 -31 -130 -66 -196 -103z" />
    <glyph glyph-name="uniFE88" unicode="&#x625;" horiz-adv-x="267" arabic-form="final" 
d="M312 0h-20c-62 0 -107 17 -134 50s-40 89 -40 170v206c0 85 -9 159 -28 224l61 52c16 -60 24 -147 24 -260v-217c0 -55 9 -93 26 -116s47 -34 91 -34h20v-75zM109 -329l-4 37l64 44c-39 13 -58 35 -58 66c0 32 9 58 28 77c17 19 36 28 59 28c32 0 58 -14 79 -43l-19 -24
c-18 16 -37 24 -56 24c-15 0 -29 -6 -42 -18c-12 -11 -18 -20 -18 -29c0 -11 5 -20 16 -29c15 -13 34 -20 58 -20c18 0 47 10 87 29l2 -39c-65 -31 -130 -66 -196 -103z" />
    <glyph glyph-name="uni0671" unicode="&#x671;" horiz-adv-x="211" arabic-form="isolated" 
d="M17 564l61 36c9 -141 13 -253 13 -337c0 -112 -10 -203 -29 -273l-52 10c15 75 22 153 22 234c0 91 -5 201 -15 330zM-95 633l-25 16c25 42 42 63 51 63c4 0 14 -2 30 -6c57 79 108 119 153 119c26 0 46 -8 61 -25c14 -15 21 -33 21 -56c0 -63 -41 -94 -123 -94
c-49 0 -94 7 -136 22zM107 783c-37 0 -75 -28 -116 -85c21 -5 48 -7 79 -7c61 0 91 14 91 42c0 33 -18 50 -54 50z" />
    <glyph glyph-name="uniFB51" unicode="&#x671;" horiz-adv-x="297" arabic-form="final" 
d="M206 75h41v-75h-41c-62 0 -107 17 -134 50s-40 89 -40 170v106c0 85 -9 159 -28 224l61 52c16 -60 24 -147 24 -260v-117c0 -55 9 -93 26 -116s47 -34 91 -34zM-75 633l-25 16c25 42 42 63 51 63c4 0 14 -2 30 -6c57 79 108 119 153 119c26 0 46 -8 61 -25
c14 -15 21 -33 21 -56c0 -63 -41 -94 -123 -94c-49 0 -94 7 -136 22zM127 783c-37 0 -75 -28 -116 -85c21 -5 48 -7 79 -7c61 0 91 14 91 42c0 33 -18 50 -54 50z" />
    <glyph glyph-name="uni0628" unicode="&#x628;" horiz-adv-x="790" arabic-form="isolated" 
d="M387 65c115 0 203 9 263 28c54 17 81 39 81 64c0 55 -12 117 -37 185l65 41c21 -63 31 -126 31 -191c0 -81 -40 -137 -119 -168c-58 -23 -153 -34 -284 -34c-116 0 -196 23 -241 70c-31 31 -46 78 -46 140c0 37 5 83 14 139l52 -7c-7 -43 -10 -80 -10 -111
c0 -54 15 -92 46 -115c35 -27 97 -41 185 -41zM430 -100c22 -13 43 -30 64 -52c-11 -20 -28 -41 -51 -64c-18 9 -40 26 -65 51c15 22 32 44 52 65z" />
    <glyph glyph-name="uniFE90" unicode="&#x628;" horiz-adv-x="880" arabic-form="final" 
d="M387 -10c-116 0 -196 23 -241 70c-31 31 -46 78 -46 140c0 37 5 83 14 139l52 -7c-7 -43 -10 -80 -10 -111c0 -54 15 -92 46 -115c35 -27 97 -41 185 -41c118 0 206 9 264 28c52 17 78 40 78 67c0 44 -3 92 -8 143l60 30l9 -148c4 -73 40 -110 107 -110h33v-75h-32
c-65 0 -113 27 -144 81c-51 -61 -173 -91 -367 -91zM430 -100c22 -13 43 -30 64 -52c-11 -20 -28 -41 -51 -64c-18 9 -40 26 -65 51c15 22 32 44 52 65z" />
    <glyph glyph-name="uniFE92" unicode="&#x628;" horiz-adv-x="396" arabic-form="medial" 
d="M-76 37c0 11 4 20 12 27c7 7 16 11 26 11h79c77 0 116 28 116 85c0 44 -3 92 -8 143l60 30l9 -148c4 -73 40 -110 107 -110h33v-75h-32c-62 0 -108 23 -138 70c-29 -47 -81 -70 -157 -70h-69c-10 0 -19 4 -26 11c-8 7 -12 16 -12 26zM162 -100c22 -13 43 -30 64 -52
c-11 -20 -28 -41 -51 -64c-18 9 -40 26 -65 51c15 22 32 44 52 65z" />
    <glyph glyph-name="uniFE91" unicode="&#x628;" horiz-adv-x="316" arabic-form="initial" 
d="M132 342l65 41c21 -63 31 -126 31 -191c0 -58 -17 -104 -50 -139c-35 -35 -83 -53 -144 -53h-72c-10 0 -19 4 -26 11c-8 7 -12 16 -12 26c0 11 4 20 12 27c7 7 16 11 26 11h49c105 0 158 27 158 82s-12 117 -37 185zM92 -100c22 -13 43 -30 64 -52
c-11 -20 -28 -41 -51 -64c-18 9 -40 26 -65 51c15 22 32 44 52 65z" />
    <glyph glyph-name="uni067E" unicode="&#x67e;" horiz-adv-x="790" arabic-form="isolated" 
d="M387 65c115 0 203 9 263 28c54 17 81 39 81 64c0 55 -12 117 -37 185l65 41c21 -63 31 -126 31 -191c0 -81 -40 -137 -119 -168c-58 -23 -153 -34 -284 -34c-116 0 -196 23 -241 70c-31 31 -46 78 -46 140c0 37 5 83 14 139l52 -7c-7 -43 -10 -80 -10 -111
c0 -54 15 -92 46 -115c35 -27 97 -41 185 -41zM352 -100c22 -12 42 -28 59 -47c-11 -20 -27 -40 -48 -59c-16 9 -35 25 -58 47c11 19 27 39 47 59zM496 -100c23 -12 43 -28 60 -47c-13 -23 -29 -42 -48 -59c-12 7 -31 22 -58 47c12 21 27 40 46 59zM427 -215
c19 -9 39 -24 60 -46c-13 -22 -29 -42 -48 -60c-17 11 -36 27 -59 48c13 20 28 39 47 58z" />
    <glyph glyph-name="uniFB57" unicode="&#x67e;" horiz-adv-x="880" arabic-form="final" 
d="M387 -10c-116 0 -196 23 -241 70c-31 31 -46 78 -46 140c0 37 5 83 14 139l52 -7c-7 -43 -10 -80 -10 -111c0 -54 15 -92 46 -115c35 -27 97 -41 185 -41c118 0 206 9 264 28c52 17 78 40 78 67c0 44 -3 92 -8 143l60 30l9 -148c4 -73 40 -110 107 -110h33v-75h-32
c-65 0 -113 27 -144 81c-51 -61 -173 -91 -367 -91zM352 -100c22 -12 42 -28 59 -47c-11 -20 -27 -40 -48 -59c-16 9 -35 25 -58 47c11 19 27 39 47 59zM496 -100c23 -12 43 -28 60 -47c-13 -23 -29 -42 -48 -59c-12 7 -31 22 -58 47c12 21 27 40 46 59zM427 -215
c19 -9 39 -24 60 -46c-13 -22 -29 -42 -48 -60c-17 11 -36 27 -59 48c13 20 28 39 47 58z" />
    <glyph glyph-name="uniFB59" unicode="&#x67e;" horiz-adv-x="396" arabic-form="medial" 
d="M-76 37c0 11 4 20 12 27c7 7 16 11 26 11h79c77 0 116 28 116 85c0 44 -3 92 -8 143l60 30l9 -148c4 -73 40 -110 107 -110h33v-75h-32c-62 0 -108 23 -138 70c-29 -47 -81 -70 -157 -70h-69c-10 0 -19 4 -26 11c-8 7 -12 16 -12 26zM68 -100c22 -12 42 -28 59 -47
c-11 -20 -27 -40 -48 -59c-16 9 -35 25 -58 47c11 19 27 39 47 59zM212 -100c23 -12 43 -28 60 -47c-13 -23 -29 -42 -48 -59c-12 7 -31 22 -58 47c12 21 27 40 46 59zM143 -215c19 -9 39 -24 60 -46c-13 -22 -29 -42 -48 -60c-17 11 -36 27 -59 48c13 20 28 39 47 58z" />
    <glyph glyph-name="uniFB58" unicode="&#x67e;" horiz-adv-x="316" arabic-form="initial" 
d="M132 342l65 41c21 -63 31 -126 31 -191c0 -58 -17 -104 -50 -139c-35 -35 -83 -53 -144 -53h-72c-10 0 -19 4 -26 11c-8 7 -12 16 -12 26c0 11 4 20 12 27c7 7 16 11 26 11h49c105 0 158 27 158 82s-12 117 -37 185zM14 -100c22 -12 42 -28 59 -47
c-11 -20 -27 -40 -48 -59c-16 9 -35 25 -58 47c11 19 27 39 47 59zM158 -100c23 -12 43 -28 60 -47c-13 -23 -29 -42 -48 -59c-12 7 -31 22 -58 47c12 21 27 40 46 59zM89 -215c19 -9 39 -24 60 -46c-13 -22 -29 -42 -48 -60c-17 11 -36 27 -59 48c13 20 28 39 47 58z" />
    <glyph glyph-name="uni062A" unicode="&#x62a;" horiz-adv-x="790" arabic-form="isolated" 
d="M387 65c115 0 203 9 263 28c54 17 81 39 81 64c0 55 -12 117 -37 185l65 41c21 -63 31 -126 31 -191c0 -81 -40 -137 -119 -168c-58 -23 -153 -34 -284 -34c-116 0 -196 23 -241 70c-31 31 -46 78 -46 140c0 37 5 83 14 139l52 -7c-7 -43 -10 -80 -10 -111
c0 -54 15 -92 46 -115c35 -27 97 -41 185 -41zM347 406c22 -12 42 -28 59 -47c-11 -20 -27 -40 -48 -59c-17 11 -37 27 -58 48c13 20 28 39 47 58zM491 406c23 -12 43 -28 60 -47c-13 -23 -29 -42 -48 -59c-13 8 -32 24 -58 48c11 19 27 39 46 58z" />
    <glyph glyph-name="uniFE96" unicode="&#x62a;" horiz-adv-x="880" arabic-form="final" 
d="M387 -10c-116 0 -196 23 -241 70c-31 31 -46 78 -46 140c0 37 5 83 14 139l52 -7c-7 -43 -10 -80 -10 -111c0 -54 15 -92 46 -115c35 -27 97 -41 185 -41c118 0 206 9 264 28c52 17 78 40 78 67c0 44 -3 92 -8 143l60 30l9 -148c4 -73 40 -110 107 -110h33v-75h-32
c-65 0 -113 27 -144 81c-51 -61 -173 -91 -367 -91zM347 406c22 -12 42 -28 59 -47c-11 -20 -27 -40 -48 -59c-17 11 -37 27 -58 48c13 20 28 39 47 58zM491 406c23 -12 43 -28 60 -47c-13 -23 -29 -42 -48 -59c-13 8 -32 24 -58 48c11 19 27 39 46 58z" />
    <glyph glyph-name="uniFE98" unicode="&#x62a;" horiz-adv-x="396" arabic-form="medial" 
d="M-76 37c0 11 4 20 12 27c7 7 16 11 26 11h79c77 0 116 28 116 85c0 44 -3 92 -8 143l60 30l9 -148c4 -73 40 -110 107 -110h33v-75h-32c-62 0 -108 23 -138 70c-29 -47 -81 -70 -157 -70h-69c-10 0 -19 4 -26 11c-8 7 -12 16 -12 26zM34 541c22 -12 42 -28 59 -47
c-11 -20 -27 -40 -48 -59c-17 11 -37 27 -58 48c13 20 28 39 47 58zM178 541c23 -12 43 -28 60 -47c-13 -23 -29 -42 -48 -59c-13 8 -32 24 -58 48c11 19 27 39 46 58z" />
    <glyph glyph-name="uniFE97" unicode="&#x62a;" horiz-adv-x="316" arabic-form="initial" 
d="M132 342l65 41c21 -63 31 -126 31 -191c0 -58 -17 -104 -50 -139c-35 -35 -83 -53 -144 -53h-72c-10 0 -19 4 -26 11c-8 7 -12 16 -12 26c0 11 4 20 12 27c7 7 16 11 26 11h49c105 0 158 27 158 82s-12 117 -37 185zM14 566c22 -12 42 -28 59 -47
c-11 -20 -27 -40 -48 -59c-17 11 -37 27 -58 48c13 20 28 39 47 58zM158 566c23 -12 43 -28 60 -47c-13 -23 -29 -42 -48 -59c-13 8 -32 24 -58 48c11 19 27 39 46 58z" />
    <glyph glyph-name="uni062B" unicode="&#x62b;" horiz-adv-x="790" arabic-form="isolated" 
d="M387 65c115 0 203 9 263 28c54 17 81 39 81 64c0 55 -12 117 -37 185l65 41c21 -63 31 -126 31 -191c0 -81 -40 -137 -119 -168c-58 -23 -153 -34 -284 -34c-116 0 -196 23 -241 70c-31 31 -46 78 -46 140c0 37 5 83 14 139l52 -7c-7 -43 -10 -80 -10 -111
c0 -54 15 -92 46 -115c35 -27 97 -41 185 -41zM352 406c22 -12 42 -28 59 -47c-11 -20 -27 -40 -48 -59c-17 11 -37 27 -58 48c13 20 28 39 47 58zM496 406c23 -12 43 -28 60 -47c-13 -23 -29 -42 -48 -59c-13 8 -32 24 -58 48c11 19 27 39 46 58zM421 522
c22 -12 42 -28 59 -47c-11 -21 -26 -41 -47 -60c-17 11 -36 27 -59 48c11 19 27 39 47 59z" />
    <glyph glyph-name="uniFE9A" unicode="&#x62b;" horiz-adv-x="880" arabic-form="final" 
d="M387 -10c-116 0 -196 23 -241 70c-31 31 -46 78 -46 140c0 37 5 83 14 139l52 -7c-7 -43 -10 -80 -10 -111c0 -54 15 -92 46 -115c35 -27 97 -41 185 -41c118 0 206 9 264 28c52 17 78 40 78 67c0 44 -3 92 -8 143l60 30l9 -148c4 -73 40 -110 107 -110h33v-75h-32
c-65 0 -113 27 -144 81c-51 -61 -173 -91 -367 -91zM352 406c22 -12 42 -28 59 -47c-11 -20 -27 -40 -48 -59c-17 11 -37 27 -58 48c13 20 28 39 47 58zM496 406c23 -12 43 -28 60 -47c-13 -23 -29 -42 -48 -59c-13 8 -32 24 -58 48c11 19 27 39 46 58zM421 522
c22 -12 42 -28 59 -47c-11 -21 -26 -41 -47 -60c-17 11 -36 27 -59 48c11 19 27 39 47 59z" />
    <glyph glyph-name="uniFE9C" unicode="&#x62b;" horiz-adv-x="396" arabic-form="medial" 
d="M-76 37c0 11 4 20 12 27c7 7 16 11 26 11h79c77 0 116 28 116 85c0 44 -3 92 -8 143l60 30l9 -148c4 -73 40 -110 107 -110h33v-75h-32c-62 0 -108 23 -138 70c-29 -47 -81 -70 -157 -70h-69c-10 0 -19 4 -26 11c-8 7 -12 16 -12 26zM39 546c22 -12 42 -28 59 -47
c-11 -20 -27 -40 -48 -59c-17 11 -37 27 -58 48c13 20 28 39 47 58zM183 546c23 -12 43 -28 60 -47c-13 -23 -29 -42 -48 -59c-13 8 -32 24 -58 48c11 19 27 39 46 58zM108 662c22 -12 42 -28 59 -47c-11 -21 -26 -41 -47 -60c-17 11 -36 27 -59 48c11 19 27 39 47 59z" />
    <glyph glyph-name="uniFE9B" unicode="&#x62b;" horiz-adv-x="316" arabic-form="initial" 
d="M132 342l65 41c21 -63 31 -126 31 -191c0 -58 -17 -104 -50 -139c-35 -35 -83 -53 -144 -53h-72c-10 0 -19 4 -26 11c-8 7 -12 16 -12 26c0 11 4 20 12 27c7 7 16 11 26 11h49c105 0 158 27 158 82s-12 117 -37 185zM14 566c22 -12 42 -28 59 -47
c-11 -20 -27 -40 -48 -59c-17 11 -37 27 -58 48c13 20 28 39 47 58zM158 566c23 -12 43 -28 60 -47c-13 -23 -29 -42 -48 -59c-13 8 -32 24 -58 48c11 19 27 39 46 58zM83 682c22 -12 42 -28 59 -47c-11 -21 -26 -41 -47 -60c-17 11 -36 27 -59 48c11 19 27 39 47 59z" />
    <glyph glyph-name="uni062C" unicode="&#x62c;" horiz-adv-x="595" arabic-form="isolated" 
d="M451 249c-13 3 -47 19 -102 47c-44 22 -77 33 -98 33c-27 0 -63 -38 -106 -114l-45 28c53 107 107 161 160 161c25 0 72 -19 141 -57c71 -39 136 -61 197 -66l-24 -72c-131 -21 -232 -64 -305 -130c-65 -59 -98 -127 -98 -202c0 -55 22 -101 65 -136
c46 -38 110 -57 191 -57c54 0 113 7 178 21l-16 -76c-65 -13 -121 -20 -170 -20c-98 0 -174 27 -229 80c-49 48 -74 110 -74 186c0 79 27 150 80 213c57 68 142 122 255 161zM378 -20c22 -13 43 -30 64 -52c-11 -20 -28 -41 -51 -64c-18 9 -40 26 -65 51c15 22 32 44 52 65z
" />
    <glyph glyph-name="uniFE9E" unicode="&#x62c;" horiz-adv-x="611" arabic-form="final" 
d="M451 249c-13 3 -47 19 -102 47c-44 22 -77 33 -98 33c-27 0 -63 -38 -106 -114l-45 28c53 107 107 161 160 161c25 0 72 -19 141 -57c71 -39 136 -61 197 -66l-24 -72c-59 -10 -112 -24 -157 -42c16 -35 35 -59 57 -73c21 -13 51 -19 92 -19h95v-75h-105
c-95 0 -158 49 -187 146c-132 -66 -198 -156 -198 -269c0 -55 22 -101 65 -136c46 -38 110 -57 191 -57c54 0 113 7 178 21l-16 -76c-65 -13 -121 -20 -170 -20c-98 0 -174 27 -229 80c-49 48 -74 110 -74 186c0 79 27 150 80 213c57 68 142 122 255 161zM365 -51
c22 -13 43 -30 64 -52c-11 -20 -28 -41 -51 -64c-18 9 -40 26 -65 51c15 22 32 44 52 65z" />
    <glyph glyph-name="uniFEA0" unicode="&#x62c;" horiz-adv-x="621" arabic-form="medial" 
d="M-76 37c0 11 4 20 12 27c7 7 16 11 26 11h32c67 0 138 19 211 56c11 6 42 23 91 51c43 23 74 40 95 49c-142 69 -215 103 -218 103c-25 0 -59 -35 -100 -104l-45 28c51 101 102 151 154 151c26 0 73 -21 141 -63c74 -45 140 -72 197 -80l-24 -72c-43 -3 -91 -19 -146 -50
c26 -46 72 -69 138 -69h95v-75h-105c-85 0 -144 39 -177 116c-127 -77 -234 -116 -320 -116h-19c-10 0 -19 4 -26 11c-8 7 -12 16 -12 26zM212 -70c22 -13 43 -30 64 -52c-11 -20 -28 -41 -51 -64c-18 9 -40 26 -65 51c15 22 32 44 52 65z" />
    <glyph glyph-name="uniFE9F" unicode="&#x62c;" horiz-adv-x="603" arabic-form="initial" 
d="M520 266l-24 -72c-48 -3 -126 -36 -233 -101c-103 -62 -197 -93 -282 -93h-19c-10 0 -19 4 -26 11c-8 7 -12 16 -12 26c0 11 4 20 12 27c7 7 16 11 26 11h32c67 0 138 19 211 56c11 6 42 23 91 51c43 23 74 40 95 49c-142 69 -215 103 -218 103c-25 0 -59 -35 -100 -104
l-45 28c51 101 102 151 154 151c26 0 73 -21 141 -63c74 -45 140 -72 197 -80zM212 -70c22 -13 43 -30 64 -52c-11 -20 -28 -41 -51 -64c-18 9 -40 26 -65 51c15 22 32 44 52 65z" />
    <glyph glyph-name="uni0686" unicode="&#x686;" horiz-adv-x="595" arabic-form="isolated" 
d="M451 249c-13 3 -47 19 -102 47c-44 22 -77 33 -98 33c-27 0 -63 -38 -106 -114l-45 28c53 107 107 161 160 161c25 0 72 -19 141 -57c71 -39 136 -61 197 -66l-24 -72c-131 -21 -232 -64 -305 -130c-65 -59 -98 -127 -98 -202c0 -55 22 -101 65 -136
c46 -38 110 -57 191 -57c54 0 113 7 178 21l-16 -76c-65 -13 -121 -20 -170 -20c-98 0 -174 27 -229 80c-49 48 -74 110 -74 186c0 79 27 150 80 213c57 68 142 122 255 161zM330 20c22 -12 42 -28 59 -47c-11 -20 -27 -40 -48 -59c-16 9 -35 25 -58 47c11 19 27 39 47 59z
M474 20c23 -12 43 -28 60 -47c-13 -23 -29 -42 -48 -59c-12 7 -31 22 -58 47c12 21 27 40 46 59zM405 -95c19 -9 39 -24 60 -46c-13 -22 -29 -42 -48 -60c-17 11 -36 27 -59 48c13 20 28 39 47 58z" />
    <glyph glyph-name="uniFB7B" unicode="&#x686;" horiz-adv-x="611" arabic-form="final" 
d="M451 249c-13 3 -47 19 -102 47c-44 22 -77 33 -98 33c-27 0 -63 -38 -106 -114l-45 28c53 107 107 161 160 161c25 0 72 -19 141 -57c71 -39 136 -61 197 -66l-24 -72c-59 -10 -112 -24 -157 -42c16 -35 35 -59 57 -73c21 -13 51 -19 92 -19h95v-75h-105
c-95 0 -158 49 -187 146c-132 -66 -198 -156 -198 -269c0 -55 22 -101 65 -136c46 -38 110 -57 191 -57c54 0 113 7 178 21l-16 -76c-65 -13 -121 -20 -170 -20c-98 0 -174 27 -229 80c-49 48 -74 110 -74 186c0 79 27 150 80 213c57 68 142 122 255 161zM295 -18
c22 -12 42 -28 59 -47c-11 -20 -27 -40 -48 -59c-16 9 -35 25 -58 47c11 19 27 39 47 59zM439 -18c23 -12 43 -28 60 -47c-13 -23 -29 -42 -48 -59c-12 7 -31 22 -58 47c12 21 27 40 46 59zM370 -133c19 -9 39 -24 60 -46c-13 -22 -29 -42 -48 -60c-17 11 -36 27 -59 48
c13 20 28 39 47 58z" />
    <glyph glyph-name="uniFB7D" unicode="&#x686;" horiz-adv-x="621" arabic-form="medial" 
d="M-76 37c0 11 4 20 12 27c7 7 16 11 26 11h32c67 0 138 19 211 56c11 6 42 23 91 51c43 23 74 40 95 49c-142 69 -215 103 -218 103c-25 0 -59 -35 -100 -104l-45 28c51 101 102 151 154 151c26 0 73 -21 141 -63c74 -45 140 -72 197 -80l-24 -72c-43 -3 -91 -19 -146 -50
c26 -46 72 -69 138 -69h95v-75h-105c-85 0 -144 39 -177 116c-127 -77 -234 -116 -320 -116h-19c-10 0 -19 4 -26 11c-8 7 -12 16 -12 26zM134 -70c22 -12 42 -28 59 -47c-11 -20 -27 -40 -48 -59c-16 9 -35 25 -58 47c11 19 27 39 47 59zM278 -70c23 -12 43 -28 60 -47
c-13 -23 -29 -42 -48 -59c-12 7 -31 22 -58 47c12 21 27 40 46 59zM209 -185c19 -9 39 -24 60 -46c-13 -22 -29 -42 -48 -60c-17 11 -36 27 -59 48c13 20 28 39 47 58z" />
    <glyph glyph-name="uniFB7C" unicode="&#x686;" horiz-adv-x="603" arabic-form="initial" 
d="M520 266l-24 -72c-48 -3 -126 -36 -233 -101c-103 -62 -197 -93 -282 -93h-19c-10 0 -19 4 -26 11c-8 7 -12 16 -12 26c0 11 4 20 12 27c7 7 16 11 26 11h32c67 0 138 19 211 56c11 6 42 23 91 51c43 23 74 40 95 49c-142 69 -215 103 -218 103c-25 0 -59 -35 -100 -104
l-45 28c51 101 102 151 154 151c26 0 73 -21 141 -63c74 -45 140 -72 197 -80zM134 -70c22 -12 42 -28 59 -47c-11 -20 -27 -40 -48 -59c-16 9 -35 25 -58 47c11 19 27 39 47 59zM278 -70c23 -12 43 -28 60 -47c-13 -23 -29 -42 -48 -59c-12 7 -31 22 -58 47
c12 21 27 40 46 59zM209 -185c19 -9 39 -24 60 -46c-13 -22 -29 -42 -48 -60c-17 11 -36 27 -59 48c13 20 28 39 47 58z" />
    <glyph glyph-name="uni062D" unicode="&#x62d;" horiz-adv-x="595" arabic-form="isolated" 
d="M451 249c-13 3 -47 19 -102 47c-44 22 -77 33 -98 33c-27 0 -63 -38 -106 -114l-45 28c53 107 107 161 160 161c25 0 72 -19 141 -57c71 -39 136 -61 197 -66l-24 -72c-131 -21 -232 -64 -305 -130c-65 -59 -98 -127 -98 -202c0 -55 22 -101 65 -136
c46 -38 110 -57 191 -57c54 0 113 7 178 21l-16 -76c-65 -13 -121 -20 -170 -20c-98 0 -174 27 -229 80c-49 48 -74 110 -74 186c0 79 27 150 80 213c57 68 142 122 255 161z" />
    <glyph glyph-name="uniFEA2" unicode="&#x62d;" horiz-adv-x="611" arabic-form="final" 
d="M451 249c-13 3 -47 19 -102 47c-44 22 -77 33 -98 33c-27 0 -63 -38 -106 -114l-45 28c53 107 107 161 160 161c25 0 72 -19 141 -57c71 -39 136 -61 197 -66l-24 -72c-59 -10 -112 -24 -157 -42c16 -35 35 -59 57 -73c21 -13 51 -19 92 -19h95v-75h-105
c-95 0 -158 49 -187 146c-132 -66 -198 -156 -198 -269c0 -55 22 -101 65 -136c46 -38 110 -57 191 -57c54 0 113 7 178 21l-16 -76c-65 -13 -121 -20 -170 -20c-98 0 -174 27 -229 80c-49 48 -74 110 -74 186c0 79 27 150 80 213c57 68 142 122 255 161z" />
    <glyph glyph-name="uniFEA4" unicode="&#x62d;" horiz-adv-x="621" arabic-form="medial" 
d="M-76 37c0 11 4 20 12 27c7 7 16 11 26 11h32c67 0 138 19 211 56c11 6 42 23 91 51c43 23 74 40 95 49c-142 69 -215 103 -218 103c-25 0 -59 -35 -100 -104l-45 28c51 101 102 151 154 151c26 0 73 -21 141 -63c74 -45 140 -72 197 -80l-24 -72c-43 -3 -91 -19 -146 -50
c26 -46 72 -69 138 -69h95v-75h-105c-85 0 -144 39 -177 116c-127 -77 -234 -116 -320 -116h-19c-10 0 -19 4 -26 11c-8 7 -12 16 -12 26z" />
    <glyph glyph-name="uniFEA3" unicode="&#x62d;" horiz-adv-x="603" arabic-form="initial" 
d="M520 266l-24 -72c-48 -3 -126 -36 -233 -101c-103 -62 -197 -93 -282 -93h-19c-10 0 -19 4 -26 11c-8 7 -12 16 -12 26c0 11 4 20 12 27c7 7 16 11 26 11h32c67 0 138 19 211 56c11 6 42 23 91 51c43 23 74 40 95 49c-142 69 -215 103 -218 103c-25 0 -59 -35 -100 -104
l-45 28c51 101 102 151 154 151c26 0 73 -21 141 -63c74 -45 140 -72 197 -80z" />
    <glyph glyph-name="uni062E" unicode="&#x62e;" horiz-adv-x="595" arabic-form="isolated" 
d="M451 249c-13 3 -47 19 -102 47c-44 22 -77 33 -98 33c-27 0 -63 -38 -106 -114l-45 28c53 107 107 161 160 161c25 0 72 -19 141 -57c71 -39 136 -61 197 -66l-24 -72c-131 -21 -232 -64 -305 -130c-65 -59 -98 -127 -98 -202c0 -55 22 -101 65 -136
c46 -38 110 -57 191 -57c54 0 113 7 178 21l-16 -76c-65 -13 -121 -20 -170 -20c-98 0 -174 27 -229 80c-49 48 -74 110 -74 186c0 79 27 150 80 213c57 68 142 122 255 161zM251 631c19 -10 41 -27 64 -52c-12 -22 -29 -43 -51 -64c-17 10 -39 27 -65 51c11 18 29 40 52 65
z" />
    <glyph glyph-name="uniFEA6" unicode="&#x62e;" horiz-adv-x="611" arabic-form="final" 
d="M451 249c-13 3 -47 19 -102 47c-44 22 -77 33 -98 33c-27 0 -63 -38 -106 -114l-45 28c53 107 107 161 160 161c25 0 72 -19 141 -57c71 -39 136 -61 197 -66l-24 -72c-59 -10 -112 -24 -157 -42c16 -35 35 -59 57 -73c21 -13 51 -19 92 -19h95v-75h-105
c-95 0 -158 49 -187 146c-132 -66 -198 -156 -198 -269c0 -55 22 -101 65 -136c46 -38 110 -57 191 -57c54 0 113 7 178 21l-16 -76c-65 -13 -121 -20 -170 -20c-98 0 -174 27 -229 80c-49 48 -74 110 -74 186c0 79 27 150 80 213c57 68 142 122 255 161zM251 631
c19 -10 41 -27 64 -52c-12 -22 -29 -43 -51 -64c-17 10 -39 27 -65 51c11 18 29 40 52 65z" />
    <glyph glyph-name="uniFEA8" unicode="&#x62e;" horiz-adv-x="621" arabic-form="medial" 
d="M-76 37c0 11 4 20 12 27c7 7 16 11 26 11h32c67 0 138 19 211 56c11 6 42 23 91 51c43 23 74 40 95 49c-142 69 -215 103 -218 103c-25 0 -59 -35 -100 -104l-45 28c51 101 102 151 154 151c26 0 73 -21 141 -63c74 -45 140 -72 197 -80l-24 -72c-43 -3 -91 -19 -146 -50
c26 -46 72 -69 138 -69h95v-75h-105c-85 0 -144 39 -177 116c-127 -77 -234 -116 -320 -116h-19c-10 0 -19 4 -26 11c-8 7 -12 16 -12 26zM163 631c19 -10 41 -27 64 -52c-12 -22 -29 -43 -51 -64c-17 10 -39 27 -65 51c11 18 29 40 52 65z" />
    <glyph glyph-name="uniFEA7" unicode="&#x62e;" horiz-adv-x="603" arabic-form="initial" 
d="M520 266l-24 -72c-48 -3 -126 -36 -233 -101c-103 -62 -197 -93 -282 -93h-19c-10 0 -19 4 -26 11c-8 7 -12 16 -12 26c0 11 4 20 12 27c7 7 16 11 26 11h32c67 0 138 19 211 56c11 6 42 23 91 51c43 23 74 40 95 49c-142 69 -215 103 -218 103c-25 0 -59 -35 -100 -104
l-45 28c51 101 102 151 154 151c26 0 73 -21 141 -63c74 -45 140 -72 197 -80zM163 631c19 -10 41 -27 64 -52c-12 -22 -29 -43 -51 -64c-17 10 -39 27 -65 51c11 18 29 40 52 65z" />
    <glyph glyph-name="uni062F" unicode="&#x62f;" horiz-adv-x="459" arabic-form="isolated" 
d="M449 163c0 -55 -18 -97 -53 -127c-37 -31 -89 -46 -157 -46c-106 0 -159 48 -159 143c0 19 1 40 4 64l52 -4c-1 -5 -1 -20 -1 -46c0 -30 8 -51 23 -62c17 -13 48 -20 91 -20c40 0 74 8 103 23c25 14 38 29 38 46c0 75 -50 163 -150 263l46 61c109 -119 163 -217 163 -295
z" />
    <glyph glyph-name="uniFEAA" unicode="&#x62f;" horiz-adv-x="547" arabic-form="final" 
d="M300 413l57 48l85 -258c17 -53 36 -89 56 -106c15 -15 38 -22 70 -22h19v-75h-35c-53 0 -94 25 -123 76c-32 -57 -95 -86 -190 -86c-106 0 -159 48 -159 143c0 19 1 40 4 64l52 -4c-1 -5 -1 -20 -1 -46c0 -30 8 -51 23 -62c17 -13 48 -20 91 -20c40 0 74 8 103 23
c25 14 38 29 38 46c0 19 -30 112 -90 279z" />
    <glyph glyph-name="uni0630" unicode="&#x630;" horiz-adv-x="459" arabic-form="isolated" 
d="M449 163c0 -55 -18 -97 -53 -127c-37 -31 -89 -46 -157 -46c-106 0 -159 48 -159 143c0 19 1 40 4 64l52 -4c-1 -5 -1 -20 -1 -46c0 -30 8 -51 23 -62c17 -13 48 -20 91 -20c40 0 74 8 103 23c25 14 38 29 38 46c0 75 -50 163 -150 263l46 61c109 -119 163 -217 163 -295
zM262 631c19 -10 41 -27 64 -52c-12 -22 -29 -43 -51 -64c-17 10 -39 27 -65 51c11 18 29 40 52 65z" />
    <glyph glyph-name="uniFEAC" unicode="&#x630;" horiz-adv-x="547" arabic-form="final" 
d="M300 413l57 48l85 -258c17 -53 36 -89 56 -106c15 -15 38 -22 70 -22h19v-75h-35c-53 0 -94 25 -123 76c-32 -57 -95 -86 -190 -86c-106 0 -159 48 -159 143c0 19 1 40 4 64l52 -4c-1 -5 -1 -20 -1 -46c0 -30 8 -51 23 -62c17 -13 48 -20 91 -20c40 0 74 8 103 23
c25 14 38 29 38 46c0 19 -30 112 -90 279zM312 631c19 -10 41 -27 64 -52c-12 -22 -29 -43 -51 -64c-17 10 -39 27 -65 51c11 18 29 40 52 65z" />
    <glyph glyph-name="uni0631" unicode="&#x631;" horiz-adv-x="281" arabic-form="isolated" 
d="M-2 261l58 39c37 -94 55 -183 55 -268c0 -80 -21 -145 -64 -194c-41 -47 -92 -71 -152 -71c-49 0 -94 20 -135 61l29 41c31 -18 65 -27 101 -27c55 0 97 21 128 64c23 31 34 60 34 89c0 69 -18 157 -54 266z" />
    <glyph glyph-name="uniFEAE" unicode="&#x631;" horiz-adv-x="343" arabic-form="final" 
d="M223 0h-29c-39 0 -66 7 -83 22c-2 -77 -24 -140 -67 -187c-41 -45 -91 -68 -149 -68c-49 0 -94 20 -135 61l29 41c31 -18 65 -27 101 -27c55 0 97 21 128 64c23 31 34 60 34 89c0 69 -18 157 -54 266l59 39l31 -119c10 -38 22 -64 36 -79c16 -18 40 -27 72 -27h27v-75z
" />
    <glyph glyph-name="uni0632" unicode="&#x632;" horiz-adv-x="281" arabic-form="isolated" 
d="M-2 261l58 39c37 -94 55 -183 55 -268c0 -80 -21 -145 -64 -194c-41 -47 -92 -71 -152 -71c-49 0 -94 20 -135 61l29 41c31 -18 65 -27 101 -27c55 0 97 21 128 64c23 31 34 60 34 89c0 69 -18 157 -54 266zM2 496c19 -10 41 -27 64 -52c-12 -22 -29 -43 -51 -64
c-17 10 -39 27 -65 51c11 18 29 40 52 65z" />
    <glyph glyph-name="uniFEB0" unicode="&#x632;" horiz-adv-x="343" arabic-form="final" 
d="M223 0h-29c-39 0 -66 7 -83 22c-2 -77 -24 -140 -67 -187c-41 -45 -91 -68 -149 -68c-49 0 -94 20 -135 61l29 41c31 -18 65 -27 101 -27c55 0 97 21 128 64c23 31 34 60 34 89c0 69 -18 157 -54 266l59 39l31 -119c10 -38 22 -64 36 -79c16 -18 40 -27 72 -27h27v-75z
M2 496c19 -10 41 -27 64 -52c-12 -22 -29 -43 -51 -64c-17 10 -39 27 -65 51c11 18 29 40 52 65z" />
    <glyph glyph-name="uni0698" unicode="&#x698;" horiz-adv-x="281" arabic-form="isolated" 
d="M-2 261l58 39c37 -94 55 -183 55 -268c0 -80 -21 -145 -64 -194c-41 -47 -92 -71 -152 -71c-49 0 -94 20 -135 61l29 41c31 -18 65 -27 101 -27c55 0 97 21 128 64c23 31 34 60 34 89c0 69 -18 157 -54 266zM-53 486c22 -12 42 -28 59 -47c-11 -20 -27 -40 -48 -59
c-17 11 -37 27 -58 48c13 20 28 39 47 58zM91 486c23 -12 43 -28 60 -47c-13 -23 -29 -42 -48 -59c-13 8 -32 24 -58 48c11 19 27 39 46 58zM16 602c22 -12 42 -28 59 -47c-11 -21 -26 -41 -47 -60c-17 11 -36 27 -59 48c11 19 27 39 47 59z" />
    <glyph glyph-name="uniFB8B" unicode="&#x698;" horiz-adv-x="343" arabic-form="final" 
d="M223 0h-29c-39 0 -66 7 -83 22c-2 -77 -24 -140 -67 -187c-41 -45 -91 -68 -149 -68c-49 0 -94 20 -135 61l29 41c31 -18 65 -27 101 -27c55 0 97 21 128 64c23 31 34 60 34 89c0 69 -18 157 -54 266l59 39l31 -119c10 -38 22 -64 36 -79c16 -18 40 -27 72 -27h27v-75z
M-53 486c22 -12 42 -28 59 -47c-11 -20 -27 -40 -48 -59c-17 11 -37 27 -58 48c13 20 28 39 47 58zM91 486c23 -12 43 -28 60 -47c-13 -23 -29 -42 -48 -59c-13 8 -32 24 -58 48c11 19 27 39 46 58zM16 602c22 -12 42 -28 59 -47c-11 -21 -26 -41 -47 -60
c-17 11 -36 27 -59 48c11 19 27 39 47 59z" />
    <glyph glyph-name="uni0633" unicode="&#x633;" horiz-adv-x="1163" arabic-form="isolated" 
d="M1027 -10c-67 0 -118 22 -152 67c-27 -45 -65 -67 -116 -67c-33 0 -61 7 -82 22v-19c0 -61 -31 -116 -93 -163c-63 -49 -137 -73 -222 -73c-89 0 -156 26 -201 78c-41 45 -61 107 -61 184c0 62 10 124 31 186l51 -13c-16 -55 -24 -106 -24 -155c0 -137 71 -205 213 -205
c64 0 122 18 174 54c49 34 73 68 73 103c0 53 -20 143 -60 272l59 39l31 -119c20 -77 55 -116 104 -116c56 0 92 36 109 108c7 27 13 61 18 100l54 -5c-12 -73 -18 -117 -18 -134c0 -19 10 -34 31 -47c23 -15 53 -22 90 -22c45 0 68 20 68 59c0 63 -20 129 -59 198l61 48
c38 -67 57 -141 57 -222c0 -105 -45 -158 -136 -158z" />
    <glyph glyph-name="uniFEB2" unicode="&#x633;" horiz-adv-x="1240" arabic-form="final" 
d="M1027 -10c-67 0 -118 22 -152 67c-27 -45 -65 -67 -116 -67c-33 0 -61 7 -82 22v-19c0 -61 -31 -116 -93 -163c-63 -49 -137 -73 -222 -73c-89 0 -156 26 -201 78c-41 45 -61 107 -61 184c0 62 10 124 31 186l51 -13c-16 -55 -24 -106 -24 -155c0 -137 71 -205 213 -205
c64 0 122 18 174 54c49 34 73 68 73 103c0 53 -20 143 -60 272l59 39l31 -119c20 -77 55 -116 104 -116c56 0 92 36 109 108c7 27 13 61 18 100l54 -5c-12 -73 -18 -117 -18 -134c0 -19 10 -34 31 -47c23 -15 53 -22 90 -22c45 0 68 20 68 59c0 15 -12 72 -35 171l56 36
l31 -141c17 -77 54 -115 111 -115h23v-75h-22c-53 0 -93 21 -121 63c-21 -49 -61 -73 -120 -73z" />
    <glyph glyph-name="uniFEB4" unicode="&#x633;" horiz-adv-x="861" arabic-form="medial" 
d="M-76 37c0 11 4 20 12 27c7 7 16 11 26 11h53c65 0 105 32 119 96c3 13 9 47 17 102l54 -5c-8 -60 -12 -98 -12 -113c0 -30 10 -53 29 -69c17 -14 38 -21 63 -21c56 0 92 36 109 108c7 27 13 61 18 100l54 -5c-12 -73 -18 -117 -18 -134c0 -19 10 -34 31 -47
c23 -15 53 -22 90 -22c45 0 68 20 68 59c0 15 -12 72 -35 171l56 36l31 -141c17 -77 54 -115 111 -115h23v-75h-22c-53 0 -93 21 -121 63c-21 -49 -61 -73 -120 -73c-69 0 -119 22 -152 67c-29 -45 -71 -67 -126 -67c-63 0 -108 27 -135 80c-27 -47 -70 -70 -131 -70h-54
c-10 0 -19 4 -26 11c-8 7 -12 16 -12 26z" />
    <glyph glyph-name="uniFEB3" unicode="&#x633;" horiz-adv-x="784" arabic-form="initial" 
d="M-76 37c0 11 4 20 12 27c7 7 16 11 26 11h53c65 0 105 32 119 96c3 13 9 47 17 102l54 -5c-8 -60 -12 -98 -12 -113c0 -30 10 -53 29 -69c17 -14 38 -21 63 -21c56 0 92 36 109 108c7 27 13 61 18 100l54 -5c-12 -73 -18 -117 -18 -134c0 -19 10 -34 31 -47
c23 -15 53 -22 90 -22c45 0 68 20 68 59c0 63 -20 129 -59 198l61 48c38 -67 57 -141 57 -222c0 -105 -45 -158 -136 -158c-69 0 -119 22 -152 67c-29 -45 -71 -67 -126 -67c-63 0 -108 27 -135 80c-27 -47 -70 -70 -131 -70h-54c-10 0 -19 4 -26 11c-8 7 -12 16 -12 26z
" />
    <glyph glyph-name="uni0634" unicode="&#x634;" horiz-adv-x="1163" arabic-form="isolated" 
d="M1027 -10c-67 0 -118 22 -152 67c-27 -45 -65 -67 -116 -67c-33 0 -61 7 -82 22v-19c0 -61 -31 -116 -93 -163c-63 -49 -137 -73 -222 -73c-89 0 -156 26 -201 78c-41 45 -61 107 -61 184c0 62 10 124 31 186l51 -13c-16 -55 -24 -106 -24 -155c0 -137 71 -205 213 -205
c64 0 122 18 174 54c49 34 73 68 73 103c0 53 -20 143 -60 272l59 39l31 -119c20 -77 55 -116 104 -116c56 0 92 36 109 108c7 27 13 61 18 100l54 -5c-12 -73 -18 -117 -18 -134c0 -19 10 -34 31 -47c23 -15 53 -22 90 -22c45 0 68 20 68 59c0 63 -20 129 -59 198l61 48
c38 -67 57 -141 57 -222c0 -105 -45 -158 -136 -158zM768 486c22 -12 42 -28 59 -47c-11 -20 -27 -40 -48 -59c-17 11 -37 27 -58 48c13 20 28 39 47 58zM912 486c23 -12 43 -28 60 -47c-13 -23 -29 -42 -48 -59c-13 8 -32 24 -58 48c11 19 27 39 46 58zM837 602
c22 -12 42 -28 59 -47c-11 -21 -26 -41 -47 -60c-17 11 -36 27 -59 48c11 19 27 39 47 59z" />
    <glyph glyph-name="uniFEB6" unicode="&#x634;" horiz-adv-x="1240" arabic-form="final" 
d="M1027 -10c-67 0 -118 22 -152 67c-27 -45 -65 -67 -116 -67c-33 0 -61 7 -82 22v-19c0 -61 -31 -116 -93 -163c-63 -49 -137 -73 -222 -73c-89 0 -156 26 -201 78c-41 45 -61 107 -61 184c0 62 10 124 31 186l51 -13c-16 -55 -24 -106 -24 -155c0 -137 71 -205 213 -205
c64 0 122 18 174 54c49 34 73 68 73 103c0 53 -20 143 -60 272l59 39l31 -119c20 -77 55 -116 104 -116c56 0 92 36 109 108c7 27 13 61 18 100l54 -5c-12 -73 -18 -117 -18 -134c0 -19 10 -34 31 -47c23 -15 53 -22 90 -22c45 0 68 20 68 59c0 15 -12 72 -35 171l56 36
l31 -141c17 -77 54 -115 111 -115h23v-75h-22c-53 0 -93 21 -121 63c-21 -49 -61 -73 -120 -73zM767 486c22 -12 42 -28 59 -47c-11 -20 -27 -40 -48 -59c-17 11 -37 27 -58 48c13 20 28 39 47 58zM911 486c23 -12 43 -28 60 -47c-13 -23 -29 -42 -48 -59
c-13 8 -32 24 -58 48c11 19 27 39 46 58zM836 602c22 -12 42 -28 59 -47c-11 -21 -26 -41 -47 -60c-17 11 -36 27 -59 48c11 19 27 39 47 59z" />
    <glyph glyph-name="uniFEB8" unicode="&#x634;" horiz-adv-x="861" arabic-form="medial" 
d="M-76 37c0 11 4 20 12 27c7 7 16 11 26 11h53c65 0 105 32 119 96c3 13 9 47 17 102l54 -5c-8 -60 -12 -98 -12 -113c0 -30 10 -53 29 -69c17 -14 38 -21 63 -21c56 0 92 36 109 108c7 27 13 61 18 100l54 -5c-12 -73 -18 -117 -18 -134c0 -19 10 -34 31 -47
c23 -15 53 -22 90 -22c45 0 68 20 68 59c0 15 -12 72 -35 171l56 36l31 -141c17 -77 54 -115 111 -115h23v-75h-22c-53 0 -93 21 -121 63c-21 -49 -61 -73 -120 -73c-69 0 -119 22 -152 67c-29 -45 -71 -67 -126 -67c-63 0 -108 27 -135 80c-27 -47 -70 -70 -131 -70h-54
c-10 0 -19 4 -26 11c-8 7 -12 16 -12 26zM299 486c22 -12 42 -28 59 -47c-11 -20 -27 -40 -48 -59c-17 11 -37 27 -58 48c13 20 28 39 47 58zM443 486c23 -12 43 -28 60 -47c-13 -23 -29 -42 -48 -59c-13 8 -32 24 -58 48c11 19 27 39 46 58zM368 602c22 -12 42 -28 59 -47
c-11 -21 -26 -41 -47 -60c-17 11 -36 27 -59 48c11 19 27 39 47 59z" />
    <glyph glyph-name="uniFEB7" unicode="&#x634;" horiz-adv-x="784" arabic-form="initial" 
d="M-76 37c0 11 4 20 12 27c7 7 16 11 26 11h53c65 0 105 32 119 96c3 13 9 47 17 102l54 -5c-8 -60 -12 -98 -12 -113c0 -30 10 -53 29 -69c17 -14 38 -21 63 -21c56 0 92 36 109 108c7 27 13 61 18 100l54 -5c-12 -73 -18 -117 -18 -134c0 -19 10 -34 31 -47
c23 -15 53 -22 90 -22c45 0 68 20 68 59c0 63 -20 129 -59 198l61 48c38 -67 57 -141 57 -222c0 -105 -45 -158 -136 -158c-69 0 -119 22 -152 67c-29 -45 -71 -67 -126 -67c-63 0 -108 27 -135 80c-27 -47 -70 -70 -131 -70h-54c-10 0 -19 4 -26 11c-8 7 -12 16 -12 26z
M299 486c22 -12 42 -28 59 -47c-11 -20 -27 -40 -48 -59c-17 11 -37 27 -58 48c13 20 28 39 47 58zM443 486c23 -12 43 -28 60 -47c-13 -23 -29 -42 -48 -59c-13 8 -32 24 -58 48c11 19 27 39 46 58zM368 602c22 -12 42 -28 59 -47c-11 -21 -26 -41 -47 -60
c-17 11 -36 27 -59 48c11 19 27 39 47 59z" />
    <glyph glyph-name="uni0635" unicode="&#x635;" horiz-adv-x="1181" arabic-form="isolated" 
d="M677 -7c0 -61 -31 -116 -93 -163c-63 -49 -137 -73 -222 -73c-89 0 -156 26 -201 78c-41 45 -61 107 -61 184c0 62 10 124 31 186l51 -13c-16 -55 -24 -106 -24 -155c0 -137 71 -205 213 -205c64 0 122 18 174 54c49 34 73 68 73 103c0 53 -20 143 -60 272l59 39l31 -119
c9 -33 21 -56 34 -70c63 85 107 139 132 164c61 61 122 91 184 91c57 0 102 -20 137 -61c31 -35 46 -74 46 -117c0 -132 -92 -198 -277 -198c-113 0 -189 13 -228 38c1 -6 1 -18 1 -35zM987 291c-72 0 -158 -70 -258 -210c30 -11 84 -16 162 -16c75 0 133 10 175 30
c37 18 56 41 56 68c0 34 -12 63 -36 88c-26 27 -59 40 -99 40z" />
    <glyph glyph-name="uniFEBA" unicode="&#x635;" horiz-adv-x="1209" arabic-form="final" 
d="M677 -7c0 -61 -31 -116 -93 -163c-63 -49 -137 -73 -222 -73c-89 0 -156 26 -201 78c-41 45 -61 107 -61 184c0 62 10 124 31 186l51 -13c-16 -55 -24 -106 -24 -155c0 -137 71 -205 213 -205c64 0 122 18 174 54c49 34 73 68 73 103c0 53 -20 143 -60 272l59 39l31 -119
c9 -33 21 -56 34 -70c63 85 107 139 132 164c61 61 122 91 184 91c57 0 102 -20 137 -61c31 -35 46 -74 46 -117c0 -38 -9 -72 -27 -101c17 -8 46 -12 85 -12h20v-75h-33c-47 0 -86 13 -117 40c-49 -33 -117 -50 -205 -50c-113 0 -189 13 -228 38c1 -6 1 -18 1 -35zM987 291
c-72 0 -158 -70 -258 -210c30 -11 84 -16 162 -16c75 0 133 10 175 30c37 18 56 41 56 68c0 34 -12 63 -36 88c-26 27 -59 40 -99 40z" />
    <glyph glyph-name="uniFEBC" unicode="&#x635;" horiz-adv-x="807" arabic-form="medial" 
d="M-76 37c0 11 4 20 12 27c7 7 16 11 26 11h13c68 0 109 32 123 96c6 26 11 60 15 102l52 -5c-3 -24 -4 -48 -4 -73c0 -37 10 -65 31 -84c63 85 107 139 132 164c61 61 122 91 184 91c57 0 102 -20 137 -61c31 -35 46 -74 46 -117c0 -38 -9 -72 -27 -101
c17 -8 46 -12 85 -12h20v-75h-33c-47 0 -86 13 -117 40c-49 -33 -117 -50 -205 -50c-84 0 -144 5 -180 16c-49 14 -86 42 -112 84c-28 -60 -71 -90 -128 -90h-32c-10 0 -19 4 -26 11c-8 7 -12 16 -12 26zM497 291c-73 0 -158 -69 -257 -208c35 -12 89 -18 161 -18
c75 0 133 10 175 30c37 18 56 41 56 68c0 34 -12 63 -36 88c-26 27 -59 40 -99 40z" />
    <glyph glyph-name="uniFEBB" unicode="&#x635;" horiz-adv-x="779" arabic-form="initial" 
d="M-76 37c0 11 4 20 12 27c7 7 16 11 26 11h13c68 0 109 32 123 96c6 26 11 60 15 102l52 -5c-3 -24 -4 -48 -4 -73c0 -37 10 -65 31 -84c63 85 107 139 132 164c61 61 122 91 184 91c57 0 102 -20 137 -61c31 -35 46 -74 46 -117c0 -132 -92 -198 -277 -198
c-84 0 -144 5 -180 16c-49 14 -86 42 -112 84c-28 -60 -71 -90 -128 -90h-32c-10 0 -19 4 -26 11c-8 7 -12 16 -12 26zM497 291c-73 0 -158 -69 -257 -208c35 -12 89 -18 161 -18c75 0 133 10 175 30c37 18 56 41 56 68c0 34 -12 63 -36 88c-26 27 -59 40 -99 40z" />
    <glyph glyph-name="uni0636" unicode="&#x636;" horiz-adv-x="1181" arabic-form="isolated" 
d="M677 -7c0 -61 -31 -116 -93 -163c-63 -49 -137 -73 -222 -73c-89 0 -156 26 -201 78c-41 45 -61 107 -61 184c0 62 10 124 31 186l51 -13c-16 -55 -24 -106 -24 -155c0 -137 71 -205 213 -205c64 0 122 18 174 54c49 34 73 68 73 103c0 53 -20 143 -60 272l59 39l31 -119
c9 -33 21 -56 34 -70c63 85 107 139 132 164c61 61 122 91 184 91c57 0 102 -20 137 -61c31 -35 46 -74 46 -117c0 -132 -92 -198 -277 -198c-113 0 -189 13 -228 38c1 -6 1 -18 1 -35zM987 291c-72 0 -158 -70 -258 -210c30 -11 84 -16 162 -16c75 0 133 10 175 30
c37 18 56 41 56 68c0 34 -12 63 -36 88c-26 27 -59 40 -99 40zM977 576c19 -10 41 -27 64 -52c-12 -22 -29 -43 -51 -64c-17 10 -39 27 -65 51c11 18 29 40 52 65z" />
    <glyph glyph-name="uniFEBE" unicode="&#x636;" horiz-adv-x="1209" arabic-form="final" 
d="M677 -7c0 -61 -31 -116 -93 -163c-63 -49 -137 -73 -222 -73c-89 0 -156 26 -201 78c-41 45 -61 107 -61 184c0 62 10 124 31 186l51 -13c-16 -55 -24 -106 -24 -155c0 -137 71 -205 213 -205c64 0 122 18 174 54c49 34 73 68 73 103c0 53 -20 143 -60 272l59 39l31 -119
c9 -33 21 -56 34 -70c63 85 107 139 132 164c61 61 122 91 184 91c57 0 102 -20 137 -61c31 -35 46 -74 46 -117c0 -38 -9 -72 -27 -101c17 -8 46 -12 85 -12h20v-75h-33c-47 0 -86 13 -117 40c-49 -33 -117 -50 -205 -50c-113 0 -189 13 -228 38c1 -6 1 -18 1 -35zM987 291
c-72 0 -158 -70 -258 -210c30 -11 84 -16 162 -16c75 0 133 10 175 30c37 18 56 41 56 68c0 34 -12 63 -36 88c-26 27 -59 40 -99 40zM977 576c19 -10 41 -27 64 -52c-12 -22 -29 -43 -51 -64c-17 10 -39 27 -65 51c11 18 29 40 52 65z" />
    <glyph glyph-name="uniFEC0" unicode="&#x636;" horiz-adv-x="807" arabic-form="medial" 
d="M-76 37c0 11 4 20 12 27c7 7 16 11 26 11h13c68 0 109 32 123 96c6 26 11 60 15 102l52 -5c-3 -24 -4 -48 -4 -73c0 -37 10 -65 31 -84c63 85 107 139 132 164c61 61 122 91 184 91c57 0 102 -20 137 -61c31 -35 46 -74 46 -117c0 -38 -9 -72 -27 -101
c17 -8 46 -12 85 -12h20v-75h-33c-47 0 -86 13 -117 40c-49 -33 -117 -50 -205 -50c-84 0 -144 5 -180 16c-49 14 -86 42 -112 84c-28 -60 -71 -90 -128 -90h-32c-10 0 -19 4 -26 11c-8 7 -12 16 -12 26zM497 291c-73 0 -158 -69 -257 -208c35 -12 89 -18 161 -18
c75 0 133 10 175 30c37 18 56 41 56 68c0 34 -12 63 -36 88c-26 27 -59 40 -99 40zM487 576c19 -10 41 -27 64 -52c-12 -22 -29 -43 -51 -64c-17 10 -39 27 -65 51c11 18 29 40 52 65z" />
    <glyph glyph-name="uniFEBF" unicode="&#x636;" horiz-adv-x="779" arabic-form="initial" 
d="M-76 37c0 11 4 20 12 27c7 7 16 11 26 11h13c68 0 109 32 123 96c6 26 11 60 15 102l52 -5c-3 -24 -4 -48 -4 -73c0 -37 10 -65 31 -84c63 85 107 139 132 164c61 61 122 91 184 91c57 0 102 -20 137 -61c31 -35 46 -74 46 -117c0 -132 -92 -198 -277 -198
c-84 0 -144 5 -180 16c-49 14 -86 42 -112 84c-28 -60 -71 -90 -128 -90h-32c-10 0 -19 4 -26 11c-8 7 -12 16 -12 26zM497 291c-73 0 -158 -69 -257 -208c35 -12 89 -18 161 -18c75 0 133 10 175 30c37 18 56 41 56 68c0 34 -12 63 -36 88c-26 27 -59 40 -99 40zM487 576
c19 -10 41 -27 64 -52c-12 -22 -29 -43 -51 -64c-17 10 -39 27 -65 51c11 18 29 40 52 65z" />
    <glyph glyph-name="uni0637" unicode="&#x637;" horiz-adv-x="687" arabic-form="isolated" 
d="M87 16l-11 75c26 -5 51 -9 74 -12l52 71c28 46 42 114 42 205c0 53 -4 157 -11 311l61 36c5 -108 8 -203 8 -286c0 -63 -3 -115 -8 -154c67 69 133 104 197 104c57 0 102 -20 137 -61c31 -35 46 -74 46 -117c0 -132 -92 -198 -277 -198c-104 0 -207 9 -310 26zM384 65
c75 0 133 10 175 30c37 18 56 41 56 68c0 34 -12 63 -36 88c-26 27 -59 40 -99 40c-73 0 -161 -73 -265 -219c43 -5 99 -7 169 -7z" />
    <glyph glyph-name="uniFEC2" unicode="&#x637;" horiz-adv-x="729" arabic-form="final" 
d="M782 0h-33c-47 0 -86 13 -117 40c-49 -33 -117 -50 -205 -50c-104 0 -207 9 -310 26l-11 75c26 -5 51 -9 74 -12l52 71c28 46 42 114 42 205c0 53 -4 157 -11 311l61 36c5 -108 8 -203 8 -286c0 -63 -3 -115 -8 -154c67 69 133 104 197 104c57 0 102 -20 137 -61
c31 -35 46 -74 46 -117c0 -38 -9 -72 -27 -101c17 -8 46 -12 85 -12h20v-75zM414 65c75 0 133 10 175 30c37 18 56 41 56 68c0 34 -12 63 -36 88c-26 27 -59 40 -99 40c-73 0 -161 -73 -265 -219c43 -5 99 -7 169 -7z" />
    <glyph glyph-name="uniFEC4" unicode="&#x637;" horiz-adv-x="646" arabic-form="medial" 
d="M-76 37c0 11 4 20 12 27c7 7 16 11 26 11h41l55 75c28 46 42 114 42 205c0 53 -4 157 -11 311l61 36c5 -108 8 -203 8 -286c0 -63 -3 -115 -8 -154c67 69 133 104 197 104c57 0 102 -20 137 -61c31 -35 46 -74 46 -117c0 -38 -10 -71 -29 -100c17 -9 46 -13 87 -13h20
v-75h-33c-49 0 -90 15 -121 44c-47 -29 -114 -44 -201 -44h-291c-10 0 -19 4 -26 11c-8 7 -12 16 -12 26zM73 75h167c154 0 231 29 231 88c0 34 -12 63 -36 88c-26 27 -59 40 -99 40c-72 0 -160 -72 -263 -216z" />
    <glyph glyph-name="uniFEC3" unicode="&#x637;" horiz-adv-x="619" arabic-form="initial" 
d="M-76 37c0 11 4 20 12 27c7 7 16 11 26 11h41l55 75c28 46 42 114 42 205c0 53 -4 157 -11 311l61 36c5 -108 8 -203 8 -286c0 -63 -3 -115 -8 -154c67 69 133 104 197 104c57 0 102 -20 137 -61c31 -35 46 -74 46 -117c0 -125 -92 -188 -277 -188h-291
c-10 0 -19 4 -26 11c-8 7 -12 16 -12 26zM73 75h167c154 0 231 29 231 88c0 34 -12 63 -36 88c-26 27 -59 40 -99 40c-72 0 -160 -72 -263 -216z" />
    <glyph glyph-name="uni0638" unicode="&#x638;" horiz-adv-x="687" arabic-form="isolated" 
d="M87 16l-11 75c26 -5 51 -9 74 -12l52 71c28 46 42 114 42 205c0 53 -4 157 -11 311l61 36c5 -108 8 -203 8 -286c0 -63 -3 -115 -8 -154c67 69 133 104 197 104c57 0 102 -20 137 -61c31 -35 46 -74 46 -117c0 -132 -92 -198 -277 -198c-104 0 -207 9 -310 26zM384 65
c75 0 133 10 175 30c37 18 56 41 56 68c0 34 -12 63 -36 88c-26 27 -59 40 -99 40c-73 0 -161 -73 -265 -219c43 -5 99 -7 169 -7zM478 576c19 -10 41 -27 64 -52c-12 -22 -29 -43 -51 -64c-17 10 -39 27 -65 51c11 18 29 40 52 65z" />
    <glyph glyph-name="uniFEC6" unicode="&#x638;" horiz-adv-x="714" arabic-form="final" 
d="M752 0h-33c-47 0 -86 13 -117 40c-49 -33 -117 -50 -205 -50c-104 0 -207 9 -310 26l-11 75c26 -5 51 -9 74 -12l52 71c28 46 42 114 42 205c0 53 -4 157 -11 311l61 36c5 -108 8 -203 8 -286c0 -63 -3 -115 -8 -154c67 69 133 104 197 104c57 0 102 -20 137 -61
c31 -35 46 -74 46 -117c0 -38 -9 -72 -27 -101c17 -8 46 -12 85 -12h20v-75zM384 65c75 0 133 10 175 30c37 18 56 41 56 68c0 34 -12 63 -36 88c-26 27 -59 40 -99 40c-73 0 -161 -73 -265 -219c43 -5 99 -7 169 -7zM478 576c19 -10 41 -27 64 -52c-12 -22 -29 -43 -51 -64
c-17 10 -39 27 -65 51c11 18 29 40 52 65z" />
    <glyph glyph-name="uniFEC8" unicode="&#x638;" horiz-adv-x="646" arabic-form="medial" 
d="M-76 37c0 11 4 20 12 27c7 7 16 11 26 11h41l55 75c28 46 42 114 42 205c0 53 -4 157 -11 311l61 36c5 -108 8 -203 8 -286c0 -63 -3 -115 -8 -154c67 69 133 104 197 104c57 0 102 -20 137 -61c31 -35 46 -74 46 -117c0 -38 -10 -71 -29 -100c17 -9 46 -13 87 -13h20
v-75h-33c-49 0 -90 15 -121 44c-47 -29 -114 -44 -201 -44h-291c-10 0 -19 4 -26 11c-8 7 -12 16 -12 26zM73 75h167c154 0 231 29 231 88c0 34 -12 63 -36 88c-26 27 -59 40 -99 40c-72 0 -160 -72 -263 -216zM334 576c19 -10 41 -27 64 -52c-12 -22 -29 -43 -51 -64
c-17 10 -39 27 -65 51c11 18 29 40 52 65z" />
    <glyph glyph-name="uniFEC7" unicode="&#x638;" horiz-adv-x="619" arabic-form="initial" 
d="M-76 37c0 11 4 20 12 27c7 7 16 11 26 11h41l55 75c28 46 42 114 42 205c0 53 -4 157 -11 311l61 36c5 -108 8 -203 8 -286c0 -63 -3 -115 -8 -154c67 69 133 104 197 104c57 0 102 -20 137 -61c31 -35 46 -74 46 -117c0 -125 -92 -188 -277 -188h-291
c-10 0 -19 4 -26 11c-8 7 -12 16 -12 26zM73 75h167c154 0 231 29 231 88c0 34 -12 63 -36 88c-26 27 -59 40 -99 40c-72 0 -160 -72 -263 -216zM334 576c19 -10 41 -27 64 -52c-12 -22 -29 -43 -51 -64c-17 10 -39 27 -65 51c11 18 29 40 52 65z" />
    <glyph glyph-name="uni0639" unicode="&#x639;" horiz-adv-x="524" arabic-form="isolated" 
d="M100 -146c0 85 41 159 122 220c-68 31 -102 77 -102 137c0 59 20 109 59 150c34 35 69 53 106 53c60 0 110 -29 149 -86l-25 -40c-49 34 -90 51 -124 51c-29 0 -55 -14 -79 -41c-23 -27 -35 -52 -35 -77c0 -17 12 -35 37 -56c29 -25 63 -38 102 -38c50 0 113 14 189 41
l-9 -81c-109 -17 -193 -46 -252 -88c-55 -39 -83 -86 -83 -140c0 -49 19 -89 57 -120c45 -37 111 -55 199 -55c54 0 113 7 178 21l-16 -76c-65 -13 -121 -20 -170 -20c-99 0 -176 23 -229 69c-49 43 -74 102 -74 176z" />
    <glyph glyph-name="uniFECA" unicode="&#x639;" horiz-adv-x="510" arabic-form="final" 
d="M117 -136c0 101 46 181 139 242c-77 75 -129 122 -156 141l23 90c70 35 137 52 201 52c42 0 78 -7 108 -22c43 -20 65 -52 65 -95c0 -60 -37 -120 -111 -179c31 -12 72 -18 123 -18h51v-75h-70c-72 0 -134 20 -185 60c-89 -52 -133 -116 -133 -191c0 -50 19 -92 57 -125
c45 -40 112 -60 199 -60c54 0 113 7 178 21l-16 -76c-65 -13 -121 -20 -170 -20c-99 0 -176 25 -229 74c-49 45 -74 106 -74 181zM169 283c27 -23 58 -52 91 -87c36 -38 58 -60 66 -67c38 24 68 50 91 78c18 23 27 41 27 53c0 14 -14 27 -41 38c-25 11 -55 16 -90 16
c-54 0 -102 -10 -144 -31z" />
    <glyph glyph-name="uniFECC" unicode="&#x639;" horiz-adv-x="521" arabic-form="medial" 
d="M-76 37c0 11 4 20 12 27c7 7 16 11 26 11h84c53 0 101 7 142 22c-84 82 -139 132 -165 150l23 90c70 35 137 52 201 52c42 0 78 -7 108 -22c43 -20 65 -52 65 -95c0 -65 -35 -125 -106 -181c28 -11 67 -16 118 -16h51v-75h-70c-66 0 -122 16 -167 47
c-61 -31 -129 -47 -203 -47h-81c-10 0 -19 4 -26 11c-8 7 -12 16 -12 26zM92 283c26 -23 57 -52 93 -89c33 -35 55 -57 68 -68c36 21 65 47 87 78c18 24 27 43 27 56c0 14 -14 27 -41 38c-25 11 -55 16 -90 16c-54 0 -102 -10 -144 -31z" />
    <glyph glyph-name="uniFECB" unicode="&#x639;" horiz-adv-x="504" arabic-form="initial" 
d="M197 339c-29 0 -55 -14 -79 -41c-23 -27 -35 -52 -35 -77c0 -17 12 -35 37 -56c29 -25 63 -38 102 -38c47 0 113 19 198 57l-7 -73c-145 -74 -291 -111 -439 -111h-12c-10 0 -19 4 -26 11c-8 7 -12 16 -12 26c0 11 4 20 12 27c7 7 16 11 26 11c63 0 114 3 155 8
c-57 33 -85 75 -85 128c0 59 20 109 59 150c34 35 69 53 106 53c60 0 110 -29 149 -86l-25 -40c-49 34 -90 51 -124 51z" />
    <glyph glyph-name="uni063A" unicode="&#x63a;" horiz-adv-x="524" arabic-form="isolated" 
d="M100 -146c0 85 41 159 122 220c-68 31 -102 77 -102 137c0 59 20 109 59 150c34 35 69 53 106 53c60 0 110 -29 149 -86l-25 -40c-49 34 -90 51 -124 51c-29 0 -55 -14 -79 -41c-23 -27 -35 -52 -35 -77c0 -17 12 -35 37 -56c29 -25 63 -38 102 -38c50 0 113 14 189 41
l-9 -81c-109 -17 -193 -46 -252 -88c-55 -39 -83 -86 -83 -140c0 -49 19 -89 57 -120c45 -37 111 -55 199 -55c54 0 113 7 178 21l-16 -76c-65 -13 -121 -20 -170 -20c-99 0 -176 23 -229 69c-49 43 -74 102 -74 176zM267 626c19 -10 41 -27 64 -52c-12 -22 -29 -43 -51 -64
c-17 10 -39 27 -65 51c11 18 29 40 52 65z" />
    <glyph glyph-name="uniFECE" unicode="&#x63a;" horiz-adv-x="510" arabic-form="final" 
d="M117 -136c0 101 46 181 139 242c-77 75 -129 122 -156 141l23 90c70 35 137 52 201 52c42 0 78 -7 108 -22c43 -20 65 -52 65 -95c0 -60 -37 -120 -111 -179c31 -12 72 -18 123 -18h51v-75h-70c-72 0 -134 20 -185 60c-89 -52 -133 -116 -133 -191c0 -50 19 -92 57 -125
c45 -40 112 -60 199 -60c54 0 113 7 178 21l-16 -76c-65 -13 -121 -20 -170 -20c-99 0 -176 25 -229 74c-49 45 -74 106 -74 181zM169 283c27 -23 58 -52 91 -87c36 -38 58 -60 66 -67c38 24 68 50 91 78c18 23 27 41 27 53c0 14 -14 27 -41 38c-25 11 -55 16 -90 16
c-54 0 -102 -10 -144 -31zM297 596c19 -10 41 -27 64 -52c-12 -22 -29 -43 -51 -64c-17 10 -39 27 -65 51c11 18 29 40 52 65z" />
    <glyph glyph-name="uniFED0" unicode="&#x63a;" horiz-adv-x="521" arabic-form="medial" 
d="M-76 37c0 11 4 20 12 27c7 7 16 11 26 11h84c53 0 101 7 142 22c-84 82 -139 132 -165 150l23 90c70 35 137 52 201 52c42 0 78 -7 108 -22c43 -20 65 -52 65 -95c0 -65 -35 -125 -106 -181c28 -11 67 -16 118 -16h51v-75h-70c-66 0 -122 16 -167 47
c-61 -31 -129 -47 -203 -47h-81c-10 0 -19 4 -26 11c-8 7 -12 16 -12 26zM92 283c26 -23 57 -52 93 -89c33 -35 55 -57 68 -68c36 21 65 47 87 78c18 24 27 43 27 56c0 14 -14 27 -41 38c-25 11 -55 16 -90 16c-54 0 -102 -10 -144 -31zM209 596c19 -10 41 -27 64 -52
c-12 -22 -29 -43 -51 -64c-17 10 -39 27 -65 51c11 18 29 40 52 65z" />
    <glyph glyph-name="uniFECF" unicode="&#x63a;" horiz-adv-x="504" arabic-form="initial" 
d="M197 339c-29 0 -55 -14 -79 -41c-23 -27 -35 -52 -35 -77c0 -17 12 -35 37 -56c29 -25 63 -38 102 -38c47 0 113 19 198 57l-7 -73c-145 -74 -291 -111 -439 -111h-12c-10 0 -19 4 -26 11c-8 7 -12 16 -12 26c0 11 4 20 12 27c7 7 16 11 26 11c63 0 114 3 155 8
c-57 33 -85 75 -85 128c0 59 20 109 59 150c34 35 69 53 106 53c60 0 110 -29 149 -86l-25 -40c-49 34 -90 51 -124 51zM159 626c19 -10 41 -27 64 -52c-12 -22 -29 -43 -51 -64c-17 10 -39 27 -65 51c11 18 29 40 52 65z" />
    <glyph glyph-name="uni0641" unicode="&#x641;" horiz-adv-x="831" arabic-form="isolated" 
d="M387 65c157 0 257 6 300 19c49 15 75 49 80 100c-37 -8 -71 -12 -103 -12c-94 0 -141 47 -141 140c0 47 11 88 34 125c28 44 66 66 114 66s87 -26 118 -79c28 -49 42 -108 42 -177c0 -114 -36 -187 -109 -220c-53 -25 -165 -37 -335 -37c-116 0 -196 23 -241 70
c-31 31 -46 78 -46 140c0 37 5 83 14 139l52 -7c-7 -43 -10 -80 -10 -111c0 -54 15 -92 46 -115c35 -27 97 -41 185 -41zM664 247c40 0 75 3 104 10c-4 45 -15 84 -33 117c-21 36 -46 54 -75 54c-23 0 -42 -11 -57 -33c-15 -21 -22 -45 -22 -73c0 -50 28 -75 83 -75z
M652 689c19 -10 41 -27 64 -52c-12 -22 -29 -43 -51 -64c-17 10 -39 27 -65 51c11 18 29 40 52 65z" />
    <glyph glyph-name="uniFED2" unicode="&#x641;" horiz-adv-x="822" arabic-form="final" 
d="M387 65c76 0 141 8 194 23c-41 39 -61 82 -61 130c0 47 16 89 48 128s67 59 104 59c39 0 71 -14 96 -42c28 -32 42 -77 42 -135c0 -51 -30 -98 -90 -142c27 -7 57 -11 89 -11h63v-75h-53c-64 0 -122 14 -174 42c-74 -35 -160 -52 -258 -52c-116 0 -196 23 -241 70
c-31 31 -46 78 -46 140c0 37 5 83 14 139l52 -7c-7 -43 -10 -80 -10 -111c0 -54 15 -92 46 -115c35 -27 97 -41 185 -41zM753 204c-1 38 -9 69 -26 92c-15 23 -35 34 -61 34c-23 0 -43 -13 -62 -40c-17 -25 -26 -47 -26 -67c0 -39 25 -75 74 -107c39 21 72 50 101 88z
M657 626c19 -10 41 -27 64 -52c-12 -22 -29 -43 -51 -64c-17 10 -39 27 -65 51c11 18 29 40 52 65z" />
    <glyph glyph-name="uniFED4" unicode="&#x641;" horiz-adv-x="420" arabic-form="medial" 
d="M-76 37c0 11 4 20 12 27c7 7 16 11 26 11h17c43 0 80 4 111 13c-40 38 -60 81 -60 130c0 47 16 89 48 128s67 59 104 59c39 0 71 -14 96 -42c28 -32 42 -77 42 -135c0 -48 -30 -95 -91 -142c27 -7 57 -11 90 -11h63v-75h-53c-64 0 -122 14 -173 41
c-59 -27 -115 -41 -170 -41h-24c-10 0 -19 4 -26 11c-8 7 -12 16 -12 26zM88 223c0 -39 24 -75 73 -107c39 21 73 51 102 88c-1 38 -9 69 -26 92c-15 23 -35 34 -61 34c-23 0 -43 -13 -62 -40c-17 -25 -26 -47 -26 -67zM164 626c19 -10 41 -27 64 -52
c-12 -22 -29 -43 -51 -64c-17 10 -39 27 -65 51c11 18 29 40 52 65z" />
    <glyph glyph-name="uniFED3" unicode="&#x641;" horiz-adv-x="428" arabic-form="initial" 
d="M-76 37c0 11 4 20 12 27c7 7 16 11 26 11h3c131 0 213 5 246 15c39 12 61 43 65 94c-35 -8 -69 -12 -103 -12c-94 0 -141 47 -141 140c0 47 11 88 34 125c28 44 66 66 114 66s87 -26 118 -79c28 -49 42 -108 42 -177c0 -112 -33 -184 -98 -215c-44 -21 -137 -32 -280 -32
c-10 0 -19 4 -26 11c-8 7 -12 16 -12 26zM173 247c40 0 75 3 104 10c-4 45 -15 84 -33 117c-21 36 -46 54 -75 54c-23 0 -42 -11 -57 -33c-15 -21 -22 -45 -22 -73c0 -50 28 -75 83 -75zM154 689c19 -10 41 -27 64 -52c-12 -22 -29 -43 -51 -64c-17 10 -39 27 -65 51
c11 18 29 40 52 65z" />
    <glyph glyph-name="uni0642" unicode="&#x642;" horiz-adv-x="676" arabic-form="isolated" 
d="M616 39c0 10 0 17 -1 20c-41 -13 -78 -19 -113 -19c-99 0 -148 47 -148 141c0 51 11 94 34 129c27 42 67 63 118 63c56 0 99 -32 129 -96c27 -57 40 -135 40 -234c0 -61 -31 -116 -93 -163c-63 -49 -137 -73 -222 -73c-89 0 -156 26 -201 78c-41 45 -61 107 -61 184
c0 62 10 124 31 186l51 -13c-16 -55 -24 -106 -24 -155c0 -137 71 -205 213 -205c64 0 122 18 174 54c49 34 73 68 73 103zM502 115c35 0 71 5 106 14c-17 113 -54 169 -113 169c-27 0 -47 -10 -62 -31c-15 -19 -22 -45 -22 -76c0 -51 30 -76 91 -76zM396 561
c22 -12 42 -28 59 -47c-11 -20 -27 -40 -48 -59c-17 11 -37 27 -58 48c13 20 28 39 47 58zM540 561c23 -12 43 -28 60 -47c-13 -23 -29 -42 -48 -59c-13 8 -32 24 -58 48c11 19 27 39 46 58z" />
    <glyph glyph-name="uniFED6" unicode="&#x642;" horiz-adv-x="695" arabic-form="final" 
d="M354 131c0 51 11 94 34 129c27 42 67 63 118 63c95 0 150 -83 165 -248h73v-75h-69v-7c0 -61 -31 -116 -93 -163c-63 -49 -137 -73 -222 -73c-89 0 -156 26 -201 78c-41 45 -61 107 -61 184c0 62 10 124 31 186l51 -13c-16 -55 -24 -106 -24 -155
c0 -137 71 -205 213 -205c64 0 122 18 174 54c49 34 73 68 73 103v11h-124c-92 0 -138 44 -138 131zM490 75h119c-17 115 -55 173 -114 173c-27 0 -47 -10 -62 -31c-15 -19 -22 -45 -22 -76c0 -44 26 -66 79 -66zM396 511c22 -12 42 -28 59 -47c-11 -20 -27 -40 -48 -59
c-17 11 -37 27 -58 48c13 20 28 39 47 58zM540 511c23 -12 43 -28 60 -47c-13 -23 -29 -42 -48 -59c-13 8 -32 24 -58 48c11 19 27 39 46 58z" />
    <glyph glyph-name="uniFED8" unicode="&#x642;" horiz-adv-x="420" arabic-form="medial" 
d="M-76 37c0 11 4 20 12 27c7 7 16 11 26 11h17c43 0 80 4 111 13c-40 38 -60 81 -60 130c0 47 16 89 48 128s67 59 104 59c39 0 71 -14 96 -42c28 -32 42 -77 42 -135c0 -48 -30 -95 -91 -142c27 -7 57 -11 90 -11h63v-75h-53c-64 0 -122 14 -173 41
c-59 -27 -115 -41 -170 -41h-24c-10 0 -19 4 -26 11c-8 7 -12 16 -12 26zM88 223c0 -39 24 -75 73 -107c39 21 73 51 102 88c-1 38 -9 69 -26 92c-15 23 -35 34 -61 34c-23 0 -43 -13 -62 -40c-17 -25 -26 -47 -26 -67zM99 616c22 -12 42 -28 59 -47
c-11 -20 -27 -40 -48 -59c-17 11 -37 27 -58 48c13 20 28 39 47 58zM243 616c23 -12 43 -28 60 -47c-13 -23 -29 -42 -48 -59c-13 8 -32 24 -58 48c11 19 27 39 46 58z" />
    <glyph glyph-name="uniFED7" unicode="&#x642;" horiz-adv-x="428" arabic-form="initial" 
d="M-76 37c0 11 4 20 12 27c7 7 16 11 26 11h3c131 0 213 5 246 15c39 12 61 43 65 94c-35 -8 -69 -12 -103 -12c-94 0 -141 47 -141 140c0 47 11 88 34 125c28 44 66 66 114 66s87 -26 118 -79c28 -49 42 -108 42 -177c0 -112 -33 -184 -98 -215c-44 -21 -137 -32 -280 -32
c-10 0 -19 4 -26 11c-8 7 -12 16 -12 26zM173 247c40 0 75 3 104 10c-4 45 -15 84 -33 117c-21 36 -46 54 -75 54c-23 0 -42 -11 -57 -33c-15 -21 -22 -45 -22 -73c0 -50 28 -75 83 -75zM89 690c22 -12 42 -28 59 -47c-11 -20 -27 -40 -48 -59c-17 11 -37 27 -58 48
c13 20 28 39 47 58zM233 690c23 -12 43 -28 60 -47c-13 -23 -29 -42 -48 -59c-13 8 -32 24 -58 48c11 19 27 39 46 58z" />
    <glyph glyph-name="uni06A9" unicode="&#x6a9;" horiz-adv-x="804" arabic-form="isolated" 
d="M387 -10c-116 0 -196 23 -241 70c-31 31 -46 78 -46 140c0 37 5 83 14 139l52 -7c-7 -43 -10 -80 -10 -111c0 -54 15 -92 46 -115c35 -27 97 -41 185 -41c228 0 342 32 342 97c0 86 -83 187 -249 304l15 69c86 60 193 108 322 144l-11 -77c-95 -26 -180 -61 -255 -105
c158 -131 237 -237 237 -320c0 -64 -30 -111 -91 -141c-63 -31 -167 -46 -310 -46z" />
    <glyph glyph-name="uniFB8F" unicode="&#x6a9;" horiz-adv-x="933" arabic-form="final" 
d="M983 0h-25c-73 0 -134 37 -183 111c-37 -81 -166 -121 -388 -121c-116 0 -196 23 -241 70c-31 31 -46 78 -46 140c0 37 5 83 14 139l52 -7c-7 -43 -10 -80 -10 -111c0 -54 15 -92 46 -115c35 -27 97 -41 185 -41c228 0 342 32 342 97c0 34 -18 75 -55 124
c-46 61 -111 121 -194 180l15 69c86 60 193 108 322 144l-11 -77c-95 -26 -180 -61 -255 -105c92 -75 173 -174 244 -297c27 -46 48 -76 65 -91c25 -23 57 -34 98 -34h25v-75z" />
    <glyph glyph-name="uniFB91" unicode="&#x643;" horiz-adv-x="512" arabic-form="medial" 
d="M-76 37c0 11 4 20 12 27c7 7 16 11 26 11h122c39 0 72 8 97 23c26 16 39 37 39 64c0 34 -18 75 -55 124c-46 61 -111 121 -194 180l15 69c86 60 193 108 322 144l-11 -77c-95 -26 -180 -61 -255 -105c92 -75 173 -174 244 -297c27 -46 48 -76 65 -91
c25 -23 57 -34 98 -34h25v-75h-25c-73 0 -133 36 -182 109c-27 -73 -97 -109 -212 -109h-93c-10 0 -19 4 -26 11c-8 7 -12 16 -12 26z" />
    <glyph glyph-name="uniFB90" unicode="&#x643;" horiz-adv-x="383" arabic-form="initial" 
d="M-76 37c0 11 4 20 12 27c7 7 16 11 26 11h122c39 0 72 8 97 23c26 16 39 37 39 64c0 86 -83 187 -249 304l15 69c86 60 193 108 322 144l-11 -77c-95 -26 -180 -61 -255 -105c158 -131 237 -237 237 -320c0 -63 -23 -109 -70 -139c-39 -25 -91 -38 -154 -38h-93
c-10 0 -19 4 -26 11c-8 7 -12 16 -12 26z" />
    <glyph glyph-name="uni0643" unicode="&#x643;" horiz-adv-x="794" arabic-form="isolated" 
d="M788 177c0 -64 -30 -111 -91 -141c-63 -31 -167 -46 -310 -46c-116 0 -196 23 -241 70c-31 31 -46 78 -46 140c0 37 5 83 14 139l52 -7c-7 -43 -10 -80 -10 -111c0 -54 15 -92 46 -115c35 -27 97 -41 185 -41c228 0 342 32 342 97c0 177 -6 345 -19 504l61 36
c11 -236 17 -411 17 -525zM399 394c0 -7 22 -15 65 -24s65 -23 65 -41c0 -29 -15 -54 -45 -75c-31 -21 -69 -32 -114 -32l-25 43c69 0 119 17 148 50c6 -3 -20 3 -79 18c-32 8 -48 26 -48 53c0 25 9 49 28 72s38 34 59 34c33 0 58 -15 75 -45l-21 -24c-17 16 -34 24 -53 24
c-13 0 -26 -7 -39 -21c-11 -11 -16 -22 -16 -32z" />
    <glyph glyph-name="uniFEDA" unicode="&#x643;" horiz-adv-x="859" arabic-form="final" 
d="M903 75v-75c-65 0 -113 28 -144 85c-49 -63 -173 -95 -372 -95c-116 0 -196 23 -241 70c-31 31 -46 78 -46 140c0 37 5 83 14 139l52 -7c-7 -43 -10 -80 -10 -111c0 -54 15 -92 46 -115c35 -27 97 -41 185 -41c228 0 342 32 342 97c0 177 -6 345 -19 504l61 36
c2 -40 5 -120 9 -240l8 -221c3 -63 13 -106 31 -131c17 -23 45 -35 84 -35zM399 394c0 -7 22 -15 65 -24s65 -23 65 -41c0 -29 -15 -54 -45 -75c-31 -21 -69 -32 -114 -32l-25 43c69 0 119 17 148 50c6 -3 -20 3 -79 18c-32 8 -48 26 -48 53c0 25 9 49 28 72s38 34 59 34
c33 0 58 -15 75 -45l-21 -24c-17 16 -34 24 -53 24c-13 0 -26 -7 -39 -21c-11 -11 -16 -22 -16 -32z" />
    <glyph glyph-name="uni06AF" unicode="&#x6af;" horiz-adv-x="804" arabic-form="isolated" 
d="M748 775l-9 -60c-71 -19 -145 -52 -224 -100l8 57c55 39 130 74 225 103zM387 -10c-116 0 -196 23 -241 70c-31 31 -46 78 -46 140c0 37 5 83 14 139l52 -7c-7 -43 -10 -80 -10 -111c0 -54 15 -92 46 -115c35 -27 97 -41 185 -41c228 0 342 32 342 97
c0 86 -83 187 -249 304l15 69c86 60 193 108 322 144l-11 -77c-95 -26 -180 -61 -255 -105c158 -131 237 -237 237 -320c0 -64 -30 -111 -91 -141c-63 -31 -167 -46 -310 -46z" />
    <glyph glyph-name="uniFB93" unicode="&#x6af;" horiz-adv-x="933" arabic-form="final" 
d="M748 775l-9 -60c-71 -19 -145 -52 -224 -100l8 57c55 39 130 74 225 103zM983 0h-25c-73 0 -134 37 -183 111c-37 -81 -166 -121 -388 -121c-116 0 -196 23 -241 70c-31 31 -46 78 -46 140c0 37 5 83 14 139l52 -7c-7 -43 -10 -80 -10 -111c0 -54 15 -92 46 -115
c35 -27 97 -41 185 -41c228 0 342 32 342 97c0 34 -18 75 -55 124c-46 61 -111 121 -194 180l15 69c86 60 193 108 322 144l-11 -77c-95 -26 -180 -61 -255 -105c92 -75 173 -174 244 -297c27 -46 48 -76 65 -91c25 -23 57 -34 98 -34h25v-75z" />
    <glyph glyph-name="uniFB95" unicode="&#x6af;" horiz-adv-x="512" arabic-form="medial" 
d="M239 775l-9 -60c-71 -19 -145 -52 -224 -100l8 57c55 39 130 74 225 103zM-76 37c0 11 4 20 12 27c7 7 16 11 26 11h122c39 0 72 8 97 23c26 16 39 37 39 64c0 34 -18 75 -55 124c-46 61 -111 121 -194 180l15 69c86 60 193 108 322 144l-11 -77
c-95 -26 -180 -61 -255 -105c92 -75 173 -174 244 -297c27 -46 48 -76 65 -91c25 -23 57 -34 98 -34h25v-75h-25c-73 0 -133 36 -182 109c-27 -73 -97 -109 -212 -109h-93c-10 0 -19 4 -26 11c-8 7 -12 16 -12 26z" />
    <glyph glyph-name="uniFB94" unicode="&#x6af;" horiz-adv-x="383" arabic-form="initial" 
d="M239 775l-9 -60c-71 -19 -145 -52 -224 -100l8 57c55 39 130 74 225 103zM-76 37c0 11 4 20 12 27c7 7 16 11 26 11h122c39 0 72 8 97 23c26 16 39 37 39 64c0 86 -83 187 -249 304l15 69c86 60 193 108 322 144l-11 -77c-95 -26 -180 -61 -255 -105
c158 -131 237 -237 237 -320c0 -63 -23 -109 -70 -139c-39 -25 -91 -38 -154 -38h-93c-10 0 -19 4 -26 11c-8 7 -12 16 -12 26z" />
    <glyph glyph-name="uni0644" unicode="&#x644;" horiz-adv-x="592" arabic-form="isolated" 
d="M592 18c0 -63 -26 -116 -79 -159c-51 -41 -108 -62 -173 -62c-78 0 -139 26 -182 78c-39 47 -58 108 -58 184c0 62 10 124 31 186l51 -13c-16 -55 -24 -106 -24 -155c0 -62 14 -110 43 -145c32 -39 79 -59 141 -59c54 0 100 15 138 45c35 27 53 58 53 91
c0 209 -8 428 -24 657l61 36c15 -289 22 -517 22 -684z" />
    <glyph glyph-name="uniFEDE" unicode="&#x644;" horiz-adv-x="651" arabic-form="final" 
d="M592 48v-30c0 -63 -26 -116 -79 -159c-51 -41 -108 -62 -173 -62c-78 0 -139 26 -182 78c-39 47 -58 108 -58 184c0 62 10 124 31 186l50 -13c-16 -55 -24 -106 -24 -155c0 -61 15 -110 44 -145c32 -39 79 -59 141 -59c54 0 100 15 138 45c35 27 53 58 53 91
c0 209 -8 428 -24 657l61 36c7 -138 12 -288 16 -451c3 -63 14 -108 32 -134c18 -28 46 -42 83 -42v-75c-45 0 -82 16 -109 48z" />
    <glyph glyph-name="uniFEE0" unicode="&#x644;" horiz-adv-x="329" arabic-form="medial" 
d="M-76 37c0 11 4 20 12 27c7 7 16 11 26 11h27c85 0 128 30 128 89c0 176 -6 343 -19 502l61 36c2 -40 5 -120 9 -240l8 -221c3 -63 13 -106 31 -131c17 -23 45 -35 84 -35v-75c-64 0 -111 27 -142 82c-33 -55 -88 -82 -167 -82h-20c-10 0 -19 4 -26 11c-8 7 -12 16 -12 26
z" />
    <glyph glyph-name="uniFEDF" unicode="&#x644;" horiz-adv-x="264" arabic-form="initial" 
d="M98 666l61 36c11 -236 17 -406 17 -510c0 -58 -17 -104 -50 -139c-35 -35 -83 -53 -144 -53h-20c-10 0 -19 4 -26 11c-8 7 -12 16 -12 26c0 11 4 20 12 27c7 7 16 11 26 11h27c85 0 128 30 128 89c0 176 -6 343 -19 502z" />
    <glyph glyph-name="uni0645" unicode="&#x645;" horiz-adv-x="514" arabic-form="isolated" 
d="M100 39c0 57 28 92 83 104c6 67 21 122 46 163c28 50 65 75 111 75c89 0 148 -84 179 -252l-33 -65c-82 7 -156 11 -221 11c-47 0 -77 -2 -90 -7s-20 -15 -20 -30c0 -12 15 -110 44 -294l-50 -38c-33 193 -49 304 -49 333zM277 150c47 0 107 -3 181 -9
c-26 110 -67 165 -123 165c-55 0 -88 -52 -98 -157c5 1 19 1 40 1z" />
    <glyph glyph-name="uniFEE2" unicode="&#x645;" horiz-adv-x="610" arabic-form="final" 
d="M660 75v-75h-19c-53 0 -92 20 -117 59c-21 -46 -58 -69 -113 -69c-51 0 -93 16 -127 48c-39 37 -60 88 -65 154c-44 -32 -66 -59 -66 -82c0 -28 17 -151 52 -369l-50 -35c-37 215 -55 349 -55 401c0 55 35 105 105 152c63 43 125 64 185 64c38 0 67 -10 88 -31
c19 -19 35 -51 48 -94c13 -44 28 -74 44 -90c21 -22 51 -33 90 -33zM386 253c-37 0 -76 -10 -116 -30c5 -105 54 -158 145 -158c56 0 74 35 55 104c-15 56 -43 84 -84 84z" />
    <glyph glyph-name="uniFEE4" unicode="&#x645;" horiz-adv-x="566" arabic-form="medial" 
d="M393 61c-16 -47 -52 -71 -109 -71c-66 0 -129 24 -189 72c-35 -41 -75 -62 -118 -62h-15c-10 0 -19 4 -26 11c-8 7 -12 16 -12 26c0 11 4 20 12 27c7 7 16 11 26 11h15c49 0 97 41 143 122c21 39 40 66 56 83c24 25 52 38 84 38c63 0 110 -50 141 -150
c20 -62 62 -93 127 -93v-75h-14c-55 0 -95 20 -121 61zM254 243c-21 0 -43 -13 -64 -39c-11 -16 -30 -44 -55 -85c43 -36 97 -54 162 -54c35 0 52 14 52 43s-8 57 -24 85c-19 33 -43 50 -71 50z" />
    <glyph glyph-name="uniFEE3" unicode="&#x645;" horiz-adv-x="495" arabic-form="initial" 
d="M-76 37c0 11 4 20 12 27c7 7 16 11 26 11h15c49 0 97 41 143 122c21 39 40 66 56 83c24 25 52 38 84 38c40 0 74 -20 103 -60c29 -39 44 -84 44 -133c0 -39 -10 -70 -29 -95c-22 -27 -53 -40 -94 -40c-66 0 -129 24 -189 72c-35 -41 -75 -62 -118 -62h-15
c-10 0 -19 4 -26 11c-8 7 -12 16 -12 26zM254 243c-21 0 -43 -13 -64 -39c-11 -16 -30 -44 -55 -85c43 -36 97 -54 162 -54c35 0 52 14 52 43c0 33 -8 62 -24 89c-19 31 -42 46 -71 46z" />
    <glyph glyph-name="uni0646" unicode="&#x646;" horiz-adv-x="676" arabic-form="isolated" 
d="M561 311l59 39c38 -141 57 -243 57 -307c0 -61 -31 -116 -93 -163c-63 -49 -137 -73 -222 -73c-89 0 -156 26 -201 78c-41 45 -61 107 -61 184c0 62 10 124 31 186l51 -13c-16 -55 -24 -106 -24 -155c0 -137 71 -205 213 -205c64 0 122 18 174 54c49 34 73 68 73 103
c0 59 -19 149 -57 272zM365 218c19 -10 41 -27 64 -52c-12 -22 -29 -43 -51 -64c-17 10 -39 27 -65 51c11 18 29 40 52 65z" />
    <glyph glyph-name="uniFEE6" unicode="&#x646;" horiz-adv-x="725" arabic-form="final" 
d="M775 0h-17c-37 0 -64 7 -81 21v-28c0 -61 -31 -116 -93 -163c-63 -49 -137 -73 -222 -73c-89 0 -156 26 -201 78c-41 45 -61 107 -61 184c0 62 10 124 31 186l51 -13c-16 -55 -24 -106 -24 -155c0 -137 71 -205 213 -205c64 0 122 18 174 54c49 34 73 68 73 103
c0 53 -20 143 -60 272l59 39l34 -129c11 -38 23 -63 37 -76c15 -13 39 -20 72 -20h15v-75zM365 168c19 -10 41 -27 64 -52c-12 -22 -29 -43 -51 -64c-17 10 -39 27 -65 51c11 18 29 40 52 65z" />
    <glyph glyph-name="uniFEE8" unicode="&#x646;" horiz-adv-x="396" arabic-form="medial" 
d="M-76 37c0 11 4 20 12 27c7 7 16 11 26 11h79c77 0 116 28 116 85c0 44 -3 92 -8 143l60 30l9 -148c4 -73 40 -110 107 -110h33v-75h-32c-62 0 -108 23 -138 70c-29 -47 -81 -70 -157 -70h-69c-10 0 -19 4 -26 11c-8 7 -12 16 -12 26zM97 553c19 -10 41 -27 64 -52
c-12 -22 -29 -43 -51 -64c-17 10 -39 27 -65 51c11 18 29 40 52 65z" />
    <glyph glyph-name="uniFEE7" unicode="&#x646;" horiz-adv-x="316" arabic-form="initial" 
d="M132 342l65 41c21 -63 31 -126 31 -191c0 -58 -17 -104 -50 -139c-35 -35 -83 -53 -144 -53h-72c-10 0 -19 4 -26 11c-8 7 -12 16 -12 26c0 11 4 20 12 27c7 7 16 11 26 11h49c105 0 158 27 158 82s-12 117 -37 185zM79 576c19 -10 41 -27 64 -52
c-12 -22 -29 -43 -51 -64c-17 10 -39 27 -65 51c11 18 29 40 52 65z" />
    <glyph glyph-name="uni0648" unicode="&#x648;" horiz-adv-x="429" arabic-form="isolated" 
d="M78 131c0 51 11 94 34 129c27 42 67 63 118 63s92 -27 121 -80c29 -51 43 -120 43 -205c0 -83 -24 -150 -71 -201c-43 -47 -95 -70 -158 -70c-49 0 -94 20 -135 61l29 41c31 -18 65 -27 101 -27c57 0 103 22 137 65c25 33 38 64 38 93v7c-45 -11 -82 -17 -109 -17
c-99 0 -148 47 -148 141zM226 65c35 0 70 4 104 13c-14 113 -51 170 -111 170c-27 0 -47 -10 -62 -31c-15 -19 -22 -45 -22 -76c0 -51 30 -76 91 -76z" />
    <glyph glyph-name="uniFEEE" unicode="&#x648;" horiz-adv-x="453" arabic-form="final" 
d="M160 -158c57 0 103 22 137 65c25 33 38 64 38 93h-119c-92 0 -138 44 -138 131c0 51 11 94 34 129c27 42 67 63 118 63c47 0 85 -23 114 -69c28 -45 44 -104 49 -179h75v-75h-76c-7 -71 -33 -129 -79 -173c-42 -40 -91 -60 -148 -60c-49 0 -94 20 -135 61l29 41
c31 -18 65 -27 101 -27zM214 75h116c-13 115 -50 173 -111 173c-27 0 -47 -10 -62 -31c-15 -19 -22 -45 -22 -76c0 -44 26 -66 79 -66z" />
    <glyph glyph-name="uni0624" unicode="&#x624;" horiz-adv-x="429" arabic-form="isolated" 
d="M112 380l-4 37l64 43c-39 14 -58 36 -58 67c0 32 9 58 28 77c17 19 36 28 59 28c32 0 58 -14 79 -43l-19 -24c-18 16 -37 24 -56 24c-15 0 -29 -6 -42 -18c-12 -11 -18 -20 -18 -29c0 -11 5 -20 16 -29c15 -13 34 -20 58 -20c18 0 47 10 87 29l2 -39
c-65 -31 -130 -66 -196 -103zM78 131c0 51 11 94 34 129c27 42 67 63 118 63s92 -27 121 -80c29 -51 43 -120 43 -205c0 -83 -24 -150 -71 -201c-43 -47 -95 -70 -158 -70c-49 0 -94 20 -135 61l29 41c31 -18 65 -27 101 -27c57 0 103 22 137 65c25 33 38 64 38 93v7
c-45 -11 -82 -17 -109 -17c-99 0 -148 47 -148 141zM226 65c35 0 70 4 104 13c-14 113 -51 170 -111 170c-27 0 -47 -10 -62 -31c-15 -19 -22 -45 -22 -76c0 -51 30 -76 91 -76z" />
    <glyph glyph-name="uniFE86" unicode="&#x624;" horiz-adv-x="453" arabic-form="final" 
d="M160 -158c57 0 103 22 137 65c25 33 38 64 38 93h-119c-92 0 -138 44 -138 131c0 51 11 94 34 129c27 42 67 63 118 63c47 0 85 -23 114 -69c28 -45 44 -104 49 -179h75v-75h-76c-7 -71 -33 -129 -79 -173c-42 -40 -91 -60 -148 -60c-49 0 -94 20 -135 61l29 41
c31 -18 65 -27 101 -27zM214 75h116c-13 115 -50 173 -111 173c-27 0 -47 -10 -62 -31c-15 -19 -22 -45 -22 -76c0 -44 26 -66 79 -66zM112 380l-4 37l64 43c-39 14 -58 36 -58 67c0 32 9 58 28 77c17 19 36 28 59 28c32 0 58 -14 79 -43l-19 -24c-18 16 -37 24 -56 24
c-15 0 -29 -6 -42 -18c-12 -11 -18 -20 -18 -29c0 -11 5 -20 16 -29c15 -13 34 -20 58 -20c18 0 47 10 87 29l2 -39c-65 -31 -130 -66 -196 -103z" />
    <glyph glyph-name="uni0647" unicode="&#x647;" horiz-adv-x="446" arabic-form="isolated" 
d="M206 371l-31 23l40 64c147 -117 221 -221 221 -312c0 -54 -19 -94 -58 -121c-33 -23 -76 -35 -129 -35c-42 0 -77 12 -104 36c-30 27 -45 65 -45 114c0 67 35 144 106 231zM379 131c0 62 -43 130 -129 204c-61 -73 -92 -134 -92 -184c0 -57 31 -86 94 -86
c40 0 72 7 95 20c21 12 32 27 32 46z" />
    <glyph glyph-name="uniFEEA" unicode="&#x647;" horiz-adv-x="484" arabic-form="final" 
d="M534 0h-22c-76 0 -129 29 -159 87l-18 -53c-23 -3 -43 -4 -58 -4c-118 0 -177 40 -177 121c0 80 71 157 214 231l-5 73l59 30l19 -295c5 -77 45 -115 120 -115h27v-75zM265 105c28 0 54 1 79 3c-9 24 -15 52 -17 84l-8 115c-51 -23 -92 -50 -124 -82
c-27 -27 -40 -49 -40 -66c0 -13 7 -24 21 -34c21 -13 50 -20 89 -20z" />
    <glyph glyph-name="uniFEEC" unicode="&#x647;" horiz-adv-x="498" arabic-form="medial" 
d="M-76 37c0 11 4 20 12 27c7 7 16 11 26 11h15c37 0 67 2 91 7c-1 3 -1 12 -1 26c0 88 17 164 51 229c31 59 63 88 98 88c26 0 54 -22 85 -66c33 -49 50 -98 50 -149c0 -75 -72 -136 -216 -182c20 -60 56 -113 108 -158c-1 5 -1 17 -1 34c0 50 13 90 38 121
c28 33 69 50 124 50h56v-75h-67c-33 0 -58 -11 -77 -34c-16 -20 -24 -45 -24 -76s8 -58 25 -83l-42 -52c-107 78 -173 164 -197 258c-35 -9 -70 -13 -104 -13h-12c-10 0 -19 4 -26 11c-8 7 -12 16 -12 26zM122 110v-17c49 13 90 31 125 56c30 22 45 41 45 56
c0 21 -8 47 -23 76c-18 31 -40 54 -65 69c-55 -46 -82 -126 -82 -240z" />
    <glyph glyph-name="uniFEEB" unicode="&#x647;" horiz-adv-x="564" arabic-form="initial" 
d="M-76 37c0 11 4 20 12 27c7 7 16 11 26 11h37c47 0 86 6 118 18c-53 37 -80 79 -80 124c0 67 32 125 97 176l-36 24l40 64l127 -91c45 -31 81 -58 108 -82c69 -59 103 -118 103 -177c0 -39 -8 -73 -24 -100c-17 -27 -38 -41 -61 -41c-55 0 -125 21 -208 64
c-55 -36 -116 -54 -183 -54h-38c-10 0 -19 4 -26 11c-8 7 -12 16 -12 26zM94 236c0 -34 30 -68 90 -102c25 21 47 50 67 87c2 7 3 16 3 25c0 25 -6 46 -17 63c-13 21 -30 31 -53 31c-21 0 -42 -11 -61 -33c-19 -23 -29 -46 -29 -71zM308 279c0 -65 -22 -123 -66 -174
c60 -27 108 -40 144 -40c22 0 33 17 33 50c0 53 -37 108 -111 164z" />
    <glyph glyph-name="uni0629" unicode="&#x629;" horiz-adv-x="446" arabic-form="isolated" 
d="M206 371l-31 23l40 64c147 -117 221 -221 221 -312c0 -54 -19 -94 -58 -121c-33 -23 -76 -35 -129 -35c-42 0 -77 12 -104 36c-30 27 -45 65 -45 114c0 67 35 144 106 231zM379 131c0 62 -43 130 -129 204c-61 -73 -92 -134 -92 -184c0 -57 31 -86 94 -86
c40 0 72 7 95 20c21 12 32 27 32 46zM172 626c22 -12 42 -28 59 -47c-11 -20 -27 -40 -48 -59c-17 11 -37 27 -58 48c13 20 28 39 47 58zM316 626c23 -12 43 -28 60 -47c-13 -23 -29 -42 -48 -59c-13 8 -32 24 -58 48c11 19 27 39 46 58z" />
    <glyph glyph-name="uniFE94" unicode="&#x629;" horiz-adv-x="484" arabic-form="final" 
d="M534 0h-22c-76 0 -129 29 -159 87l-18 -53c-23 -3 -43 -4 -58 -4c-118 0 -177 40 -177 121c0 80 71 157 214 231l-5 73l59 30l19 -295c5 -77 45 -115 120 -115h27v-75zM265 105c28 0 54 1 79 3c-9 24 -15 52 -17 84l-8 115c-51 -23 -92 -50 -124 -82
c-27 -27 -40 -49 -40 -66c0 -13 7 -24 21 -34c21 -13 50 -20 89 -20zM212 656c22 -12 42 -28 59 -47c-11 -20 -27 -40 -48 -59c-17 11 -37 27 -58 48c13 20 28 39 47 58zM356 656c23 -12 43 -28 60 -47c-13 -23 -29 -42 -48 -59c-13 8 -32 24 -58 48c11 19 27 39 46 58z" />
    <glyph glyph-name="uni06C0" unicode="&#x6c0;" horiz-adv-x="446" arabic-form="isolated" 
d="M190 677c0 -7 22 -15 65 -24s65 -23 65 -41c0 -29 -15 -54 -45 -75c-31 -21 -69 -32 -114 -32l-25 43c69 0 119 17 148 50c6 -3 -20 3 -79 18c-32 8 -48 26 -48 53c0 25 9 49 28 72s38 34 59 34c33 0 58 -15 75 -45l-21 -24c-17 16 -34 24 -53 24c-13 0 -26 -7 -39 -21
c-11 -11 -16 -22 -16 -32zM206 373l-31 23l40 64c147 -117 221 -221 221 -312c0 -54 -19 -94 -58 -121c-33 -23 -76 -35 -129 -35c-42 0 -77 12 -104 36c-30 27 -45 65 -45 114c0 67 35 144 106 231zM379 133c0 62 -43 130 -129 204c-61 -73 -92 -134 -92 -184
c0 -57 31 -86 94 -86c40 0 72 7 95 20c21 12 32 27 32 46z" />
    <glyph glyph-name="uniFBA5" unicode="&#x6c0;" horiz-adv-x="484" arabic-form="final" 
d="M220 672c0 -7 22 -15 65 -24s65 -23 65 -41c0 -29 -15 -54 -45 -75c-31 -21 -69 -32 -114 -32l-25 43c69 0 119 17 148 50c6 -3 -20 3 -79 18c-32 8 -48 26 -48 53c0 25 9 49 28 72s38 34 59 34c33 0 58 -15 75 -45l-21 -24c-17 16 -34 24 -53 24c-13 0 -26 -7 -39 -21
c-11 -11 -16 -22 -16 -32zM534 0h-22c-76 0 -129 29 -159 87l-18 -53c-23 -3 -43 -4 -58 -4c-118 0 -177 40 -177 121c0 80 71 157 214 231l-5 73l59 30l19 -295c5 -77 45 -115 120 -115h27v-75zM265 105c28 0 54 1 79 3c-9 24 -15 52 -17 84l-8 115
c-51 -23 -92 -50 -124 -82c-27 -27 -40 -49 -40 -66c0 -13 7 -24 21 -34c21 -13 50 -20 89 -20z" />
    <glyph glyph-name="uni06CC" unicode="&#x6cc;" horiz-adv-x="675" arabic-form="isolated" 
d="M367 -118c59 0 114 16 164 48c47 29 75 60 85 95c2 -1 -50 9 -156 32c-71 15 -106 43 -106 86c0 53 20 107 59 160c41 54 84 81 129 81s89 -29 131 -86l-38 -36c-33 31 -64 47 -92 47c-29 0 -59 -17 -89 -52c-29 -33 -44 -65 -44 -94c0 -14 14 -25 41 -33
c19 -5 49 -10 91 -16c87 -14 131 -38 131 -71c0 -61 -31 -116 -93 -163c-63 -49 -137 -73 -222 -73c-89 0 -156 26 -201 78c-41 45 -61 107 -61 184c0 62 10 124 31 186l51 -13c-16 -55 -24 -106 -24 -155c0 -137 71 -205 213 -205z" />
    <glyph glyph-name="uniFBFD" unicode="&#x6cc;" horiz-adv-x="587" arabic-form="final" 
d="M367 -168c59 0 114 16 165 48c46 29 74 61 84 96c-33 23 -108 34 -226 34h-24l17 65h252v-35c25 -12 38 -28 38 -47c0 -61 -31 -116 -93 -163c-63 -49 -137 -73 -222 -73c-89 0 -156 26 -201 78c-41 45 -61 107 -61 184c0 62 10 124 31 186l51 -13
c-16 -55 -24 -106 -24 -155c0 -137 71 -205 213 -205z" />
    <glyph glyph-name="uniFBFF" unicode="&#x64a;" horiz-adv-x="396" arabic-form="medial" 
d="M-76 37c0 11 4 20 12 27c7 7 16 11 26 11h79c77 0 116 28 116 85c0 44 -3 92 -8 143l60 30l9 -148c4 -73 40 -110 107 -110h33v-75h-32c-62 0 -108 23 -138 70c-29 -47 -81 -70 -157 -70h-69c-10 0 -19 4 -26 11c-8 7 -12 16 -12 26zM67 -100c22 -12 42 -28 59 -47
c-11 -19 -26 -38 -47 -59c-16 9 -36 24 -59 47c11 19 27 39 47 59zM212 -100c22 -12 42 -28 59 -47c-13 -23 -29 -42 -48 -59c-16 9 -35 25 -58 47c12 22 28 42 47 59z" />
    <glyph glyph-name="uniFBFE" unicode="&#x64a;" horiz-adv-x="316" arabic-form="initial" 
d="M132 342l65 41c21 -63 31 -126 31 -191c0 -58 -17 -104 -50 -139c-35 -35 -83 -53 -144 -53h-72c-10 0 -19 4 -26 11c-8 7 -12 16 -12 26c0 11 4 20 12 27c7 7 16 11 26 11h49c105 0 158 27 158 82s-12 117 -37 185zM14 -100c22 -12 42 -28 59 -47
c-11 -19 -26 -38 -47 -59c-16 9 -36 24 -59 47c11 19 27 39 47 59zM159 -100c22 -12 42 -28 59 -47c-13 -23 -29 -42 -48 -59c-16 9 -35 25 -58 47c12 22 28 42 47 59z" />
    <glyph glyph-name="uni064A" unicode="&#x64a;" horiz-adv-x="675" arabic-form="isolated" 
d="M367 -118c59 0 114 16 164 48c47 29 75 60 85 95c2 -1 -50 9 -156 32c-71 15 -106 43 -106 86c0 53 20 107 59 160c41 54 84 81 129 81s89 -29 131 -86l-38 -36c-33 31 -64 47 -92 47c-29 0 -59 -17 -89 -52c-29 -33 -44 -65 -44 -94c0 -14 14 -25 41 -33
c19 -5 49 -10 91 -16c87 -14 131 -38 131 -71c0 -61 -31 -116 -93 -163c-63 -49 -137 -73 -222 -73c-89 0 -156 26 -201 78c-41 45 -61 107 -61 184c0 62 10 124 31 186l51 -13c-16 -55 -24 -106 -24 -155c0 -137 71 -205 213 -205zM296 -241c22 -12 42 -28 59 -47
c-11 -19 -26 -38 -47 -59c-16 9 -36 24 -59 47c11 19 27 39 47 59zM441 -241c22 -12 42 -28 59 -47c-13 -23 -29 -42 -48 -59c-16 9 -35 25 -58 47c12 22 28 42 47 59z" />
    <glyph glyph-name="uniFEF2" unicode="&#x64a;" horiz-adv-x="587" arabic-form="final" 
d="M367 -168c59 0 114 16 165 48c46 29 74 61 84 96c-33 23 -108 34 -226 34h-24l17 65h252v-35c25 -12 38 -28 38 -47c0 -61 -31 -116 -93 -163c-63 -49 -137 -73 -222 -73c-89 0 -156 26 -201 78c-41 45 -61 107 -61 184c0 62 10 124 31 186l51 -13
c-16 -55 -24 -106 -24 -155c0 -137 71 -205 213 -205zM296 -291c22 -12 42 -28 59 -47c-11 -19 -26 -38 -47 -59c-16 9 -36 24 -59 47c11 19 27 39 47 59zM441 -291c22 -12 42 -28 59 -47c-13 -23 -29 -42 -48 -59c-16 9 -35 25 -58 47c12 22 28 42 47 59z" />
    <glyph glyph-name="uni0626" unicode="&#x626;" horiz-adv-x="675" arabic-form="isolated" 
d="M367 -118c59 0 114 16 164 48c47 29 75 60 85 95c2 -1 -50 9 -156 32c-71 15 -106 43 -106 86c0 53 20 107 59 160c41 54 84 81 129 81s89 -29 131 -86l-38 -36c-33 31 -64 47 -92 47c-29 0 -59 -17 -89 -52c-29 -33 -44 -65 -44 -94c0 -14 14 -25 41 -33
c19 -5 49 -10 91 -16c87 -14 131 -38 131 -71c0 -61 -31 -116 -93 -163c-63 -49 -137 -73 -222 -73c-89 0 -156 26 -201 78c-41 45 -61 107 -61 184c0 62 10 124 31 186l51 -13c-16 -55 -24 -106 -24 -155c0 -137 71 -205 213 -205zM192 300l-4 37l64 43
c-39 14 -58 36 -58 67c0 32 9 58 28 77c17 19 36 28 59 28c32 0 58 -14 79 -43l-19 -24c-18 16 -37 24 -56 24c-15 0 -29 -6 -42 -18c-12 -11 -18 -20 -18 -29c0 -11 5 -20 16 -29c15 -13 34 -20 58 -20c18 0 47 10 87 29l2 -39c-65 -31 -130 -66 -196 -103z" />
    <glyph glyph-name="uniFE8A" unicode="&#x626;" horiz-adv-x="587" arabic-form="final" 
d="M367 -168c59 0 114 16 165 48c46 29 74 61 84 96c-33 23 -108 34 -226 34h-24l17 65h252v-35c25 -12 38 -28 38 -47c0 -61 -31 -116 -93 -163c-63 -49 -137 -73 -222 -73c-89 0 -156 26 -201 78c-41 45 -61 107 -61 184c0 62 10 124 31 186l51 -13
c-16 -55 -24 -106 -24 -155c0 -137 71 -205 213 -205zM282 175l-4 37l64 43c-39 14 -58 36 -58 67c0 32 9 58 28 77c17 19 36 28 59 28c32 0 58 -14 79 -43l-19 -24c-18 16 -37 24 -56 24c-15 0 -29 -6 -42 -18c-12 -11 -18 -20 -18 -29c0 -11 5 -20 16 -29
c15 -13 34 -20 58 -20c18 0 47 10 87 29l2 -39c-65 -31 -130 -66 -196 -103z" />
    <glyph glyph-name="uniFE8C" unicode="&#x626;" horiz-adv-x="396" arabic-form="medial" 
d="M-76 37c0 11 4 20 12 27c7 7 16 11 26 11h79c77 0 116 28 116 85c0 44 -3 92 -8 143l60 30l9 -148c4 -73 40 -110 107 -110h33v-75h-32c-62 0 -108 23 -138 70c-29 -47 -81 -70 -157 -70h-69c-10 0 -19 4 -26 11c-8 7 -12 16 -12 26zM26 370l-4 37l64 43
c-39 14 -58 36 -58 67c0 32 9 58 28 77c17 19 36 28 59 28c32 0 58 -14 79 -43l-19 -24c-18 16 -37 24 -56 24c-15 0 -29 -6 -42 -18c-12 -11 -18 -20 -18 -29c0 -11 5 -20 16 -29c15 -13 34 -20 58 -20c18 0 47 10 87 29l2 -39c-65 -31 -130 -66 -196 -103z" />
    <glyph glyph-name="uniFE8B" unicode="&#x626;" horiz-adv-x="316" arabic-form="initial" 
d="M132 342l65 41c21 -63 31 -126 31 -191c0 -58 -17 -104 -50 -139c-35 -35 -83 -53 -144 -53h-72c-10 0 -19 4 -26 11c-8 7 -12 16 -12 26c0 11 4 20 12 27c7 7 16 11 26 11h49c105 0 158 27 158 82s-12 117 -37 185zM-4 400l-4 37l64 43c-39 14 -58 36 -58 67
c0 32 9 58 28 77c17 19 36 28 59 28c32 0 58 -14 79 -43l-19 -24c-18 16 -37 24 -56 24c-15 0 -29 -6 -42 -18c-12 -11 -18 -20 -18 -29c0 -11 5 -20 16 -29c15 -13 34 -20 58 -20c18 0 47 10 87 29l2 -39c-65 -31 -130 -66 -196 -103z" />
    <glyph glyph-name="uni0649" unicode="&#x649;" horiz-adv-x="675" arabic-form="isolated" 
d="M367 -118c59 0 114 16 164 48c47 29 75 60 85 95c2 -1 -50 9 -156 32c-71 15 -106 43 -106 86c0 53 20 107 59 160c41 54 84 81 129 81s89 -29 131 -86l-38 -36c-33 31 -64 47 -92 47c-29 0 -59 -17 -89 -52c-29 -33 -44 -65 -44 -94c0 -14 14 -25 41 -33
c19 -5 49 -10 91 -16c87 -14 131 -38 131 -71c0 -61 -31 -116 -93 -163c-63 -49 -137 -73 -222 -73c-89 0 -156 26 -201 78c-41 45 -61 107 -61 184c0 62 10 124 31 186l51 -13c-16 -55 -24 -106 -24 -155c0 -137 71 -205 213 -205z" />
    <glyph glyph-name="uniFEF0" unicode="&#x649;" horiz-adv-x="587" arabic-form="final" 
d="M367 -168c59 0 114 16 165 48c46 29 74 61 84 96c-33 23 -108 34 -226 34h-24l17 65h252v-35c25 -12 38 -28 38 -47c0 -61 -31 -116 -93 -163c-63 -49 -137 -73 -222 -73c-89 0 -156 26 -201 78c-41 45 -61 107 -61 184c0 62 10 124 31 186l51 -13
c-16 -55 -24 -106 -24 -155c0 -137 71 -205 213 -205z" />
    <glyph glyph-name="uniFBE9" unicode="&#x649;" horiz-adv-x="396" arabic-form="medial" 
d="M-76 37c0 11 4 20 12 27c7 7 16 11 26 11h79c77 0 116 28 116 85c0 44 -3 92 -8 143l60 30l9 -148c4 -73 40 -110 107 -110h33v-75h-32c-62 0 -108 23 -138 70c-29 -47 -81 -70 -157 -70h-69c-10 0 -19 4 -26 11c-8 7 -12 16 -12 26z" />
    <glyph glyph-name="uniFBE8" unicode="&#x649;" horiz-adv-x="316" arabic-form="initial" 
d="M132 342l65 41c21 -63 31 -126 31 -191c0 -58 -17 -104 -50 -139c-35 -35 -83 -53 -144 -53h-72c-10 0 -19 4 -26 11c-8 7 -12 16 -12 26c0 11 4 20 12 27c7 7 16 11 26 11h49c105 0 158 27 158 82s-12 117 -37 185z" />
    <glyph glyph-name="uni0621" unicode="&#x621;" horiz-adv-x="397" arabic-form="isolated" 
d="M107 -34l-5 53l100 63c-61 23 -92 58 -92 103c0 47 14 85 42 115c25 27 54 41 87 41c47 0 86 -21 117 -64l-25 -36c-29 26 -59 39 -91 39c-19 0 -40 -9 -61 -27c-19 -17 -28 -32 -28 -46s9 -29 26 -45c23 -20 52 -30 86 -30c29 0 73 16 132 48l3 -61
c-105 -51 -202 -102 -291 -153z" />
    <glyph glyph-name="uniFE7F" unicode="&#xfe7f;" horiz-adv-x="260" arabic-form="medial" 
d="M16 366c0 21 8 41 24 62c17 21 33 31 50 31c16 0 32 -10 48 -30s24 -40 24 -60c0 -46 -26 -69 -79 -69c-19 0 -35 5 -46 16c-14 12 -21 29 -21 50zM132 360c0 16 -5 30 -16 43c-10 13 -20 19 -31 19c-8 0 -17 -5 -26 -15c-10 -11 -15 -22 -15 -35c0 -23 14 -34 43 -34
c30 0 45 7 45 22zM-76 37c0 11 4 20 12 27c7 7 16 11 26 11h260v-75h-260c-10 0 -19 4 -26 11c-8 7 -12 16 -12 26z" />
    <glyph glyph-name="uniFE7D" unicode="&#xfe7d;" horiz-adv-x="260" arabic-form="medial" 
d="M171 446l30 19c12 -26 18 -53 18 -80c0 -49 -17 -74 -52 -74c-39 0 -64 12 -75 36c-15 -31 -38 -47 -68 -47c-19 0 -35 7 -47 22c-12 13 -18 31 -18 52c0 19 5 38 16 59l25 -9c-8 -16 -12 -32 -12 -47c0 -26 12 -39 37 -39c34 0 51 26 52 79l26 8c0 -51 22 -76 65 -76
c14 0 21 9 21 26c0 19 -6 42 -18 71zM-76 37c0 11 4 20 12 27c7 7 16 11 26 11h260v-75h-260c-10 0 -19 4 -26 11c-8 7 -12 16 -12 26z" />
    <glyph glyph-name="uniFE77" unicode="&#xfe77;" horiz-adv-x="260" arabic-form="medial" 
d="M-11 337l198 105l2 -39l-196 -103zM-76 37c0 11 4 20 12 27c7 7 16 11 26 11h260v-75h-260c-10 0 -19 4 -26 11c-8 7 -12 16 -12 26z" />
    <glyph glyph-name="uniFE79" unicode="&#xfe79;" horiz-adv-x="260" arabic-form="medial" 
d="M-18 300l-4 37c36 17 72 39 108 64c-41 25 -61 54 -61 88c0 23 10 42 30 59c19 16 41 24 65 24c23 0 42 -8 56 -23c12 -13 18 -29 18 -48c0 -63 -71 -130 -212 -201zM59 494c0 -16 19 -39 57 -68c29 25 43 48 43 69c0 25 -16 38 -48 38c-14 0 -26 -3 -35 -10
c-11 -7 -17 -17 -17 -29zM-76 37c0 11 4 20 12 27c7 7 16 11 26 11h260v-75h-260c-10 0 -19 4 -26 11c-8 7 -12 16 -12 26z" />
    <glyph glyph-name="uniFE7B" unicode="&#xfe7b;" horiz-adv-x="260" arabic-form="medial" 
d="M-10 -210l198 105l2 -39l-196 -103zM-76 37c0 11 4 20 12 27c7 7 16 11 26 11h260v-75h-260c-10 0 -19 4 -26 11c-8 7 -12 16 -12 26z" />
    <glyph glyph-name="uniFE71" unicode="&#xfe71;" horiz-adv-x="260" arabic-form="medial" 
d="M-7 337l198 105l2 -39l-196 -103zM-17 437l198 105l2 -39l-196 -103zM-76 37c0 11 4 20 12 27c7 7 16 11 26 11h260v-75h-260c-10 0 -19 4 -26 11c-8 7 -12 16 -12 26z" />
    <glyph glyph-name="uniFE7E" unicode="&#xfe7e;" horiz-adv-x="196" arabic-form="isolated" 
d="M50 66c0 21 8 41 24 62c17 21 33 31 50 31c16 0 32 -10 48 -30s24 -40 24 -60c0 -46 -26 -69 -79 -69c-19 0 -35 5 -46 16c-14 12 -21 29 -21 50zM166 60c0 16 -5 30 -16 43c-10 13 -20 19 -31 19c-8 0 -17 -5 -26 -15c-10 -11 -15 -22 -15 -35c0 -23 14 -34 43 -34
c30 0 45 7 45 22z" />
    <glyph glyph-name="uniFE7C" unicode="&#xfe7c;" horiz-adv-x="310" arabic-form="isolated" 
d="M262 146l30 19c12 -26 18 -53 18 -80c0 -49 -17 -74 -52 -74c-39 0 -64 12 -75 36c-15 -31 -38 -47 -68 -47c-19 0 -35 7 -47 22c-12 13 -18 31 -18 52c0 19 5 38 16 59l25 -9c-8 -16 -12 -32 -12 -47c0 -26 12 -39 37 -39c34 0 51 26 52 79l26 8c0 -51 22 -76 65 -76
c14 0 21 9 21 26c0 19 -6 42 -18 71z" />
    <glyph glyph-name="uniFE76" unicode="&#xfe76;" horiz-adv-x="250" arabic-form="isolated" 
d="M50 37l198 105l2 -39l-196 -103z" />
    <glyph glyph-name="uniFE78" unicode="&#xfe78;" horiz-adv-x="266" arabic-form="isolated" 
d="M54 0l-4 37c36 17 72 39 108 64c-41 25 -61 54 -61 88c0 23 10 42 30 59c19 16 41 24 65 24c23 0 42 -8 56 -23c12 -13 18 -29 18 -48c0 -63 -71 -130 -212 -201zM131 194c0 -16 19 -39 57 -68c29 25 43 48 43 69c0 25 -16 38 -48 38c-14 0 -26 -3 -35 -10
c-11 -7 -17 -17 -17 -29z" />
    <glyph glyph-name="uniFE7A" unicode="&#xfe7a;" horiz-adv-x="250" arabic-form="isolated" 
d="M50 -110l198 105l2 -39l-196 -103z" />
    <glyph glyph-name="uniFE70" unicode="&#xfe70;" horiz-adv-x="260" arabic-form="isolated" 
d="M60 37l198 105l2 -39l-196 -103zM50 137l198 105l2 -39l-196 -103z" />
    <glyph glyph-name="uniFE72" unicode="&#xfe72;" horiz-adv-x="317" arabic-form="isolated" 
d="M105 0l-4 37c5 2 17 9 37 20c-8 32 -19 48 -32 48c-9 0 -22 -8 -39 -24l-17 23c24 24 44 36 60 36c27 0 45 -23 53 -69c19 11 34 21 46 30c-41 25 -61 54 -61 88c0 23 10 42 30 59c19 16 41 24 65 24c23 0 42 -8 56 -23c12 -13 18 -29 18 -48c0 -63 -71 -130 -212 -201z
M182 194c0 -16 19 -39 57 -68c29 25 43 48 43 69c0 25 -16 38 -48 38c-14 0 -26 -3 -35 -10c-11 -7 -17 -17 -17 -29z" />
    <glyph glyph-name="uniFE74" unicode="&#xfe74;" horiz-adv-x="260" arabic-form="isolated" 
d="M60 -205l198 105l2 -39l-196 -103zM50 -105l198 105l2 -39l-196 -103z" />
    <glyph glyph-name="uniFC60" unicode="&#xfc60;" arabic-form="isolated" 
d="M-230 197l198 105l2 -39l-196 -103zM-48 146l30 19c12 -26 18 -53 18 -80c0 -49 -17 -74 -52 -74c-39 0 -64 12 -75 36c-15 -31 -38 -47 -68 -47c-19 0 -35 7 -47 22c-12 13 -18 31 -18 52c0 19 5 38 16 59l25 -9c-8 -16 -12 -32 -12 -47c0 -26 12 -39 37 -39
c34 0 51 26 52 79l26 8c0 -51 22 -76 65 -76c14 0 21 9 21 26c0 19 -6 42 -18 71z" />
    <glyph glyph-name="uniFC61" unicode="&#xfc61;" arabic-form="isolated" 
d="M-48 146l30 19c12 -26 18 -53 18 -80c0 -49 -17 -74 -52 -74c-39 0 -64 12 -75 36c-15 -31 -38 -47 -68 -47c-19 0 -35 7 -47 22c-12 13 -18 31 -18 52c0 19 5 38 16 59l25 -9c-8 -16 -12 -32 -12 -47c0 -26 12 -39 37 -39c34 0 51 26 52 79l26 8c0 -51 22 -76 65 -76
c14 0 21 9 21 26c0 19 -6 42 -18 71zM-215 150l-4 37c36 17 72 39 108 64c-41 25 -61 54 -61 88c0 23 10 42 30 59c19 16 41 24 65 24c23 0 42 -8 56 -23c12 -13 18 -29 18 -48c0 -63 -71 -130 -212 -201zM-138 344c0 -16 19 -39 57 -68c29 25 43 48 43 69
c0 25 -16 38 -48 38c-14 0 -26 -3 -35 -10c-11 -7 -17 -17 -17 -29z" />
    <glyph glyph-name="uniFC62" unicode="&#xfc62;" arabic-form="isolated" 
d="M-48 309l30 19c12 -26 18 -53 18 -80c0 -49 -17 -74 -52 -74c-39 0 -64 12 -75 36c-15 -31 -38 -47 -68 -47c-19 0 -35 7 -47 22c-12 13 -18 31 -18 52c0 19 5 38 16 59l25 -9c-8 -16 -12 -32 -12 -47c0 -26 12 -39 37 -39c34 0 51 26 52 79l26 8c0 -51 22 -76 65 -76
c14 0 21 9 21 26c0 19 -6 42 -18 71zM-230 51l198 105l2 -39l-196 -103z" />
    <glyph glyph-name="uniFC5E" unicode="&#xfc5e;" arabic-form="isolated" 
d="M-58 146l30 19c12 -26 18 -53 18 -80c0 -49 -17 -74 -52 -74c-39 0 -64 12 -75 36c-15 -31 -38 -47 -68 -47c-19 0 -35 7 -47 22c-12 13 -18 31 -18 52c0 19 5 38 16 59l25 -9c-8 -16 -12 -32 -12 -47c0 -26 12 -39 37 -39c34 0 51 26 52 79l26 8c0 -51 22 -76 65 -76
c14 0 21 9 21 26c0 19 -6 42 -18 71zM-225 150l-4 37c5 2 17 9 37 20c-8 32 -19 48 -32 48c-9 0 -22 -8 -39 -24l-17 23c24 24 44 36 60 36c27 0 45 -23 53 -69c19 11 34 21 46 30c-41 25 -61 54 -61 88c0 23 10 42 30 59c19 16 41 24 65 24c23 0 42 -8 56 -23
c12 -13 18 -29 18 -48c0 -63 -71 -130 -212 -201zM-148 344c0 -16 19 -39 57 -68c29 25 43 48 43 69c0 25 -16 38 -48 38c-14 0 -26 -3 -35 -10c-11 -7 -17 -17 -17 -29z" />
    <glyph glyph-name="uniFC5F" unicode="&#xfc5f;" arabic-form="isolated" 
d="M-48 405l30 19c12 -26 18 -53 18 -80c0 -49 -17 -74 -52 -74c-39 0 -64 12 -75 36c-15 -31 -38 -47 -68 -47c-19 0 -35 7 -47 22c-12 13 -18 31 -18 52c0 19 5 38 16 59l25 -9c-8 -16 -12 -32 -12 -47c0 -26 12 -39 37 -39c34 0 51 26 52 79l26 8c0 -51 22 -76 65 -76
c14 0 21 9 21 26c0 19 -6 42 -18 71zM-225 51l198 105l2 -39l-196 -103zM-235 151l198 105l2 -39l-196 -103z" />
    <glyph glyph-name="uniFC63" unicode="&#xfc63;" arabic-form="isolated" 
d="M-48 146l30 19c12 -26 18 -53 18 -80c0 -49 -17 -74 -52 -74c-39 0 -64 12 -75 36c-15 -31 -38 -47 -68 -47c-19 0 -35 7 -47 22c-12 13 -18 31 -18 52c0 19 5 38 16 59l25 -9c-8 -16 -12 -32 -12 -47c0 -26 12 -39 37 -39c34 0 51 26 52 79l26 8c0 -51 22 -76 65 -76
c14 0 21 9 21 26c0 19 -6 42 -18 71zM-113 173l-28 6c3 15 4 31 4 46c0 27 -3 66 -9 118l34 18c3 -55 5 -94 5 -117c0 -26 -2 -50 -6 -71z" />
    <glyph glyph-name="_461" unicode="&#x6aa;" horiz-adv-x="826" 
d="M-76 37c0 11 4 20 12 27c7 7 16 11 26 11h125c244 0 426 8 545 23c37 5 56 11 56 17c0 100 -50 150 -149 150c-57 0 -116 -1 -175 -4c-75 -3 -129 -5 -162 -5c-51 0 -87 4 -109 12c-33 11 -50 33 -50 66c0 95 111 181 334 258l-11 -77c-85 -25 -155 -56 -210 -93
c-42 -29 -63 -50 -63 -63c0 -22 38 -33 115 -33c71 0 133 1 184 4c53 3 97 4 132 4c74 0 130 -21 168 -62c31 -33 46 -73 46 -122c0 -75 -39 -117 -118 -128c-103 -15 -280 -22 -533 -22h-125c-10 0 -19 4 -26 11c-8 7 -12 16 -12 26z" />
    <glyph glyph-name="_460" unicode="&#x6aa;" horiz-adv-x="881" 
d="M-76 37c0 11 4 20 12 27c7 7 16 11 26 11h125c244 0 426 8 545 23c37 5 56 11 56 17c0 100 -50 150 -149 150c-57 0 -116 -1 -175 -4c-75 -3 -129 -5 -162 -5c-51 0 -87 4 -109 12c-33 11 -50 33 -50 66c0 95 111 181 334 258l-11 -77c-85 -25 -155 -56 -210 -93
c-42 -29 -63 -50 -63 -63c0 -22 38 -33 115 -33c71 0 133 1 184 4c53 3 97 4 132 4c74 0 130 -21 168 -62c31 -33 46 -73 46 -122c0 -24 -3 -43 -10 -57c20 -12 52 -18 95 -18h20v-75h-33c-48 0 -89 15 -122 44c-18 -12 -41 -19 -68 -22c-103 -15 -280 -22 -533 -22h-125
c-10 0 -19 4 -26 11c-8 7 -12 16 -12 26z" />
    <glyph glyph-name="_459" unicode="&#x6aa;" horiz-adv-x="1093" 
d="M387 -10c-116 0 -196 23 -241 70c-31 31 -46 78 -46 140c0 37 5 83 14 139l52 -7c-7 -43 -10 -80 -10 -111c0 -54 15 -92 46 -115c35 -27 97 -41 185 -41c197 0 378 11 545 33c37 5 56 11 56 17c0 100 -50 150 -149 150c-57 0 -116 -1 -175 -4c-75 -3 -129 -5 -162 -5
c-51 0 -87 4 -109 12c-33 11 -50 33 -50 66c0 95 111 181 334 258l-11 -77c-85 -25 -155 -56 -210 -93c-42 -29 -63 -50 -63 -63c0 -22 38 -33 115 -33c71 0 133 1 184 4c53 3 97 4 132 4c74 0 130 -21 168 -62c31 -33 46 -73 46 -122c0 -25 -3 -44 -10 -57
c20 -12 52 -18 95 -18h20v-75h-33c-49 0 -90 15 -122 45c-17 -11 -40 -19 -68 -23c-136 -21 -314 -32 -533 -32z" />
    <glyph glyph-name=".notdef" horiz-adv-x="445" 
d="M150 52h242v509h-242v-509zM143 614h255c12 0 22 -4 31 -13c8 -9 12 -19 12 -30v-528c0 -12 -4 -22 -12 -30c-9 -9 -19 -13 -31 -13h-255c-12 0 -22 4 -30 13c-9 8 -13 18 -13 30v528c0 11 4 21 13 30c8 9 18 13 30 13z" />
    <glyph glyph-name=".null" horiz-adv-x="1000" 
 />
    <glyph glyph-name=".null" horiz-adv-x="1000" 
 />
    <glyph glyph-name="nonmarkingreturn" horiz-adv-x="1000" 
 />
    <glyph glyph-name="space" unicode=" " horiz-adv-x="150" 
 />
    <glyph glyph-name="_4" unicode="&#xa;" 
 />
    <glyph glyph-name="_5" 
 />
    <glyph glyph-name="nbspace" unicode="&#xa0;" horiz-adv-x="150" 
 />
    <glyph glyph-name="uni2000" unicode="&#x2000;" horiz-adv-x="400" 
 />
    <glyph glyph-name="uni2001" unicode="&#x2001;" horiz-adv-x="800" 
 />
    <glyph glyph-name="uni2002" unicode="&#x2002;" horiz-adv-x="400" 
 />
    <glyph glyph-name="uni2003" unicode="&#x2003;" horiz-adv-x="800" 
 />
    <glyph glyph-name="uni2004" unicode="&#x2004;" horiz-adv-x="250" 
 />
    <glyph glyph-name="uni2005" unicode="&#x2005;" horiz-adv-x="200" 
 />
    <glyph glyph-name="uni2006" unicode="&#x2006;" horiz-adv-x="150" 
 />
    <glyph glyph-name="uni2007" unicode="&#x2007;" horiz-adv-x="250" 
 />
    <glyph glyph-name="uni2008" unicode="&#x2008;" horiz-adv-x="120" 
 />
    <glyph glyph-name="uni2009" unicode="&#x2009;" horiz-adv-x="100" 
 />
    <glyph glyph-name="uni200A" unicode="&#x200a;" horiz-adv-x="50" 
 />
    <glyph glyph-name="uni200B" unicode="&#x200b;" 
 />
    <glyph glyph-name="uni200C" unicode="&#x200c;" 
d="M-36 629h36v-763h-36v763z" />
    <glyph glyph-name="uni200D" unicode="&#x200d;" 
d="M-89 544v-678h-36v678l-65 -66l-24 23l84 83l-84 82l24 24l83 -84l83 84l24 -24l-84 -82l84 -83l-24 -23z" />
    <glyph glyph-name="uni202F" unicode="&#x202f;" horiz-adv-x="100" 
 />
    <glyph glyph-name="uniFEFF" unicode="&#xfeff;" 
 />
    <glyph glyph-name="uni2060" unicode="&#x2060;" horiz-adv-x="600" 
 />
    <glyph glyph-name="uniFFFC" unicode="&#xfffc;" horiz-adv-x="1000" 
d="M1000 719v-157h-39v118h-119v39h158zM719 719v-39h-157v39h157zM1000 438v-157h-39v157h39zM438 719v-39h-157v39h157zM1000 158v-158h-158v39h119v119h39zM158 719v-39h-119v-118h-39v157h158zM719 39v-39h-157v39h157zM39 438v-157h-39v157h39zM438 39v-39h-157v39h157
zM158 39v-39h-158v158h39v-119h119zM266 548c75 0 113 -62 113 -185s-38 -184 -113 -184c-77 0 -115 61 -115 184s38 185 115 185zM266 511c-28 0 -47 -14 -58 -43c-8 -21 -12 -56 -12 -105s4 -84 12 -105c11 -29 30 -43 58 -43c27 0 46 14 57 43c7 23 11 58 11 105
s-4 82 -11 105c-11 29 -30 43 -57 43zM670 208l25 28c12 -13 26 -20 42 -20c19 0 31 6 38 18c5 11 8 29 8 55v252h44v-254c0 -72 -30 -108 -89 -108c-30 0 -53 10 -68 29zM476 355v-133h59c41 0 62 22 62 65c0 45 -23 68 -69 68h-52zM432 186v355h109c61 0 91 -30 91 -91
c0 -39 -17 -64 -52 -75c42 -11 63 -40 63 -88c0 -67 -38 -101 -115 -101h-96zM476 505v-117h50c40 0 60 20 60 59s-20 58 -61 58h-49z" />
    <glyph glyph-name="uni2028" unicode="&#x2028;" 
 />
    <glyph glyph-name="uni2029" unicode="&#x2029;" 
 />
    <glyph glyph-name="uni202A" unicode="&#x202a;" 
d="M-113 867v-23h-57v23h57zM-84 844v23h50l-41 40l16 17l69 -69l-69 -69l-16 17l41 41h-50z" />
    <glyph glyph-name="uni202B" unicode="&#x202b;" 
d="M-67 844v23h57v-23h-57zM-96 867v-23h-49l40 -41l-16 -16l-69 68l69 69l16 -16l-41 -41h50z" />
    <glyph glyph-name="uni202C" unicode="&#x202c;" 
d="M-81 886l-40 -40l-17 16l69 69l69 -69l-17 -16l-41 41v-102h-23v101z" />
    <glyph glyph-name="uni202D" unicode="&#x202d;" 
d="M-100 867l-40 40l16 17l69 -69l-69 -69l-16 17l41 41h-107v23h106zM-22 855l-53 52l16 17l69 -69l-69 -69l-16 17z" />
    <glyph glyph-name="uni202E" unicode="&#x202e;" 
d="M-116 867l41 -40l-17 -17l-68 69l68 69l17 -17l-41 -41h107v-23h-107zM-193 879l52 -52l-16 -17l-69 69l69 69l16 -17z" />
    <glyph glyph-name="uni200F" unicode="&#x200f;" 
d="M-193 603v-737h-35v702h-129l66 -64l-23 -24l-106 105l106 105l23 -24l-66 -63h164z" />
    <glyph glyph-name="uni200E" unicode="&#x200e;" 
d="M86 690l106 -105l-106 -105l-24 24l67 64h-130v-702h-35v737h165l-67 63z" />
    <glyph glyph-name="periodcentered" unicode="&#xb7;" horiz-adv-x="248" 
d="M164 401c15 0 28 -5 39 -16c10 -11 15 -23 15 -38s-5 -28 -16 -39s-23 -16 -38 -16s-27 5 -38 16s-16 24 -16 39s5 27 16 38s23 16 38 16z" />
    <glyph glyph-name="_35" horiz-adv-x="100" 
d="M-76 37c0 11 4 20 12 27c7 7 16 11 26 11h100v-75h-100c-10 0 -19 4 -26 11c-8 7 -12 16 -12 26z" />
    <glyph glyph-name="uni0640" unicode="&#x640;" horiz-adv-x="180" 
d="M-76 37c0 11 4 20 12 27c7 7 16 11 26 11h180v-75h-180c-10 0 -19 4 -26 11c-8 7 -12 16 -12 26z" />
    <glyph glyph-name="_37" horiz-adv-x="260" 
d="M-76 37c0 11 4 20 12 27c7 7 16 11 26 11h260v-75h-260c-10 0 -19 4 -26 11c-8 7 -12 16 -12 26z" />
    <glyph glyph-name="uniFEEB.init" horiz-adv-x="620" 
d="M152 -20l-42 67c67 9 121 23 161 42c-57 39 -85 81 -85 128c0 67 32 125 97 176l-36 24l40 64l127 -91c45 -31 81 -58 108 -82c69 -59 103 -118 103 -177c0 -39 -8 -73 -24 -100c-17 -27 -38 -41 -61 -41c-56 0 -125 21 -206 63c-53 -36 -113 -60 -182 -73zM400 221
c2 7 3 16 3 25c0 25 -6 46 -17 63c-13 21 -30 31 -53 31c-21 0 -42 -11 -61 -33c-19 -23 -29 -46 -29 -71c0 -35 31 -70 94 -105c24 21 45 51 63 90zM457 279c0 -64 -22 -122 -66 -174c60 -27 108 -40 144 -40c22 0 33 17 33 50c0 53 -37 108 -111 164z" />
    <glyph glyph-name="uniFBB2" unicode="&#xfbb2;" 
d="M-78 116c19 -10 41 -27 64 -52c-12 -22 -29 -43 -51 -64c-17 10 -39 27 -65 51c11 18 29 40 52 65z" />
    <glyph glyph-name="uniFBB3" unicode="&#xfbb3;" 
d="M-52 0c22 -13 43 -30 64 -52c-11 -20 -28 -41 -51 -64c-18 9 -40 26 -65 51c15 22 32 44 52 65z" />
    <glyph glyph-name="uniFBB4" unicode="&#xfbb4;" 
d="M-203 106c22 -12 42 -28 59 -47c-11 -20 -27 -40 -48 -59c-17 11 -37 27 -58 48c13 20 28 39 47 58zM-59 106c23 -12 43 -28 60 -47c-13 -23 -29 -42 -48 -59c-13 8 -32 24 -58 48c11 19 27 39 46 58z" />
    <glyph glyph-name="uniFBB5" unicode="&#xfbb5;" 
d="M-205 0c22 -12 42 -28 59 -47c-11 -19 -26 -38 -47 -59c-16 9 -36 24 -59 47c11 19 27 39 47 59zM-60 0c22 -12 42 -28 59 -47c-13 -23 -29 -42 -48 -59c-16 9 -35 25 -58 47c12 22 28 42 47 59z" />
    <glyph glyph-name="uniFBB6" unicode="&#xfbb6;" 
d="M-203 106c22 -12 42 -28 59 -47c-11 -20 -27 -40 -48 -59c-17 11 -37 27 -58 48c13 20 28 39 47 58zM-59 106c23 -12 43 -28 60 -47c-13 -23 -29 -42 -48 -59c-13 8 -32 24 -58 48c11 19 27 39 46 58zM-134 222c22 -12 42 -28 59 -47c-11 -21 -26 -41 -47 -60
c-17 11 -36 27 -59 48c11 19 27 39 47 59z" />
    <glyph glyph-name="uniFBB9" unicode="&#xfbb9;" 
d="M-203 0c22 -12 42 -28 59 -47c-11 -20 -27 -40 -48 -59c-16 9 -35 25 -58 47c11 19 27 39 47 59zM-59 0c23 -12 43 -28 60 -47c-13 -23 -29 -42 -48 -59c-12 7 -31 22 -58 47c12 21 27 40 46 59zM-128 -115c19 -9 39 -24 60 -46c-13 -22 -29 -42 -48 -60
c-17 11 -36 27 -59 48c13 20 28 39 47 58z" />
    <glyph glyph-name="uni06F0" unicode="&#x6f0;" horiz-adv-x="325" 
d="M150 196c0 -16 6 -30 18 -41c13 -11 30 -17 51 -17c15 0 27 6 38 19s17 30 17 49c0 39 -23 58 -68 58c-37 0 -56 -23 -56 -68zM100 192c0 35 8 64 24 86c17 25 43 38 77 38c40 0 71 -11 94 -32c20 -19 30 -43 30 -74c0 -37 -10 -67 -30 -90c-19 -23 -42 -34 -70 -34
c-39 0 -70 10 -93 31c-21 19 -32 44 -32 75z" />
    <glyph glyph-name="uni06F1" unicode="&#x6f1;" horiz-adv-x="252" 
d="M126 576l55 44c52 -211 80 -423 84 -635l-52 -15c-7 231 -36 433 -87 606z" />
    <glyph glyph-name="uni06F2" unicode="&#x6f2;" horiz-adv-x="442" 
d="M126 576l55 44l23 -106c11 -49 22 -82 35 -99c13 -16 34 -24 62 -24c64 0 97 73 100 220l54 -3c0 -197 -53 -295 -160 -295c-22 0 -41 4 -56 12c16 -111 25 -225 26 -340l-52 -15c-7 231 -36 433 -87 606z" />
    <glyph glyph-name="uni06F3" unicode="&#x6f3;" horiz-adv-x="636" 
d="M491 313c-45 0 -77 20 -96 59c-24 -39 -57 -59 -100 -59c-22 0 -41 4 -56 12c16 -111 25 -225 26 -340l-52 -15c-7 231 -36 433 -87 606l55 44l23 -106c11 -49 22 -82 35 -99c13 -16 34 -24 62 -24c36 0 60 19 73 58c7 22 15 73 22 152l54 -6l-13 -140
c0 -43 19 -64 56 -64c33 0 57 17 73 52c15 35 25 91 29 168l54 -3c0 -81 -10 -146 -31 -195c-27 -67 -69 -100 -127 -100z" />
    <glyph glyph-name="uni06F4" unicode="&#x6f4;" horiz-adv-x="502" 
d="M126 576l55 44c16 -67 29 -124 38 -172c16 55 42 100 77 133c34 32 70 48 109 48c29 0 61 -15 96 -45l-23 -56c-29 15 -55 23 -77 23c-39 0 -73 -18 -100 -54c-23 -29 -35 -59 -37 -90c-1 -10 15 -20 46 -30s63 -15 95 -15c37 0 73 4 107 13l-18 -79
c-33 -8 -65 -12 -98 -12c-62 0 -114 14 -157 43c14 -101 23 -215 26 -342l-52 -15c-7 231 -36 433 -87 606z" />
    <glyph glyph-name="uni06F5" unicode="&#x6f5;" horiz-adv-x="571" 
d="M244 572l37 57c193 -192 290 -345 290 -458c0 -51 -12 -94 -36 -129c-27 -38 -63 -57 -110 -57c-43 0 -75 20 -96 61c-23 -41 -57 -61 -104 -61c-39 0 -71 16 -94 47c-21 29 -31 67 -31 115c0 94 63 222 188 383zM515 155c0 93 -62 205 -187 336
c-116 -135 -174 -245 -174 -332c0 -64 26 -96 79 -96c50 0 75 45 75 136l50 6c0 -48 4 -82 13 -101c11 -27 32 -41 63 -41c54 0 81 31 81 92z" />
    <glyph glyph-name="uni06F6" unicode="&#x6f6;" horiz-adv-x="468" 
d="M133 -30l-33 47c51 101 109 193 175 276c-53 7 -93 25 -119 53c-23 25 -35 52 -35 83c0 44 14 86 43 125c36 50 83 75 142 75c29 0 61 -15 96 -45l-23 -56c-29 15 -55 23 -77 23c-39 0 -71 -14 -98 -43c-21 -23 -32 -45 -32 -66c0 -15 13 -31 38 -46
c29 -19 64 -28 106 -28c43 0 93 17 149 51l-5 -78c-108 -52 -217 -176 -327 -371z" />
    <glyph glyph-name="uni06F7" unicode="&#x6f7;" horiz-adv-x="526" 
d="M120 556l44 64c87 -161 140 -311 159 -450c31 150 84 300 159 450l44 -63c-107 -176 -165 -367 -174 -572l-52 -15c-19 235 -79 430 -180 586z" />
    <glyph glyph-name="uni06F8" unicode="&#x6f8;" horiz-adv-x="526" 
d="M164 -30l-44 64c101 156 161 351 180 586l52 -15c9 -205 67 -396 174 -572l-44 -63c-75 148 -128 298 -159 450c-19 -138 -72 -288 -159 -450z" />
    <glyph glyph-name="uni06F9" unicode="&#x6f9;" horiz-adv-x="497" 
d="M487 28l-37 -58c-63 63 -95 174 -96 332c-40 -10 -75 -15 -106 -15c-99 0 -148 47 -148 141c0 51 12 95 37 134c29 45 69 67 120 67s90 -24 117 -72c25 -47 38 -110 38 -190c0 -97 4 -165 11 -203c9 -48 31 -93 64 -136zM243 365c41 0 77 4 109 12
c-7 116 -40 174 -101 174c-28 0 -51 -11 -68 -32s-25 -47 -25 -78c0 -51 28 -76 85 -76z" />
    <glyph glyph-name="uni0660" unicode="&#x660;" horiz-adv-x="325" 
d="M150 196c0 -16 6 -30 18 -41c13 -11 30 -17 51 -17c15 0 27 6 38 19s17 30 17 49c0 39 -23 58 -68 58c-37 0 -56 -23 -56 -68zM100 192c0 35 8 64 24 86c17 25 43 38 77 38c40 0 71 -11 94 -32c20 -19 30 -43 30 -74c0 -37 -10 -67 -30 -90c-19 -23 -42 -34 -70 -34
c-39 0 -70 10 -93 31c-21 19 -32 44 -32 75z" />
    <glyph glyph-name="uni0661" unicode="&#x661;" horiz-adv-x="252" 
d="M126 576l55 44c52 -211 80 -423 84 -635l-52 -15c-7 231 -36 433 -87 606z" />
    <glyph glyph-name="uni0662" unicode="&#x662;" horiz-adv-x="442" 
d="M126 576l55 44l23 -106c11 -49 22 -82 35 -99c13 -16 34 -24 62 -24c64 0 97 73 100 220l54 -3c0 -197 -53 -295 -160 -295c-22 0 -41 4 -56 12c16 -111 25 -225 26 -340l-52 -15c-7 231 -36 433 -87 606z" />
    <glyph glyph-name="uni0663" unicode="&#x663;" horiz-adv-x="636" 
d="M491 313c-45 0 -77 20 -96 59c-24 -39 -57 -59 -100 -59c-22 0 -41 4 -56 12c16 -111 25 -225 26 -340l-52 -15c-7 231 -36 433 -87 606l55 44l23 -106c11 -49 22 -82 35 -99c13 -16 34 -24 62 -24c36 0 60 19 73 58c7 22 15 73 22 152l54 -6l-13 -140
c0 -43 19 -64 56 -64c33 0 57 17 73 52c15 35 25 91 29 168l54 -3c0 -81 -10 -146 -31 -195c-27 -67 -69 -100 -127 -100z" />
    <glyph glyph-name="uni0664" unicode="&#x664;" horiz-adv-x="454" 
d="M356 353l-10 -70c-51 -10 -97 -35 -136 -74c-35 -35 -52 -68 -52 -99c0 -11 19 -21 56 -31c36 -11 74 -16 115 -16c42 0 81 2 118 5l-36 -79c-17 -3 -42 -4 -77 -4c-156 0 -234 43 -234 129c0 32 13 66 39 103c27 37 61 67 100 90c-85 17 -127 53 -127 108s23 102 68 140
s100 57 164 57c13 0 31 -2 53 -5l-16 -76c-14 2 -31 3 -51 3c-46 0 -86 -13 -119 -38c-27 -21 -41 -41 -41 -59c0 -17 17 -34 50 -49c36 -17 81 -29 136 -35z" />
    <glyph glyph-name="uni0665" unicode="&#x665;" horiz-adv-x="489" 
d="M100 160c0 55 21 112 63 173c44 64 88 96 131 96s86 -31 130 -92c43 -61 65 -117 65 -170c0 -62 -22 -109 -65 -141c-39 -27 -88 -41 -148 -41c-49 0 -90 14 -122 42c-36 31 -54 76 -54 133zM431 147c0 38 -16 81 -49 128c-34 51 -68 76 -101 76c-26 0 -53 -21 -81 -64
s-42 -84 -42 -125c0 -30 12 -54 37 -73c23 -17 53 -26 90 -26c39 0 73 9 103 27c29 17 43 36 43 57z" />
    <glyph glyph-name="uni0666" unicode="&#x666;" horiz-adv-x="468" 
d="M325 324c0 35 3 84 8 148c-15 -1 -30 -2 -45 -2c-77 0 -139 11 -188 32v78c62 -21 132 -32 210 -32c33 0 54 -5 65 -15c11 -9 17 -27 17 -52c0 -5 -2 -29 -5 -70c-4 -37 -6 -65 -6 -85c0 -136 26 -235 77 -298l-37 -58c-64 65 -96 183 -96 354z" />
    <glyph glyph-name="uni0667" unicode="&#x667;" horiz-adv-x="526" 
d="M120 556l44 64c87 -161 140 -311 159 -450c31 150 84 300 159 450l44 -63c-107 -176 -165 -367 -174 -572l-52 -15c-19 235 -79 430 -180 586z" />
    <glyph glyph-name="uni0668" unicode="&#x668;" horiz-adv-x="526" 
d="M164 -30l-44 64c101 156 161 351 180 586l52 -15c9 -205 67 -396 174 -572l-44 -63c-75 148 -128 298 -159 450c-19 -138 -72 -288 -159 -450z" />
    <glyph glyph-name="uni0669" unicode="&#x669;" horiz-adv-x="497" 
d="M487 28l-37 -58c-63 63 -95 174 -96 332c-40 -10 -75 -15 -106 -15c-99 0 -148 47 -148 141c0 51 12 95 37 134c29 45 69 67 120 67s90 -24 117 -72c25 -47 38 -110 38 -190c0 -97 4 -165 11 -203c9 -48 31 -93 64 -136zM243 365c41 0 77 4 109 12
c-7 116 -40 174 -101 174c-28 0 -51 -11 -68 -32s-25 -47 -25 -78c0 -51 28 -76 85 -76z" />
    <glyph glyph-name="_220" horiz-adv-x="441" 
d="M150 561v-460l218 460h-218zM178 52h214v446zM143 614h255c12 0 22 -4 31 -13c8 -9 12 -19 12 -30v-528c0 -12 -4 -22 -12 -30c-9 -9 -19 -13 -31 -13h-255c-12 0 -22 4 -30 13c-9 8 -13 18 -13 30v528c0 11 4 21 13 30c8 9 18 13 30 13z" />
    <glyph glyph-name="_221" horiz-adv-x="645" 
d="M470 196c0 -16 6 -30 18 -41c13 -11 30 -17 51 -17c15 0 27 6 38 19s17 30 17 49c0 39 -23 58 -68 58c-37 0 -56 -23 -56 -68zM420 192c0 35 8 64 24 86c17 25 43 38 77 38c40 0 71 -11 94 -32c20 -19 30 -43 30 -74c0 -37 -10 -67 -30 -90c-19 -23 -42 -34 -70 -34
c-39 0 -70 10 -93 31c-21 19 -32 44 -32 75z" />
    <glyph glyph-name="_222" horiz-adv-x="645" 
d="M506 576l55 44c52 -211 80 -423 84 -635l-52 -15c-7 231 -36 433 -87 606z" />
    <glyph glyph-name="_223" horiz-adv-x="645" 
d="M316 576l55 44l23 -106c11 -49 22 -82 35 -99c13 -16 34 -24 62 -24c64 0 97 73 100 220l54 -3c0 -197 -53 -295 -160 -295c-22 0 -41 4 -56 12c16 -111 25 -225 26 -340l-52 -15c-7 231 -36 433 -87 606z" />
    <glyph glyph-name="_224" horiz-adv-x="645" 
d="M487 313c-45 0 -77 20 -96 59c-24 -39 -57 -59 -100 -59c-22 0 -41 4 -56 12c16 -111 25 -225 26 -340l-52 -15c-7 231 -36 433 -87 606l55 44l23 -106c11 -49 22 -82 35 -99c13 -16 34 -24 62 -24c36 0 60 19 73 58c7 22 15 73 22 152l54 -6l-13 -140
c0 -43 19 -64 56 -64c33 0 57 17 73 52c15 35 25 91 29 168l54 -3c0 -81 -10 -146 -31 -195c-27 -67 -69 -100 -127 -100z" />
    <glyph glyph-name="_225" horiz-adv-x="645" 
d="M258 576l55 44c16 -67 29 -124 38 -172c16 55 42 100 77 133c34 32 70 48 109 48c29 0 61 -15 96 -45l-23 -56c-29 15 -55 23 -77 23c-39 0 -73 -18 -100 -54c-23 -29 -35 -59 -37 -90c-1 -10 15 -20 46 -30s63 -15 95 -15c37 0 73 4 107 13l-18 -79
c-33 -8 -65 -12 -98 -12c-62 0 -114 14 -157 43c14 -101 23 -215 26 -342l-52 -15c-7 231 -36 433 -87 606z" />
    <glyph glyph-name="_226" horiz-adv-x="645" 
d="M318 572l37 57c193 -192 290 -345 290 -458c0 -51 -12 -94 -36 -129c-27 -38 -63 -57 -110 -57c-43 0 -75 20 -96 61c-23 -41 -57 -61 -104 -61c-39 0 -71 16 -94 47c-21 29 -31 67 -31 115c0 94 63 222 188 383zM589 155c0 93 -62 205 -187 336
c-116 -135 -174 -245 -174 -332c0 -64 26 -96 79 -96c50 0 75 45 75 136l50 6c0 -48 4 -82 13 -101c11 -27 32 -41 63 -41c54 0 81 31 81 92z" />
    <glyph glyph-name="_227" horiz-adv-x="645" 
d="M313 -30l-33 47c51 101 109 193 175 276c-53 7 -93 25 -119 53c-23 25 -35 52 -35 83c0 44 14 86 43 125c36 50 83 75 142 75c29 0 61 -15 96 -45l-23 -56c-29 15 -55 23 -77 23c-39 0 -71 -14 -98 -43c-21 -23 -32 -45 -32 -66c0 -15 13 -31 38 -46
c29 -19 64 -28 106 -28c43 0 93 17 149 51l-5 -78c-108 -52 -217 -176 -327 -371z" />
    <glyph glyph-name="_228" horiz-adv-x="645" 
d="M238 556l44 64c87 -161 140 -311 159 -450c31 150 84 300 159 450l44 -63c-107 -176 -165 -367 -174 -572l-52 -15c-19 235 -79 430 -180 586z" />
    <glyph glyph-name="_229" horiz-adv-x="645" 
d="M282 -30l-44 64c101 156 161 351 180 586l52 -15c9 -205 67 -396 174 -572l-44 -63c-75 148 -128 298 -159 450c-19 -138 -72 -288 -159 -450z" />
    <glyph glyph-name="_230" horiz-adv-x="645" 
d="M645 28l-37 -58c-63 63 -95 174 -96 332c-40 -10 -75 -15 -106 -15c-99 0 -148 47 -148 141c0 51 12 95 37 134c29 45 69 67 120 67s90 -24 117 -72c25 -47 38 -110 38 -190c0 -97 4 -165 11 -203c9 -48 31 -93 64 -136zM401 365c41 0 77 4 109 12
c-7 116 -40 174 -101 174c-28 0 -51 -11 -68 -32s-25 -47 -25 -78c0 -51 28 -76 85 -76z" />
    <glyph glyph-name="_231" horiz-adv-x="645" 
d="M470 196c0 -16 6 -30 18 -41c13 -11 30 -17 51 -17c15 0 27 6 38 19s17 30 17 49c0 39 -23 58 -68 58c-37 0 -56 -23 -56 -68zM420 192c0 35 8 64 24 86c17 25 43 38 77 38c40 0 71 -11 94 -32c20 -19 30 -43 30 -74c0 -37 -10 -67 -30 -90c-19 -23 -42 -34 -70 -34
c-39 0 -70 10 -93 31c-21 19 -32 44 -32 75z" />
    <glyph glyph-name="_232" horiz-adv-x="645" 
d="M506 576l55 44c52 -211 80 -423 84 -635l-52 -15c-7 231 -36 433 -87 606z" />
    <glyph glyph-name="_233" horiz-adv-x="645" 
d="M316 576l55 44l23 -106c11 -49 22 -82 35 -99c13 -16 34 -24 62 -24c64 0 97 73 100 220l54 -3c0 -197 -53 -295 -160 -295c-22 0 -41 4 -56 12c16 -111 25 -225 26 -340l-52 -15c-7 231 -36 433 -87 606z" />
    <glyph glyph-name="_234" horiz-adv-x="645" 
d="M487 313c-45 0 -77 20 -96 59c-24 -39 -57 -59 -100 -59c-22 0 -41 4 -56 12c16 -111 25 -225 26 -340l-52 -15c-7 231 -36 433 -87 606l55 44l23 -106c11 -49 22 -82 35 -99c13 -16 34 -24 62 -24c36 0 60 19 73 58c7 22 15 73 22 152l54 -6l-13 -140
c0 -43 19 -64 56 -64c33 0 57 17 73 52c15 35 25 91 29 168l54 -3c0 -81 -10 -146 -31 -195c-27 -67 -69 -100 -127 -100z" />
    <glyph glyph-name="_235" horiz-adv-x="645" 
d="M554 353l-10 -70c-51 -10 -97 -35 -136 -74c-35 -35 -52 -68 -52 -99c0 -11 19 -21 56 -31c36 -11 74 -16 115 -16c42 0 81 2 118 5l-36 -79c-17 -3 -42 -4 -77 -4c-156 0 -234 43 -234 129c0 32 13 66 39 103c27 37 61 67 100 90c-85 17 -127 53 -127 108s23 102 68 140
s100 57 164 57c13 0 31 -2 53 -5l-16 -76c-14 2 -31 3 -51 3c-46 0 -86 -13 -119 -38c-27 -21 -41 -41 -41 -59c0 -17 17 -34 50 -49c36 -17 81 -29 136 -35z" />
    <glyph glyph-name="_236" horiz-adv-x="645" 
d="M256 160c0 55 21 112 63 173c44 64 88 96 131 96s86 -31 130 -92c43 -61 65 -117 65 -170c0 -62 -22 -109 -65 -141c-39 -27 -88 -41 -148 -41c-49 0 -90 14 -122 42c-36 31 -54 76 -54 133zM587 147c0 38 -16 81 -49 128c-34 51 -68 76 -101 76c-26 0 -53 -21 -81 -64
s-42 -84 -42 -125c0 -30 12 -54 37 -73c23 -17 53 -26 90 -26c39 0 73 9 103 27c29 17 43 36 43 57z" />
    <glyph glyph-name="_237" horiz-adv-x="645" 
d="M511 324c0 35 3 84 8 148c-15 -1 -30 -2 -45 -2c-77 0 -139 11 -188 32v78c62 -21 132 -32 210 -32c33 0 54 -5 65 -15c11 -9 17 -27 17 -52c0 -5 -2 -29 -5 -70c-4 -37 -6 -65 -6 -85c0 -136 26 -235 77 -298l-37 -58c-64 65 -96 183 -96 354z" />
    <glyph glyph-name="_238" horiz-adv-x="645" 
d="M238 556l44 64c87 -161 140 -311 159 -450c31 150 84 300 159 450l44 -63c-107 -176 -165 -367 -174 -572l-52 -15c-19 235 -79 430 -180 586z" />
    <glyph glyph-name="_239" horiz-adv-x="645" 
d="M282 -30l-44 64c101 156 161 351 180 586l52 -15c9 -205 67 -396 174 -572l-44 -63c-75 148 -128 298 -159 450c-19 -138 -72 -288 -159 -450z" />
    <glyph glyph-name="_240" horiz-adv-x="645" 
d="M645 28l-37 -58c-63 63 -95 174 -96 332c-40 -10 -75 -15 -106 -15c-99 0 -148 47 -148 141c0 51 12 95 37 134c29 45 69 67 120 67s90 -24 117 -72c25 -47 38 -110 38 -190c0 -97 4 -165 11 -203c9 -48 31 -93 64 -136zM401 365c41 0 77 4 109 12
c-7 116 -40 174 -101 174c-28 0 -51 -11 -68 -32s-25 -47 -25 -78c0 -51 28 -76 85 -76z" />
    <glyph glyph-name="uni0654" unicode="&#x654;" 
d="M-196 0l-4 37l64 43c-39 14 -58 36 -58 67c0 32 9 58 28 77c17 19 36 28 59 28c32 0 58 -14 79 -43l-19 -24c-18 16 -37 24 -56 24c-15 0 -29 -6 -42 -18c-12 -11 -18 -20 -18 -29c0 -11 5 -20 16 -29c15 -13 34 -20 58 -20c18 0 47 10 87 29l2 -39
c-65 -31 -130 -66 -196 -103z" />
    <glyph glyph-name="uni0655" unicode="&#x655;" 
d="M-196 -252l-4 37l64 44c-39 13 -58 35 -58 66c0 32 9 58 28 77c17 19 36 28 59 28c32 0 58 -14 79 -43l-19 -24c-18 16 -37 24 -56 24c-15 0 -29 -6 -42 -18c-12 -11 -18 -20 -18 -29c0 -11 5 -20 16 -29c15 -13 34 -20 58 -20c18 0 47 10 87 29l2 -39
c-65 -31 -130 -66 -196 -103z" />
    <glyph glyph-name="uni0653" unicode="&#x653;" 
d="M2 100v-42c-33 -25 -68 -37 -105 -37c-18 0 -38 3 -60 10c-23 6 -38 9 -46 9c-17 0 -37 -13 -62 -40l-25 21c35 45 66 68 91 68c13 0 29 -3 50 -10c22 -7 41 -11 57 -11c25 0 59 11 100 32z" />
    <glyph glyph-name="uni0652" unicode="&#x652;" 
d="M-146 66c0 21 8 41 24 62c17 21 33 31 50 31c16 0 32 -10 48 -30s24 -40 24 -60c0 -46 -26 -69 -79 -69c-19 0 -35 5 -46 16c-14 12 -21 29 -21 50zM-30 60c0 16 -5 30 -16 43c-10 13 -20 19 -31 19c-8 0 -17 -5 -26 -15c-10 -11 -15 -22 -15 -35c0 -23 14 -34 43 -34
c30 0 45 7 45 22z" />
    <glyph glyph-name="uni0651" unicode="&#x651;" 
d="M-48 146l30 19c12 -26 18 -53 18 -80c0 -49 -17 -74 -52 -74c-39 0 -64 12 -75 36c-15 -31 -38 -47 -68 -47c-19 0 -35 7 -47 22c-12 13 -18 31 -18 52c0 19 5 38 16 59l25 -9c-8 -16 -12 -32 -12 -47c0 -26 12 -39 37 -39c34 0 51 26 52 79l26 8c0 -51 22 -76 65 -76
c14 0 21 9 21 26c0 19 -6 42 -18 71z" />
    <glyph glyph-name="uni064E" unicode="&#x64e;" 
d="M-200 37l198 105l2 -39l-196 -103z" />
    <glyph glyph-name="uni064F" unicode="&#x64f;" 
d="M-264 0l-4 37c36 17 72 39 108 64c-41 25 -61 54 -61 88c0 23 10 42 30 59c19 16 41 24 65 24c23 0 42 -8 56 -23c12 -13 18 -29 18 -48c0 -63 -71 -130 -212 -201zM-187 194c0 -16 19 -39 57 -68c29 25 43 48 43 69c0 25 -16 38 -48 38c-14 0 -26 -3 -35 -10
c-11 -7 -17 -17 -17 -29z" />
    <glyph glyph-name="uni0650" unicode="&#x650;" 
d="M-200 -110l198 105l2 -39l-196 -103z" />
    <glyph glyph-name="uni064B" unicode="&#x64b;" 
d="M-200 37l198 105l2 -39l-196 -103zM-210 137l198 105l2 -39l-196 -103z" />
    <glyph glyph-name="uni064C" unicode="&#x64c;" 
d="M-315 0l-4 37c5 2 17 9 37 20c-8 32 -19 48 -32 48c-9 0 -22 -8 -39 -24l-17 23c24 24 44 36 60 36c27 0 45 -23 53 -69c19 11 34 21 46 30c-41 25 -61 54 -61 88c0 23 10 42 30 59c19 16 41 24 65 24c23 0 42 -8 56 -23c12 -13 18 -29 18 -48c0 -63 -71 -130 -212 -201z
M-238 194c0 -16 19 -39 57 -68c29 25 43 48 43 69c0 25 -16 38 -48 38c-14 0 -26 -3 -35 -10c-11 -7 -17 -17 -17 -29z" />
    <glyph glyph-name="uni064D" unicode="&#x64d;" 
d="M-200 -205l198 105l2 -39l-196 -103zM-210 -105l198 105l2 -39l-196 -103z" />
    <glyph glyph-name="uni0670" unicode="&#x670;" 
d="M-3 0l-28 6c3 15 4 31 4 46c0 27 -3 66 -9 118l34 18c3 -55 5 -94 5 -117c0 -26 -2 -50 -6 -71z" />
    <glyph glyph-name="uni0656" unicode="&#x656;" 
d="M-3 -188l-28 6c3 15 4 31 4 46c0 27 -3 66 -9 118l34 18c3 -55 5 -94 5 -117c0 -26 -2 -50 -6 -71z" />
    <glyph glyph-name="_254" 
d="M-291 3l-25 16c25 42 42 63 51 63c4 0 14 -2 30 -6c57 79 108 119 153 119c26 0 46 -8 61 -25c14 -15 21 -33 21 -56c0 -63 -41 -94 -123 -94c-49 0 -94 7 -136 22zM-89 153c-37 0 -75 -28 -116 -85c21 -5 48 -7 79 -7c61 0 91 14 91 42c0 33 -18 50 -54 50z" />
    <glyph glyph-name="_255" 
d="M-3 113v-55c-33 -25 -68 -37 -105 -37c-18 0 -38 3 -60 10c-23 6 -38 9 -46 9c-17 0 -37 -13 -62 -40l-30 29c35 49 66 73 93 73c12 0 29 -3 51 -10c24 -7 44 -11 59 -11c25 0 59 11 100 32z" />
    <glyph glyph-name="_262" horiz-adv-x="260" 
d="M-18 300l-4 37c5 2 17 9 37 20c-8 32 -19 48 -32 48c-9 0 -22 -8 -39 -24l-17 23c24 24 44 36 60 36c27 0 45 -23 53 -69c19 11 34 21 46 30c-41 25 -61 54 -61 88c0 23 10 42 30 59c19 16 41 24 65 24c23 0 42 -8 56 -23c12 -13 18 -29 18 -48c0 -63 -71 -130 -212 -201
zM59 494c0 -16 19 -39 57 -68c29 25 43 48 43 69c0 25 -16 38 -48 38c-14 0 -26 -3 -35 -10c-11 -7 -17 -17 -17 -29zM-76 37c0 11 4 20 12 27c7 7 16 11 26 11h260v-75h-260c-10 0 -19 4 -26 11c-8 7 -12 16 -12 26z" />
    <glyph glyph-name="_263" horiz-adv-x="260" 
d="M-6 -305l198 105l2 -39l-196 -103zM-16 -205l198 105l2 -39l-196 -103zM-76 37c0 11 4 20 12 27c7 7 16 11 26 11h260v-75h-260c-10 0 -19 4 -26 11c-8 7 -12 16 -12 26z" />
    <glyph glyph-name="_275" 
d="M-48 146l30 19c12 -26 18 -53 18 -80c0 -49 -17 -74 -52 -74c-39 0 -64 12 -75 36c-15 -31 -38 -47 -68 -47c-19 0 -35 7 -47 22c-12 13 -18 31 -18 52c0 19 5 38 16 59l25 -9c-8 -16 -12 -32 -12 -47c0 -26 12 -39 37 -39c34 0 51 26 52 79l26 8c0 -51 22 -76 65 -76
c14 0 21 9 21 26c0 19 -6 42 -18 71zM-225 203l198 105l2 -39l-196 -103zM-235 303l198 105l2 -39l-196 -103z" />
    <glyph glyph-name="_279" 
d="M-191 0l-4 37l64 43c-39 14 -58 36 -58 67c0 32 9 58 28 77c17 19 36 28 59 28c32 0 58 -14 79 -43l-19 -24c-18 16 -37 24 -56 24c-15 0 -29 -6 -42 -18c-12 -11 -18 -20 -18 -29c0 -11 5 -20 16 -29c15 -13 34 -20 58 -20c18 0 47 10 87 29l2 -39
c-65 -31 -130 -66 -196 -103zM-210 278l198 105l2 -39l-196 -103z" />
    <glyph glyph-name="_280" 
d="M-220 0l-4 37l64 43c-39 14 -58 36 -58 67c0 32 9 58 28 77c17 19 36 28 59 28c32 0 58 -14 79 -43l-19 -24c-18 16 -37 24 -56 24c-15 0 -29 -6 -42 -18c-12 -11 -18 -20 -18 -29c0 -11 5 -20 16 -29c15 -13 34 -20 58 -20c18 0 47 10 87 29l2 -39
c-65 -31 -130 -66 -196 -103zM-264 241l-4 37c36 17 72 39 108 64c-41 25 -61 54 -61 88c0 23 10 42 30 59c19 16 41 24 65 24c23 0 42 -8 56 -23c12 -13 18 -29 18 -48c0 -63 -71 -130 -212 -201zM-187 435c0 -16 19 -39 57 -68c29 25 43 48 43 69c0 25 -16 38 -48 38
c-14 0 -26 -3 -35 -10c-11 -7 -17 -17 -17 -29z" />
    <glyph glyph-name="_281" 
d="M-176 -252l-4 37l64 44c-39 13 -58 35 -58 66c0 32 9 58 28 77c17 19 36 28 59 28c32 0 58 -14 79 -43l-19 -24c-18 16 -37 24 -56 24c-15 0 -29 -6 -42 -18c-12 -11 -18 -20 -18 -29c0 -11 5 -20 16 -29c15 -13 34 -20 58 -20c18 0 47 10 87 29l2 -39
c-65 -31 -130 -66 -196 -103zM-170 -310l198 105l2 -39l-196 -103z" />
    <glyph glyph-name="_282" 
d="M-201 0l-4 37l64 43c-39 14 -58 36 -58 67c0 32 9 58 28 77c17 19 36 28 59 28c32 0 58 -14 79 -43l-19 -24c-18 16 -37 24 -56 24c-15 0 -29 -6 -42 -18c-12 -11 -18 -20 -18 -29c0 -11 5 -20 16 -29c15 -13 34 -20 58 -20c18 0 47 10 87 29l2 -39
c-65 -31 -130 -66 -196 -103zM-220 284l198 105l2 -39l-196 -103zM-230 384l198 105l2 -39l-196 -103z" />
    <glyph glyph-name="_283" 
d="M-281 0l-4 37l64 43c-39 14 -58 36 -58 67c0 32 9 58 28 77c17 19 36 28 59 28c32 0 58 -14 79 -43l-19 -24c-18 16 -37 24 -56 24c-15 0 -29 -6 -42 -18c-12 -11 -18 -20 -18 -29c0 -11 5 -20 16 -29c15 -13 34 -20 58 -20c18 0 47 10 87 29l2 -39
c-65 -31 -130 -66 -196 -103zM-335 281l-4 37c5 2 17 9 37 20c-8 32 -19 48 -32 48c-9 0 -22 -8 -39 -24l-17 23c24 24 44 36 60 36c27 0 45 -23 53 -69c19 11 34 21 46 30c-41 25 -61 54 -61 88c0 23 10 42 30 59c19 16 41 24 65 24c23 0 42 -8 56 -23
c12 -13 18 -29 18 -48c0 -63 -71 -130 -212 -201zM-258 475c0 -16 19 -39 57 -68c29 25 43 48 43 69c0 25 -16 38 -48 38c-14 0 -26 -3 -35 -10c-11 -7 -17 -17 -17 -29z" />
    <glyph glyph-name="_284" 
d="M-196 -252l-4 37l64 44c-39 13 -58 35 -58 66c0 32 9 58 28 77c17 19 36 28 59 28c32 0 58 -14 79 -43l-19 -24c-18 16 -37 24 -56 24c-15 0 -29 -6 -42 -18c-12 -11 -18 -20 -18 -29c0 -11 5 -20 16 -29c15 -13 34 -20 58 -20c18 0 47 10 87 29l2 -39
c-65 -31 -130 -66 -196 -103zM-177 -405l198 105l2 -39l-196 -103zM-187 -305l198 105l2 -39l-196 -103z" />
    <glyph glyph-name="_285" 
d="M-176 0l-4 37l64 43c-39 14 -58 36 -58 67c0 32 9 58 28 77c17 19 36 28 59 28c32 0 58 -14 79 -43l-19 -24c-18 16 -37 24 -56 24c-15 0 -29 -6 -42 -18c-12 -11 -18 -20 -18 -29c0 -11 5 -20 16 -29c15 -13 34 -20 58 -20c18 0 47 10 87 29l2 -39
c-65 -31 -130 -66 -196 -103zM-165 361c0 21 8 41 24 62c17 21 33 31 50 31c16 0 32 -10 48 -30s24 -40 24 -60c0 -46 -26 -69 -79 -69c-19 0 -35 5 -46 16c-14 12 -21 29 -21 50zM-49 355c0 16 -5 30 -16 43c-10 13 -20 19 -31 19c-8 0 -17 -5 -26 -15
c-10 -11 -15 -22 -15 -35c0 -23 14 -34 43 -34c30 0 45 7 45 22z" />
    <glyph glyph-name="_286" horiz-adv-x="183" 
d="M107 666l61 36c11 -197 17 -343 17 -439c0 -112 -10 -203 -29 -273l-52 10c15 75 22 153 22 234c0 129 -6 273 -19 432z" />
    <glyph glyph-name="_287" horiz-adv-x="247" 
d="M90 650l61 52c16 -60 24 -147 24 -260v-217c0 -55 9 -93 26 -116s47 -34 91 -34v-75c-62 0 -107 17 -134 50s-40 89 -40 170v206c0 85 -9 159 -28 224z" />
    <glyph glyph-name="_288" horiz-adv-x="790" 
d="M387 65c115 0 203 9 263 28c54 17 81 39 81 64c0 55 -12 117 -37 185l65 41c21 -63 31 -126 31 -191c0 -81 -40 -137 -119 -168c-58 -23 -153 -34 -284 -34c-116 0 -196 23 -241 70c-31 31 -46 78 -46 140c0 37 5 83 14 139l52 -7c-7 -43 -10 -80 -10 -111
c0 -54 15 -92 46 -115c35 -27 97 -41 185 -41z" />
    <glyph glyph-name="_289" horiz-adv-x="880" 
d="M387 -10c-116 0 -196 23 -241 70c-31 31 -46 78 -46 140c0 37 5 83 14 139l52 -7c-7 -43 -10 -80 -10 -111c0 -54 15 -92 46 -115c35 -27 97 -41 185 -41c118 0 206 9 264 28c52 17 78 40 78 67c0 44 -3 92 -8 143l60 30l9 -148c4 -73 40 -110 107 -110h33v-75h-32
c-65 0 -113 27 -144 81c-51 -61 -173 -91 -367 -91z" />
    <glyph glyph-name="_290" horiz-adv-x="396" 
d="M-76 37c0 11 4 20 12 27c7 7 16 11 26 11h79c77 0 116 28 116 85c0 44 -3 92 -8 143l60 30l9 -148c4 -73 40 -110 107 -110h33v-75h-32c-62 0 -108 23 -138 70c-29 -47 -81 -70 -157 -70h-69c-10 0 -19 4 -26 11c-8 7 -12 16 -12 26z" />
    <glyph glyph-name="_291" horiz-adv-x="316" 
d="M132 342l65 41c21 -63 31 -126 31 -191c0 -58 -17 -104 -50 -139c-35 -35 -83 -53 -144 -53h-72c-10 0 -19 4 -26 11c-8 7 -12 16 -12 26c0 11 4 20 12 27c7 7 16 11 26 11h49c105 0 158 27 158 82s-12 117 -37 185z" />
    <glyph glyph-name="_292" horiz-adv-x="595" 
d="M451 249c-13 3 -47 19 -102 47c-44 22 -77 33 -98 33c-27 0 -63 -38 -106 -114l-45 28c53 107 107 161 160 161c25 0 72 -19 141 -57c71 -39 136 -61 197 -66l-24 -72c-131 -21 -232 -64 -305 -130c-65 -59 -98 -127 -98 -202c0 -55 22 -101 65 -136
c46 -38 110 -57 191 -57c54 0 113 7 178 21l-16 -76c-65 -13 -121 -20 -170 -20c-98 0 -174 27 -229 80c-49 48 -74 110 -74 186c0 79 27 150 80 213c57 68 142 122 255 161z" />
    <glyph glyph-name="_293" horiz-adv-x="611" 
d="M451 249c-13 3 -47 19 -102 47c-44 22 -77 33 -98 33c-27 0 -63 -38 -106 -114l-45 28c53 107 107 161 160 161c25 0 72 -19 141 -57c71 -39 136 -61 197 -66l-24 -72c-59 -10 -112 -24 -157 -42c16 -35 35 -59 57 -73c21 -13 51 -19 92 -19h95v-75h-105
c-95 0 -158 49 -187 146c-132 -66 -198 -156 -198 -269c0 -55 22 -101 65 -136c46 -38 110 -57 191 -57c54 0 113 7 178 21l-16 -76c-65 -13 -121 -20 -170 -20c-98 0 -174 27 -229 80c-49 48 -74 110 -74 186c0 79 27 150 80 213c57 68 142 122 255 161z" />
    <glyph glyph-name="_294" horiz-adv-x="621" 
d="M-76 37c0 11 4 20 12 27c7 7 16 11 26 11h32c67 0 138 19 211 56c11 6 42 23 91 51c43 23 74 40 95 49c-142 69 -215 103 -218 103c-25 0 -59 -35 -100 -104l-45 28c51 101 102 151 154 151c26 0 73 -21 141 -63c74 -45 140 -72 197 -80l-24 -72c-43 -3 -91 -19 -146 -50
c26 -46 72 -69 138 -69h95v-75h-105c-85 0 -144 39 -177 116c-127 -77 -234 -116 -320 -116h-19c-10 0 -19 4 -26 11c-8 7 -12 16 -12 26z" />
    <glyph glyph-name="_295" horiz-adv-x="603" 
d="M520 266l-24 -72c-48 -3 -126 -36 -233 -101c-103 -62 -197 -93 -282 -93h-19c-10 0 -19 4 -26 11c-8 7 -12 16 -12 26c0 11 4 20 12 27c7 7 16 11 26 11h32c67 0 138 19 211 56c11 6 42 23 91 51c43 23 74 40 95 49c-142 69 -215 103 -218 103c-25 0 -59 -35 -100 -104
l-45 28c51 101 102 151 154 151c26 0 73 -21 141 -63c74 -45 140 -72 197 -80z" />
    <glyph glyph-name="_296" horiz-adv-x="459" 
d="M449 163c0 -55 -18 -97 -53 -127c-37 -31 -89 -46 -157 -46c-106 0 -159 48 -159 143c0 19 1 40 4 64l52 -4c-1 -5 -1 -20 -1 -46c0 -30 8 -51 23 -62c17 -13 48 -20 91 -20c40 0 74 8 103 23c25 14 38 29 38 46c0 75 -50 163 -150 263l46 61c109 -119 163 -217 163 -295
z" />
    <glyph glyph-name="_297" horiz-adv-x="547" 
d="M300 413l57 48l85 -258c17 -53 36 -89 56 -106c15 -15 38 -22 70 -22h19v-75h-35c-53 0 -94 25 -123 76c-32 -57 -95 -86 -190 -86c-106 0 -159 48 -159 143c0 19 1 40 4 64l52 -4c-1 -5 -1 -20 -1 -46c0 -30 8 -51 23 -62c17 -13 48 -20 91 -20c40 0 74 8 103 23
c25 14 38 29 38 46c0 19 -30 112 -90 279z" />
    <glyph glyph-name="_298" horiz-adv-x="281" 
d="M-2 261l58 39c37 -94 55 -183 55 -268c0 -80 -21 -145 -64 -194c-41 -47 -92 -71 -152 -71c-49 0 -94 20 -135 61l29 41c31 -18 65 -27 101 -27c55 0 97 21 128 64c23 31 34 60 34 89c0 69 -18 157 -54 266z" />
    <glyph glyph-name="_299" horiz-adv-x="343" 
d="M223 0h-29c-39 0 -66 7 -83 22c-2 -77 -24 -140 -67 -187c-41 -45 -91 -68 -149 -68c-49 0 -94 20 -135 61l29 41c31 -18 65 -27 101 -27c55 0 97 21 128 64c23 31 34 60 34 89c0 69 -18 157 -54 266l59 39l31 -119c10 -38 22 -64 36 -79c16 -18 40 -27 72 -27h27v-75z
" />
    <glyph glyph-name="_300" horiz-adv-x="1163" 
d="M1027 -10c-67 0 -118 22 -152 67c-27 -45 -65 -67 -116 -67c-33 0 -61 7 -82 22v-19c0 -61 -31 -116 -93 -163c-63 -49 -137 -73 -222 -73c-89 0 -156 26 -201 78c-41 45 -61 107 -61 184c0 62 10 124 31 186l51 -13c-16 -55 -24 -106 -24 -155c0 -137 71 -205 213 -205
c64 0 122 18 174 54c49 34 73 68 73 103c0 53 -20 143 -60 272l59 39l31 -119c20 -77 55 -116 104 -116c56 0 92 36 109 108c7 27 13 61 18 100l54 -5c-12 -73 -18 -117 -18 -134c0 -19 10 -34 31 -47c23 -15 53 -22 90 -22c45 0 68 20 68 59c0 63 -20 129 -59 198l61 48
c38 -67 57 -141 57 -222c0 -105 -45 -158 -136 -158z" />
    <glyph glyph-name="_301" horiz-adv-x="1240" 
d="M1027 -10c-67 0 -118 22 -152 67c-27 -45 -65 -67 -116 -67c-33 0 -61 7 -82 22v-19c0 -61 -31 -116 -93 -163c-63 -49 -137 -73 -222 -73c-89 0 -156 26 -201 78c-41 45 -61 107 -61 184c0 62 10 124 31 186l51 -13c-16 -55 -24 -106 -24 -155c0 -137 71 -205 213 -205
c64 0 122 18 174 54c49 34 73 68 73 103c0 53 -20 143 -60 272l59 39l31 -119c20 -77 55 -116 104 -116c56 0 92 36 109 108c7 27 13 61 18 100l54 -5c-12 -73 -18 -117 -18 -134c0 -19 10 -34 31 -47c23 -15 53 -22 90 -22c45 0 68 20 68 59c0 15 -12 72 -35 171l56 36
l31 -141c17 -77 54 -115 111 -115h23v-75h-22c-53 0 -93 21 -121 63c-21 -49 -61 -73 -120 -73z" />
    <glyph glyph-name="_302" horiz-adv-x="861" 
d="M-76 37c0 11 4 20 12 27c7 7 16 11 26 11h53c65 0 105 32 119 96c3 13 9 47 17 102l54 -5c-8 -60 -12 -98 -12 -113c0 -30 10 -53 29 -69c17 -14 38 -21 63 -21c56 0 92 36 109 108c7 27 13 61 18 100l54 -5c-12 -73 -18 -117 -18 -134c0 -19 10 -34 31 -47
c23 -15 53 -22 90 -22c45 0 68 20 68 59c0 15 -12 72 -35 171l56 36l31 -141c17 -77 54 -115 111 -115h23v-75h-22c-53 0 -93 21 -121 63c-21 -49 -61 -73 -120 -73c-69 0 -119 22 -152 67c-29 -45 -71 -67 -126 -67c-63 0 -108 27 -135 80c-27 -47 -70 -70 -131 -70h-54
c-10 0 -19 4 -26 11c-8 7 -12 16 -12 26z" />
    <glyph glyph-name="_303" horiz-adv-x="784" 
d="M-76 37c0 11 4 20 12 27c7 7 16 11 26 11h53c65 0 105 32 119 96c3 13 9 47 17 102l54 -5c-8 -60 -12 -98 -12 -113c0 -30 10 -53 29 -69c17 -14 38 -21 63 -21c56 0 92 36 109 108c7 27 13 61 18 100l54 -5c-12 -73 -18 -117 -18 -134c0 -19 10 -34 31 -47
c23 -15 53 -22 90 -22c45 0 68 20 68 59c0 63 -20 129 -59 198l61 48c38 -67 57 -141 57 -222c0 -105 -45 -158 -136 -158c-69 0 -119 22 -152 67c-29 -45 -71 -67 -126 -67c-63 0 -108 27 -135 80c-27 -47 -70 -70 -131 -70h-54c-10 0 -19 4 -26 11c-8 7 -12 16 -12 26z
" />
    <glyph glyph-name="_304" horiz-adv-x="1181" 
d="M677 -7c0 -61 -31 -116 -93 -163c-63 -49 -137 -73 -222 -73c-89 0 -156 26 -201 78c-41 45 -61 107 -61 184c0 62 10 124 31 186l51 -13c-16 -55 -24 -106 -24 -155c0 -137 71 -205 213 -205c64 0 122 18 174 54c49 34 73 68 73 103c0 53 -20 143 -60 272l59 39l31 -119
c9 -33 21 -56 34 -70c63 85 107 139 132 164c61 61 122 91 184 91c57 0 102 -20 137 -61c31 -35 46 -74 46 -117c0 -132 -92 -198 -277 -198c-113 0 -189 13 -228 38c1 -6 1 -18 1 -35zM987 291c-72 0 -158 -70 -258 -210c30 -11 84 -16 162 -16c75 0 133 10 175 30
c37 18 56 41 56 68c0 34 -12 63 -36 88c-26 27 -59 40 -99 40z" />
    <glyph glyph-name="_305" horiz-adv-x="1209" 
d="M677 -7c0 -61 -31 -116 -93 -163c-63 -49 -137 -73 -222 -73c-89 0 -156 26 -201 78c-41 45 -61 107 -61 184c0 62 10 124 31 186l51 -13c-16 -55 -24 -106 -24 -155c0 -137 71 -205 213 -205c64 0 122 18 174 54c49 34 73 68 73 103c0 53 -20 143 -60 272l59 39l31 -119
c9 -33 21 -56 34 -70c63 85 107 139 132 164c61 61 122 91 184 91c57 0 102 -20 137 -61c31 -35 46 -74 46 -117c0 -38 -9 -72 -27 -101c17 -8 46 -12 85 -12h20v-75h-33c-47 0 -86 13 -117 40c-49 -33 -117 -50 -205 -50c-113 0 -189 13 -228 38c1 -6 1 -18 1 -35zM987 291
c-72 0 -158 -70 -258 -210c30 -11 84 -16 162 -16c75 0 133 10 175 30c37 18 56 41 56 68c0 34 -12 63 -36 88c-26 27 -59 40 -99 40z" />
    <glyph glyph-name="_306" horiz-adv-x="807" 
d="M-76 37c0 11 4 20 12 27c7 7 16 11 26 11h13c68 0 109 32 123 96c6 26 11 60 15 102l52 -5c-3 -24 -4 -48 -4 -73c0 -37 10 -65 31 -84c63 85 107 139 132 164c61 61 122 91 184 91c57 0 102 -20 137 -61c31 -35 46 -74 46 -117c0 -38 -9 -72 -27 -101
c17 -8 46 -12 85 -12h20v-75h-33c-47 0 -86 13 -117 40c-49 -33 -117 -50 -205 -50c-84 0 -144 5 -180 16c-49 14 -86 42 -112 84c-28 -60 -71 -90 -128 -90h-32c-10 0 -19 4 -26 11c-8 7 -12 16 -12 26zM497 291c-73 0 -158 -69 -257 -208c35 -12 89 -18 161 -18
c75 0 133 10 175 30c37 18 56 41 56 68c0 34 -12 63 -36 88c-26 27 -59 40 -99 40z" />
    <glyph glyph-name="_307" horiz-adv-x="779" 
d="M-76 37c0 11 4 20 12 27c7 7 16 11 26 11h13c68 0 109 32 123 96c6 26 11 60 15 102l52 -5c-3 -24 -4 -48 -4 -73c0 -37 10 -65 31 -84c63 85 107 139 132 164c61 61 122 91 184 91c57 0 102 -20 137 -61c31 -35 46 -74 46 -117c0 -132 -92 -198 -277 -198
c-84 0 -144 5 -180 16c-49 14 -86 42 -112 84c-28 -60 -71 -90 -128 -90h-32c-10 0 -19 4 -26 11c-8 7 -12 16 -12 26zM497 291c-73 0 -158 -69 -257 -208c35 -12 89 -18 161 -18c75 0 133 10 175 30c37 18 56 41 56 68c0 34 -12 63 -36 88c-26 27 -59 40 -99 40z" />
    <glyph glyph-name="_308" horiz-adv-x="683" 
d="M81 16l-11 75c26 -5 51 -9 74 -12l52 71c28 46 42 114 42 205c0 53 -4 157 -11 311l61 36c5 -108 8 -203 8 -286c0 -63 -3 -115 -8 -154c67 69 133 104 197 104c57 0 102 -20 137 -61c31 -35 46 -74 46 -117c0 -132 -92 -198 -277 -198c-104 0 -207 9 -310 26zM378 65
c75 0 133 10 175 30c37 18 56 41 56 68c0 34 -12 63 -36 88c-26 27 -59 40 -99 40c-73 0 -161 -73 -265 -219c43 -5 99 -7 169 -7z" />
    <glyph glyph-name="_309" horiz-adv-x="711" 
d="M746 0h-33c-47 0 -86 13 -117 40c-49 -33 -117 -50 -205 -50c-104 0 -207 9 -310 26l-11 75c26 -5 51 -9 74 -12l52 71c28 46 42 114 42 205c0 53 -4 157 -11 311l61 36c5 -108 8 -203 8 -286c0 -63 -3 -115 -8 -154c67 69 133 104 197 104c57 0 102 -20 137 -61
c31 -35 46 -74 46 -117c0 -38 -9 -72 -27 -101c17 -8 46 -12 85 -12h20v-75zM378 65c75 0 133 10 175 30c37 18 56 41 56 68c0 34 -12 63 -36 88c-26 27 -59 40 -99 40c-73 0 -161 -73 -265 -219c43 -5 99 -7 169 -7z" />
    <glyph glyph-name="_310" horiz-adv-x="646" 
d="M-76 37c0 11 4 20 12 27c7 7 16 11 26 11h41l55 75c28 46 42 114 42 205c0 53 -4 157 -11 311l61 36c5 -108 8 -203 8 -286c0 -63 -3 -115 -8 -154c67 69 133 104 197 104c57 0 102 -20 137 -61c31 -35 46 -74 46 -117c0 -38 -10 -71 -29 -100c17 -9 46 -13 87 -13h20
v-75h-33c-49 0 -90 15 -121 44c-47 -29 -114 -44 -201 -44h-291c-10 0 -19 4 -26 11c-8 7 -12 16 -12 26zM73 75h167c154 0 231 29 231 88c0 34 -12 63 -36 88c-26 27 -59 40 -99 40c-72 0 -160 -72 -263 -216z" />
    <glyph glyph-name="_311" horiz-adv-x="618" 
d="M-76 37c0 11 4 20 12 27c7 7 16 11 26 11h41l55 75c28 46 42 114 42 205c0 53 -4 157 -11 311l61 36c5 -108 8 -203 8 -286c0 -63 -3 -115 -8 -154c67 69 133 104 197 104c57 0 102 -20 137 -61c31 -35 46 -74 46 -117c0 -125 -92 -188 -277 -188h-291
c-10 0 -19 4 -26 11c-8 7 -12 16 -12 26zM73 75h167c154 0 231 29 231 88c0 34 -12 63 -36 88c-26 27 -59 40 -99 40c-72 0 -160 -72 -263 -216z" />
    <glyph glyph-name="_312" horiz-adv-x="524" 
d="M100 -146c0 85 41 159 122 220c-68 31 -102 77 -102 137c0 59 20 109 59 150c34 35 69 53 106 53c60 0 110 -29 149 -86l-25 -40c-49 34 -90 51 -124 51c-29 0 -55 -14 -79 -41c-23 -27 -35 -52 -35 -77c0 -17 12 -35 37 -56c29 -25 63 -38 102 -38c50 0 113 14 189 41
l-9 -81c-109 -17 -193 -46 -252 -88c-55 -39 -83 -86 -83 -140c0 -49 19 -89 57 -120c45 -37 111 -55 199 -55c54 0 113 7 178 21l-16 -76c-65 -13 -121 -20 -170 -20c-99 0 -176 23 -229 69c-49 43 -74 102 -74 176z" />
    <glyph glyph-name="_313" horiz-adv-x="510" 
d="M117 -136c0 101 46 181 139 242c-77 75 -129 122 -156 141l23 90c70 35 137 52 201 52c42 0 78 -7 108 -22c43 -20 65 -52 65 -95c0 -60 -37 -120 -111 -179c31 -12 72 -18 123 -18h51v-75h-70c-72 0 -134 20 -185 60c-89 -52 -133 -116 -133 -191c0 -50 19 -92 57 -125
c45 -40 112 -60 199 -60c54 0 113 7 178 21l-16 -76c-65 -13 -121 -20 -170 -20c-99 0 -176 25 -229 74c-49 45 -74 106 -74 181zM169 283c27 -23 58 -52 91 -87c36 -38 58 -60 66 -67c38 24 68 50 91 78c18 23 27 41 27 53c0 14 -14 27 -41 38c-25 11 -55 16 -90 16
c-54 0 -102 -10 -144 -31z" />
    <glyph glyph-name="_314" horiz-adv-x="521" 
d="M-76 37c0 11 4 20 12 27c7 7 16 11 26 11h84c53 0 101 7 142 22c-84 82 -139 132 -165 150l23 90c70 35 137 52 201 52c42 0 78 -7 108 -22c43 -20 65 -52 65 -95c0 -65 -35 -125 -106 -181c28 -11 67 -16 118 -16h51v-75h-70c-66 0 -122 16 -167 47
c-61 -31 -129 -47 -203 -47h-81c-10 0 -19 4 -26 11c-8 7 -12 16 -12 26zM92 283c26 -23 57 -52 93 -89c33 -35 55 -57 68 -68c36 21 65 47 87 78c18 24 27 43 27 56c0 14 -14 27 -41 38c-25 11 -55 16 -90 16c-54 0 -102 -10 -144 -31z" />
    <glyph glyph-name="_315" horiz-adv-x="504" 
d="M197 339c-29 0 -55 -14 -79 -41c-23 -27 -35 -52 -35 -77c0 -17 12 -35 37 -56c29 -25 63 -38 102 -38c47 0 113 19 198 57l-7 -73c-145 -74 -291 -111 -439 -111h-12c-10 0 -19 4 -26 11c-8 7 -12 16 -12 26c0 11 4 20 12 27c7 7 16 11 26 11c63 0 114 3 155 8
c-57 33 -85 75 -85 128c0 59 20 109 59 150c34 35 69 53 106 53c60 0 110 -29 149 -86l-25 -40c-49 34 -90 51 -124 51z" />
    <glyph glyph-name="_316" horiz-adv-x="831" 
d="M387 65c157 0 257 6 300 19c49 15 75 49 80 100c-37 -8 -71 -12 -103 -12c-94 0 -141 47 -141 140c0 47 11 88 34 125c28 44 66 66 114 66s87 -26 118 -79c28 -49 42 -108 42 -177c0 -114 -36 -187 -109 -220c-53 -25 -165 -37 -335 -37c-116 0 -196 23 -241 70
c-31 31 -46 78 -46 140c0 37 5 83 14 139l52 -7c-7 -43 -10 -80 -10 -111c0 -54 15 -92 46 -115c35 -27 97 -41 185 -41zM664 247c40 0 75 3 104 10c-4 45 -15 84 -33 117c-21 36 -46 54 -75 54c-23 0 -42 -11 -57 -33c-15 -21 -22 -45 -22 -73c0 -50 28 -75 83 -75z" />
    <glyph glyph-name="_317" horiz-adv-x="822" 
d="M387 65c76 0 141 8 194 23c-41 39 -61 82 -61 130c0 47 16 89 48 128s67 59 104 59c39 0 71 -14 96 -42c28 -32 42 -77 42 -135c0 -51 -30 -98 -90 -142c27 -7 57 -11 89 -11h63v-75h-53c-64 0 -122 14 -174 42c-74 -35 -160 -52 -258 -52c-116 0 -196 23 -241 70
c-31 31 -46 78 -46 140c0 37 5 83 14 139l52 -7c-7 -43 -10 -80 -10 -111c0 -54 15 -92 46 -115c35 -27 97 -41 185 -41zM753 204c-1 38 -9 69 -26 92c-15 23 -35 34 -61 34c-23 0 -43 -13 -62 -40c-17 -25 -26 -47 -26 -67c0 -39 25 -75 74 -107c39 21 72 50 101 88z" />
    <glyph glyph-name="_318" horiz-adv-x="420" 
d="M-76 37c0 11 4 20 12 27c7 7 16 11 26 11h17c43 0 80 4 111 13c-40 38 -60 81 -60 130c0 47 16 89 48 128s67 59 104 59c39 0 71 -14 96 -42c28 -32 42 -77 42 -135c0 -48 -30 -95 -91 -142c27 -7 57 -11 90 -11h63v-75h-53c-64 0 -122 14 -173 41
c-59 -27 -115 -41 -170 -41h-24c-10 0 -19 4 -26 11c-8 7 -12 16 -12 26zM88 223c0 -39 24 -75 73 -107c39 21 73 51 102 88c-1 38 -9 69 -26 92c-15 23 -35 34 -61 34c-23 0 -43 -13 -62 -40c-17 -25 -26 -47 -26 -67z" />
    <glyph glyph-name="_319" horiz-adv-x="428" 
d="M-76 37c0 11 4 20 12 27c7 7 16 11 26 11h3c131 0 213 5 246 15c39 12 61 43 65 94c-35 -8 -69 -12 -103 -12c-94 0 -141 47 -141 140c0 47 11 88 34 125c28 44 66 66 114 66s87 -26 118 -79c28 -49 42 -108 42 -177c0 -112 -33 -184 -98 -215c-44 -21 -137 -32 -280 -32
c-10 0 -19 4 -26 11c-8 7 -12 16 -12 26zM173 247c40 0 75 3 104 10c-4 45 -15 84 -33 117c-21 36 -46 54 -75 54c-23 0 -42 -11 -57 -33c-15 -21 -22 -45 -22 -73c0 -50 28 -75 83 -75z" />
    <glyph glyph-name="_320" horiz-adv-x="677" 
d="M618 -11c0 10 0 17 -1 20c-41 -13 -78 -19 -113 -19c-99 0 -148 47 -148 141c0 51 11 94 34 129c27 42 67 63 118 63c56 0 99 -32 129 -96c27 -57 40 -135 40 -234c0 -61 -31 -116 -93 -163c-63 -49 -137 -73 -222 -73c-89 0 -156 26 -201 78c-41 45 -61 107 -61 184
c0 62 10 124 31 186l51 -13c-16 -55 -24 -106 -24 -155c0 -137 71 -205 213 -205c64 0 122 18 174 54c49 34 73 68 73 103zM504 65c35 0 71 5 106 14c-17 113 -54 169 -113 169c-27 0 -47 -10 -62 -31c-15 -19 -22 -45 -22 -76c0 -51 30 -76 91 -76z" />
    <glyph glyph-name="_321" horiz-adv-x="696" 
d="M356 131c0 51 11 94 34 129c27 42 67 63 118 63c95 0 150 -83 165 -248h73v-75h-69v-7c0 -61 -31 -116 -93 -163c-63 -49 -137 -73 -222 -73c-89 0 -156 26 -201 78c-41 45 -61 107 -61 184c0 62 10 124 31 186l51 -13c-16 -55 -24 -106 -24 -155
c0 -137 71 -205 213 -205c64 0 122 18 174 54c49 34 73 68 73 103v11h-124c-92 0 -138 44 -138 131zM492 75h119c-17 115 -55 173 -114 173c-27 0 -47 -10 -62 -31c-15 -19 -22 -45 -22 -76c0 -44 26 -66 79 -66z" />
    <glyph glyph-name="_322" horiz-adv-x="802" 
d="M387 -10c-116 0 -196 23 -241 70c-31 31 -46 78 -46 140c0 37 5 83 14 139l52 -7c-7 -43 -10 -80 -10 -111c0 -54 15 -92 46 -115c35 -27 97 -41 185 -41c228 0 342 32 342 97c0 86 -83 187 -249 304l15 69c86 60 193 108 322 144l-11 -77c-95 -26 -180 -61 -255 -105
c158 -131 237 -237 237 -320c0 -64 -30 -111 -91 -141c-63 -31 -167 -46 -310 -46z" />
    <glyph glyph-name="_323" horiz-adv-x="933" 
d="M983 0h-25c-73 0 -134 37 -183 111c-37 -81 -166 -121 -388 -121c-116 0 -196 23 -241 70c-31 31 -46 78 -46 140c0 37 5 83 14 139l52 -7c-7 -43 -10 -80 -10 -111c0 -54 15 -92 46 -115c35 -27 97 -41 185 -41c228 0 342 32 342 97c0 34 -18 75 -55 124
c-46 61 -111 121 -194 180l15 69c86 60 193 108 322 144l-11 -77c-95 -26 -180 -61 -255 -105c92 -75 173 -174 244 -297c27 -46 48 -76 65 -91c25 -23 57 -34 98 -34h25v-75z" />
    <glyph glyph-name="_324" horiz-adv-x="512" 
d="M-76 37c0 11 4 20 12 27c7 7 16 11 26 11h122c39 0 72 8 97 23c26 16 39 37 39 64c0 34 -18 75 -55 124c-46 61 -111 121 -194 180l15 69c86 60 193 108 322 144l-11 -77c-95 -26 -180 -61 -255 -105c92 -75 173 -174 244 -297c27 -46 48 -76 65 -91
c25 -23 57 -34 98 -34h25v-75h-25c-73 0 -133 36 -182 109c-27 -73 -97 -109 -212 -109h-93c-10 0 -19 4 -26 11c-8 7 -12 16 -12 26z" />
    <glyph glyph-name="_325" horiz-adv-x="381" 
d="M-76 37c0 11 4 20 12 27c7 7 16 11 26 11h122c39 0 72 8 97 23c26 16 39 37 39 64c0 86 -83 187 -249 304l15 69c86 60 193 108 322 144l-11 -77c-95 -26 -180 -61 -255 -105c158 -131 237 -237 237 -320c0 -63 -23 -109 -70 -139c-39 -25 -91 -38 -154 -38h-93
c-10 0 -19 4 -26 11c-8 7 -12 16 -12 26z" />
    <glyph glyph-name="_326" horiz-adv-x="788" 
d="M788 177c0 -64 -30 -111 -91 -141c-63 -31 -167 -46 -310 -46c-116 0 -196 23 -241 70c-31 31 -46 78 -46 140c0 37 5 83 14 139l52 -7c-7 -43 -10 -80 -10 -111c0 -54 15 -92 46 -115c35 -27 97 -41 185 -41c228 0 342 32 342 97c0 177 -6 345 -19 504l61 36
c11 -236 17 -411 17 -525zM399 394c0 -7 22 -15 65 -24s65 -23 65 -41c0 -29 -15 -54 -45 -75c-31 -21 -69 -32 -114 -32l-25 43c69 0 119 17 148 50c6 -3 -20 3 -79 18c-32 8 -48 26 -48 53c0 25 9 49 28 72s38 34 59 34c33 0 58 -15 75 -45l-21 -24c-17 16 -34 24 -53 24
c-13 0 -26 -7 -39 -21c-11 -11 -16 -22 -16 -32z" />
    <glyph glyph-name="_327" horiz-adv-x="853" 
d="M903 75v-75c-65 0 -113 28 -144 85c-49 -63 -173 -95 -372 -95c-116 0 -196 23 -241 70c-31 31 -46 78 -46 140c0 37 5 83 14 139l52 -7c-7 -43 -10 -80 -10 -111c0 -54 15 -92 46 -115c35 -27 97 -41 185 -41c228 0 342 32 342 97c0 177 -6 345 -19 504l61 36
c2 -40 5 -120 9 -240l8 -221c3 -63 13 -106 31 -131c17 -23 45 -35 84 -35zM399 394c0 -7 22 -15 65 -24s65 -23 65 -41c0 -29 -15 -54 -45 -75c-31 -21 -69 -32 -114 -32l-25 43c69 0 119 17 148 50c6 -3 -20 3 -79 18c-32 8 -48 26 -48 53c0 25 9 49 28 72s38 34 59 34
c33 0 58 -15 75 -45l-21 -24c-17 16 -34 24 -53 24c-13 0 -26 -7 -39 -21c-11 -11 -16 -22 -16 -32z" />
    <glyph glyph-name="_328" horiz-adv-x="592" 
d="M592 18c0 -63 -26 -116 -79 -159c-51 -41 -108 -62 -173 -62c-78 0 -139 26 -182 78c-39 47 -58 108 -58 184c0 62 10 124 31 186l51 -13c-16 -55 -24 -106 -24 -155c0 -62 14 -110 43 -145c32 -39 79 -59 141 -59c54 0 100 15 138 45c35 27 53 58 53 91
c0 209 -8 428 -24 657l61 36c15 -289 22 -517 22 -684z" />
    <glyph glyph-name="_329" horiz-adv-x="651" 
d="M592 48v-30c0 -63 -26 -116 -79 -159c-51 -41 -108 -62 -173 -62c-78 0 -139 26 -182 78c-39 47 -58 108 -58 184c0 62 10 124 31 186l50 -13c-16 -55 -24 -106 -24 -155c0 -61 15 -110 44 -145c32 -39 79 -59 141 -59c54 0 100 15 138 45c35 27 53 58 53 91
c0 209 -8 428 -24 657l61 36c7 -138 12 -288 16 -451c3 -63 14 -108 32 -134c18 -28 46 -42 83 -42v-75c-45 0 -82 16 -109 48z" />
    <glyph glyph-name="_330" horiz-adv-x="329" 
d="M-76 37c0 11 4 20 12 27c7 7 16 11 26 11h27c85 0 128 30 128 89c0 176 -6 343 -19 502l61 36c2 -40 5 -120 9 -240l8 -221c3 -63 13 -106 31 -131c17 -23 45 -35 84 -35v-75c-64 0 -111 27 -142 82c-33 -55 -88 -82 -167 -82h-20c-10 0 -19 4 -26 11c-8 7 -12 16 -12 26
z" />
    <glyph glyph-name="_331" horiz-adv-x="264" 
d="M98 666l61 36c11 -236 17 -406 17 -510c0 -58 -17 -104 -50 -139c-35 -35 -83 -53 -144 -53h-20c-10 0 -19 4 -26 11c-8 7 -12 16 -12 26c0 11 4 20 12 27c7 7 16 11 26 11h27c85 0 128 30 128 89c0 176 -6 343 -19 502z" />
    <glyph glyph-name="_332" horiz-adv-x="519" 
d="M100 39c0 57 28 92 83 104c6 67 21 122 46 163c28 50 65 75 111 75c89 0 148 -84 179 -252l-33 -65c-82 7 -156 11 -221 11c-47 0 -77 -2 -90 -7s-20 -15 -20 -30c0 -12 15 -110 44 -294l-50 -38c-33 193 -49 304 -49 333zM277 150c47 0 107 -3 181 -9
c-26 110 -67 165 -123 165c-55 0 -88 -52 -98 -157c5 1 19 1 40 1z" />
    <glyph glyph-name="_333" horiz-adv-x="610" 
d="M660 75v-75h-19c-53 0 -92 20 -117 59c-21 -46 -58 -69 -113 -69c-51 0 -93 16 -127 48c-39 37 -60 88 -65 154c-44 -32 -66 -59 -66 -82c0 -28 17 -151 52 -369l-50 -35c-37 215 -55 349 -55 401c0 55 35 105 105 152c63 43 125 64 185 64c38 0 67 -10 88 -31
c19 -19 35 -51 48 -94c13 -44 28 -74 44 -90c21 -22 51 -33 90 -33zM386 253c-37 0 -76 -10 -116 -30c5 -105 54 -158 145 -158c56 0 74 35 55 104c-15 56 -43 84 -84 84z" />
    <glyph glyph-name="_334" horiz-adv-x="566" 
d="M393 61c-16 -47 -52 -71 -109 -71c-66 0 -129 24 -189 72c-35 -41 -75 -62 -118 -62h-15c-10 0 -19 4 -26 11c-8 7 -12 16 -12 26c0 11 4 20 12 27c7 7 16 11 26 11h15c49 0 97 41 143 122c21 39 40 66 56 83c24 25 52 38 84 38c63 0 110 -50 141 -150
c20 -62 62 -93 127 -93v-75h-14c-55 0 -95 20 -121 61zM254 243c-21 0 -43 -13 -64 -39c-11 -16 -30 -44 -55 -85c43 -36 97 -54 162 -54c35 0 52 14 52 43s-8 57 -24 85c-19 33 -43 50 -71 50z" />
    <glyph glyph-name="_335" horiz-adv-x="495" 
d="M-76 37c0 11 4 20 12 27c7 7 16 11 26 11h15c49 0 97 41 143 122c21 39 40 66 56 83c24 25 52 38 84 38c40 0 74 -20 103 -60c29 -39 44 -84 44 -133c0 -39 -10 -70 -29 -95c-22 -27 -53 -40 -94 -40c-66 0 -129 24 -189 72c-35 -41 -75 -62 -118 -62h-15
c-10 0 -19 4 -26 11c-8 7 -12 16 -12 26zM254 243c-21 0 -43 -13 -64 -39c-11 -16 -30 -44 -55 -85c43 -36 97 -54 162 -54c35 0 52 14 52 43c0 33 -8 62 -24 89c-19 31 -42 46 -71 46z" />
    <glyph glyph-name="_336" horiz-adv-x="677" 
d="M561 261l59 39c38 -141 57 -243 57 -307c0 -61 -31 -116 -93 -163c-63 -49 -137 -73 -222 -73c-89 0 -156 26 -201 78c-41 45 -61 107 -61 184c0 62 10 124 31 186l51 -13c-16 -55 -24 -106 -24 -155c0 -137 71 -205 213 -205c64 0 122 18 174 54c49 34 73 68 73 103
c0 59 -19 149 -57 272z" />
    <glyph glyph-name="_337" horiz-adv-x="725" 
d="M775 0h-17c-37 0 -64 7 -81 21v-28c0 -61 -31 -116 -93 -163c-63 -49 -137 -73 -222 -73c-89 0 -156 26 -201 78c-41 45 -61 107 -61 184c0 62 10 124 31 186l51 -13c-16 -55 -24 -106 -24 -155c0 -137 71 -205 213 -205c64 0 122 18 174 54c49 34 73 68 73 103
c0 53 -20 143 -60 272l59 39l34 -129c11 -38 23 -63 37 -76c15 -13 39 -20 72 -20h15v-75z" />
    <glyph glyph-name="_338" horiz-adv-x="429" 
d="M78 131c0 51 11 94 34 129c27 42 67 63 118 63s92 -27 121 -80c29 -51 43 -120 43 -205c0 -83 -24 -150 -71 -201c-43 -47 -95 -70 -158 -70c-49 0 -94 20 -135 61l29 41c31 -18 65 -27 101 -27c57 0 103 22 137 65c25 33 38 64 38 93v7c-45 -11 -82 -17 -109 -17
c-99 0 -148 47 -148 141zM226 65c35 0 70 4 104 13c-14 113 -51 170 -111 170c-27 0 -47 -10 -62 -31c-15 -19 -22 -45 -22 -76c0 -51 30 -76 91 -76z" />
    <glyph glyph-name="_339" horiz-adv-x="453" 
d="M160 -158c57 0 103 22 137 65c25 33 38 64 38 93h-119c-92 0 -138 44 -138 131c0 51 11 94 34 129c27 42 67 63 118 63c47 0 85 -23 114 -69c28 -45 44 -104 49 -179h75v-75h-76c-7 -71 -33 -129 -79 -173c-42 -40 -91 -60 -148 -60c-49 0 -94 20 -135 61l29 41
c31 -18 65 -27 101 -27zM214 75h116c-13 115 -50 173 -111 173c-27 0 -47 -10 -62 -31c-15 -19 -22 -45 -22 -76c0 -44 26 -66 79 -66z" />
    <glyph glyph-name="_340" horiz-adv-x="615" 
d="M142 -20l-42 67c67 9 121 23 161 42c-57 39 -85 81 -85 128c0 67 32 125 97 176l-36 24l40 64l127 -91c45 -31 81 -58 108 -82c69 -59 103 -118 103 -177c0 -39 -8 -73 -24 -100c-17 -27 -38 -41 -61 -41c-56 0 -125 21 -206 63c-53 -36 -113 -60 -182 -73zM390 221
c2 7 3 16 3 25c0 25 -6 46 -17 63c-13 21 -30 31 -53 31c-21 0 -42 -11 -61 -33c-19 -23 -29 -46 -29 -71c0 -35 31 -70 94 -105c24 21 45 51 63 90zM447 279c0 -64 -22 -122 -66 -174c60 -27 108 -40 144 -40c22 0 33 17 33 50c0 53 -37 108 -111 164z" />
    <glyph glyph-name="_341" horiz-adv-x="446" 
d="M206 371l-31 23l40 64c147 -117 221 -221 221 -312c0 -54 -19 -94 -58 -121c-33 -23 -76 -35 -129 -35c-42 0 -77 12 -104 36c-30 27 -45 65 -45 114c0 67 35 144 106 231zM379 131c0 62 -43 130 -129 204c-61 -73 -92 -134 -92 -184c0 -57 31 -86 94 -86
c40 0 72 7 95 20c21 12 32 27 32 46z" />
    <glyph glyph-name="_342" horiz-adv-x="484" 
d="M534 0h-22c-76 0 -129 29 -159 87l-18 -53c-23 -3 -43 -4 -58 -4c-118 0 -177 40 -177 121c0 80 71 157 214 231l-5 73l59 30l19 -295c5 -77 45 -115 120 -115h27v-75zM265 105c28 0 54 1 79 3c-9 24 -15 52 -17 84l-8 115c-51 -23 -92 -50 -124 -82
c-27 -27 -40 -49 -40 -66c0 -13 7 -24 21 -34c21 -13 50 -20 89 -20z" />
    <glyph glyph-name="_343" horiz-adv-x="498" 
d="M-76 37c0 11 4 20 12 27c7 7 16 11 26 11h15c37 0 67 2 91 7c-1 3 -1 12 -1 26c0 88 17 164 51 229c31 59 63 88 98 88c26 0 54 -22 85 -66c33 -49 50 -98 50 -149c0 -75 -72 -136 -216 -182c20 -60 56 -113 108 -158c-1 5 -1 17 -1 34c0 50 13 90 38 121
c28 33 69 50 124 50h56v-75h-67c-33 0 -58 -11 -77 -34c-16 -20 -24 -45 -24 -76s8 -58 25 -83l-42 -52c-107 78 -173 164 -197 258c-35 -9 -70 -13 -104 -13h-12c-10 0 -19 4 -26 11c-8 7 -12 16 -12 26zM122 110v-17c49 13 90 31 125 56c30 22 45 41 45 56
c0 21 -8 47 -23 76c-18 31 -40 54 -65 69c-55 -46 -82 -126 -82 -240z" />
    <glyph glyph-name="_344" horiz-adv-x="564" 
d="M-76 37c0 11 4 20 12 27c7 7 16 11 26 11h37c47 0 86 6 118 18c-53 37 -80 79 -80 124c0 67 32 125 97 176l-36 24l40 64l127 -91c45 -31 81 -58 108 -82c69 -59 103 -118 103 -177c0 -39 -8 -73 -24 -100c-17 -27 -38 -41 -61 -41c-55 0 -125 21 -208 64
c-55 -36 -116 -54 -183 -54h-38c-10 0 -19 4 -26 11c-8 7 -12 16 -12 26zM94 236c0 -34 30 -68 90 -102c25 21 47 50 67 87c2 7 3 16 3 25c0 25 -6 46 -17 63c-13 21 -30 31 -53 31c-21 0 -42 -11 -61 -33c-19 -23 -29 -46 -29 -71zM308 279c0 -65 -22 -123 -66 -174
c60 -27 108 -40 144 -40c22 0 33 17 33 50c0 53 -37 108 -111 164z" />
    <glyph glyph-name="_345" horiz-adv-x="677" 
d="M371 -168c59 0 114 16 164 48c47 29 75 60 85 95c2 -1 -50 9 -156 32c-71 15 -106 43 -106 86c0 53 20 107 59 160c41 54 84 81 129 81s89 -29 131 -86l-38 -36c-33 31 -64 47 -92 47c-29 0 -59 -17 -89 -52c-29 -33 -44 -65 -44 -94c0 -14 14 -25 41 -33
c19 -5 49 -10 91 -16c87 -14 131 -38 131 -71c0 -61 -31 -116 -93 -163c-63 -49 -137 -73 -222 -73c-89 0 -156 26 -201 78c-41 45 -61 107 -61 184c0 62 10 124 31 186l51 -13c-16 -55 -24 -106 -24 -155c0 -137 71 -205 213 -205z" />
    <glyph glyph-name="_346" horiz-adv-x="589" 
d="M371 -168c59 0 114 16 165 48c46 29 74 61 84 96c-33 23 -108 34 -226 34h-24l17 65h252v-35c25 -12 38 -28 38 -47c0 -61 -31 -116 -93 -163c-63 -49 -137 -73 -222 -73c-89 0 -156 26 -201 78c-41 45 -61 107 -61 184c0 62 10 124 31 186l51 -13
c-16 -55 -24 -106 -24 -155c0 -137 71 -205 213 -205z" />
    <glyph glyph-name="_347" horiz-adv-x="397" 
d="M107 -34l-5 53l100 63c-61 23 -92 58 -92 103c0 47 14 85 42 115c25 27 54 41 87 41c47 0 86 -21 117 -64l-25 -36c-29 26 -59 39 -91 39c-19 0 -40 -9 -61 -27c-19 -17 -28 -32 -28 -46s9 -29 26 -45c23 -20 52 -30 86 -30c29 0 73 16 132 48l3 -61
c-105 -51 -202 -102 -291 -153z" />
    <glyph glyph-name="_348" horiz-adv-x="462" 
d="M448 540c0 -102 -19 -185 -58 -250c49 -67 73 -122 73 -163c0 -91 -55 -137 -165 -137c-79 0 -141 4 -187 12l11 86c95 82 160 149 197 200c-59 74 -131 148 -217 221l27 66c101 -99 175 -177 222 -234c25 49 38 97 38 144c0 81 -2 141 -6 180l61 37c3 -71 4 -125 4 -162
zM354 239c-35 -45 -92 -101 -171 -169c41 -3 79 -5 113 -5c65 0 104 16 117 48c0 27 -20 69 -59 126z" />
    <glyph glyph-name="_349" horiz-adv-x="532" 
d="M160 562l54 40c63 -214 98 -385 107 -514c77 35 116 83 116 144c0 109 -6 254 -18 434l61 36c2 -40 5 -120 9 -240l8 -221c3 -63 13 -106 31 -131c17 -23 45 -35 84 -35v-75c-79 0 -131 39 -157 117c-40 -69 -120 -115 -241 -137l-42 67c42 7 76 15 101 22
c-13 155 -50 320 -113 493z" />
    <glyph glyph-name="period" unicode="." horiz-adv-x="190" 
d="M100 45c0 13 4 23 13 32s19 13 32 13s23 -4 32 -13s13 -19 13 -32s-4 -23 -13 -32s-19 -13 -32 -13s-23 4 -32 13s-13 19 -13 32z" />
    <glyph glyph-name="uni060C" unicode="&#x60c;" horiz-adv-x="190" 
d="M171 177l10 -28c-30 -17 -47 -38 -51 -62c4 2 9 3 15 3c13 0 23 -4 32 -13s13 -19 13 -32s-4 -23 -13 -32s-19 -13 -32 -13c-30 0 -45 18 -45 55c0 57 24 98 71 122z" />
    <glyph glyph-name="colon" unicode=":" horiz-adv-x="190" 
d="M100 45c0 13 4 23 13 32s19 13 32 13s23 -4 32 -13s13 -19 13 -32s-4 -23 -13 -32s-19 -13 -32 -13s-23 4 -32 13s-13 19 -13 32zM100 265c0 13 4 23 13 32s19 13 32 13s23 -4 32 -13s13 -19 13 -32s-4 -23 -13 -32s-19 -13 -32 -13s-23 4 -32 13s-13 19 -13 32z" />
    <glyph glyph-name="uni061B" unicode="&#x61b;" horiz-adv-x="190" 
d="M171 397l10 -28c-30 -17 -47 -38 -51 -62c4 2 9 3 15 3c13 0 23 -4 32 -13s13 -19 13 -32s-4 -23 -13 -32s-19 -13 -32 -13c-30 0 -45 18 -45 55c0 57 24 98 71 122zM100 45c0 13 4 23 13 32s19 13 32 13s23 -4 32 -13s13 -19 13 -32s-4 -23 -13 -32s-19 -13 -32 -13
s-23 4 -32 13s-13 19 -13 32z" />
    <glyph glyph-name="uni061F" unicode="&#x61f;" horiz-adv-x="383" 
d="M251 177v108c0 20 -25 47 -75 82c-51 35 -76 76 -76 125c0 41 13 75 40 102c27 28 61 42 102 42s75 -14 102 -43c26 -29 39 -66 39 -112l-49 -15c0 29 -10 53 -29 74c-19 19 -41 28 -68 28c-25 0 -46 -7 -61 -22c-15 -14 -22 -31 -22 -50c0 -29 23 -58 70 -87
c32 -19 53 -36 62 -50c10 -15 15 -35 15 -62v-110zM230 45c0 13 4 23 13 32s19 13 32 13s23 -4 32 -13s13 -19 13 -32s-4 -23 -13 -32s-19 -13 -32 -13s-23 4 -32 13s-13 19 -13 32z" />
    <glyph glyph-name="exclam" unicode="!" horiz-adv-x="284" 
d="M263 197l7 503h-68l7 -503h54zM237 -9c6 0 12 1 18 4c5 2 10 5 15 10c4 4 7 9 10 15c3 5 4 11 4 18s-1 13 -4 19c-3 5 -6 10 -10 15c-5 4 -10 7 -15 9c-6 2 -12 3 -18 3c-13 0 -24 -4 -33 -13s-14 -20 -14 -33s5 -24 14 -33s20 -14 33 -14z" />
    <glyph glyph-name="uni066D" unicode="&#x66d;" horiz-adv-x="489" 
d="M260 208l-95 135l47 34l80 -156l77 156l51 -34l-96 -136l165 10v-54l-165 7l96 -136l-51 -34l-77 156l-80 -156l-47 33l95 137l-160 -7v54z" />
    <glyph glyph-name="uni066A" unicode="&#x66a;" horiz-adv-x="494" 
d="M446 680l48 -26l-346 -718l-48 25zM390 50c0 14 5 26 15 36c9 9 21 14 35 14c13 0 25 -5 36 -14c9 -11 14 -23 14 -36c0 -14 -5 -26 -14 -35c-10 -10 -22 -15 -36 -15s-26 5 -35 15c-10 9 -15 21 -15 35zM105 571c0 14 5 26 15 36c9 9 21 14 35 14c13 0 25 -5 36 -14
c9 -11 14 -23 14 -36c0 -14 -5 -26 -14 -35c-10 -10 -22 -15 -36 -15s-26 5 -35 15c-10 9 -15 21 -15 35z" />
    <glyph glyph-name="uni0609" unicode="&#x609;" horiz-adv-x="700" 
d="M446 680l48 -26l-346 -718l-48 25zM390 50c0 14 5 26 15 36c9 9 21 14 35 14c13 0 25 -5 36 -14c9 -11 14 -23 14 -36c0 -14 -5 -26 -14 -35c-10 -10 -22 -15 -36 -15s-26 5 -35 15c-10 9 -15 21 -15 35zM105 571c0 14 5 26 15 36c9 9 21 14 35 14c13 0 25 -5 36 -14
c9 -11 14 -23 14 -36c0 -14 -5 -26 -14 -35c-10 -10 -22 -15 -36 -15s-26 5 -35 15c-10 9 -15 21 -15 35zM600 50c0 14 5 26 15 36c9 9 21 14 35 14c13 0 25 -5 36 -14c9 -11 14 -23 14 -36c0 -14 -5 -26 -14 -35c-10 -10 -22 -15 -36 -15s-26 5 -35 15c-10 9 -15 21 -15 35
z" />
    <glyph glyph-name="uni060A" unicode="&#x60a;" horiz-adv-x="911" 
d="M446 680l48 -26l-346 -718l-48 25zM390 50c0 14 5 26 15 36c9 9 21 14 35 14c13 0 25 -5 36 -14c9 -11 14 -23 14 -36c0 -14 -5 -26 -14 -35c-10 -10 -22 -15 -36 -15s-26 5 -35 15c-10 9 -15 21 -15 35zM105 571c0 14 5 26 15 36c9 9 21 14 35 14c13 0 25 -5 36 -14
c9 -11 14 -23 14 -36c0 -14 -5 -26 -14 -35c-10 -10 -22 -15 -36 -15s-26 5 -35 15c-10 9 -15 21 -15 35zM600 50c0 14 5 26 15 36c9 9 21 14 35 14c13 0 25 -5 36 -14c9 -11 14 -23 14 -36c0 -14 -5 -26 -14 -35c-10 -10 -22 -15 -36 -15s-26 5 -35 15c-10 9 -15 21 -15 35
zM811 50c0 14 5 26 15 36c9 9 21 14 35 14c13 0 25 -5 36 -14c9 -11 14 -23 14 -36c0 -14 -5 -26 -14 -35c-10 -10 -22 -15 -36 -15s-26 5 -35 15c-10 9 -15 21 -15 35z" />
    <glyph glyph-name="uni060D" unicode="&#x60d;" horiz-adv-x="335" 
d="M148 -194l-48 25l187 389l48 -25z" />
    <glyph glyph-name="uni066C" unicode="&#x66c;" horiz-adv-x="190" 
d="M119 -47l-10 28c30 17 47 38 51 62c-4 -2 -9 -3 -15 -3c-13 0 -23 4 -32 13s-13 19 -13 32s4 23 13 32s19 13 32 13c30 0 45 -18 45 -55c0 -57 -24 -98 -71 -122z" />
    <glyph glyph-name="_362" horiz-adv-x="190" 
d="M119 473l-10 28c30 17 47 38 51 62c-4 -2 -9 -3 -15 -3c-13 0 -23 4 -32 13s-13 19 -13 32s4 23 13 32s19 13 32 13c30 0 45 -18 45 -55c0 -57 -24 -98 -71 -122z" />
    <glyph glyph-name="uni066B" unicode="&#x66b;" horiz-adv-x="335" 
d="M148 -194l-48 25l187 389l48 -25z" />
    <glyph glyph-name="quotesingle" unicode="'" horiz-adv-x="149" 
d="M140 481h-31c0 31 -1 56 -4 74c-3 21 -5 43 -5 65h49c0 -27 -1 -48 -4 -65c-3 -22 -5 -47 -5 -74z" />
    <glyph glyph-name="quotedbl" unicode="&#x22;" horiz-adv-x="363" 
d="M364 481v219h-56v-219h56zM222 481v219h-56v-219h56z" />
    <glyph glyph-name="uniFD3E" unicode="&#xfd3e;" horiz-adv-x="334" 
d="M334 -247l-42 -43c-128 139 -192 285 -192 437c0 153 64 298 192 437l42 -43c-116 -120 -174 -250 -174 -391c0 -145 58 -277 174 -397z" />
    <glyph glyph-name="uniFD3F" unicode="&#xfd3f;" horiz-adv-x="334" 
d="M142 -290l-42 43c116 120 174 252 174 397c0 141 -58 271 -174 391l42 43c128 -139 192 -284 192 -437c0 -152 -64 -298 -192 -437z" />
    <glyph glyph-name="parenleft" unicode="(" horiz-adv-x="292" 
d="M291 -159h60c-101 121 -152 264 -152 427c0 168 51 312 153 432h-60c-100 -116 -150 -260 -150 -433c0 -169 50 -311 149 -426z" />
    <glyph glyph-name="parenright" unicode=")" horiz-adv-x="292" 
d="M23 -159h60c99 115 149 257 149 426c0 173 -50 317 -150 433h-60c102 -120 153 -264 153 -432c0 -163 -51 -306 -152 -427z" />
    <glyph glyph-name="guillemotleft" unicode="&#xab;" horiz-adv-x="446" 
d="M411 474l35 -30c-73 -83 -110 -160 -110 -232c0 -74 37 -152 110 -235l-35 -30c-83 89 -125 177 -125 263c0 87 42 175 125 264zM286 -59l-37 -35c-99 109 -149 211 -149 304c0 94 50 196 149 305l37 -35c-89 -95 -133 -185 -133 -268c0 -85 44 -176 133 -271z" />
    <glyph glyph-name="guillemotright" unicode="&#xbb;" horiz-adv-x="446" 
d="M135 -53l-35 30c73 83 110 161 110 235c0 72 -37 149 -110 232l35 30c83 -89 125 -177 125 -264c0 -86 -42 -174 -125 -263zM260 480l37 35c99 -109 149 -211 149 -305c0 -93 -50 -195 -149 -304l-37 35c89 95 133 186 133 271c0 83 -44 173 -133 268z" />
    <glyph glyph-name="guilsinglleft" unicode="&#x2039;" horiz-adv-x="286" 
d="M286 -59l-37 -35c-99 109 -149 211 -149 304c0 94 50 196 149 305l37 -35c-89 -95 -133 -185 -133 -268c0 -85 44 -176 133 -271z" />
    <glyph glyph-name="guilsinglright" unicode="&#x203a;" horiz-adv-x="286" 
d="M100 480l37 35c99 -109 149 -211 149 -305c0 -93 -50 -195 -149 -304l-37 35c89 95 133 186 133 271c0 83 -44 173 -133 268z" />
    <glyph glyph-name="bracketleft" unicode="[" horiz-adv-x="279" 
d="M279 681v-61h-123v-849h123v-61h-137c-28 0 -42 14 -42 42v888c0 27 14 41 42 41h137z" />
    <glyph glyph-name="bracketright" unicode="]" horiz-adv-x="279" 
d="M100 -289v61h123v849h-123v61h137c28 0 42 -14 42 -42v-888c0 -27 -14 -41 -42 -41h-137z" />
    <glyph glyph-name="slash" unicode="/" horiz-adv-x="354" 
d="M305 680l49 -16l-206 -793l-48 13z" />
    <glyph glyph-name="backslash" unicode="\" horiz-adv-x="354" 
d="M100 664l49 16l205 -796l-48 -13z" />
    <glyph glyph-name="ellipsis" unicode="&#x2026;" horiz-adv-x="582" 
d="M100 45c0 13 4 23 13 32s19 13 32 13s23 -4 32 -13s13 -19 13 -32s-4 -23 -13 -32s-19 -13 -32 -13s-23 4 -32 13s-13 19 -13 32zM296 45c0 13 4 23 13 32s19 13 32 13s23 -4 32 -13s13 -19 13 -32s-4 -23 -13 -32s-19 -13 -32 -13s-23 4 -32 13s-13 19 -13 32zM492 45
c0 13 4 23 13 32s19 13 32 13s23 -4 32 -13s13 -19 13 -32s-4 -23 -13 -32s-19 -13 -32 -13s-23 4 -32 13s-13 19 -13 32z" />
    <glyph glyph-name="quoteleft" unicode="&#x2018;" horiz-adv-x="190" 
d="M171 621l10 -28c-30 -17 -47 -38 -51 -62c4 2 9 3 15 3c13 0 23 -4 32 -13s13 -19 13 -32s-4 -23 -13 -32s-19 -13 -32 -13c-30 0 -45 18 -45 55c0 57 24 98 71 122z" />
    <glyph glyph-name="quoteright" unicode="&#x2019;" horiz-adv-x="190" 
d="M119 473l-10 28c30 17 47 38 51 62c-4 -2 -9 -3 -15 -3c-13 0 -23 4 -32 13s-13 19 -13 32s4 23 13 32s19 13 32 13c30 0 45 -18 45 -55c0 -57 -24 -98 -71 -122z" />
    <glyph glyph-name="quotedblleft" unicode="&#x201c;" horiz-adv-x="320" 
d="M171 621l10 -28c-30 -17 -47 -38 -51 -62c4 2 9 3 15 3c13 0 23 -4 32 -13s13 -19 13 -32s-4 -23 -13 -32s-19 -13 -32 -13c-30 0 -45 18 -45 55c0 57 24 98 71 122zM301 621l10 -28c-30 -17 -47 -38 -51 -62c4 2 9 3 15 3c13 0 23 -4 32 -13s13 -19 13 -32
s-4 -23 -13 -32s-19 -13 -32 -13c-30 0 -45 18 -45 55c0 57 24 98 71 122z" />
    <glyph glyph-name="quotedblright" unicode="&#x201d;" horiz-adv-x="320" 
d="M119 473l-10 28c30 17 47 38 51 62c-4 -2 -9 -3 -15 -3c-13 0 -23 4 -32 13s-13 19 -13 32s4 23 13 32s19 13 32 13c30 0 45 -18 45 -55c0 -57 -24 -98 -71 -122zM249 473l-10 28c30 17 47 38 51 62c-4 -2 -9 -3 -15 -3c-13 0 -23 4 -32 13s-13 19 -13 32s4 23 13 32
s19 13 32 13c30 0 45 -18 45 -55c0 -57 -24 -98 -71 -122z" />
    <glyph glyph-name="quotesinglbase" unicode="&#x201a;" horiz-adv-x="190" 
d="M119 -47l-10 28c30 17 47 38 51 62c-4 -2 -9 -3 -15 -3c-13 0 -23 4 -32 13s-13 19 -13 32s4 23 13 32s19 13 32 13c30 0 45 -18 45 -55c0 -57 -24 -98 -71 -122z" />
    <glyph glyph-name="quotedblbase" unicode="&#x201e;" horiz-adv-x="320" 
d="M119 -47l-10 28c30 17 47 38 51 62c-4 -2 -9 -3 -15 -3c-13 0 -23 4 -32 13s-13 19 -13 32s4 23 13 32s19 13 32 13c30 0 45 -18 45 -55c0 -57 -24 -98 -71 -122zM249 -47l-10 28c30 17 47 38 51 62c-4 -2 -9 -3 -15 -3c-13 0 -23 4 -32 13s-13 19 -13 32s4 23 13 32
s19 13 32 13c30 0 45 -18 45 -55c0 -57 -24 -98 -71 -122z" />
    <glyph glyph-name="numbersign" unicode="#" horiz-adv-x="597" 
d="M578 457l10 45h-131l42 198h-50l-42 -198h-127l42 198h-50l-42 -198h-139l-10 -45h139l-33 -158h-133l-10 -45h133l-41 -194h50l42 194h126l-42 -194h50l43 194h136l11 45h-138l34 158h130zM271 457h127l-34 -158h-128z" />
    <glyph glyph-name="asterisk" unicode="*" horiz-adv-x="411" 
d="M274 512l138 32l-17 52l-133 -49l8 153h-56l10 -153l-136 49l-16 -52l139 -32l-95 -124l45 -31l82 132l81 -132l45 31z" />
    <glyph glyph-name="plus" unicode="+" horiz-adv-x="667" 
d="M468 265h199v53h-199v199h-53v-199h-199v-53h199v-199h53v199z" />
    <glyph glyph-name="hyphen" unicode="-" horiz-adv-x="456" 
d="M456 152h-356v52h356v-52z" />
    <glyph glyph-name="plusminus" unicode="&#xb1;" horiz-adv-x="456" 
d="M302 479v-151h154v-52h-154v-152h-48v152h-154v52h154v151h48zM456 0h-356v52h356v-52z" />
    <glyph glyph-name="multiply" unicode="&#xd7;" horiz-adv-x="415" 
d="M377 374l38 -31l-130 -153l123 -157l-33 -33l-119 154l-119 -154l-34 32l123 158l-126 149l35 33l121 -147z" />
    <glyph glyph-name="divide" unicode="&#xf7;" horiz-adv-x="456" 
d="M456 152h-356v52h356v-52zM239 40c0 12 4 21 12 28c8 8 17 12 28 12c12 0 21 -4 28 -12c8 -7 12 -16 12 -28c0 -11 -4 -20 -12 -28c-7 -8 -16 -12 -28 -12c-11 0 -20 4 -28 12s-12 17 -12 28zM239 317c0 12 4 21 12 28c8 8 17 12 28 12c12 0 21 -4 28 -12
c8 -7 12 -16 12 -28c0 -11 -4 -20 -12 -28c-7 -8 -16 -12 -28 -12c-11 0 -20 4 -28 12s-12 17 -12 28z" />
    <glyph glyph-name="equal" unicode="=" horiz-adv-x="667" 
d="M216 365h451v52h-451v-52zM216 166h451v53h-451v-53z" />
    <glyph glyph-name="notequal" unicode="&#x2260;" horiz-adv-x="456" 
d="M218 59l-41 23l34 70h-111v52h136l37 78h-173v52h198l43 88l41 -21l-32 -67h106v-52h-131l-38 -78h169v-52h-194z" />
    <glyph glyph-name="approxequal" unicode="&#x2248;" horiz-adv-x="456" 
d="M456 346v-52c-29 -17 -58 -26 -88 -26c-22 0 -52 5 -90 16c-39 11 -69 16 -90 16c-30 0 -59 -9 -88 -26v52c31 17 62 26 93 26c21 0 50 -5 89 -15c38 -11 67 -16 88 -16c31 0 59 8 86 25zM456 210v-52c-29 -17 -58 -26 -88 -26c-22 0 -52 5 -90 16c-39 11 -69 16 -90 16
c-30 0 -59 -9 -88 -26v52c31 17 62 26 93 26c21 0 50 -5 89 -15c38 -11 67 -16 88 -16c31 0 59 8 86 25z" />
    <glyph glyph-name="logicalnot" unicode="&#xac;" horiz-adv-x="456" 
d="M456 38h-48v152h-308v52h356v-204z" />
    <glyph glyph-name="less" unicode="&#x3c;" horiz-adv-x="667" 
d="M254 278l413 -209v60l-322 159v2l322 179v59l-413 -231v-19z" />
    <glyph glyph-name="greater" unicode="&#x3e;" horiz-adv-x="667" 
d="M254 69l413 209v19l-413 231v-59l323 -179v-3l-323 -158v-60z" />
    <glyph glyph-name="lessequal" unicode="&#x2264;" horiz-adv-x="456" 
d="M456 0h-356v52h356v-52zM151 255v60l231 142l22 -46l-208 -126l208 -126l-22 -46z" />
    <glyph glyph-name="greaterequal" unicode="&#x2265;" horiz-adv-x="456" 
d="M456 0h-356v52h356v-52zM406 315v-60l-231 -142l-22 46l208 126l-208 126l22 46z" />
    <glyph glyph-name="infinity" unicode="&#x221e;" horiz-adv-x="777" 
d="M625 266c-40 0 -88 -34 -145 -103c56 -69 104 -103 145 -103c66 0 99 34 99 103c0 30 -8 54 -24 73c-18 20 -43 30 -75 30zM252 266c-32 0 -57 -10 -75 -30c-16 -19 -24 -43 -24 -73c0 -69 33 -103 99 -103c41 0 89 34 145 103c-57 69 -105 103 -145 103zM628 0
c-59 0 -122 45 -190 136c-68 -91 -131 -136 -189 -136c-45 0 -80 14 -107 43c-28 29 -42 69 -42 120s14 91 42 120c27 29 62 43 107 43c58 0 121 -46 189 -137c68 91 131 137 190 137c45 0 81 -14 108 -43s41 -69 41 -120s-14 -91 -41 -120s-63 -43 -108 -43z" />
    <glyph glyph-name="degree" unicode="&#xb0;" horiz-adv-x="295" 
d="M198 626c65 0 97 -33 97 -98s-32 -98 -97 -98s-98 33 -98 98s33 98 98 98zM198 585c-39 0 -59 -19 -59 -57s20 -57 59 -57s58 19 58 57s-19 57 -58 57z" />
    <glyph glyph-name="fraction" unicode="&#x2044;" horiz-adv-x="354" 
d="M305 680l49 -16l-206 -793l-48 13z" />
    <glyph glyph-name="braceleft" unicode="{" horiz-adv-x="292" 
d="M304 -159v51c-15 1 -27 3 -36 8c-10 4 -18 10 -24 19c-7 9 -11 20 -14 33s-4 29 -4 48v138c0 73 -24 117 -72 132v1c48 15 72 57 72 128v143c0 37 6 63 18 80c12 16 32 25 60 26v52c-46 -1 -80 -14 -103 -37c-23 -24 -34 -61 -34 -111v-148c0 -69 -26 -106 -77 -112v-43
c25 -3 45 -14 58 -33s19 -47 19 -83v-145c0 -50 11 -87 34 -110s57 -36 103 -37z" />
    <glyph glyph-name="braceright" unicode="}" horiz-adv-x="292" 
d="M281 249v43c-51 5 -76 43 -76 112v148c0 51 -11 88 -34 111s-58 36 -103 37v-52c13 -1 24 -3 34 -6c10 -4 18 -10 25 -18c6 -9 11 -20 14 -33s4 -30 4 -49v-143c0 -70 24 -113 73 -128v-1c-49 -15 -73 -59 -73 -132v-138c0 -20 -1 -37 -4 -50c-3 -14 -8 -25 -14 -33
c-7 -9 -15 -15 -24 -18c-10 -4 -22 -6 -35 -7v-51c45 1 80 14 103 37s34 60 34 110v145c0 71 25 110 76 116z" />
    <glyph glyph-name="bar" unicode="|" horiz-adv-x="232" 
d="M174 -235h59v1000h-59v-1000z" />
    <glyph glyph-name="brokenbar" unicode="&#xa6;" horiz-adv-x="156" 
d="M100 277v318h56v-318h-56zM100 -193v318h56v-318h-56z" />
    <glyph glyph-name="emdash" unicode="&#x2014;" horiz-adv-x="1100" 
d="M100 210h1000v-56h-1000v56z" />
    <glyph glyph-name="endash" unicode="&#x2013;" horiz-adv-x="600" 
d="M100 210h500v-56h-500v56z" />
    <glyph glyph-name="figuredash" unicode="&#x2012;" horiz-adv-x="600" 
d="M100 210h500v-56h-500v56z" />
    <glyph glyph-name="uni2010" unicode="&#x2010;" horiz-adv-x="456" 
d="M456 152h-356v52h356v-52z" />
    <glyph glyph-name="uni2011" unicode="&#x2011;" horiz-adv-x="456" 
d="M456 152h-356v52h356v-52z" />
    <glyph glyph-name="horizontalbar" unicode="&#x2015;" horiz-adv-x="1100" 
d="M100 210h1000v-56h-1000v56z" />
    <glyph glyph-name="softhyphen" unicode="&#xad;" horiz-adv-x="456" 
d="M456 152h-356v52h356v-52z" />
    <glyph glyph-name="underscore" unicode="_" horiz-adv-x="456" 
d="M456 0h-356v52h356v-52z" />
    <glyph glyph-name="paragraph" unicode="&#xb6;" horiz-adv-x="452" 
d="M312 0h-56v338c-44 0 -81 15 -110 44c-31 31 -46 70 -46 118c0 56 19 102 58 139c43 41 102 61 177 61c53 0 92 -3 117 -9v-691h-56v639h-84v-639z" />
    <glyph glyph-name="uni204B" unicode="&#x204b;" horiz-adv-x="452" 
d="M296 0h-56v639h-84v-639h-56v691c25 6 64 9 117 9c75 0 134 -20 177 -61c39 -37 58 -83 58 -139c0 -48 -15 -87 -46 -118c-29 -29 -66 -44 -110 -44v-338z" />
    <glyph glyph-name="uni25CC" unicode="&#x25cc;" horiz-adv-x="597" 
d="M324 513c0 17 8 25 24 25c17 0 25 -8 25 -25c0 -16 -8 -24 -25 -24c-16 0 -24 8 -24 24zM409 496c0 17 8 25 24 25c17 0 25 -8 25 -25c0 -16 -8 -24 -25 -24c-16 0 -24 8 -24 24zM482 448c0 17 8 25 24 25c17 0 25 -8 25 -25c0 -16 -8 -24 -25 -24c-16 0 -24 8 -24 24z
M530 375c0 17 8 25 24 25c17 0 25 -8 25 -25c0 -16 -8 -24 -25 -24c-16 0 -24 8 -24 24zM548 291c0 17 8 25 24 25c17 0 25 -8 25 -25c0 -16 -8 -24 -25 -24c-16 0 -24 8 -24 24zM409 87c0 16 8 24 24 24c17 0 25 -8 25 -24c0 -17 -8 -25 -25 -25c-16 0 -24 8 -24 25z
M482 135c0 16 8 24 24 24c17 0 25 -8 25 -24c0 -17 -8 -25 -25 -25c-16 0 -24 8 -24 25zM530 208c0 16 8 24 24 24c17 0 25 -8 25 -24c0 -17 -8 -25 -25 -25c-16 0 -24 8 -24 25zM288 496c0 -16 -8 -24 -24 -24c-17 0 -25 8 -25 24c0 17 8 25 25 25c16 0 24 -8 24 -25z
M215 448c0 -16 -8 -24 -24 -24c-17 0 -25 8 -25 24c0 17 8 25 25 25c16 0 24 -8 24 -25zM167 375c0 -16 -8 -24 -24 -24c-17 0 -25 8 -25 24c0 17 8 25 25 25c16 0 24 -8 24 -25zM149 291c0 -16 -8 -24 -24 -24c-17 0 -25 8 -25 24c0 17 8 25 25 25c16 0 24 -8 24 -25z
M373 70c0 -17 -8 -25 -24 -25c-17 0 -25 8 -25 25c0 16 8 24 25 24c16 0 24 -8 24 -24zM288 87c0 -17 -8 -25 -24 -25c-17 0 -25 8 -25 25c0 16 8 24 25 24c16 0 24 -8 24 -24zM215 135c0 -17 -8 -25 -24 -25c-17 0 -25 8 -25 25c0 16 8 24 25 24c16 0 24 -8 24 -24z
M167 208c0 -17 -8 -25 -24 -25c-17 0 -25 8 -25 25c0 16 8 24 25 24c16 0 24 -8 24 -24z" />
    <glyph glyph-name="zero" unicode="0" horiz-adv-x="527" 
d="M300 -12c36 0 68 8 96 24s52 39 71 70s34 69 44 114s15 98 15 157c0 239 -70 359 -211 359c-74 0 -131 -32 -170 -95s-59 -157 -59 -282c0 -57 5 -106 15 -149c9 -43 23 -80 42 -109c18 -29 40 -51 67 -66s57 -23 90 -23zM311 657c100 0 150 -104 150 -312
c0 -49 -3 -93 -10 -130c-7 -38 -16 -70 -29 -95s-30 -45 -49 -58s-41 -20 -66 -20c-51 0 -90 25 -116 76c-27 51 -40 125 -40 222c0 106 14 185 41 238s67 79 119 79z" />
    <glyph glyph-name="one" unicode="1" horiz-adv-x="375" 
d="M249 0h63v716h-19c-33 -29 -66 -54 -101 -75c-35 -22 -72 -39 -110 -51v-55c13 4 26 9 41 16c15 6 29 13 44 21s29 17 44 26c14 9 27 18 38 28v-626z" />
    <glyph glyph-name="two" unicode="2" horiz-adv-x="527" 
d="M436 521c0 -23 -3 -44 -9 -63s-15 -37 -27 -54s-27 -33 -45 -48c-18 -16 -39 -33 -62 -50c-34 -25 -63 -47 -87 -67c-25 -20 -45 -40 -60 -60c-16 -20 -28 -41 -35 -64s-11 -50 -11 -81v-34h414v56h-348c0 5 0 10 1 15c0 5 1 9 3 14c2 17 6 33 13 47s17 28 30 42
s30 29 50 44s44 33 72 53c25 18 47 36 68 54c20 18 37 37 52 57s26 42 34 66c7 23 11 50 11 80c0 25 -4 49 -11 70c-8 21 -19 39 -33 54s-31 28 -50 38c-20 9 -42 15 -66 18c-5 1 -11 2 -16 3s-11 1 -17 1c-37 0 -70 -6 -99 -17c-29 -12 -56 -29 -81 -50v-69
c25 25 53 44 82 59s59 22 90 22c20 0 39 -3 56 -8c17 -6 31 -15 43 -26c12 -12 21 -26 28 -43s10 -37 10 -59z" />
    <glyph glyph-name="three" unicode="3" horiz-adv-x="527" 
d="M120 94v-69c43 -25 95 -37 154 -37c33 0 64 5 93 14s54 22 75 40c21 17 38 39 51 65c12 25 18 55 18 88c0 25 -4 47 -12 67c-9 20 -20 37 -35 52c-15 14 -32 25 -52 34s-41 14 -64 17v2c93 26 139 86 139 179c0 28 -5 52 -15 73c-11 21 -24 38 -41 52
c-17 13 -37 24 -60 31s-47 10 -72 10c-52 0 -103 -13 -152 -40v-63c46 32 92 48 139 48c45 0 79 -11 102 -32c23 -22 34 -54 34 -95c0 -46 -15 -81 -46 -104c-31 -24 -76 -36 -137 -36h-51v-55h56c67 0 117 -12 152 -37c34 -25 51 -61 51 -110c0 -26 -5 -48 -14 -66
c-10 -19 -23 -34 -38 -45c-16 -12 -34 -21 -54 -26c-21 -6 -42 -9 -65 -9c-53 0 -105 17 -156 52z" />
    <glyph glyph-name="four" unicode="4" horiz-adv-x="549" 
d="M442 700h-67c-17 -35 -37 -73 -61 -113c-25 -41 -51 -81 -80 -122s-60 -82 -91 -122c-32 -40 -64 -78 -95 -113v-56h332v-174h62v174h109v56h-109v470zM380 230h-261c17 21 36 44 57 69c20 25 41 54 64 85c22 31 45 64 69 100c23 36 47 75 71 116v-370z" />
    <glyph glyph-name="five" unicode="5" horiz-adv-x="527" 
d="M156 84v-68c34 -19 80 -28 137 -28c38 0 72 6 102 17s55 26 76 45s36 43 47 70s16 58 16 91s-5 62 -15 88c-10 25 -25 47 -44 65c-20 18 -44 32 -72 41c-29 9 -62 14 -99 14c-17 0 -39 -1 -67 -2l14 227h252v56h-305l-21 -342c46 4 81 6 106 6c61 0 108 -13 140 -40
c31 -27 47 -67 47 -118c0 -25 -4 -47 -12 -67c-8 -21 -20 -38 -35 -52c-15 -15 -34 -26 -55 -33c-21 -8 -45 -12 -72 -12c-47 0 -93 14 -140 42z" />
    <glyph glyph-name="six" unicode="6" horiz-adv-x="527" 
d="M543 222c0 31 -5 60 -14 87c-9 26 -22 49 -39 68s-38 34 -62 45s-51 16 -80 16c-78 0 -134 -34 -167 -103h-2c0 48 5 92 15 132c10 39 24 73 43 102c19 28 41 50 68 65c26 15 55 23 88 23c39 0 75 -9 109 -26v62c-29 13 -66 19 -109 19s-82 -10 -116 -29
c-35 -19 -64 -47 -88 -82s-42 -78 -55 -127c-13 -50 -20 -105 -20 -166c0 -51 5 -97 15 -136c9 -40 23 -74 42 -101s41 -48 68 -62c26 -14 56 -21 90 -21c31 0 60 6 86 18c26 11 49 27 68 48s34 45 45 74c10 29 15 60 15 94zM479 212c0 -25 -4 -47 -11 -68s-17 -38 -30 -53
s-29 -27 -46 -36c-18 -9 -38 -13 -60 -13s-42 5 -60 15s-34 24 -47 41s-23 36 -30 59s-11 47 -11 72c0 20 4 39 11 58s18 35 31 50c13 14 29 25 48 34c19 8 39 12 60 12c23 0 43 -4 61 -12s33 -19 46 -34c12 -15 21 -33 28 -54s10 -45 10 -71z" />
    <glyph glyph-name="seven" unicode="7" horiz-adv-x="505" 
d="M505 674v26h-437v-56h360c-31 -54 -60 -108 -87 -163s-52 -109 -74 -163c-23 -55 -42 -109 -58 -162s-28 -105 -35 -156h66c5 37 12 74 21 110c8 35 18 70 29 105s24 70 39 105c14 35 30 72 48 109c17 37 37 76 58 117c21 40 45 83 70 128z" />
    <glyph glyph-name="eight" unicode="8" horiz-adv-x="527" 
d="M96 195c0 -32 5 -61 16 -86s26 -47 45 -64c19 -18 42 -32 69 -41c26 -10 55 -15 86 -15c33 0 62 5 89 15c26 9 49 23 68 41c19 17 33 39 44 65c11 25 16 54 16 85c0 19 -3 37 -8 56c-6 18 -14 35 -25 52c-11 16 -24 31 -40 44s-34 23 -55 30c15 9 28 18 41 29
s24 23 33 36s16 28 21 43s7 31 7 48c0 25 -5 49 -14 71c-10 22 -23 41 -40 57s-37 29 -60 38s-49 13 -76 13s-53 -4 -76 -13s-43 -22 -60 -38s-30 -35 -39 -56c-10 -22 -15 -46 -15 -72c0 -33 9 -63 28 -90s44 -49 75 -66c-21 -7 -40 -17 -56 -30s-30 -28 -41 -44
c-11 -17 -20 -34 -25 -52c-5 -19 -8 -37 -8 -56zM163 196c0 22 4 42 11 61s18 35 31 48s29 24 48 32c18 7 38 11 59 11c23 0 43 -4 62 -12s35 -19 48 -33s23 -30 30 -48c7 -19 10 -38 10 -59c0 -23 -4 -43 -11 -62s-18 -35 -31 -48s-29 -24 -47 -31c-19 -7 -39 -11 -61 -11
c-23 0 -43 4 -61 11s-34 17 -47 30s-23 30 -30 49s-11 39 -11 62zM187 529c0 18 3 35 9 51c6 15 15 29 26 41c11 11 24 20 40 27c15 7 32 10 51 10c17 0 34 -3 49 -10s29 -16 40 -27s20 -25 27 -40c7 -16 10 -33 10 -52c0 -17 -3 -34 -10 -49c-7 -16 -16 -30 -27 -41
c-12 -12 -25 -21 -40 -28s-32 -10 -49 -10s-34 3 -49 10s-29 16 -40 28c-11 11 -20 25 -27 40s-10 32 -10 50z" />
    <glyph glyph-name="nine" unicode="9" horiz-adv-x="527" 
d="M525 394c0 51 -5 97 -14 137c-10 39 -24 73 -42 100s-40 47 -66 61c-27 13 -56 20 -89 20c-31 0 -60 -6 -87 -17s-50 -27 -69 -47c-19 -21 -34 -45 -45 -74s-17 -60 -17 -95c0 -31 5 -60 15 -87c9 -27 23 -49 41 -68c17 -19 38 -34 63 -45c24 -11 51 -16 80 -16
c78 0 133 34 164 101h2c0 -105 -18 -184 -55 -239s-90 -83 -159 -83c-37 0 -75 10 -114 30v-63c35 -14 73 -21 112 -21c45 0 85 9 120 27s64 44 88 79c23 35 41 77 54 128c12 50 18 107 18 172zM455 465c0 -20 -4 -39 -11 -56c-8 -18 -18 -34 -31 -47s-29 -24 -46 -31
c-18 -8 -37 -12 -58 -12c-22 0 -42 4 -60 12c-19 7 -34 18 -47 33s-24 33 -31 54s-11 45 -11 71c0 25 4 47 12 68c7 20 18 38 31 53s28 26 46 35c18 8 37 12 58 12c22 0 42 -5 60 -14s34 -22 47 -39s23 -37 30 -60c7 -24 11 -50 11 -79z" />
    <glyph glyph-name="arrowleft" unicode="&#x2190;" horiz-adv-x="587" 
d="M100 139v40l183 149l26 -41l-151 -111l29 9h400v-52h-400l-29 9l151 -111l-26 -41z" />
    <glyph glyph-name="arrowup" unicode="&#x2191;" horiz-adv-x="438" 
d="M249 477h40l149 -183l-41 -26l-111 150l9 -28v-400h-52v400l9 28l-111 -150l-41 26z" />
    <glyph glyph-name="arrowright" unicode="&#x2192;" horiz-adv-x="587" 
d="M587 179v-40l-183 -149l-26 41l151 111l-29 -9h-400v52h400l29 -9l-151 111l26 41z" />
    <glyph glyph-name="arrowdown" unicode="&#x2193;" horiz-adv-x="438" 
d="M289 -103h-40l-149 183l41 26l111 -150l-9 28v400h52v-400l-9 -28l111 150l41 -26z" />
    <glyph glyph-name="uni2196" unicode="&#x2196;" horiz-adv-x="477" 
d="M100 338l29 29l234 -24l-10 -48l-187 29l28 -15l283 -282l-37 -37l-282 283l-15 27l29 -186l-48 -10z" />
    <glyph glyph-name="uni2197" unicode="&#x2197;" horiz-adv-x="477" 
d="M448 367l29 -29l-24 -234l-48 10l29 186l-15 -27l-282 -283l-37 37l283 282l28 15l-187 -29l-10 48z" />
    <glyph glyph-name="uni2198" unicode="&#x2198;" horiz-adv-x="477" 
d="M477 39l-29 -29l-234 24l10 48l187 -29l-28 15l-283 282l37 37l282 -283l15 -27l-29 186l48 10z" />
    <glyph glyph-name="uni2199" unicode="&#x2199;" horiz-adv-x="477" 
d="M129 10l-29 29l24 234l48 -10l-29 -186l15 27l282 283l37 -37l-283 -282l-28 -15l187 29l10 -48z" />
    <glyph glyph-name="uni21B0" unicode="&#x21b0;" horiz-adv-x="557" 
d="M100 285v40l183 149l26 -41l-151 -111l29 9h370v-341h-48v289h-322l-29 9l151 -111l-26 -41z" />
    <glyph glyph-name="uni21B1" unicode="&#x21b1;" horiz-adv-x="557" 
d="M557 325v-40l-183 -149l-26 41l151 111l-29 -9h-322v-289h-48v341h370l29 -9l-151 111l26 41z" />
    <glyph glyph-name="uni21B2" unicode="&#x21b2;" horiz-adv-x="557" 
d="M100 27v40l183 149l26 -41l-151 -111l29 9h322v289h48v-341h-370l-29 9l151 -111l-26 -41z" />
    <glyph glyph-name="uni21B3" unicode="&#x21b3;" horiz-adv-x="557" 
d="M557 67v-40l-183 -149l-26 41l151 111l-29 -9h-370v341h48v-289h322l29 -9l-151 111l26 41z" />
    <glyph glyph-name="uni2B0E" unicode="&#x2b0e;" horiz-adv-x="584" 
d="M100 447h341v-370l-9 -29l111 151l41 -26l-149 -183h-40l-149 183l41 26l111 -151l-9 29v322h-289v48z" />
    <glyph glyph-name="uni2B10" unicode="&#x2b10;" horiz-adv-x="584" 
d="M243 447h341v-48h-289v-322l-9 -29l111 151l41 -26l-149 -183h-40l-149 183l41 26l111 -151l-9 29v370z" />
    <glyph glyph-name="uni2B0F" unicode="&#x2b0f;" horiz-adv-x="584" 
d="M441 -73h-341v48h289v322l9 29l-111 -151l-41 26l149 183h40l149 -183l-41 -26l-111 151l9 -29v-370z" />
    <glyph glyph-name="uni2B11" unicode="&#x2b11;" horiz-adv-x="584" 
d="M584 -73h-341v370l9 29l-111 -151l-41 26l149 183h40l149 -183l-41 -26l-111 151l9 -29v-322h289v-48z" />
    <glyph glyph-name="uni204C" unicode="&#x204c;" horiz-adv-x="389" 
d="M389 100h-140c-41 0 -76 15 -105 44s-44 64 -44 105s15 77 44 106s64 44 105 44h140v-299z" />
    <glyph glyph-name="uni204D" unicode="&#x204d;" horiz-adv-x="389" 
d="M240 100h-140v299h140c41 0 76 -15 105 -44s44 -65 44 -106s-15 -76 -44 -105s-64 -44 -105 -44z" />
    <glyph glyph-name="blacksmallsquare" unicode="&#x25aa;" horiz-adv-x="363" 
d="M100 364h263v-264h-263v264z" />
    <glyph glyph-name="whitesmallsquare" unicode="&#x25ab;" horiz-adv-x="364" 
d="M100 364h264v-264h-264v264zM160 304v-144h144v144h-144z" />
    <glyph glyph-name="bullet" unicode="&#x2022;" horiz-adv-x="399" 
d="M250 100c-41 0 -77 15 -106 44s-44 64 -44 105s15 77 44 106s65 44 106 44s76 -15 105 -44s44 -65 44 -106s-15 -76 -44 -105s-64 -44 -105 -44z" />
    <glyph glyph-name="circle" unicode="&#x25cb;" horiz-adv-x="399" 
d="M250 100c-41 0 -77 15 -106 44s-44 64 -44 105s15 77 44 106s65 44 106 44s76 -15 105 -44s44 -65 44 -106s-15 -76 -44 -105s-64 -44 -105 -44zM163 249c0 -24 8 -44 25 -61s37 -25 61 -25c25 0 45 8 62 25s25 37 25 61c0 25 -8 45 -25 62s-37 25 -62 25
c-24 0 -44 -8 -61 -25s-25 -37 -25 -62z" />
    <glyph glyph-name="uni25C2" unicode="&#x25c2;" horiz-adv-x="392" 
d="M392 77l-292 168l292 169v-337z" />
    <glyph glyph-name="uni25C3" unicode="&#x25c3;" horiz-adv-x="392" 
d="M392 78l-292 168l292 169v-337zM335 316l-120 -70l120 -69v139z" />
    <glyph glyph-name="uni25B4" unicode="&#x25b4;" horiz-adv-x="437" 
d="M100 100l168 292l169 -292h-337z" />
    <glyph glyph-name="uni25B5" unicode="&#x25b5;" horiz-adv-x="436" 
d="M100 100l168 292l168 -292h-336zM338 158l-70 120l-69 -120h139z" />
    <glyph glyph-name="uni25B8" unicode="&#x25b8;" horiz-adv-x="392" 
d="M100 414l292 -169l-292 -168v337z" />
    <glyph glyph-name="uni25B9" unicode="&#x25b9;" horiz-adv-x="391" 
d="M100 415l291 -169l-291 -168v337zM157 177l120 69l-120 70v-139z" />
    <glyph glyph-name="uni25BE" unicode="&#x25be;" horiz-adv-x="437" 
d="M437 392l-168 -292l-169 292h337z" />
    <glyph glyph-name="uni25BF" unicode="&#x25bf;" horiz-adv-x="437" 
d="M437 392l-168 -292l-169 292h337zM199 335l70 -120l69 120h-139z" />
    <glyph glyph-name="uni06AA" unicode="&#x6aa;" horiz-adv-x="1038" 
d="M387 -10c-116 0 -196 23 -241 70c-31 31 -46 78 -46 140c0 37 5 83 14 139l52 -7c-7 -43 -10 -80 -10 -111c0 -54 15 -92 46 -115c35 -27 97 -41 185 -41c197 0 378 11 545 33c37 5 56 11 56 17c0 100 -50 150 -149 150c-57 0 -116 -1 -175 -4c-75 -3 -129 -5 -162 -5
c-51 0 -87 4 -109 12c-33 11 -50 33 -50 66c0 95 111 181 334 258l-11 -77c-85 -25 -155 -56 -210 -93c-42 -29 -63 -50 -63 -63c0 -22 38 -33 115 -33c71 0 133 1 184 4c53 3 97 4 132 4c74 0 130 -21 168 -62c31 -33 46 -73 46 -122c0 -73 -39 -116 -118 -128
c-136 -21 -314 -32 -533 -32z" />
    <glyph glyph-name="_462" horiz-adv-x="1038" 
d="M549 646l-9 -63c-81 -31 -149 -78 -206 -140l-10 50c58 67 133 118 225 153zM387 -10c-116 0 -196 23 -241 70c-31 31 -46 78 -46 140c0 37 5 83 14 139l52 -7c-7 -43 -10 -80 -10 -111c0 -54 15 -92 46 -115c35 -27 97 -41 185 -41c197 0 378 11 545 33
c37 5 56 11 56 17c0 100 -50 150 -149 150c-57 0 -116 -1 -175 -4c-75 -3 -129 -5 -162 -5c-51 0 -87 4 -109 12c-33 11 -50 33 -50 66c0 95 111 181 334 258l-11 -77c-85 -25 -155 -56 -210 -93c-42 -29 -63 -50 -63 -63c0 -22 38 -33 115 -33c71 0 133 1 184 4
c53 3 97 4 132 4c74 0 130 -21 168 -62c31 -33 46 -73 46 -122c0 -73 -39 -116 -118 -128c-136 -21 -314 -32 -533 -32z" />
    <glyph glyph-name="_463" horiz-adv-x="1093" 
d="M548 646l-9 -63c-81 -31 -149 -78 -206 -140l-10 50c58 67 133 118 225 153zM387 -10c-116 0 -196 23 -241 70c-31 31 -46 78 -46 140c0 37 5 83 14 139l52 -7c-7 -43 -10 -80 -10 -111c0 -54 15 -92 46 -115c35 -27 97 -41 185 -41c197 0 378 11 545 33
c37 5 56 11 56 17c0 100 -50 150 -149 150c-57 0 -116 -1 -175 -4c-75 -3 -129 -5 -162 -5c-51 0 -87 4 -109 12c-33 11 -50 33 -50 66c0 95 111 181 334 258l-11 -77c-85 -25 -155 -56 -210 -93c-42 -29 -63 -50 -63 -63c0 -22 38 -33 115 -33c71 0 133 1 184 4
c53 3 97 4 132 4c74 0 130 -21 168 -62c31 -33 46 -73 46 -122c0 -25 -3 -44 -10 -57c20 -12 52 -18 95 -18h20v-75h-33c-49 0 -90 15 -122 45c-17 -11 -40 -19 -68 -23c-136 -21 -314 -32 -533 -32z" />
    <glyph glyph-name="_464" horiz-adv-x="881" 
d="M239 646l-9 -63c-81 -31 -149 -78 -206 -140l-10 50c58 67 133 118 225 153zM-76 37c0 11 4 20 12 27c7 7 16 11 26 11h125c244 0 426 8 545 23c37 5 56 11 56 17c0 100 -50 150 -149 150c-57 0 -116 -1 -175 -4c-75 -3 -129 -5 -162 -5c-51 0 -87 4 -109 12
c-33 11 -50 33 -50 66c0 95 111 181 334 258l-11 -77c-85 -25 -155 -56 -210 -93c-42 -29 -63 -50 -63 -63c0 -22 38 -33 115 -33c71 0 133 1 184 4c53 3 97 4 132 4c74 0 130 -21 168 -62c31 -33 46 -73 46 -122c0 -24 -3 -43 -10 -57c20 -12 52 -18 95 -18h20v-75h-33
c-48 0 -89 15 -122 44c-18 -12 -41 -19 -68 -22c-103 -15 -280 -22 -533 -22h-125c-10 0 -19 4 -26 11c-8 7 -12 16 -12 26z" />
    <glyph glyph-name="_465" horiz-adv-x="826" 
d="M239 646l-9 -63c-81 -31 -149 -78 -206 -140l-10 50c58 67 133 118 225 153zM-76 37c0 11 4 20 12 27c7 7 16 11 26 11h125c244 0 426 8 545 23c37 5 56 11 56 17c0 100 -50 150 -149 150c-57 0 -116 -1 -175 -4c-75 -3 -129 -5 -162 -5c-51 0 -87 4 -109 12
c-33 11 -50 33 -50 66c0 95 111 181 334 258l-11 -77c-85 -25 -155 -56 -210 -93c-42 -29 -63 -50 -63 -63c0 -22 38 -33 115 -33c71 0 133 1 184 4c53 3 97 4 132 4c74 0 130 -21 168 -62c31 -33 46 -73 46 -122c0 -75 -39 -117 -118 -128c-103 -15 -280 -22 -533 -22h-125
c-10 0 -19 4 -26 11c-8 7 -12 16 -12 26z" />
    <glyph glyph-name="_466" horiz-adv-x="347" 
d="M-76 37c0 11 4 20 12 27c7 7 16 11 26 11h53c65 0 105 32 119 96c3 13 9 47 17 102l54 -5c-8 -60 -12 -94 -12 -103c0 -60 31 -90 92 -90h24v-75h-29c-61 0 -103 25 -127 74c-27 -49 -72 -74 -134 -74h-57c-10 0 -19 4 -26 11c-8 7 -12 16 -12 26z" />
    <glyph glyph-name="_467" horiz-adv-x="347" 
d="M-76 37c0 11 4 20 12 27c7 7 16 11 26 11h53c65 0 105 32 119 96c3 13 9 47 17 102l54 -5c-8 -60 -12 -94 -12 -103c0 -60 31 -90 92 -90h24v-75h-29c-61 0 -103 25 -127 74c-27 -49 -72 -74 -134 -74h-57c-10 0 -19 4 -26 11c-8 7 -12 16 -12 26zM142 -100
c22 -13 43 -30 64 -52c-11 -20 -28 -41 -51 -64c-18 9 -40 26 -65 51c15 22 32 44 52 65z" />
    <glyph glyph-name="_468" horiz-adv-x="347" 
d="M-76 37c0 11 4 20 12 27c7 7 16 11 26 11h53c65 0 105 32 119 96c3 13 9 47 17 102l54 -5c-8 -60 -12 -94 -12 -103c0 -60 31 -90 92 -90h24v-75h-29c-61 0 -103 25 -127 74c-27 -49 -72 -74 -134 -74h-57c-10 0 -19 4 -26 11c-8 7 -12 16 -12 26zM59 -100
c22 -12 42 -28 59 -47c-11 -20 -27 -40 -48 -59c-16 9 -35 25 -58 47c11 19 27 39 47 59zM203 -100c23 -12 43 -28 60 -47c-13 -23 -29 -42 -48 -59c-12 7 -31 22 -58 47c12 21 27 40 46 59zM134 -215c19 -9 39 -24 60 -46c-13 -22 -29 -42 -48 -60c-17 11 -36 27 -59 48
c13 20 28 39 47 58z" />
    <glyph glyph-name="_469" horiz-adv-x="347" 
d="M-76 37c0 11 4 20 12 27c7 7 16 11 26 11h53c65 0 105 32 119 96c3 13 9 47 17 102l54 -5c-8 -60 -12 -94 -12 -103c0 -60 31 -90 92 -90h24v-75h-29c-61 0 -103 25 -127 74c-27 -49 -72 -74 -134 -74h-57c-10 0 -19 4 -26 11c-8 7 -12 16 -12 26zM59 506
c22 -12 42 -28 59 -47c-11 -20 -27 -40 -48 -59c-17 11 -37 27 -58 48c13 20 28 39 47 58zM203 506c23 -12 43 -28 60 -47c-13 -23 -29 -42 -48 -59c-13 8 -32 24 -58 48c11 19 27 39 46 58z" />
    <glyph glyph-name="_470" horiz-adv-x="347" 
d="M-76 37c0 11 4 20 12 27c7 7 16 11 26 11h53c65 0 105 32 119 96c3 13 9 47 17 102l54 -5c-8 -60 -12 -94 -12 -103c0 -60 31 -90 92 -90h24v-75h-29c-61 0 -103 25 -127 74c-27 -49 -72 -74 -134 -74h-57c-10 0 -19 4 -26 11c-8 7 -12 16 -12 26zM59 506
c22 -12 42 -28 59 -47c-11 -20 -27 -40 -48 -59c-17 11 -37 27 -58 48c13 20 28 39 47 58zM203 506c23 -12 43 -28 60 -47c-13 -23 -29 -42 -48 -59c-13 8 -32 24 -58 48c11 19 27 39 46 58zM128 622c22 -12 42 -28 59 -47c-11 -21 -26 -41 -47 -60c-17 11 -36 27 -59 48
c11 19 27 39 47 59z" />
    <glyph glyph-name="_471" horiz-adv-x="347" 
d="M-76 37c0 11 4 20 12 27c7 7 16 11 26 11h53c65 0 105 32 119 96c3 13 9 47 17 102l54 -5c-8 -60 -12 -94 -12 -103c0 -60 31 -90 92 -90h24v-75h-29c-61 0 -103 25 -127 74c-27 -49 -72 -74 -134 -74h-57c-10 0 -19 4 -26 11c-8 7 -12 16 -12 26zM139 516
c19 -10 41 -27 64 -52c-12 -22 -29 -43 -51 -64c-17 10 -39 27 -65 51c11 18 29 40 52 65z" />
    <glyph glyph-name="_472" horiz-adv-x="347" 
d="M-76 37c0 11 4 20 12 27c7 7 16 11 26 11h53c65 0 105 32 119 96c3 13 9 47 17 102l54 -5c-8 -60 -12 -94 -12 -103c0 -60 31 -90 92 -90h24v-75h-29c-61 0 -103 25 -127 74c-27 -49 -72 -74 -134 -74h-57c-10 0 -19 4 -26 11c-8 7 -12 16 -12 26zM58 -100
c22 -12 42 -28 59 -47c-11 -19 -26 -38 -47 -59c-16 9 -36 24 -59 47c11 19 27 39 47 59zM203 -100c22 -12 42 -28 59 -47c-13 -23 -29 -42 -48 -59c-16 9 -35 25 -58 47c12 22 28 42 47 59z" />
    <glyph glyph-name="_473" horiz-adv-x="347" 
d="M-76 37c0 11 4 20 12 27c7 7 16 11 26 11h53c65 0 105 32 119 96c3 13 9 47 17 102l54 -5c-8 -60 -12 -94 -12 -103c0 -60 31 -90 92 -90h24v-75h-29c-61 0 -103 25 -127 74c-27 -49 -72 -74 -134 -74h-57c-10 0 -19 4 -26 11c-8 7 -12 16 -12 26zM46 360l-4 37l64 43
c-39 14 -58 36 -58 67c0 32 9 58 28 77c17 19 36 28 59 28c32 0 58 -14 79 -43l-19 -24c-18 16 -37 24 -56 24c-15 0 -29 -6 -42 -18c-12 -11 -18 -20 -18 -29c0 -11 5 -20 16 -29c15 -13 34 -20 58 -20c18 0 47 10 87 29l2 -39c-65 -31 -130 -66 -196 -103z" />
    <glyph glyph-name="_474" horiz-adv-x="431" 
d="M-76 37c0 11 4 20 12 27c7 7 16 11 26 11h114c77 0 116 28 116 85c0 44 -3 92 -8 143l60 30l9 -148c4 -73 40 -110 107 -110h33v-75h-32c-62 0 -108 23 -138 70c-29 -47 -81 -70 -157 -70h-104c-10 0 -19 4 -26 11c-8 7 -12 16 -12 26z" />
    <glyph glyph-name="_475" horiz-adv-x="431" 
d="M-76 37c0 11 4 20 12 27c7 7 16 11 26 11h114c77 0 116 28 116 85c0 44 -3 92 -8 143l60 30l9 -148c4 -73 40 -110 107 -110h33v-75h-32c-62 0 -108 23 -138 70c-29 -47 -81 -70 -157 -70h-104c-10 0 -19 4 -26 11c-8 7 -12 16 -12 26zM183 -100c22 -13 43 -30 64 -52
c-11 -20 -28 -41 -51 -64c-18 9 -40 26 -65 51c15 22 32 44 52 65z" />
    <glyph glyph-name="_476" horiz-adv-x="431" 
d="M-76 37c0 11 4 20 12 27c7 7 16 11 26 11h114c77 0 116 28 116 85c0 44 -3 92 -8 143l60 30l9 -148c4 -73 40 -110 107 -110h33v-75h-32c-62 0 -108 23 -138 70c-29 -47 -81 -70 -157 -70h-104c-10 0 -19 4 -26 11c-8 7 -12 16 -12 26zM105 -100c22 -12 42 -28 59 -47
c-11 -20 -27 -40 -48 -59c-16 9 -35 25 -58 47c11 19 27 39 47 59zM249 -100c23 -12 43 -28 60 -47c-13 -23 -29 -42 -48 -59c-12 7 -31 22 -58 47c12 21 27 40 46 59zM180 -215c19 -9 39 -24 60 -46c-13 -22 -29 -42 -48 -60c-17 11 -36 27 -59 48c13 20 28 39 47 58z" />
    <glyph glyph-name="_477" horiz-adv-x="431" 
d="M-76 37c0 11 4 20 12 27c7 7 16 11 26 11h114c77 0 116 28 116 85c0 44 -3 92 -8 143l60 30l9 -148c4 -73 40 -110 107 -110h33v-75h-32c-62 0 -108 23 -138 70c-29 -47 -81 -70 -157 -70h-104c-10 0 -19 4 -26 11c-8 7 -12 16 -12 26zM65 566c22 -12 42 -28 59 -47
c-11 -20 -27 -40 -48 -59c-17 11 -37 27 -58 48c13 20 28 39 47 58zM209 566c23 -12 43 -28 60 -47c-13 -23 -29 -42 -48 -59c-13 8 -32 24 -58 48c11 19 27 39 46 58z" />
    <glyph glyph-name="_478" horiz-adv-x="431" 
d="M-76 37c0 11 4 20 12 27c7 7 16 11 26 11h114c77 0 116 28 116 85c0 44 -3 92 -8 143l60 30l9 -148c4 -73 40 -110 107 -110h33v-75h-32c-62 0 -108 23 -138 70c-29 -47 -81 -70 -157 -70h-104c-10 0 -19 4 -26 11c-8 7 -12 16 -12 26zM90 546c22 -12 42 -28 59 -47
c-11 -20 -27 -40 -48 -59c-17 11 -37 27 -58 48c13 20 28 39 47 58zM234 546c23 -12 43 -28 60 -47c-13 -23 -29 -42 -48 -59c-13 8 -32 24 -58 48c11 19 27 39 46 58zM159 662c22 -12 42 -28 59 -47c-11 -21 -26 -41 -47 -60c-17 11 -36 27 -59 48c11 19 27 39 47 59z" />
    <glyph glyph-name="_479" horiz-adv-x="431" 
d="M-76 37c0 11 4 20 12 27c7 7 16 11 26 11h114c77 0 116 28 116 85c0 44 -3 92 -8 143l60 30l9 -148c4 -73 40 -110 107 -110h33v-75h-32c-62 0 -108 23 -138 70c-29 -47 -81 -70 -157 -70h-104c-10 0 -19 4 -26 11c-8 7 -12 16 -12 26zM148 553c19 -10 41 -27 64 -52
c-12 -22 -29 -43 -51 -64c-17 10 -39 27 -65 51c11 18 29 40 52 65z" />
    <glyph glyph-name="_480" horiz-adv-x="431" 
d="M-76 37c0 11 4 20 12 27c7 7 16 11 26 11h114c77 0 116 28 116 85c0 44 -3 92 -8 143l60 30l9 -148c4 -73 40 -110 107 -110h33v-75h-32c-62 0 -108 23 -138 70c-29 -47 -81 -70 -157 -70h-104c-10 0 -19 4 -26 11c-8 7 -12 16 -12 26zM118 -100c22 -12 42 -28 59 -47
c-11 -19 -26 -38 -47 -59c-16 9 -36 24 -59 47c11 19 27 39 47 59zM263 -100c22 -12 42 -28 59 -47c-13 -23 -29 -42 -48 -59c-16 9 -35 25 -58 47c12 22 28 42 47 59z" />
    <glyph glyph-name="_481" horiz-adv-x="431" 
d="M-76 37c0 11 4 20 12 27c7 7 16 11 26 11h114c77 0 116 28 116 85c0 44 -3 92 -8 143l60 30l9 -148c4 -73 40 -110 107 -110h33v-75h-32c-62 0 -108 23 -138 70c-29 -47 -81 -70 -157 -70h-104c-10 0 -19 4 -26 11c-8 7 -12 16 -12 26zM76 370l-4 37l64 43
c-39 14 -58 36 -58 67c0 32 9 58 28 77c17 19 36 28 59 28c32 0 58 -14 79 -43l-19 -24c-18 16 -37 24 -56 24c-15 0 -29 -6 -42 -18c-12 -11 -18 -20 -18 -29c0 -11 5 -20 16 -29c15 -13 34 -20 58 -20c18 0 47 10 87 29l2 -39c-65 -31 -130 -66 -196 -103z" />
    <glyph glyph-name="_482" horiz-adv-x="422" 
d="M238 342l65 41c21 -63 31 -126 31 -191c0 -58 -17 -104 -50 -139c-35 -35 -83 -53 -144 -53h-178c-10 0 -19 4 -26 11c-8 7 -12 16 -12 26c0 11 4 20 12 27c7 7 16 11 26 11h155c105 0 158 27 158 82s-12 117 -37 185z" />
    <glyph glyph-name="_483" horiz-adv-x="422" 
d="M238 342l65 41c21 -63 31 -126 31 -191c0 -58 -17 -104 -50 -139c-35 -35 -83 -53 -144 -53h-178c-10 0 -19 4 -26 11c-8 7 -12 16 -12 26c0 11 4 20 12 27c7 7 16 11 26 11h155c105 0 158 27 158 82s-12 117 -37 185zM92 -100c22 -13 43 -30 64 -52
c-11 -20 -28 -41 -51 -64c-18 9 -40 26 -65 51c15 22 32 44 52 65z" />
    <glyph glyph-name="_484" horiz-adv-x="422" 
d="M238 342l65 41c21 -63 31 -126 31 -191c0 -58 -17 -104 -50 -139c-35 -35 -83 -53 -144 -53h-178c-10 0 -19 4 -26 11c-8 7 -12 16 -12 26c0 11 4 20 12 27c7 7 16 11 26 11h155c105 0 158 27 158 82s-12 117 -37 185zM-6 -100c22 -12 42 -28 59 -47
c-11 -20 -27 -40 -48 -59c-16 9 -35 25 -58 47c11 19 27 39 47 59zM138 -100c23 -12 43 -28 60 -47c-13 -23 -29 -42 -48 -59c-12 7 -31 22 -58 47c12 21 27 40 46 59zM69 -215c19 -9 39 -24 60 -46c-13 -22 -29 -42 -48 -60c-17 11 -36 27 -59 48c13 20 28 39 47 58z" />
    <glyph glyph-name="_485" horiz-adv-x="422" 
d="M238 342l65 41c21 -63 31 -126 31 -191c0 -58 -17 -104 -50 -139c-35 -35 -83 -53 -144 -53h-178c-10 0 -19 4 -26 11c-8 7 -12 16 -12 26c0 11 4 20 12 27c7 7 16 11 26 11h155c105 0 158 27 158 82s-12 117 -37 185zM94 566c22 -12 42 -28 59 -47
c-11 -20 -27 -40 -48 -59c-17 11 -37 27 -58 48c13 20 28 39 47 58zM238 566c23 -12 43 -28 60 -47c-13 -23 -29 -42 -48 -59c-13 8 -32 24 -58 48c11 19 27 39 46 58z" />
    <glyph glyph-name="_486" horiz-adv-x="422" 
d="M238 342l65 41c21 -63 31 -126 31 -191c0 -58 -17 -104 -50 -139c-35 -35 -83 -53 -144 -53h-178c-10 0 -19 4 -26 11c-8 7 -12 16 -12 26c0 11 4 20 12 27c7 7 16 11 26 11h155c105 0 158 27 158 82s-12 117 -37 185zM94 566c22 -12 42 -28 59 -47
c-11 -20 -27 -40 -48 -59c-17 11 -37 27 -58 48c13 20 28 39 47 58zM238 566c23 -12 43 -28 60 -47c-13 -23 -29 -42 -48 -59c-13 8 -32 24 -58 48c11 19 27 39 46 58zM163 682c22 -12 42 -28 59 -47c-11 -21 -26 -41 -47 -60c-17 11 -36 27 -59 48c11 19 27 39 47 59z" />
    <glyph glyph-name="_487" horiz-adv-x="422" 
d="M238 342l65 41c21 -63 31 -126 31 -191c0 -58 -17 -104 -50 -139c-35 -35 -83 -53 -144 -53h-178c-10 0 -19 4 -26 11c-8 7 -12 16 -12 26c0 11 4 20 12 27c7 7 16 11 26 11h155c105 0 158 27 158 82s-12 117 -37 185zM169 576c19 -10 41 -27 64 -52
c-12 -22 -29 -43 -51 -64c-17 10 -39 27 -65 51c11 18 29 40 52 65z" />
    <glyph glyph-name="_488" horiz-adv-x="422" 
d="M238 342l65 41c21 -63 31 -126 31 -191c0 -58 -17 -104 -50 -139c-35 -35 -83 -53 -144 -53h-178c-10 0 -19 4 -26 11c-8 7 -12 16 -12 26c0 11 4 20 12 27c7 7 16 11 26 11h155c105 0 158 27 158 82s-12 117 -37 185zM-7 -100c22 -12 42 -28 59 -47
c-11 -19 -26 -38 -47 -59c-16 9 -36 24 -59 47c11 19 27 39 47 59zM138 -100c22 -12 42 -28 59 -47c-13 -23 -29 -42 -48 -59c-16 9 -35 25 -58 47c12 22 28 42 47 59z" />
    <glyph glyph-name="_489" horiz-adv-x="422" 
d="M238 342l65 41c21 -63 31 -126 31 -191c0 -58 -17 -104 -50 -139c-35 -35 -83 -53 -144 -53h-178c-10 0 -19 4 -26 11c-8 7 -12 16 -12 26c0 11 4 20 12 27c7 7 16 11 26 11h155c105 0 158 27 158 82s-12 117 -37 185zM46 400l-4 37l64 43c-39 14 -58 36 -58 67
c0 32 9 58 28 77c17 19 36 28 59 28c32 0 58 -14 79 -43l-19 -24c-18 16 -37 24 -56 24c-15 0 -29 -6 -42 -18c-12 -11 -18 -20 -18 -29c0 -11 5 -20 16 -29c15 -13 34 -20 58 -20c18 0 47 10 87 29l2 -39c-65 -31 -130 -66 -196 -103z" />
    <glyph glyph-name="_490" horiz-adv-x="845" 
d="M562 334c35 0 65 -13 91 -40c16 -17 36 -47 61 -89c25 -44 45 -74 60 -90c25 -27 54 -40 88 -40h33v-75h-40c-65 0 -123 43 -174 130c-29 49 -47 79 -54 89c-21 27 -42 40 -64 40c-45 0 -81 -16 -110 -49c-25 -29 -37 -59 -37 -92c0 -14 14 -25 41 -33
c14 -4 44 -10 90 -17c87 -15 130 -40 130 -75c0 -61 -31 -116 -93 -163c-63 -49 -137 -73 -222 -73c-89 0 -156 26 -201 78c-41 45 -61 107 -61 184c0 62 10 124 31 186l51 -13c-16 -55 -24 -106 -24 -155c0 -137 71 -205 213 -205c59 0 114 16 165 48c47 30 75 62 84 96
c7 -4 -45 7 -155 33c-71 17 -107 49 -107 94c0 55 19 107 57 155c41 51 90 76 147 76z" />
    <glyph glyph-name="_491" horiz-adv-x="845" 
d="M770 -100c22 -13 43 -30 64 -52c-11 -20 -28 -41 -51 -64c-18 9 -40 26 -65 51c15 22 32 44 52 65zM562 334c35 0 65 -13 91 -40c16 -17 36 -47 61 -89c25 -44 45 -74 60 -90c25 -27 54 -40 88 -40h33v-75h-40c-65 0 -123 43 -174 130c-29 49 -47 79 -54 89
c-21 27 -42 40 -64 40c-45 0 -81 -16 -110 -49c-25 -29 -37 -59 -37 -92c0 -14 14 -25 41 -33c14 -4 44 -10 90 -17c87 -15 130 -40 130 -75c0 -61 -31 -116 -93 -163c-63 -49 -137 -73 -222 -73c-89 0 -156 26 -201 78c-41 45 -61 107 -61 184c0 62 10 124 31 186l51 -13
c-16 -55 -24 -106 -24 -155c0 -137 71 -205 213 -205c59 0 114 16 165 48c47 30 75 62 84 96c7 -4 -45 7 -155 33c-71 17 -107 49 -107 94c0 55 19 107 57 155c41 51 90 76 147 76z" />
    <glyph glyph-name="_492" horiz-adv-x="845" 
d="M732 -100c22 -12 42 -28 59 -47c-11 -20 -27 -40 -48 -59c-16 9 -35 25 -58 47c11 19 27 39 47 59zM876 -100c23 -12 43 -28 60 -47c-13 -23 -29 -42 -48 -59c-12 7 -31 22 -58 47c12 21 27 40 46 59zM807 -215c19 -9 39 -24 60 -46c-13 -22 -29 -42 -48 -60
c-17 11 -36 27 -59 48c13 20 28 39 47 58zM562 334c35 0 65 -13 91 -40c16 -17 36 -47 61 -89c25 -44 45 -74 60 -90c25 -27 54 -40 88 -40h33v-75h-40c-65 0 -123 43 -174 130c-29 49 -47 79 -54 89c-21 27 -42 40 -64 40c-45 0 -81 -16 -110 -49c-25 -29 -37 -59 -37 -92
c0 -14 14 -25 41 -33c14 -4 44 -10 90 -17c87 -15 130 -40 130 -75c0 -61 -31 -116 -93 -163c-63 -49 -137 -73 -222 -73c-89 0 -156 26 -201 78c-41 45 -61 107 -61 184c0 62 10 124 31 186l51 -13c-16 -55 -24 -106 -24 -155c0 -137 71 -205 213 -205c59 0 114 16 165 48
c47 30 75 62 84 96c7 -4 -45 7 -155 33c-71 17 -107 49 -107 94c0 55 19 107 57 155c41 51 90 76 147 76z" />
    <glyph glyph-name="_493" horiz-adv-x="845" 
d="M462 526c22 -12 42 -28 59 -47c-11 -20 -27 -40 -48 -59c-17 11 -37 27 -58 48c13 20 28 39 47 58zM606 526c23 -12 43 -28 60 -47c-13 -23 -29 -42 -48 -59c-13 8 -32 24 -58 48c11 19 27 39 46 58zM562 334c35 0 65 -13 91 -40c16 -17 36 -47 61 -89
c25 -44 45 -74 60 -90c25 -27 54 -40 88 -40h33v-75h-40c-65 0 -123 43 -174 130c-29 49 -47 79 -54 89c-21 27 -42 40 -64 40c-45 0 -81 -16 -110 -49c-25 -29 -37 -59 -37 -92c0 -14 14 -25 41 -33c14 -4 44 -10 90 -17c87 -15 130 -40 130 -75c0 -61 -31 -116 -93 -163
c-63 -49 -137 -73 -222 -73c-89 0 -156 26 -201 78c-41 45 -61 107 -61 184c0 62 10 124 31 186l51 -13c-16 -55 -24 -106 -24 -155c0 -137 71 -205 213 -205c59 0 114 16 165 48c47 30 75 62 84 96c7 -4 -45 7 -155 33c-71 17 -107 49 -107 94c0 55 19 107 57 155
c41 51 90 76 147 76z" />
    </font>
</defs>
</svg>
